#N canvas 0 22 450 1200 12;
#X obj 204 452 bng 20 250 50 0 empty empty 0 17 7 0 10 #fcfcfc #000000 #000000;
#X obj 204 476 print 0;
#X obj 204 500 print 0;
#X obj 204 520 bng 20 250 50 0 empty empty 1 17 7 0 10 #fcfcfc #000000 #000000;
#X obj 204 544 print 1;
#X obj 204 568 print 1;
#X obj 204 588 bng 20 250 50 0 empty empty 2 17 7 0 10 #fcfcfc #000000 #000000;
#X obj 204 612 print 2;
#X obj 204 636 print 2;
#X obj 204 656 bng 20 250 50 0 empty empty 3 17 7 0 10 #fcfcfc #000000 #000000;
#X obj 204 680 print 3;
#X obj 204 704 print 3;
#X obj 204 724 bng 20 250 50 0 empty empty 4 17 7 0 10 #fcfcfc #000000 #000000;
#X obj 204 748 print 4;
#X obj 204 772 print 4;
#X obj 204 792 bng 20 250 50 0 empty empty 5 17 7 0 10 #fcfcfc #000000 #000000;
#X obj 204 816 print 5;
#X obj 204 840 print 5;
#X obj 204 860 bng 20 250 50 0 empty empty 6 17 7 0 10 #fcfcfc #000000 #000000;
#X obj 204 884 print 6;
#X obj 204 908 print 6;
#X obj 204 928 bng 20 250 50 0 empty empty 7 17 7 0 10 #fcfcfc #000000 #000000;
#X obj 204 952 print 7;
#X obj 204 976 print 7;
#X obj 204 996 bng 20 250 50 0 empty empty 8 17 7 0 10 #fcfcfc #000000 #000000;
#X obj 204 1020 print 8;
#X obj 204 1044 print 8;
#X obj 204 1064 bng 20 250 50 0 empty empty 9 17 7 0 10 #fcfcfc #000000 #000000;
#X obj 204 1088 print 9;
#X obj 204 1112 print 9;
#X obj 204 1132 bng 20 250 50 0 empty empty 10 17 7 0 10 #fcfcfc #000000 #000000;
#X obj 204 1156 print 10;
#X obj 204 1180 print 10;
#X obj 204 1200 bng 20 250 50 0 empty empty 11 17 7 0 10 #fcfcfc #000000 #000000;
#X obj 204 1224 print 11;
#X obj 204 1248 print 11;
#X obj 204 1268 bng 20 250 50 0 empty empty 12 17 7 0 10 #fcfcfc #000000 #000000;
#X obj 204 1292 print 12;
#X obj 204 1316 print 12;
#X obj 204 1336 bng 20 250 50 0 empty empty 13 17 7 0 10 #fcfcfc #000000 #000000;
#X obj 204 1360 print 13;
#X obj 204 1384 print 13;
#X obj 204 1404 bng 20 250 50 0 empty empty 14 17 7 0 10 #fcfcfc #000000 #000000;
#X obj 204 1428 print 14;
#X obj 204 1452 print 14;
#X obj 204 1472 bng 20 250 50 0 empty empty 15 17 7 0 10 #fcfcfc #000000 #000000;
#X obj 204 1496 print 15;
#X obj 204 1520 print 15;
#X obj 204 1540 bng 20 250 50 0 empty empty 16 17 7 0 10 #fcfcfc #000000 #000000;
#X obj 204 1564 print 16;
#X obj 204 1588 print 16;
#X obj 204 1608 bng 20 250 50 0 empty empty 17 17 7 0 10 #fcfcfc #000000 #000000;
#X obj 204 1632 print 17;
#X obj 204 1656 print 17;
#X obj 204 1676 bng 20 250 50 0 empty empty 18 17 7 0 10 #fcfcfc #000000 #000000;
#X obj 204 1700 print 18;
#X obj 204 1724 print 18;
#X obj 204 1744 bng 20 250 50 0 empty empty 19 17 7 0 10 #fcfcfc #000000 #000000;
#X obj 204 1768 print 19;
#X obj 204 1792 print 19;
#X obj 204 1812 bng 20 250 50 0 empty empty 20 17 7 0 10 #fcfcfc #000000 #000000;
#X obj 204 1836 print 20;
#X obj 204 1860 print 20;
#X obj 204 1880 bng 20 250 50 0 empty empty 21 17 7 0 10 #fcfcfc #000000 #000000;
#X obj 204 1904 print 21;
#X obj 204 1928 print 21;
#X obj 204 1948 bng 20 250 50 0 empty empty 22 17 7 0 10 #fcfcfc #000000 #000000;
#X obj 204 1972 print 22;
#X obj 204 1996 print 22;
#X obj 204 2016 bng 20 250 50 0 empty empty 23 17 7 0 10 #fcfcfc #000000 #000000;
#X obj 204 2040 print 23;
#X obj 204 2064 print 23;
#X obj 204 2084 bng 20 250 50 0 empty empty 24 17 7 0 10 #fcfcfc #000000 #000000;
#X obj 204 2108 print 24;
#X obj 204 2132 print 24;
#X connect 0 0 1 0;
#X connect 0 0 2 0;
#X connect 3 0 4 0;
#X connect 3 0 5 0;
#X connect 6 0 7 0;
#X connect 6 0 8 0;
#X connect 9 0 10 0;
#X connect 9 0 11 0;
#X connect 12 0 13 0;
#X connect 12 0 14 0;
#X connect 15 0 16 0;
#X connect 15 0 17 0;
#X connect 18 0 19 0;
#X connect 18 0 20 0;
#X connect 21 0 22 0;
#X connect 21 0 23 0;
#X connect 24 0 25 0;
#X connect 24 0 26 0;
#X connect 27 0 28 0;
#X connect 27 0 29 0;
#X connect 30 0 31 0;
#X connect 30 0 32 0;
#X connect 33 0 34 0;
#X connect 33 0 35 0;
#X connect 36 0 37 0;
#X connect 36 0 38 0;
#X connect 39 0 40 0;
#X connect 39 0 41 0;
#X connect 42 0 43 0;
#X connect 42 0 44 0;
#X connect 45 0 46 0;
#X connect 45 0 47 0;
#X connect 48 0 49 0;
#X connect 48 0 50 0;
#X connect 51 0 52 0;
#X connect 51 0 53 0;
#X connect 54 0 55 0;
#X connect 54 0 56 0;
#X connect 57 0 58 0;
#X connect 57 0 59 0;
#X connect 60 0 61 0;
#X connect 60 0 62 0;
#X connect 63 0 64 0;
#X connect 63 0 65 0;
#X connect 66 0 67 0;
#X connect 66 0 68 0;
#X connect 69 0 70 0;
#X connect 69 0 71 0;
#X connect 72 0 73 0;
#X connect 72 0 74 0;
