#N canvas 0 22 450 300 12;
#X obj 910 460 dac~;
#X obj 10 40 osc~ 110;
#X obj 70 100 *~ 0.125;
#X obj 10 100 osc~ 220;
#X obj 70 160 *~ 0.125;
#X obj 10 160 osc~ 330;
#X obj 70 220 *~ 0.125;
#X obj 10 220 osc~ 440;
#X obj 70 280 *~ 0.125;
#X obj 10 280 osc~ 550;
#X obj 70 340 *~ 0.125;
#X obj 10 340 osc~ 660;
#X obj 70 400 *~ 0.125;
#X obj 10 400 osc~ 770;
#X obj 10 430 *~ 0.125;
#X connect 1 0 2 0;
#X connect 2 0 0 0;
#X connect 2 0 0 1;
#X connect 3 0 4 0;
#X connect 4 0 0 0;
#X connect 4 0 0 1;
#X connect 5 0 6 0;
#X connect 6 0 0 0;
#X connect 6 0 0 1;
#X connect 7 0 8 0;
#X connect 8 0 0 0;
#X connect 8 0 0 1;
#X connect 9 0 10 0;
#X connect 10 0 0 0;
#X connect 10 0 0 1;
#X connect 11 0 12 0;
#X connect 12 0 0 0;
#X connect 12 0 0 1;
#X connect 13 0 14 0;
#X connect 14 0 0 0;
#X connect 14 0 0 1;
