#N canvas 0 22 450 300 12;
#X obj 12 780 dac~;
#X obj 12 804 phasor~ -0.5;
#X obj 12 876 *~;
#X obj 12 900 lop~ 100;
#X obj 12 924 osc~ 110;
#X obj 102 972 *~ 0.125;
#X obj 102 924 *~;
#X obj 12 972 osc~ 220;
#X obj 102 1020 *~ 0.125;
#X obj 102 1428 *~;
#X obj 12 1044 osc~ 330;
#X obj 102 1092 *~ 0.125;
#X obj 102 1452 *~;
#X obj 12 1116 osc~ 440;
#X obj 102 1164 *~ 0.125;
#X obj 102 1476 *~;
#X obj 12 1188 osc~ 550;
#X obj 102 1236 *~ 0.125;
#X obj 102 1500 *~;
#X obj 12 1260 osc~ 660;
#X obj 102 1308 *~ 0.125;
#X obj 102 1524 *~;
#X obj 12 1332 osc~ 770;
#X obj 102 1380 *~ 0.125;
#X obj 102 1548 *~;
#X connect 1 0 2 0;
#X connect 1 0 2 1;
#X connect 2 0 3 0;
#X connect 4 0 5 0;
#X connect 5 0 6 0;
#X connect 3 0 6 1;
#X connect 6 0 0 0;
#X connect 6 0 0 1;
#X connect 7 0 8 0;
#X connect 8 0 9 0;
#X connect 3 0 9 1;
#X connect 9 0 0 0;
#X connect 9 0 0 1;
#X connect 10 0 11 0;
#X connect 11 0 12 0;
#X connect 3 0 12 1;
#X connect 12 0 0 0;
#X connect 12 0 0 1;
#X connect 13 0 14 0;
#X connect 14 0 15 0;
#X connect 3 0 15 1;
#X connect 15 0 0 0;
#X connect 15 0 0 1;
#X connect 16 0 17 0;
#X connect 17 0 18 0;
#X connect 3 0 18 1;
#X connect 18 0 0 0;
#X connect 18 0 0 1;
#X connect 19 0 20 0;
#X connect 20 0 21 0;
#X connect 3 0 21 1;
#X connect 21 0 0 0;
#X connect 21 0 0 1;
#X connect 22 0 23 0;
#X connect 23 0 24 0;
#X connect 3 0 24 1;
#X connect 24 0 0 0;
#X connect 24 0 0 1;
