#N canvas 0 22 450 300 12;
#X obj 10 10 loadbang;
#X obj 10 68 del 10;
#X msg 10 92 0.5 100;
#X obj 10 116 line~;
#X obj 10 140 *~;
#X obj 10 164 clip~ -0.707 0.707;
#X obj 10 188 hip~ 3;
#X obj 10 212 dac~ 1;
#X obj 10 236 line~;
#X obj 10 260 *~;
#X obj 10 284 clip~ -0.707 0.707;
#X obj 10 308 hip~ 3;
#X obj 10 332 dac~ 2;
#X obj 10 332 osc~ 0.030768498501985677;
#X obj 10 390 *~ 0.6735053936163462;
#X obj 10 414 +~ 65.16292308707584;
#X obj 10 438 mtof~;
#X obj 10 462 osc~;
#X obj 10 486 *~ 0.046485260770975055;
#X obj 217 10 osc~ 0.07936233112517393;
#X obj 217 68 *~ 0.04506585365232185;
#X obj 217 92 +~ 65.95150761663683;
#X obj 217 116 mtof~;
#X obj 217 140 osc~;
#X obj 217 164 *~ 0.04535147392290249;
#X obj 415 10 osc~ 0.07981997560805638;
#X obj 415 68 *~ 0.6336695420605032;
#X obj 415 92 +~ 66.71745508148084;
#X obj 415 116 mtof~;
#X obj 415 140 osc~;
#X obj 415 164 *~ 0.04421768707482993;
#X obj 613 10 osc~ 0.056233838887928336;
#X obj 613 68 *~ 0.16680963744054333;
#X obj 613 92 +~ 67.59473748913722;
#X obj 613 116 mtof~;
#X obj 613 140 osc~;
#X obj 613 164 *~ 0.043083900226757364;
#X obj 820 10 osc~ 0.06037034304216546;
#X obj 820 68 *~ 0.3534839173180429;
#X obj 820 92 +~ 73.53639376378115;
#X obj 820 116 mtof~;
#X obj 820 140 osc~;
#X obj 820 164 *~ 0.0419501133786848;
#X obj 1009 10 osc~ 0.08542807330414495;
#X obj 1009 68 *~ 0.02040480505222934;
#X obj 1009 92 +~ 71.9589618345754;
#X obj 1009 116 mtof~;
#X obj 1009 140 osc~;
#X obj 1009 164 *~ 0.04081632653061225;
#X obj 1207 10 osc~ 0.0026023205877765856;
#X obj 1207 68 *~ 0.23930260999947164;
#X obj 1207 92 +~ 68.3512814846583;
#X obj 1207 116 mtof~;
#X obj 1207 140 osc~;
#X obj 1207 164 *~ 0.03968253968253968;
#X obj 1405 10 osc~ 0.07147615617014011;
#X obj 1405 68 *~ 0.04382553752980803;
#X obj 1405 92 +~ 75.94691899297918;
#X obj 1405 116 mtof~;
#X obj 1405 140 osc~;
#X obj 1405 164 *~ 0.03854875283446712;
#X obj 1603 10 osc~ 0.07559067385729577;
#X obj 1603 68 *~ 0.075332207580809;
#X obj 1603 92 +~ 67.96591064607973;
#X obj 1603 116 mtof~;
#X obj 1603 140 osc~;
#X obj 1603 164 *~ 0.03741496598639456;
#X obj 1801 10 osc~ 0.03684180784725432;
#X obj 1801 68 *~ 0.12223102230472613;
#X obj 1801 92 +~ 82.01295453286822;
#X obj 1801 116 mtof~;
#X obj 1801 140 osc~;
#X obj 1801 164 *~ 0.03628117913832199;
#X obj 1999 10 osc~ 0.09181714083589418;
#X obj 1999 68 *~ 0.11403016930138504;
#X obj 1999 92 +~ 80.67423678633506;
#X obj 1999 116 mtof~;
#X obj 1999 140 osc~;
#X obj 1999 164 *~ 0.035147392290249435;
#X obj 2206 10 osc~ 0.07305425245725454;
#X obj 2206 68 *~ 0.16205055650196332;
#X obj 2206 92 +~ 79.69227350417393;
#X obj 2206 116 mtof~;
#X obj 2206 140 osc~;
#X obj 2206 164 *~ 0.03401360544217687;
#X obj 2404 10 osc~ 0.0861279416046901;
#X obj 2404 68 *~ 0.1068990758586261;
#X obj 2404 92 +~ 77.10138094411309;
#X obj 2404 116 mtof~;
#X obj 2404 140 osc~;
#X obj 2404 164 *~ 0.032879818594104306;
#X obj 2611 10 osc~ 0.06040748830966885;
#X obj 2611 68 *~ 0.09770766868516667;
#X obj 2611 92 +~ 80.79256445501919;
#X obj 2611 116 mtof~;
#X obj 2611 140 osc~;
#X obj 2611 164 *~ 0.03174603174603175;
#X obj 2809 10 osc~ 0.08713973873681446;
#X obj 2809 68 *~ 0.1198084812228049;
#X obj 2809 92 +~ 88.05361166841934;
#X obj 2809 116 mtof~;
#X obj 2809 140 osc~;
#X obj 2809 164 *~ 0.03061224489795918;
#X obj 3007 10 osc~ 0.09250252614199737;
#X obj 3007 68 *~ 0.019268719576823995;
#X obj 3007 92 +~ 83.3545058796171;
#X obj 3007 116 mtof~;
#X obj 3007 140 osc~;
#X obj 3007 164 *~ 0.02947845804988662;
#X obj 3205 10 osc~ 0.06072152418579662;
#X obj 3205 68 *~ 0.02514090177918328;
#X obj 3205 92 +~ 85.66687244890203;
#X obj 3205 116 mtof~;
#X obj 3205 140 osc~;
#X obj 3205 164 *~ 0.028344671201814057;
#X obj 3412 10 osc~ 0.09699639209889326;
#X obj 3412 68 *~ 0.022851298199172174;
#X obj 3412 92 +~ 65.04796014207406;
#X obj 3412 116 mtof~;
#X obj 3412 140 osc~;
#X obj 3412 164 *~ 0.027210884353741492;
#X obj 3619 10 osc~ 0.07449226752604003;
#X obj 3619 68 *~ 0.003879217597190162;
#X obj 3619 92 +~ 67.76750178172284;
#X obj 3619 116 mtof~;
#X obj 3619 140 osc~;
#X obj 3619 164 *~ 0.026077097505668934;
#X obj 3826 10 osc~ 0.047627133320104466;
#X obj 3826 68 *~ 0.03705811882912412;
#X obj 3826 92 +~ 78.71951820334061;
#X obj 3826 116 mtof~;
#X obj 3826 140 osc~;
#X obj 3826 164 *~ 0.024943310657596373;
#X obj 4033 10 osc~ 0.04078660680649652;
#X obj 4033 68 *~ 0.036138921024788676;
#X obj 4033 92 +~ 94.96317116808848;
#X obj 4033 116 mtof~;
#X obj 4033 140 osc~;
#X obj 4033 164 *~ 0.023809523809523808;
#X obj 4240 10 osc~ 0.007832122865521929;
#X obj 4240 68 *~ 0.062324770674243385;
#X obj 4240 92 +~ 80.54970263416931;
#X obj 4240 116 mtof~;
#X obj 4240 140 osc~;
#X obj 4240 164 *~ 0.022675736961451243;
#X obj 4447 10 osc~ 0.0686765076868948;
#X obj 4447 68 *~ 0.026675034326536447;
#X obj 4447 92 +~ 101.25891497886653;
#X obj 4447 116 mtof~;
#X obj 4447 140 osc~;
#X obj 4447 164 *~ 0.021541950113378682;
#X obj 4654 10 osc~ 0.01864039722649613;
#X obj 4654 68 *~ 0.05049688679171951;
#X obj 4654 92 +~ 99.7465743936806;
#X obj 4654 116 mtof~;
#X obj 4654 140 osc~;
#X obj 4654 164 *~ 0.020408163265306124;
#X obj 4861 10 osc~ 0.04371584034159457;
#X obj 4861 68 *~ 0.022396546940145274;
#X obj 4861 92 +~ 93.59321063702933;
#X obj 4861 116 mtof~;
#X obj 4861 140 osc~;
#X obj 4861 164 *~ 0.01927437641723356;
#X obj 5059 10 osc~ 0.056758549793076846;
#X obj 5059 68 *~ 0.06415697005804272;
#X obj 5059 92 +~ 68.37505675882684;
#X obj 5059 116 mtof~;
#X obj 5059 140 osc~;
#X obj 5059 164 *~ 0.018140589569160995;
#X obj 5266 10 osc~ 0.03011707293475252;
#X obj 5266 68 *~ 0.06963481927690657;
#X obj 5266 92 +~ 75.69138051246469;
#X obj 5266 116 mtof~;
#X obj 5266 140 osc~;
#X obj 5266 164 *~ 0.017006802721088433;
#X obj 5473 10 osc~ 0.0010141443949425288;
#X obj 5473 68 *~ 0.027306189072388416;
#X obj 5473 92 +~ 92.87744333983414;
#X obj 5473 116 mtof~;
#X obj 5473 140 osc~;
#X obj 5473 164 *~ 0.015873015873015876;
#X obj 5680 10 osc~ 0.05331806038738838;
#X obj 5680 68 *~ 0.016904341654611545;
#X obj 5680 92 +~ 79.85691125514047;
#X obj 5680 116 mtof~;
#X obj 5680 140 osc~;
#X obj 5680 164 *~ 0.01473922902494331;
#X obj 5878 10 osc~ 0.05251129752496958;
#X obj 5878 68 *~ 0.06126449933268865;
#X obj 5878 92 +~ 106.41626791432702;
#X obj 5878 116 mtof~;
#X obj 5878 140 osc~;
#X obj 5878 164 *~ 0.013605442176870746;
#X obj 6085 10 osc~ 0.04293361655907786;
#X obj 6085 68 *~ 0.05061312892088217;
#X obj 6085 92 +~ 81.19585517938698;
#X obj 6085 116 mtof~;
#X obj 6085 140 osc~;
#X obj 6085 164 *~ 0.012471655328798183;
#X obj 6292 10 osc~ 0.021635313855237204;
#X obj 6292 68 *~ 0.06089682132215737;
#X obj 6292 92 +~ 99.06059213340801;
#X obj 6292 116 mtof~;
#X obj 6292 140 osc~;
#X obj 6292 164 *~ 0.011337868480725625;
#X obj 6499 10 osc~ 0.07435017303271099;
#X obj 6499 68 *~ 0.02104187496076206;
#X obj 6499 92 +~ 111.45682592346891;
#X obj 6499 116 mtof~;
#X obj 6499 140 osc~;
#X obj 6499 164 *~ 0.010204081632653062;
#X obj 6706 10 osc~ 0.08277310820161254;
#X obj 6706 68 *~ 0.0381909452988641;
#X obj 6706 92 +~ 108.22692496980812;
#X obj 6706 116 mtof~;
#X obj 6706 140 osc~;
#X obj 6706 164 *~ 0.009070294784580497;
#X obj 6913 10 osc~ 0.09809270631916417;
#X obj 6913 68 *~ 0.053274879908321325;
#X obj 6913 92 +~ 83.34214659501814;
#X obj 6913 116 mtof~;
#X obj 6913 140 osc~;
#X obj 6913 164 *~ 0.007936507936507934;
#X obj 7120 10 osc~ 0.00450502770443435;
#X obj 7120 68 *~ 0.04664632001334639;
#X obj 7120 92 +~ 123.25196528084557;
#X obj 7120 116 mtof~;
#X obj 7120 140 osc~;
#X obj 7120 164 *~ 0.006802721088435376;
#X obj 7327 10 osc~ 0.0015960021525831649;
#X obj 7327 68 *~ 0.011733155906993711;
#X obj 7327 92 +~ 75.89256958373699;
#X obj 7327 116 mtof~;
#X obj 7327 140 osc~;
#X obj 7327 164 *~ 0.005668934240362813;
#X obj 7534 10 osc~ 0.04086689934039322;
#X obj 7534 68 *~ 0.024918667069515486;
#X obj 7534 92 +~ 111.77836800471344;
#X obj 7534 116 mtof~;
#X obj 7534 140 osc~;
#X obj 7534 164 *~ 0.004535147392290249;
#X obj 7741 10 osc~ 0.06497799689482846;
#X obj 7741 68 *~ 0.020628214048140966;
#X obj 7741 92 +~ 108.32453522219018;
#X obj 7741 116 mtof~;
#X obj 7741 140 osc~;
#X obj 7741 164 *~ 0.003401360544217685;
#X obj 7948 10 osc~ 0.08009241637442362;
#X obj 7948 68 *~ 0.026184594644330046;
#X obj 7948 92 +~ 102.44647405091467;
#X obj 7948 116 mtof~;
#X obj 7948 140 osc~;
#X obj 7948 164 *~ 0.002267573696145127;
#X obj 8155 10 osc~ 0.01000449428010023;
#X obj 8155 68 *~ 0.041529393331194715;
#X obj 8155 92 +~ 130.38225201260366;
#X obj 8155 116 mtof~;
#X obj 8155 140 osc~;
#X obj 8155 164 *~ 0.0011337868480725635;
#X obj 8371 10 osc~ 0.07275332271496235;
#X obj 8371 68 *~ 0.7445140352519222;
#X obj 8371 92 +~ 65.867052090796;
#X obj 8371 116 mtof~;
#X obj 8371 140 osc~;
#X obj 8371 164 *~ 0.046485260770975055;
#X obj 8578 10 osc~ 0.03836324455669136;
#X obj 8578 68 *~ 0.3217897415148062;
#X obj 8578 92 +~ 67.6523334533354;
#X obj 8578 116 mtof~;
#X obj 8578 140 osc~;
#X obj 8578 164 *~ 0.04535147392290249;
#X obj 8776 10 osc~ 0.08881273655899301;
#X obj 8776 68 *~ 0.46258932645420386;
#X obj 8776 92 +~ 68.39460977963796;
#X obj 8776 116 mtof~;
#X obj 8776 140 osc~;
#X obj 8776 164 *~ 0.04421768707482993;
#X obj 8974 10 osc~ 0.094889268887253;
#X obj 8974 68 *~ 0.29416015758180114;
#X obj 8974 92 +~ 70.51759783471249;
#X obj 8974 116 mtof~;
#X obj 8974 140 osc~;
#X obj 8974 164 *~ 0.043083900226757364;
#X obj 9181 10 osc~ 0.06237879515214337;
#X obj 9181 68 *~ 0.3449665412958255;
#X obj 9181 92 +~ 65.46749639919803;
#X obj 9181 116 mtof~;
#X obj 9181 140 osc~;
#X obj 9181 164 *~ 0.0419501133786848;
#X obj 9370 10 osc~ 0.06660967164417313;
#X obj 9370 68 *~ 0.17118490213872087;
#X obj 9370 92 +~ 69.93601252827106;
#X obj 9370 116 mtof~;
#X obj 9370 140 osc~;
#X obj 9370 164 *~ 0.04081632653061225;
#X obj 9568 10 osc~ 0.07820724284943835;
#X obj 9568 68 *~ 0.2841035696917384;
#X obj 9568 92 +~ 66.71973350698312;
#X obj 9568 116 mtof~;
#X obj 9568 140 osc~;
#X obj 9568 164 *~ 0.03968253968253968;
#X obj 9766 10 osc~ 0.09197721311491733;
#X obj 9766 68 *~ 0.13406078268144853;
#X obj 9766 92 +~ 70.13131504705711;
#X obj 9766 116 mtof~;
#X obj 9766 140 osc~;
#X obj 9766 164 *~ 0.03854875283446712;
#X obj 9964 10 osc~ 0.00047128172873093236;
#X obj 9964 68 *~ 0.21725368691834213;
#X obj 9964 92 +~ 65.93193868831932;
#X obj 9964 116 mtof~;
#X obj 9964 140 osc~;
#X obj 9964 164 *~ 0.03741496598639456;
#X obj 10162 10 osc~ 0.04398343178494736;
#X obj 10162 68 *~ 0.10150418777287126;
#X obj 10162 92 +~ 75.9823494553709;
#X obj 10162 116 mtof~;
#X obj 10162 140 osc~;
#X obj 10162 164 *~ 0.03628117913832199;
#X obj 10360 10 osc~ 0.044735267700119465;
#X obj 10360 68 *~ 0.0921452390928294;
#X obj 10360 92 +~ 68.2616687787289;
#X obj 10360 116 mtof~;
#X obj 10360 140 osc~;
#X obj 10360 164 *~ 0.035147392290249435;
#X obj 10567 10 osc~ 0.018191094409665622;
#X obj 10567 68 *~ 0.09936557721550343;
#X obj 10567 92 +~ 83.03424955722826;
#X obj 10567 116 mtof~;
#X obj 10567 140 osc~;
#X obj 10567 164 *~ 0.03401360544217687;
#X obj 10765 10 osc~ 0.08985855561171743;
#X obj 10765 68 *~ 0.143030443370476;
#X obj 10765 92 +~ 83.80993961602098;
#X obj 10765 116 mtof~;
#X obj 10765 140 osc~;
#X obj 10765 164 *~ 0.032879818594104306;
#X obj 10972 10 osc~ 0.08536141117778973;
#X obj 10972 68 *~ 0.07950437569884139;
#X obj 10972 92 +~ 85.6873735676794;
#X obj 10972 116 mtof~;
#X obj 10972 140 osc~;
#X obj 10972 164 *~ 0.03174603174603175;
#X obj 11170 10 osc~ 0.009963669666504627;
#X obj 11170 68 *~ 0.1307564990794148;
#X obj 11170 92 +~ 85.19684475427866;
#X obj 11170 116 mtof~;
#X obj 11170 140 osc~;
#X obj 11170 164 *~ 0.03061224489795918;
#X obj 11368 10 osc~ 0.09650530740471816;
#X obj 11368 68 *~ 0.07307293937159894;
#X obj 11368 92 +~ 82.64127638178154;
#X obj 11368 116 mtof~;
#X obj 11368 140 osc~;
#X obj 11368 164 *~ 0.02947845804988662;
#X obj 11566 10 osc~ 0.07322348345657605;
#X obj 11566 68 *~ 0.00233251000454845;
#X obj 11566 92 +~ 89.37299506566166;
#X obj 11566 116 mtof~;
#X obj 11566 140 osc~;
#X obj 11566 164 *~ 0.028344671201814057;
#X obj 11773 10 osc~ 0.08612511210328756;
#X obj 11773 68 *~ 0.03024952573964934;
#X obj 11773 92 +~ 76.03548814518284;
#X obj 11773 116 mtof~;
#X obj 11773 140 osc~;
#X obj 11773 164 *~ 0.027210884353741492;
#X obj 11980 10 osc~ 0.07269491249905165;
#X obj 11980 68 *~ 0.014001225604149736;
#X obj 11980 92 +~ 94.1791337299469;
#X obj 11980 116 mtof~;
#X obj 11980 140 osc~;
#X obj 11980 164 *~ 0.026077097505668934;
#X obj 12187 10 osc~ 0.014443387218621317;
#X obj 12187 68 *~ 0.036909488358172135;
#X obj 12187 92 +~ 82.42026496173435;
#X obj 12187 116 mtof~;
#X obj 12187 140 osc~;
#X obj 12187 164 *~ 0.024943310657596373;
#X obj 12394 10 osc~ 0.03505477729878668;
#X obj 12394 68 *~ 0.09125836684721729;
#X obj 12394 92 +~ 93.06542415760761;
#X obj 12394 116 mtof~;
#X obj 12394 140 osc~;
#X obj 12394 164 *~ 0.023809523809523808;
#X obj 12601 10 osc~ 0.08083081527671183;
#X obj 12601 68 *~ 0.03215305806653033;
#X obj 12601 92 +~ 75.39764641311359;
#X obj 12601 116 mtof~;
#X obj 12601 140 osc~;
#X obj 12601 164 *~ 0.022675736961451243;
#X obj 12808 10 osc~ 0.042007800122882424;
#X obj 12808 68 *~ 0.009728144292773504;
#X obj 12808 92 +~ 99.75452796300345;
#X obj 12808 116 mtof~;
#X obj 12808 140 osc~;
#X obj 12808 164 *~ 0.021541950113378682;
#X obj 13015 10 osc~ 0.049750244570817906;
#X obj 13015 68 *~ 0.07511071179973126;
#X obj 13015 92 +~ 75.44409213416922;
#X obj 13015 116 mtof~;
#X obj 13015 140 osc~;
#X obj 13015 164 *~ 0.020408163265306124;
#X obj 13222 10 osc~ 0.008147830387467548;
#X obj 13222 68 *~ 0.05386508892720729;
#X obj 13222 92 +~ 76.40292681599598;
#X obj 13222 116 mtof~;
#X obj 13222 140 osc~;
#X obj 13222 164 *~ 0.01927437641723356;
#X obj 13420 10 osc~ 0.09013512890982328;
#X obj 13420 68 *~ 0.060987769360206404;
#X obj 13420 92 +~ 77.77272143933985;
#X obj 13420 116 mtof~;
#X obj 13420 140 osc~;
#X obj 13420 164 *~ 0.018140589569160995;
#X obj 13627 10 osc~ 0.003982598279966709;
#X obj 13627 68 *~ 0.0026884061008977072;
#X obj 13627 92 +~ 81.56549305520156;
#X obj 13627 116 mtof~;
#X obj 13627 140 osc~;
#X obj 13627 164 *~ 0.017006802721088433;
#X obj 13834 10 osc~ 0.04253370793730369;
#X obj 13834 68 *~ 0.0017990888475117237;
#X obj 13834 92 +~ 95.57015338792128;
#X obj 13834 116 mtof~;
#X obj 13834 140 osc~;
#X obj 13834 164 *~ 0.015873015873015876;
#X obj 14041 10 osc~ 0.05220652750963803;
#X obj 14041 68 *~ 0.004496667182860003;
#X obj 14041 92 +~ 75.26505863865435;
#X obj 14041 116 mtof~;
#X obj 14041 140 osc~;
#X obj 14041 164 *~ 0.01473922902494331;
#X obj 14239 10 osc~ 0.02737851915238674;
#X obj 14239 68 *~ 0.017385866702833774;
#X obj 14239 92 +~ 74.41521929736464;
#X obj 14239 116 mtof~;
#X obj 14239 140 osc~;
#X obj 14239 164 *~ 0.013605442176870746;
#X obj 14446 10 osc~ 0.09793180929885216;
#X obj 14446 68 *~ 0.025136373296224;
#X obj 14446 92 +~ 110.45413115234615;
#X obj 14446 116 mtof~;
#X obj 14446 140 osc~;
#X obj 14446 164 *~ 0.012471655328798183;
#X obj 14653 10 osc~ 0.008183147742178;
#X obj 14653 68 *~ 0.02369456505859764;
#X obj 14653 92 +~ 66.68676931626094;
#X obj 14653 116 mtof~;
#X obj 14653 140 osc~;
#X obj 14653 164 *~ 0.011337868480725625;
#X obj 14860 10 osc~ 0.03806254564259355;
#X obj 14860 68 *~ 0.03870440553032118;
#X obj 14860 92 +~ 92.97291037262063;
#X obj 14860 116 mtof~;
#X obj 14860 140 osc~;
#X obj 14860 164 *~ 0.010204081632653062;
#X obj 15067 10 osc~ 0.028434130713559637;
#X obj 15067 68 *~ 0.004743123759845627;
#X obj 15067 92 +~ 101.09523868478722;
#X obj 15067 116 mtof~;
#X obj 15067 140 osc~;
#X obj 15067 164 *~ 0.009070294784580497;
#X obj 15274 10 osc~ 0.005634122254222374;
#X obj 15274 68 *~ 0.02243628828221498;
#X obj 15274 92 +~ 78.61578109401964;
#X obj 15274 116 mtof~;
#X obj 15274 140 osc~;
#X obj 15274 164 *~ 0.007936507936507934;
#X obj 15481 10 osc~ 0.08808863845134922;
#X obj 15481 68 *~ 0.04482788266058753;
#X obj 15481 92 +~ 93.66584812410383;
#X obj 15481 116 mtof~;
#X obj 15481 140 osc~;
#X obj 15481 164 *~ 0.006802721088435376;
#X obj 15688 10 osc~ 0.043096009055896944;
#X obj 15688 68 *~ 0.014574965195836748;
#X obj 15688 92 +~ 106.98929269996762;
#X obj 15688 116 mtof~;
#X obj 15688 140 osc~;
#X obj 15688 164 *~ 0.005668934240362813;
#X obj 15895 10 osc~ 0.006073181414250906;
#X obj 15895 68 *~ 0.036887441016577587;
#X obj 15895 92 +~ 121.4958522807232;
#X obj 15895 116 mtof~;
#X obj 15895 140 osc~;
#X obj 15895 164 *~ 0.004535147392290249;
#X obj 16102 10 osc~ 0.03233166680894602;
#X obj 16102 68 *~ 0.0408577314797339;
#X obj 16102 92 +~ 99.49274504939109;
#X obj 16102 116 mtof~;
#X obj 16102 140 osc~;
#X obj 16102 164 *~ 0.003401360544217685;
#X obj 16309 10 osc~ 0.0004241763668073273;
#X obj 16309 68 *~ 0.022196516723346604;
#X obj 16309 92 +~ 101.99226529884722;
#X obj 16309 116 mtof~;
#X obj 16309 140 osc~;
#X obj 16309 164 *~ 0.002267573696145127;
#X obj 16516 10 osc~ 0.03052056107930108;
#X obj 16516 68 *~ 0.01596566745463525;
#X obj 16516 92 +~ 102.68141158592496;
#X obj 16516 116 mtof~;
#X obj 16516 140 osc~;
#X obj 16516 164 *~ 0.0011337868480725635;
#X connect 0 0 1 0;
#X connect 1 0 2 0;
#X connect 2 0 3 0;
#X connect 3 0 4 0;
#X connect 4 0 5 0;
#X connect 5 0 6 0;
#X connect 6 0 7 0;
#X connect 2 0 8 0;
#X connect 8 0 9 0;
#X connect 9 0 10 0;
#X connect 10 0 11 0;
#X connect 11 0 12 0;
#X connect 13 0 14 0;
#X connect 14 0 15 0;
#X connect 15 0 16 0;
#X connect 16 0 17 0;
#X connect 17 0 18 0;
#X connect 18 0 4 1;
#X connect 19 0 20 0;
#X connect 20 0 21 0;
#X connect 21 0 22 0;
#X connect 22 0 23 0;
#X connect 23 0 24 0;
#X connect 24 0 4 1;
#X connect 25 0 26 0;
#X connect 26 0 27 0;
#X connect 27 0 28 0;
#X connect 28 0 29 0;
#X connect 29 0 30 0;
#X connect 30 0 4 1;
#X connect 31 0 32 0;
#X connect 32 0 33 0;
#X connect 33 0 34 0;
#X connect 34 0 35 0;
#X connect 35 0 36 0;
#X connect 36 0 4 1;
#X connect 37 0 38 0;
#X connect 38 0 39 0;
#X connect 39 0 40 0;
#X connect 40 0 41 0;
#X connect 41 0 42 0;
#X connect 42 0 4 1;
#X connect 43 0 44 0;
#X connect 44 0 45 0;
#X connect 45 0 46 0;
#X connect 46 0 47 0;
#X connect 47 0 48 0;
#X connect 48 0 4 1;
#X connect 49 0 50 0;
#X connect 50 0 51 0;
#X connect 51 0 52 0;
#X connect 52 0 53 0;
#X connect 53 0 54 0;
#X connect 54 0 4 1;
#X connect 55 0 56 0;
#X connect 56 0 57 0;
#X connect 57 0 58 0;
#X connect 58 0 59 0;
#X connect 59 0 60 0;
#X connect 60 0 4 1;
#X connect 61 0 62 0;
#X connect 62 0 63 0;
#X connect 63 0 64 0;
#X connect 64 0 65 0;
#X connect 65 0 66 0;
#X connect 66 0 4 1;
#X connect 67 0 68 0;
#X connect 68 0 69 0;
#X connect 69 0 70 0;
#X connect 70 0 71 0;
#X connect 71 0 72 0;
#X connect 72 0 4 1;
#X connect 73 0 74 0;
#X connect 74 0 75 0;
#X connect 75 0 76 0;
#X connect 76 0 77 0;
#X connect 77 0 78 0;
#X connect 78 0 4 1;
#X connect 79 0 80 0;
#X connect 80 0 81 0;
#X connect 81 0 82 0;
#X connect 82 0 83 0;
#X connect 83 0 84 0;
#X connect 84 0 4 1;
#X connect 85 0 86 0;
#X connect 86 0 87 0;
#X connect 87 0 88 0;
#X connect 88 0 89 0;
#X connect 89 0 90 0;
#X connect 90 0 4 1;
#X connect 91 0 92 0;
#X connect 92 0 93 0;
#X connect 93 0 94 0;
#X connect 94 0 95 0;
#X connect 95 0 96 0;
#X connect 96 0 4 1;
#X connect 97 0 98 0;
#X connect 98 0 99 0;
#X connect 99 0 100 0;
#X connect 100 0 101 0;
#X connect 101 0 102 0;
#X connect 102 0 4 1;
#X connect 103 0 104 0;
#X connect 104 0 105 0;
#X connect 105 0 106 0;
#X connect 106 0 107 0;
#X connect 107 0 108 0;
#X connect 108 0 4 1;
#X connect 109 0 110 0;
#X connect 110 0 111 0;
#X connect 111 0 112 0;
#X connect 112 0 113 0;
#X connect 113 0 114 0;
#X connect 114 0 4 1;
#X connect 115 0 116 0;
#X connect 116 0 117 0;
#X connect 117 0 118 0;
#X connect 118 0 119 0;
#X connect 119 0 120 0;
#X connect 120 0 4 1;
#X connect 121 0 122 0;
#X connect 122 0 123 0;
#X connect 123 0 124 0;
#X connect 124 0 125 0;
#X connect 125 0 126 0;
#X connect 126 0 4 1;
#X connect 127 0 128 0;
#X connect 128 0 129 0;
#X connect 129 0 130 0;
#X connect 130 0 131 0;
#X connect 131 0 132 0;
#X connect 132 0 4 1;
#X connect 133 0 134 0;
#X connect 134 0 135 0;
#X connect 135 0 136 0;
#X connect 136 0 137 0;
#X connect 137 0 138 0;
#X connect 138 0 4 1;
#X connect 139 0 140 0;
#X connect 140 0 141 0;
#X connect 141 0 142 0;
#X connect 142 0 143 0;
#X connect 143 0 144 0;
#X connect 144 0 4 1;
#X connect 145 0 146 0;
#X connect 146 0 147 0;
#X connect 147 0 148 0;
#X connect 148 0 149 0;
#X connect 149 0 150 0;
#X connect 150 0 4 1;
#X connect 151 0 152 0;
#X connect 152 0 153 0;
#X connect 153 0 154 0;
#X connect 154 0 155 0;
#X connect 155 0 156 0;
#X connect 156 0 4 1;
#X connect 157 0 158 0;
#X connect 158 0 159 0;
#X connect 159 0 160 0;
#X connect 160 0 161 0;
#X connect 161 0 162 0;
#X connect 162 0 4 1;
#X connect 163 0 164 0;
#X connect 164 0 165 0;
#X connect 165 0 166 0;
#X connect 166 0 167 0;
#X connect 167 0 168 0;
#X connect 168 0 4 1;
#X connect 169 0 170 0;
#X connect 170 0 171 0;
#X connect 171 0 172 0;
#X connect 172 0 173 0;
#X connect 173 0 174 0;
#X connect 174 0 4 1;
#X connect 175 0 176 0;
#X connect 176 0 177 0;
#X connect 177 0 178 0;
#X connect 178 0 179 0;
#X connect 179 0 180 0;
#X connect 180 0 4 1;
#X connect 181 0 182 0;
#X connect 182 0 183 0;
#X connect 183 0 184 0;
#X connect 184 0 185 0;
#X connect 185 0 186 0;
#X connect 186 0 4 1;
#X connect 187 0 188 0;
#X connect 188 0 189 0;
#X connect 189 0 190 0;
#X connect 190 0 191 0;
#X connect 191 0 192 0;
#X connect 192 0 4 1;
#X connect 193 0 194 0;
#X connect 194 0 195 0;
#X connect 195 0 196 0;
#X connect 196 0 197 0;
#X connect 197 0 198 0;
#X connect 198 0 4 1;
#X connect 199 0 200 0;
#X connect 200 0 201 0;
#X connect 201 0 202 0;
#X connect 202 0 203 0;
#X connect 203 0 204 0;
#X connect 204 0 4 1;
#X connect 205 0 206 0;
#X connect 206 0 207 0;
#X connect 207 0 208 0;
#X connect 208 0 209 0;
#X connect 209 0 210 0;
#X connect 210 0 4 1;
#X connect 211 0 212 0;
#X connect 212 0 213 0;
#X connect 213 0 214 0;
#X connect 214 0 215 0;
#X connect 215 0 216 0;
#X connect 216 0 4 1;
#X connect 217 0 218 0;
#X connect 218 0 219 0;
#X connect 219 0 220 0;
#X connect 220 0 221 0;
#X connect 221 0 222 0;
#X connect 222 0 4 1;
#X connect 223 0 224 0;
#X connect 224 0 225 0;
#X connect 225 0 226 0;
#X connect 226 0 227 0;
#X connect 227 0 228 0;
#X connect 228 0 4 1;
#X connect 229 0 230 0;
#X connect 230 0 231 0;
#X connect 231 0 232 0;
#X connect 232 0 233 0;
#X connect 233 0 234 0;
#X connect 234 0 4 1;
#X connect 235 0 236 0;
#X connect 236 0 237 0;
#X connect 237 0 238 0;
#X connect 238 0 239 0;
#X connect 239 0 240 0;
#X connect 240 0 4 1;
#X connect 241 0 242 0;
#X connect 242 0 243 0;
#X connect 243 0 244 0;
#X connect 244 0 245 0;
#X connect 245 0 246 0;
#X connect 246 0 4 1;
#X connect 247 0 248 0;
#X connect 248 0 249 0;
#X connect 249 0 250 0;
#X connect 250 0 251 0;
#X connect 251 0 252 0;
#X connect 252 0 4 1;
#X connect 253 0 254 0;
#X connect 254 0 255 0;
#X connect 255 0 256 0;
#X connect 256 0 257 0;
#X connect 257 0 258 0;
#X connect 258 0 4 1;
#X connect 259 0 260 0;
#X connect 260 0 261 0;
#X connect 261 0 262 0;
#X connect 262 0 263 0;
#X connect 263 0 264 0;
#X connect 264 0 9 1;
#X connect 265 0 266 0;
#X connect 266 0 267 0;
#X connect 267 0 268 0;
#X connect 268 0 269 0;
#X connect 269 0 270 0;
#X connect 270 0 9 1;
#X connect 271 0 272 0;
#X connect 272 0 273 0;
#X connect 273 0 274 0;
#X connect 274 0 275 0;
#X connect 275 0 276 0;
#X connect 276 0 9 1;
#X connect 277 0 278 0;
#X connect 278 0 279 0;
#X connect 279 0 280 0;
#X connect 280 0 281 0;
#X connect 281 0 282 0;
#X connect 282 0 9 1;
#X connect 283 0 284 0;
#X connect 284 0 285 0;
#X connect 285 0 286 0;
#X connect 286 0 287 0;
#X connect 287 0 288 0;
#X connect 288 0 9 1;
#X connect 289 0 290 0;
#X connect 290 0 291 0;
#X connect 291 0 292 0;
#X connect 292 0 293 0;
#X connect 293 0 294 0;
#X connect 294 0 9 1;
#X connect 295 0 296 0;
#X connect 296 0 297 0;
#X connect 297 0 298 0;
#X connect 298 0 299 0;
#X connect 299 0 300 0;
#X connect 300 0 9 1;
#X connect 301 0 302 0;
#X connect 302 0 303 0;
#X connect 303 0 304 0;
#X connect 304 0 305 0;
#X connect 305 0 306 0;
#X connect 306 0 9 1;
#X connect 307 0 308 0;
#X connect 308 0 309 0;
#X connect 309 0 310 0;
#X connect 310 0 311 0;
#X connect 311 0 312 0;
#X connect 312 0 9 1;
#X connect 313 0 314 0;
#X connect 314 0 315 0;
#X connect 315 0 316 0;
#X connect 316 0 317 0;
#X connect 317 0 318 0;
#X connect 318 0 9 1;
#X connect 319 0 320 0;
#X connect 320 0 321 0;
#X connect 321 0 322 0;
#X connect 322 0 323 0;
#X connect 323 0 324 0;
#X connect 324 0 9 1;
#X connect 325 0 326 0;
#X connect 326 0 327 0;
#X connect 327 0 328 0;
#X connect 328 0 329 0;
#X connect 329 0 330 0;
#X connect 330 0 9 1;
#X connect 331 0 332 0;
#X connect 332 0 333 0;
#X connect 333 0 334 0;
#X connect 334 0 335 0;
#X connect 335 0 336 0;
#X connect 336 0 9 1;
#X connect 337 0 338 0;
#X connect 338 0 339 0;
#X connect 339 0 340 0;
#X connect 340 0 341 0;
#X connect 341 0 342 0;
#X connect 342 0 9 1;
#X connect 343 0 344 0;
#X connect 344 0 345 0;
#X connect 345 0 346 0;
#X connect 346 0 347 0;
#X connect 347 0 348 0;
#X connect 348 0 9 1;
#X connect 349 0 350 0;
#X connect 350 0 351 0;
#X connect 351 0 352 0;
#X connect 352 0 353 0;
#X connect 353 0 354 0;
#X connect 354 0 9 1;
#X connect 355 0 356 0;
#X connect 356 0 357 0;
#X connect 357 0 358 0;
#X connect 358 0 359 0;
#X connect 359 0 360 0;
#X connect 360 0 9 1;
#X connect 361 0 362 0;
#X connect 362 0 363 0;
#X connect 363 0 364 0;
#X connect 364 0 365 0;
#X connect 365 0 366 0;
#X connect 366 0 9 1;
#X connect 367 0 368 0;
#X connect 368 0 369 0;
#X connect 369 0 370 0;
#X connect 370 0 371 0;
#X connect 371 0 372 0;
#X connect 372 0 9 1;
#X connect 373 0 374 0;
#X connect 374 0 375 0;
#X connect 375 0 376 0;
#X connect 376 0 377 0;
#X connect 377 0 378 0;
#X connect 378 0 9 1;
#X connect 379 0 380 0;
#X connect 380 0 381 0;
#X connect 381 0 382 0;
#X connect 382 0 383 0;
#X connect 383 0 384 0;
#X connect 384 0 9 1;
#X connect 385 0 386 0;
#X connect 386 0 387 0;
#X connect 387 0 388 0;
#X connect 388 0 389 0;
#X connect 389 0 390 0;
#X connect 390 0 9 1;
#X connect 391 0 392 0;
#X connect 392 0 393 0;
#X connect 393 0 394 0;
#X connect 394 0 395 0;
#X connect 395 0 396 0;
#X connect 396 0 9 1;
#X connect 397 0 398 0;
#X connect 398 0 399 0;
#X connect 399 0 400 0;
#X connect 400 0 401 0;
#X connect 401 0 402 0;
#X connect 402 0 9 1;
#X connect 403 0 404 0;
#X connect 404 0 405 0;
#X connect 405 0 406 0;
#X connect 406 0 407 0;
#X connect 407 0 408 0;
#X connect 408 0 9 1;
#X connect 409 0 410 0;
#X connect 410 0 411 0;
#X connect 411 0 412 0;
#X connect 412 0 413 0;
#X connect 413 0 414 0;
#X connect 414 0 9 1;
#X connect 415 0 416 0;
#X connect 416 0 417 0;
#X connect 417 0 418 0;
#X connect 418 0 419 0;
#X connect 419 0 420 0;
#X connect 420 0 9 1;
#X connect 421 0 422 0;
#X connect 422 0 423 0;
#X connect 423 0 424 0;
#X connect 424 0 425 0;
#X connect 425 0 426 0;
#X connect 426 0 9 1;
#X connect 427 0 428 0;
#X connect 428 0 429 0;
#X connect 429 0 430 0;
#X connect 430 0 431 0;
#X connect 431 0 432 0;
#X connect 432 0 9 1;
#X connect 433 0 434 0;
#X connect 434 0 435 0;
#X connect 435 0 436 0;
#X connect 436 0 437 0;
#X connect 437 0 438 0;
#X connect 438 0 9 1;
#X connect 439 0 440 0;
#X connect 440 0 441 0;
#X connect 441 0 442 0;
#X connect 442 0 443 0;
#X connect 443 0 444 0;
#X connect 444 0 9 1;
#X connect 445 0 446 0;
#X connect 446 0 447 0;
#X connect 447 0 448 0;
#X connect 448 0 449 0;
#X connect 449 0 450 0;
#X connect 450 0 9 1;
#X connect 451 0 452 0;
#X connect 452 0 453 0;
#X connect 453 0 454 0;
#X connect 454 0 455 0;
#X connect 455 0 456 0;
#X connect 456 0 9 1;
#X connect 457 0 458 0;
#X connect 458 0 459 0;
#X connect 459 0 460 0;
#X connect 460 0 461 0;
#X connect 461 0 462 0;
#X connect 462 0 9 1;
#X connect 463 0 464 0;
#X connect 464 0 465 0;
#X connect 465 0 466 0;
#X connect 466 0 467 0;
#X connect 467 0 468 0;
#X connect 468 0 9 1;
#X connect 469 0 470 0;
#X connect 470 0 471 0;
#X connect 471 0 472 0;
#X connect 472 0 473 0;
#X connect 473 0 474 0;
#X connect 474 0 9 1;
#X connect 475 0 476 0;
#X connect 476 0 477 0;
#X connect 477 0 478 0;
#X connect 478 0 479 0;
#X connect 479 0 480 0;
#X connect 480 0 9 1;
#X connect 481 0 482 0;
#X connect 482 0 483 0;
#X connect 483 0 484 0;
#X connect 484 0 485 0;
#X connect 485 0 486 0;
#X connect 486 0 9 1;
#X connect 487 0 488 0;
#X connect 488 0 489 0;
#X connect 489 0 490 0;
#X connect 490 0 491 0;
#X connect 491 0 492 0;
#X connect 492 0 9 1;
#X connect 493 0 494 0;
#X connect 494 0 495 0;
#X connect 495 0 496 0;
#X connect 496 0 497 0;
#X connect 497 0 498 0;
#X connect 498 0 9 1;
#X connect 499 0 500 0;
#X connect 500 0 501 0;
#X connect 501 0 502 0;
#X connect 502 0 503 0;
#X connect 503 0 504 0;
#X connect 504 0 9 1;
