#N canvas 0 22 450 300 12;
#X obj 10 10 loadbang;
#X obj 10 58 del 10;
#X msg 10 82 0.5 100;
#X obj 10 106 line~;
#X obj 10 130 *~;
#X obj 10 154 clip~ -0.707 0.707;
#X obj 10 178 hip~ 3;
#X obj 10 202 dac~ 1;
#X obj 10 226 line~;
#X obj 10 250 *~;
#X obj 10 274 clip~ -0.707 0.707;
#X obj 10 298 hip~ 3;
#X obj 10 322 dac~ 2;
#X obj 10 322 osc~ 0.08571020877619068;
#X obj 10 370 *~ 0.2054854551643337;
#X obj 10 394 +~ 65.51345565952711;
#X obj 10 418 mtof~;
#X obj 10 442 osc~;
#X obj 10 466 *~ 0.046485260770975055;
#X obj 244 10 osc~ 0.0662548763445163;
#X obj 244 58 *~ 0.3532269676651709;
#X obj 244 82 +~ 66.4168140883724;
#X obj 244 106 mtof~;
#X obj 244 130 osc~;
#X obj 244 154 *~ 0.04535147392290249;
#X obj 478 10 osc~ 0.056784531890086726;
#X obj 478 58 *~ 0.2333018364781485;
#X obj 478 82 +~ 66.68977475950257;
#X obj 478 106 mtof~;
#X obj 478 130 osc~;
#X obj 478 154 *~ 0.04421768707482993;
#X obj 712 10 osc~ 0.06763381385660908;
#X obj 712 58 *~ 0.197919660475671;
#X obj 712 82 +~ 71.59714683574963;
#X obj 712 106 mtof~;
#X obj 712 130 osc~;
#X obj 712 154 *~ 0.043083900226757364;
#X obj 946 10 osc~ 0.06367780954496141;
#X obj 946 58 *~ 0.08722525179703293;
#X obj 946 82 +~ 69.1797833641472;
#X obj 946 106 mtof~;
#X obj 946 130 osc~;
#X obj 946 154 *~ 0.0419501133786848;
#X obj 1180 10 osc~ 0.01684704194566856;
#X obj 1180 58 *~ 0.11624434882640385;
#X obj 1180 82 +~ 74.2498194644319;
#X obj 1180 106 mtof~;
#X obj 1180 130 osc~;
#X obj 1180 154 *~ 0.04081632653061225;
#X obj 1414 10 osc~ 0.027624993559006297;
#X obj 1414 58 *~ 0.25726727689034545;
#X obj 1414 82 +~ 74.92847722319317;
#X obj 1414 106 mtof~;
#X obj 1414 130 osc~;
#X obj 1414 154 *~ 0.03968253968253968;
#X obj 1648 10 osc~ 0.015052342093300886;
#X obj 1648 58 *~ 0.06924702275756278;
#X obj 1648 82 +~ 76.20686973346542;
#X obj 1648 106 mtof~;
#X obj 1648 130 osc~;
#X obj 1648 154 *~ 0.03854875283446712;
#X obj 1882 10 osc~ 0.0951423992619308;
#X obj 1882 58 *~ 0.10846412658069116;
#X obj 1882 82 +~ 75.7688876936834;
#X obj 1882 106 mtof~;
#X obj 1882 130 osc~;
#X obj 1882 154 *~ 0.03741496598639456;
#X obj 2116 10 osc~ 0.014515090580199631;
#X obj 2116 58 *~ 0.15252632775464453;
#X obj 2116 82 +~ 65.29675228880441;
#X obj 2116 106 mtof~;
#X obj 2116 130 osc~;
#X obj 2116 154 *~ 0.03628117913832199;
#X obj 2350 10 osc~ 0.06608250560348346;
#X obj 2350 58 *~ 0.1538564583997585;
#X obj 2350 82 +~ 70.86727266143856;
#X obj 2350 106 mtof~;
#X obj 2350 130 osc~;
#X obj 2350 154 *~ 0.035147392290249435;
#X obj 2584 10 osc~ 0.03668987357021025;
#X obj 2584 58 *~ 0.014493129696732646;
#X obj 2584 82 +~ 71.58580849920334;
#X obj 2584 106 mtof~;
#X obj 2584 130 osc~;
#X obj 2584 154 *~ 0.03401360544217687;
#X obj 2818 10 osc~ 0.07906515186380952;
#X obj 2818 58 *~ 0.07955742710896149;
#X obj 2818 82 +~ 81.82376189058078;
#X obj 2818 106 mtof~;
#X obj 2818 130 osc~;
#X obj 2818 154 *~ 0.032879818594104306;
#X obj 3052 10 osc~ 0.025578487010795483;
#X obj 3052 58 *~ 0.04363749276902589;
#X obj 3052 82 +~ 68.86840080813761;
#X obj 3052 106 mtof~;
#X obj 3052 130 osc~;
#X obj 3052 154 *~ 0.03174603174603175;
#X obj 3286 10 osc~ 0.05372975465893788;
#X obj 3286 58 *~ 0.10856310745539409;
#X obj 3286 82 +~ 66.81769583417451;
#X obj 3286 106 mtof~;
#X obj 3286 130 osc~;
#X obj 3286 154 *~ 0.03061224489795918;
#X obj 3520 10 osc~ 0.07832906622273429;
#X obj 3520 58 *~ 0.034364371844511604;
#X obj 3520 82 +~ 78.1264128648809;
#X obj 3520 106 mtof~;
#X obj 3520 130 osc~;
#X obj 3520 154 *~ 0.02947845804988662;
#X obj 3754 10 osc~ 0.09065519953021259;
#X obj 3754 58 *~ 0.06403651454789437;
#X obj 3754 82 +~ 84.22055852549839;
#X obj 3754 106 mtof~;
#X obj 3754 130 osc~;
#X obj 3754 154 *~ 0.028344671201814057;
#X obj 3988 10 osc~ 0.07752623680383514;
#X obj 3988 58 *~ 0.027546646457019604;
#X obj 3988 82 +~ 88.86816413582444;
#X obj 3988 106 mtof~;
#X obj 3988 130 osc~;
#X obj 3988 154 *~ 0.027210884353741492;
#X obj 4222 10 osc~ 0.08110481216472605;
#X obj 4222 58 *~ 0.02192420858993374;
#X obj 4222 82 +~ 67.28251008843957;
#X obj 4222 106 mtof~;
#X obj 4222 130 osc~;
#X obj 4222 154 *~ 0.026077097505668934;
#X obj 4456 10 osc~ 0.05571377694988688;
#X obj 4456 58 *~ 0.03843491274966036;
#X obj 4456 82 +~ 74.07616059996306;
#X obj 4456 106 mtof~;
#X obj 4456 130 osc~;
#X obj 4456 154 *~ 0.024943310657596373;
#X obj 4690 10 osc~ 0.005708510182007376;
#X obj 4690 58 *~ 0.0320042148260625;
#X obj 4690 82 +~ 79.9445837409271;
#X obj 4690 106 mtof~;
#X obj 4690 130 osc~;
#X obj 4690 154 *~ 0.023809523809523808;
#X obj 4924 10 osc~ 0.021256950770245333;
#X obj 4924 58 *~ 0.08299624520626885;
#X obj 4924 82 +~ 79.47040199139471;
#X obj 4924 106 mtof~;
#X obj 4924 130 osc~;
#X obj 4924 154 *~ 0.022675736961451243;
#X obj 5158 10 osc~ 0.037039673557837986;
#X obj 5158 58 *~ 0.010498771878831106;
#X obj 5158 82 +~ 76.89296932134059;
#X obj 5158 106 mtof~;
#X obj 5158 130 osc~;
#X obj 5158 154 *~ 0.021541950113378682;
#X obj 5392 10 osc~ 0.0574372876056726;
#X obj 5392 58 *~ 0.04548464643944863;
#X obj 5392 82 +~ 100.55100262904621;
#X obj 5392 106 mtof~;
#X obj 5392 130 osc~;
#X obj 5392 154 *~ 0.020408163265306124;
#X obj 5626 10 osc~ 0.048559171672245806;
#X obj 5626 58 *~ 0.0028651177002346896;
#X obj 5626 82 +~ 92.18250951553443;
#X obj 5626 106 mtof~;
#X obj 5626 130 osc~;
#X obj 5626 154 *~ 0.01927437641723356;
#X obj 5860 10 osc~ 0.015812565910296596;
#X obj 5860 58 *~ 0.05898324180250763;
#X obj 5860 82 +~ 108.43815629192795;
#X obj 5860 106 mtof~;
#X obj 5860 130 osc~;
#X obj 5860 154 *~ 0.018140589569160995;
#X obj 6094 10 osc~ 0.06723168799342805;
#X obj 6094 58 *~ 0.02576976848991547;
#X obj 6094 82 +~ 111.19544623163588;
#X obj 6094 106 mtof~;
#X obj 6094 130 osc~;
#X obj 6094 154 *~ 0.017006802721088433;
#X obj 6328 10 osc~ 0.07512630029950708;
#X obj 6328 58 *~ 0.005041988812561293;
#X obj 6328 82 +~ 71.85417117842984;
#X obj 6328 106 mtof~;
#X obj 6328 130 osc~;
#X obj 6328 154 *~ 0.015873015873015876;
#X obj 6562 10 osc~ 0.06756915133445252;
#X obj 6562 58 *~ 0.03621269134334974;
#X obj 6562 82 +~ 102.51756352086673;
#X obj 6562 106 mtof~;
#X obj 6562 130 osc~;
#X obj 6562 154 *~ 0.01473922902494331;
#X obj 6796 10 osc~ 0.005539426947100579;
#X obj 6796 58 *~ 0.035175843126666786;
#X obj 6796 82 +~ 94.78316151670762;
#X obj 6796 106 mtof~;
#X obj 6796 130 osc~;
#X obj 6796 154 *~ 0.013605442176870746;
#X obj 7030 10 osc~ 0.03592480617920126;
#X obj 7030 58 *~ 0.0055548031353016055;
#X obj 7030 82 +~ 82.00299394319413;
#X obj 7030 106 mtof~;
#X obj 7030 130 osc~;
#X obj 7030 154 *~ 0.012471655328798183;
#X obj 7264 10 osc~ 0.04477333014449706;
#X obj 7264 58 *~ 0.02571033666833087;
#X obj 7264 82 +~ 79.03855829948532;
#X obj 7264 106 mtof~;
#X obj 7264 130 osc~;
#X obj 7264 154 *~ 0.011337868480725625;
#X obj 7498 10 osc~ 0.04093727281723181;
#X obj 7498 58 *~ 0.057308656132175353;
#X obj 7498 82 +~ 70.3874043355857;
#X obj 7498 106 mtof~;
#X obj 7498 130 osc~;
#X obj 7498 154 *~ 0.010204081632653062;
#X obj 7732 10 osc~ 0.09104912883985937;
#X obj 7732 58 *~ 0.041350514198697085;
#X obj 7732 82 +~ 112.94205736545594;
#X obj 7732 106 mtof~;
#X obj 7732 130 osc~;
#X obj 7732 154 *~ 0.009070294784580497;
#X obj 7966 10 osc~ 0.012071605703238664;
#X obj 7966 58 *~ 0.011456988980891815;
#X obj 7966 82 +~ 120.57888147274782;
#X obj 7966 106 mtof~;
#X obj 7966 130 osc~;
#X obj 7966 154 *~ 0.007936507936507934;
#X obj 8200 10 osc~ 0.09744331164387338;
#X obj 8200 58 *~ 0.03590599938079345;
#X obj 8200 82 +~ 83.67115291369771;
#X obj 8200 106 mtof~;
#X obj 8200 130 osc~;
#X obj 8200 154 *~ 0.006802721088435376;
#X obj 8434 10 osc~ 0.0730577608745379;
#X obj 8434 58 *~ 0.04134651809089189;
#X obj 8434 82 +~ 103.59926137995714;
#X obj 8434 106 mtof~;
#X obj 8434 130 osc~;
#X obj 8434 154 *~ 0.005668934240362813;
#X obj 8668 10 osc~ 0.05893696928278495;
#X obj 8668 58 *~ 0.012380520068530701;
#X obj 8668 82 +~ 109.10062548327323;
#X obj 8668 106 mtof~;
#X obj 8668 130 osc~;
#X obj 8668 154 *~ 0.004535147392290249;
#X obj 8902 10 osc~ 0.023343513570653274;
#X obj 8902 58 *~ 0.032059659178558624;
#X obj 8902 82 +~ 93.19497499024547;
#X obj 8902 106 mtof~;
#X obj 8902 130 osc~;
#X obj 8902 154 *~ 0.003401360544217685;
#X obj 9136 10 osc~ 0.036139458564036685;
#X obj 9136 58 *~ 0.006310990793151966;
#X obj 9136 82 +~ 96.85092926108092;
#X obj 9136 106 mtof~;
#X obj 9136 130 osc~;
#X obj 9136 154 *~ 0.002267573696145127;
#X obj 9370 10 osc~ 0.013602705780375913;
#X obj 9370 58 *~ 0.04271224184659356;
#X obj 9370 82 +~ 133.7293612133453;
#X obj 9370 106 mtof~;
#X obj 9370 130 osc~;
#X obj 9370 154 *~ 0.0011337868480725635;
#X obj 9604 10 osc~ 0.02617406804048076;
#X obj 9604 58 *~ 0.34845211580491875;
#X obj 9604 82 +~ 65.39034335513135;
#X obj 9604 106 mtof~;
#X obj 9604 130 osc~;
#X obj 9604 154 *~ 0.046485260770975055;
#X obj 9838 10 osc~ 0.0718467006546253;
#X obj 9838 58 *~ 0.9320931512936405;
#X obj 9838 82 +~ 66.41987242213277;
#X obj 9838 106 mtof~;
#X obj 9838 130 osc~;
#X obj 9838 154 *~ 0.04535147392290249;
#X obj 10072 10 osc~ 0.008231336467347517;
#X obj 10072 58 *~ 0.21467403473879085;
#X obj 10072 82 +~ 68.13786182373293;
#X obj 10072 106 mtof~;
#X obj 10072 130 osc~;
#X obj 10072 154 *~ 0.04421768707482993;
#X obj 10306 10 osc~ 0.060754529964364805;
#X obj 10306 58 *~ 0.08528492361883361;
#X obj 10306 82 +~ 71.65664106281751;
#X obj 10306 106 mtof~;
#X obj 10306 130 osc~;
#X obj 10306 154 *~ 0.043083900226757364;
#X obj 10540 10 osc~ 0.028079785614251698;
#X obj 10540 58 *~ 0.07094464054829705;
#X obj 10540 82 +~ 70.8155829420856;
#X obj 10540 106 mtof~;
#X obj 10540 130 osc~;
#X obj 10540 154 *~ 0.0419501133786848;
#X obj 10774 10 osc~ 0.06550052553865994;
#X obj 10774 58 *~ 0.2232289285793707;
#X obj 10774 82 +~ 67.5389683158841;
#X obj 10774 106 mtof~;
#X obj 10774 130 osc~;
#X obj 10774 154 *~ 0.04081632653061225;
#X obj 11008 10 osc~ 0.06695075889469312;
#X obj 11008 58 *~ 0.27687425401412563;
#X obj 11008 82 +~ 76.44869102707116;
#X obj 11008 106 mtof~;
#X obj 11008 130 osc~;
#X obj 11008 154 *~ 0.03968253968253968;
#X obj 11242 10 osc~ 0.06617133654432399;
#X obj 11242 58 *~ 0.2175285223955733;
#X obj 11242 82 +~ 77.11611376242699;
#X obj 11242 106 mtof~;
#X obj 11242 130 osc~;
#X obj 11242 154 *~ 0.03854875283446712;
#X obj 11476 10 osc~ 0.031471299700675484;
#X obj 11476 58 *~ 0.18026858259854386;
#X obj 11476 82 +~ 77.34083977586374;
#X obj 11476 106 mtof~;
#X obj 11476 130 osc~;
#X obj 11476 154 *~ 0.03741496598639456;
#X obj 11710 10 osc~ 0.040756437378888656;
#X obj 11710 58 *~ 0.0338453469128541;
#X obj 11710 82 +~ 67.04692750132544;
#X obj 11710 106 mtof~;
#X obj 11710 130 osc~;
#X obj 11710 154 *~ 0.03628117913832199;
#X obj 11944 10 osc~ 0.07557570670875291;
#X obj 11944 58 *~ 0.1187107119836992;
#X obj 11944 82 +~ 80.60786375183653;
#X obj 11944 106 mtof~;
#X obj 11944 130 osc~;
#X obj 11944 154 *~ 0.035147392290249435;
#X obj 12178 10 osc~ 0.02280910078836129;
#X obj 12178 58 *~ 0.023110683557557132;
#X obj 12178 82 +~ 69.32972536710021;
#X obj 12178 106 mtof~;
#X obj 12178 130 osc~;
#X obj 12178 154 *~ 0.03401360544217687;
#X obj 12412 10 osc~ 0.09605169131584278;
#X obj 12412 58 *~ 0.11326160664030807;
#X obj 12412 82 +~ 72.72487551771245;
#X obj 12412 106 mtof~;
#X obj 12412 130 osc~;
#X obj 12412 154 *~ 0.032879818594104306;
#X obj 12646 10 osc~ 0.05476537520274573;
#X obj 12646 58 *~ 0.0347731085402314;
#X obj 12646 82 +~ 77.19986218481131;
#X obj 12646 106 mtof~;
#X obj 12646 130 osc~;
#X obj 12646 154 *~ 0.03174603174603175;
#X obj 12880 10 osc~ 0.027737893467520026;
#X obj 12880 58 *~ 0.1060383573080645;
#X obj 12880 82 +~ 77.47624881262534;
#X obj 12880 106 mtof~;
#X obj 12880 130 osc~;
#X obj 12880 154 *~ 0.03061224489795918;
#X obj 13114 10 osc~ 0.07444280537982464;
#X obj 13114 58 *~ 0.053782097077622826;
#X obj 13114 82 +~ 78.1830805808728;
#X obj 13114 106 mtof~;
#X obj 13114 130 osc~;
#X obj 13114 154 *~ 0.02947845804988662;
#X obj 13348 10 osc~ 0.07567869024674581;
#X obj 13348 58 *~ 0.017551718432347003;
#X obj 13348 82 +~ 72.5741215157835;
#X obj 13348 106 mtof~;
#X obj 13348 130 osc~;
#X obj 13348 154 *~ 0.028344671201814057;
#X obj 13582 10 osc~ 0.06670143917199038;
#X obj 13582 58 *~ 0.01674208613965432;
#X obj 13582 82 +~ 84.56430339712234;
#X obj 13582 106 mtof~;
#X obj 13582 130 osc~;
#X obj 13582 154 *~ 0.027210884353741492;
#X obj 13816 10 osc~ 0.0010636629204374248;
#X obj 13816 58 *~ 0.033265911512621496;
#X obj 13816 82 +~ 67.56898215169453;
#X obj 13816 106 mtof~;
#X obj 13816 130 osc~;
#X obj 13816 154 *~ 0.026077097505668934;
#X obj 14050 10 osc~ 0.0522182835364102;
#X obj 14050 58 *~ 0.03313096692624664;
#X obj 14050 82 +~ 98.02518758294295;
#X obj 14050 106 mtof~;
#X obj 14050 130 osc~;
#X obj 14050 154 *~ 0.024943310657596373;
#X obj 14284 10 osc~ 0.059471671307597486;
#X obj 14284 58 *~ 0.0638911240128128;
#X obj 14284 82 +~ 66.62424777717777;
#X obj 14284 106 mtof~;
#X obj 14284 130 osc~;
#X obj 14284 154 *~ 0.023809523809523808;
#X obj 14518 10 osc~ 0.07106105789518327;
#X obj 14518 58 *~ 0.0813552211811014;
#X obj 14518 82 +~ 98.15466218583421;
#X obj 14518 106 mtof~;
#X obj 14518 130 osc~;
#X obj 14518 154 *~ 0.022675736961451243;
#X obj 14752 10 osc~ 0.00426755082593272;
#X obj 14752 58 *~ 0.024761008379493403;
#X obj 14752 82 +~ 77.91183350399754;
#X obj 14752 106 mtof~;
#X obj 14752 130 osc~;
#X obj 14752 154 *~ 0.021541950113378682;
#X obj 14986 10 osc~ 0.05727837895205239;
#X obj 14986 58 *~ 0.06933087190125378;
#X obj 14986 82 +~ 105.7336089250864;
#X obj 14986 106 mtof~;
#X obj 14986 130 osc~;
#X obj 14986 154 *~ 0.020408163265306124;
#X obj 15220 10 osc~ 0.020469611688771396;
#X obj 15220 58 *~ 0.025574254989879454;
#X obj 15220 82 +~ 95.15639612444475;
#X obj 15220 106 mtof~;
#X obj 15220 130 osc~;
#X obj 15220 154 *~ 0.01927437641723356;
#X obj 15454 10 osc~ 0.09477960355919601;
#X obj 15454 58 *~ 0.027627534006986212;
#X obj 15454 82 +~ 71.1404814723966;
#X obj 15454 106 mtof~;
#X obj 15454 130 osc~;
#X obj 15454 154 *~ 0.018140589569160995;
#X obj 15688 10 osc~ 0.00846131135644087;
#X obj 15688 58 *~ 0.0032173423979812606;
#X obj 15688 82 +~ 91.57610741840405;
#X obj 15688 106 mtof~;
#X obj 15688 130 osc~;
#X obj 15688 154 *~ 0.017006802721088433;
#X obj 15922 10 osc~ 0.008412012306465756;
#X obj 15922 58 *~ 0.03391851532658135;
#X obj 15922 82 +~ 104.33849417005223;
#X obj 15922 106 mtof~;
#X obj 15922 130 osc~;
#X obj 15922 154 *~ 0.015873015873015876;
#X obj 16156 10 osc~ 0.022925628916825737;
#X obj 16156 58 *~ 0.04920054921585747;
#X obj 16156 82 +~ 75.71615621212338;
#X obj 16156 106 mtof~;
#X obj 16156 130 osc~;
#X obj 16156 154 *~ 0.01473922902494331;
#X obj 16390 10 osc~ 0.020631625924783292;
#X obj 16390 58 *~ 0.022978822263805276;
#X obj 16390 82 +~ 102.22114632117771;
#X obj 16390 106 mtof~;
#X obj 16390 130 osc~;
#X obj 16390 154 *~ 0.013605442176870746;
#X obj 16624 10 osc~ 0.007282162237500722;
#X obj 16624 58 *~ 0.04887880163333667;
#X obj 16624 82 +~ 88.26510975348245;
#X obj 16624 106 mtof~;
#X obj 16624 130 osc~;
#X obj 16624 154 *~ 0.012471655328798183;
#X obj 16858 10 osc~ 0.0343209601188781;
#X obj 16858 58 *~ 0.0026792433612502983;
#X obj 16858 82 +~ 81.65228698007077;
#X obj 16858 106 mtof~;
#X obj 16858 130 osc~;
#X obj 16858 154 *~ 0.011337868480725625;
#X obj 17092 10 osc~ 0.08926192541393653;
#X obj 17092 58 *~ 0.021633211397231;
#X obj 17092 82 +~ 75.28653706395022;
#X obj 17092 106 mtof~;
#X obj 17092 130 osc~;
#X obj 17092 154 *~ 0.010204081632653062;
#X obj 17326 10 osc~ 0.061204963896362055;
#X obj 17326 58 *~ 0.014959719106171528;
#X obj 17326 82 +~ 124.1847795462254;
#X obj 17326 106 mtof~;
#X obj 17326 130 osc~;
#X obj 17326 154 *~ 0.009070294784580497;
#X obj 17560 10 osc~ 0.007605164864499814;
#X obj 17560 58 *~ 0.022766512499658317;
#X obj 17560 82 +~ 124.17579531204916;
#X obj 17560 106 mtof~;
#X obj 17560 130 osc~;
#X obj 17560 154 *~ 0.007936507936507934;
#X obj 17794 10 osc~ 0.0613769749012864;
#X obj 17794 58 *~ 0.05017125685931919;
#X obj 17794 82 +~ 82.54673245765538;
#X obj 17794 106 mtof~;
#X obj 17794 130 osc~;
#X obj 17794 154 *~ 0.006802721088435376;
#X obj 18028 10 osc~ 0.05323466940930219;
#X obj 18028 58 *~ 0.003852280033960377;
#X obj 18028 82 +~ 118.98468774009407;
#X obj 18028 106 mtof~;
#X obj 18028 130 osc~;
#X obj 18028 154 *~ 0.005668934240362813;
#X obj 18262 10 osc~ 0.009232393498040992;
#X obj 18262 58 *~ 0.04155695736730036;
#X obj 18262 82 +~ 80.12508956657271;
#X obj 18262 106 mtof~;
#X obj 18262 130 osc~;
#X obj 18262 154 *~ 0.004535147392290249;
#X obj 18496 10 osc~ 0.09218847061801258;
#X obj 18496 58 *~ 0.03563496339940564;
#X obj 18496 82 +~ 94.56354592435196;
#X obj 18496 106 mtof~;
#X obj 18496 130 osc~;
#X obj 18496 154 *~ 0.003401360544217685;
#X obj 18730 10 osc~ 0.07068576542053771;
#X obj 18730 58 *~ 0.03757711352041963;
#X obj 18730 82 +~ 132.63867073792764;
#X obj 18730 106 mtof~;
#X obj 18730 130 osc~;
#X obj 18730 154 *~ 0.002267573696145127;
#X obj 18964 10 osc~ 0.05380405701619156;
#X obj 18964 58 *~ 0.039553892978408195;
#X obj 18964 82 +~ 85.77932779409453;
#X obj 18964 106 mtof~;
#X obj 18964 130 osc~;
#X obj 18964 154 *~ 0.0011337868480725635;
#X connect 0 0 1 0;
#X connect 1 0 2 0;
#X connect 2 0 3 0;
#X connect 3 0 4 0;
#X connect 4 0 5 0;
#X connect 5 0 6 0;
#X connect 6 0 7 0;
#X connect 2 0 8 0;
#X connect 8 0 9 0;
#X connect 9 0 10 0;
#X connect 10 0 11 0;
#X connect 11 0 12 0;
#X connect 13 0 14 0;
#X connect 14 0 15 0;
#X connect 15 0 16 0;
#X connect 16 0 17 0;
#X connect 17 0 18 0;
#X connect 18 0 4 1;
#X connect 19 0 20 0;
#X connect 20 0 21 0;
#X connect 21 0 22 0;
#X connect 22 0 23 0;
#X connect 23 0 24 0;
#X connect 24 0 4 1;
#X connect 25 0 26 0;
#X connect 26 0 27 0;
#X connect 27 0 28 0;
#X connect 28 0 29 0;
#X connect 29 0 30 0;
#X connect 30 0 4 1;
#X connect 31 0 32 0;
#X connect 32 0 33 0;
#X connect 33 0 34 0;
#X connect 34 0 35 0;
#X connect 35 0 36 0;
#X connect 36 0 4 1;
#X connect 37 0 38 0;
#X connect 38 0 39 0;
#X connect 39 0 40 0;
#X connect 40 0 41 0;
#X connect 41 0 42 0;
#X connect 42 0 4 1;
#X connect 43 0 44 0;
#X connect 44 0 45 0;
#X connect 45 0 46 0;
#X connect 46 0 47 0;
#X connect 47 0 48 0;
#X connect 48 0 4 1;
#X connect 49 0 50 0;
#X connect 50 0 51 0;
#X connect 51 0 52 0;
#X connect 52 0 53 0;
#X connect 53 0 54 0;
#X connect 54 0 4 1;
#X connect 55 0 56 0;
#X connect 56 0 57 0;
#X connect 57 0 58 0;
#X connect 58 0 59 0;
#X connect 59 0 60 0;
#X connect 60 0 4 1;
#X connect 61 0 62 0;
#X connect 62 0 63 0;
#X connect 63 0 64 0;
#X connect 64 0 65 0;
#X connect 65 0 66 0;
#X connect 66 0 4 1;
#X connect 67 0 68 0;
#X connect 68 0 69 0;
#X connect 69 0 70 0;
#X connect 70 0 71 0;
#X connect 71 0 72 0;
#X connect 72 0 4 1;
#X connect 73 0 74 0;
#X connect 74 0 75 0;
#X connect 75 0 76 0;
#X connect 76 0 77 0;
#X connect 77 0 78 0;
#X connect 78 0 4 1;
#X connect 79 0 80 0;
#X connect 80 0 81 0;
#X connect 81 0 82 0;
#X connect 82 0 83 0;
#X connect 83 0 84 0;
#X connect 84 0 4 1;
#X connect 85 0 86 0;
#X connect 86 0 87 0;
#X connect 87 0 88 0;
#X connect 88 0 89 0;
#X connect 89 0 90 0;
#X connect 90 0 4 1;
#X connect 91 0 92 0;
#X connect 92 0 93 0;
#X connect 93 0 94 0;
#X connect 94 0 95 0;
#X connect 95 0 96 0;
#X connect 96 0 4 1;
#X connect 97 0 98 0;
#X connect 98 0 99 0;
#X connect 99 0 100 0;
#X connect 100 0 101 0;
#X connect 101 0 102 0;
#X connect 102 0 4 1;
#X connect 103 0 104 0;
#X connect 104 0 105 0;
#X connect 105 0 106 0;
#X connect 106 0 107 0;
#X connect 107 0 108 0;
#X connect 108 0 4 1;
#X connect 109 0 110 0;
#X connect 110 0 111 0;
#X connect 111 0 112 0;
#X connect 112 0 113 0;
#X connect 113 0 114 0;
#X connect 114 0 4 1;
#X connect 115 0 116 0;
#X connect 116 0 117 0;
#X connect 117 0 118 0;
#X connect 118 0 119 0;
#X connect 119 0 120 0;
#X connect 120 0 4 1;
#X connect 121 0 122 0;
#X connect 122 0 123 0;
#X connect 123 0 124 0;
#X connect 124 0 125 0;
#X connect 125 0 126 0;
#X connect 126 0 4 1;
#X connect 127 0 128 0;
#X connect 128 0 129 0;
#X connect 129 0 130 0;
#X connect 130 0 131 0;
#X connect 131 0 132 0;
#X connect 132 0 4 1;
#X connect 133 0 134 0;
#X connect 134 0 135 0;
#X connect 135 0 136 0;
#X connect 136 0 137 0;
#X connect 137 0 138 0;
#X connect 138 0 4 1;
#X connect 139 0 140 0;
#X connect 140 0 141 0;
#X connect 141 0 142 0;
#X connect 142 0 143 0;
#X connect 143 0 144 0;
#X connect 144 0 4 1;
#X connect 145 0 146 0;
#X connect 146 0 147 0;
#X connect 147 0 148 0;
#X connect 148 0 149 0;
#X connect 149 0 150 0;
#X connect 150 0 4 1;
#X connect 151 0 152 0;
#X connect 152 0 153 0;
#X connect 153 0 154 0;
#X connect 154 0 155 0;
#X connect 155 0 156 0;
#X connect 156 0 4 1;
#X connect 157 0 158 0;
#X connect 158 0 159 0;
#X connect 159 0 160 0;
#X connect 160 0 161 0;
#X connect 161 0 162 0;
#X connect 162 0 4 1;
#X connect 163 0 164 0;
#X connect 164 0 165 0;
#X connect 165 0 166 0;
#X connect 166 0 167 0;
#X connect 167 0 168 0;
#X connect 168 0 4 1;
#X connect 169 0 170 0;
#X connect 170 0 171 0;
#X connect 171 0 172 0;
#X connect 172 0 173 0;
#X connect 173 0 174 0;
#X connect 174 0 4 1;
#X connect 175 0 176 0;
#X connect 176 0 177 0;
#X connect 177 0 178 0;
#X connect 178 0 179 0;
#X connect 179 0 180 0;
#X connect 180 0 4 1;
#X connect 181 0 182 0;
#X connect 182 0 183 0;
#X connect 183 0 184 0;
#X connect 184 0 185 0;
#X connect 185 0 186 0;
#X connect 186 0 4 1;
#X connect 187 0 188 0;
#X connect 188 0 189 0;
#X connect 189 0 190 0;
#X connect 190 0 191 0;
#X connect 191 0 192 0;
#X connect 192 0 4 1;
#X connect 193 0 194 0;
#X connect 194 0 195 0;
#X connect 195 0 196 0;
#X connect 196 0 197 0;
#X connect 197 0 198 0;
#X connect 198 0 4 1;
#X connect 199 0 200 0;
#X connect 200 0 201 0;
#X connect 201 0 202 0;
#X connect 202 0 203 0;
#X connect 203 0 204 0;
#X connect 204 0 4 1;
#X connect 205 0 206 0;
#X connect 206 0 207 0;
#X connect 207 0 208 0;
#X connect 208 0 209 0;
#X connect 209 0 210 0;
#X connect 210 0 4 1;
#X connect 211 0 212 0;
#X connect 212 0 213 0;
#X connect 213 0 214 0;
#X connect 214 0 215 0;
#X connect 215 0 216 0;
#X connect 216 0 4 1;
#X connect 217 0 218 0;
#X connect 218 0 219 0;
#X connect 219 0 220 0;
#X connect 220 0 221 0;
#X connect 221 0 222 0;
#X connect 222 0 4 1;
#X connect 223 0 224 0;
#X connect 224 0 225 0;
#X connect 225 0 226 0;
#X connect 226 0 227 0;
#X connect 227 0 228 0;
#X connect 228 0 4 1;
#X connect 229 0 230 0;
#X connect 230 0 231 0;
#X connect 231 0 232 0;
#X connect 232 0 233 0;
#X connect 233 0 234 0;
#X connect 234 0 4 1;
#X connect 235 0 236 0;
#X connect 236 0 237 0;
#X connect 237 0 238 0;
#X connect 238 0 239 0;
#X connect 239 0 240 0;
#X connect 240 0 4 1;
#X connect 241 0 242 0;
#X connect 242 0 243 0;
#X connect 243 0 244 0;
#X connect 244 0 245 0;
#X connect 245 0 246 0;
#X connect 246 0 4 1;
#X connect 247 0 248 0;
#X connect 248 0 249 0;
#X connect 249 0 250 0;
#X connect 250 0 251 0;
#X connect 251 0 252 0;
#X connect 252 0 4 1;
#X connect 253 0 254 0;
#X connect 254 0 255 0;
#X connect 255 0 256 0;
#X connect 256 0 257 0;
#X connect 257 0 258 0;
#X connect 258 0 4 1;
#X connect 259 0 260 0;
#X connect 260 0 261 0;
#X connect 261 0 262 0;
#X connect 262 0 263 0;
#X connect 263 0 264 0;
#X connect 264 0 9 1;
#X connect 265 0 266 0;
#X connect 266 0 267 0;
#X connect 267 0 268 0;
#X connect 268 0 269 0;
#X connect 269 0 270 0;
#X connect 270 0 9 1;
#X connect 271 0 272 0;
#X connect 272 0 273 0;
#X connect 273 0 274 0;
#X connect 274 0 275 0;
#X connect 275 0 276 0;
#X connect 276 0 9 1;
#X connect 277 0 278 0;
#X connect 278 0 279 0;
#X connect 279 0 280 0;
#X connect 280 0 281 0;
#X connect 281 0 282 0;
#X connect 282 0 9 1;
#X connect 283 0 284 0;
#X connect 284 0 285 0;
#X connect 285 0 286 0;
#X connect 286 0 287 0;
#X connect 287 0 288 0;
#X connect 288 0 9 1;
#X connect 289 0 290 0;
#X connect 290 0 291 0;
#X connect 291 0 292 0;
#X connect 292 0 293 0;
#X connect 293 0 294 0;
#X connect 294 0 9 1;
#X connect 295 0 296 0;
#X connect 296 0 297 0;
#X connect 297 0 298 0;
#X connect 298 0 299 0;
#X connect 299 0 300 0;
#X connect 300 0 9 1;
#X connect 301 0 302 0;
#X connect 302 0 303 0;
#X connect 303 0 304 0;
#X connect 304 0 305 0;
#X connect 305 0 306 0;
#X connect 306 0 9 1;
#X connect 307 0 308 0;
#X connect 308 0 309 0;
#X connect 309 0 310 0;
#X connect 310 0 311 0;
#X connect 311 0 312 0;
#X connect 312 0 9 1;
#X connect 313 0 314 0;
#X connect 314 0 315 0;
#X connect 315 0 316 0;
#X connect 316 0 317 0;
#X connect 317 0 318 0;
#X connect 318 0 9 1;
#X connect 319 0 320 0;
#X connect 320 0 321 0;
#X connect 321 0 322 0;
#X connect 322 0 323 0;
#X connect 323 0 324 0;
#X connect 324 0 9 1;
#X connect 325 0 326 0;
#X connect 326 0 327 0;
#X connect 327 0 328 0;
#X connect 328 0 329 0;
#X connect 329 0 330 0;
#X connect 330 0 9 1;
#X connect 331 0 332 0;
#X connect 332 0 333 0;
#X connect 333 0 334 0;
#X connect 334 0 335 0;
#X connect 335 0 336 0;
#X connect 336 0 9 1;
#X connect 337 0 338 0;
#X connect 338 0 339 0;
#X connect 339 0 340 0;
#X connect 340 0 341 0;
#X connect 341 0 342 0;
#X connect 342 0 9 1;
#X connect 343 0 344 0;
#X connect 344 0 345 0;
#X connect 345 0 346 0;
#X connect 346 0 347 0;
#X connect 347 0 348 0;
#X connect 348 0 9 1;
#X connect 349 0 350 0;
#X connect 350 0 351 0;
#X connect 351 0 352 0;
#X connect 352 0 353 0;
#X connect 353 0 354 0;
#X connect 354 0 9 1;
#X connect 355 0 356 0;
#X connect 356 0 357 0;
#X connect 357 0 358 0;
#X connect 358 0 359 0;
#X connect 359 0 360 0;
#X connect 360 0 9 1;
#X connect 361 0 362 0;
#X connect 362 0 363 0;
#X connect 363 0 364 0;
#X connect 364 0 365 0;
#X connect 365 0 366 0;
#X connect 366 0 9 1;
#X connect 367 0 368 0;
#X connect 368 0 369 0;
#X connect 369 0 370 0;
#X connect 370 0 371 0;
#X connect 371 0 372 0;
#X connect 372 0 9 1;
#X connect 373 0 374 0;
#X connect 374 0 375 0;
#X connect 375 0 376 0;
#X connect 376 0 377 0;
#X connect 377 0 378 0;
#X connect 378 0 9 1;
#X connect 379 0 380 0;
#X connect 380 0 381 0;
#X connect 381 0 382 0;
#X connect 382 0 383 0;
#X connect 383 0 384 0;
#X connect 384 0 9 1;
#X connect 385 0 386 0;
#X connect 386 0 387 0;
#X connect 387 0 388 0;
#X connect 388 0 389 0;
#X connect 389 0 390 0;
#X connect 390 0 9 1;
#X connect 391 0 392 0;
#X connect 392 0 393 0;
#X connect 393 0 394 0;
#X connect 394 0 395 0;
#X connect 395 0 396 0;
#X connect 396 0 9 1;
#X connect 397 0 398 0;
#X connect 398 0 399 0;
#X connect 399 0 400 0;
#X connect 400 0 401 0;
#X connect 401 0 402 0;
#X connect 402 0 9 1;
#X connect 403 0 404 0;
#X connect 404 0 405 0;
#X connect 405 0 406 0;
#X connect 406 0 407 0;
#X connect 407 0 408 0;
#X connect 408 0 9 1;
#X connect 409 0 410 0;
#X connect 410 0 411 0;
#X connect 411 0 412 0;
#X connect 412 0 413 0;
#X connect 413 0 414 0;
#X connect 414 0 9 1;
#X connect 415 0 416 0;
#X connect 416 0 417 0;
#X connect 417 0 418 0;
#X connect 418 0 419 0;
#X connect 419 0 420 0;
#X connect 420 0 9 1;
#X connect 421 0 422 0;
#X connect 422 0 423 0;
#X connect 423 0 424 0;
#X connect 424 0 425 0;
#X connect 425 0 426 0;
#X connect 426 0 9 1;
#X connect 427 0 428 0;
#X connect 428 0 429 0;
#X connect 429 0 430 0;
#X connect 430 0 431 0;
#X connect 431 0 432 0;
#X connect 432 0 9 1;
#X connect 433 0 434 0;
#X connect 434 0 435 0;
#X connect 435 0 436 0;
#X connect 436 0 437 0;
#X connect 437 0 438 0;
#X connect 438 0 9 1;
#X connect 439 0 440 0;
#X connect 440 0 441 0;
#X connect 441 0 442 0;
#X connect 442 0 443 0;
#X connect 443 0 444 0;
#X connect 444 0 9 1;
#X connect 445 0 446 0;
#X connect 446 0 447 0;
#X connect 447 0 448 0;
#X connect 448 0 449 0;
#X connect 449 0 450 0;
#X connect 450 0 9 1;
#X connect 451 0 452 0;
#X connect 452 0 453 0;
#X connect 453 0 454 0;
#X connect 454 0 455 0;
#X connect 455 0 456 0;
#X connect 456 0 9 1;
#X connect 457 0 458 0;
#X connect 458 0 459 0;
#X connect 459 0 460 0;
#X connect 460 0 461 0;
#X connect 461 0 462 0;
#X connect 462 0 9 1;
#X connect 463 0 464 0;
#X connect 464 0 465 0;
#X connect 465 0 466 0;
#X connect 466 0 467 0;
#X connect 467 0 468 0;
#X connect 468 0 9 1;
#X connect 469 0 470 0;
#X connect 470 0 471 0;
#X connect 471 0 472 0;
#X connect 472 0 473 0;
#X connect 473 0 474 0;
#X connect 474 0 9 1;
#X connect 475 0 476 0;
#X connect 476 0 477 0;
#X connect 477 0 478 0;
#X connect 478 0 479 0;
#X connect 479 0 480 0;
#X connect 480 0 9 1;
#X connect 481 0 482 0;
#X connect 482 0 483 0;
#X connect 483 0 484 0;
#X connect 484 0 485 0;
#X connect 485 0 486 0;
#X connect 486 0 9 1;
#X connect 487 0 488 0;
#X connect 488 0 489 0;
#X connect 489 0 490 0;
#X connect 490 0 491 0;
#X connect 491 0 492 0;
#X connect 492 0 9 1;
#X connect 493 0 494 0;
#X connect 494 0 495 0;
#X connect 495 0 496 0;
#X connect 496 0 497 0;
#X connect 497 0 498 0;
#X connect 498 0 9 1;
#X connect 499 0 500 0;
#X connect 500 0 501 0;
#X connect 501 0 502 0;
#X connect 502 0 503 0;
#X connect 503 0 504 0;
#X connect 504 0 9 1;
