#N canvas 0 22 450 300 12;
#X obj 10 10 loadbang;
#X obj 10 68 del 10;
#X msg 10 92 0.5 100;
#X obj 10 116 line~;
#X obj 10 140 *~;
#X obj 10 164 clip~ -0.707 0.707;
#X obj 10 188 hip~ 3;
#X obj 10 212 dac~ 1;
#X obj 10 236 line~;
#X obj 10 260 *~;
#X obj 10 284 clip~ -0.707 0.707;
#X obj 10 308 hip~ 3;
#X obj 10 332 dac~ 2;
#X obj 10 332 osc~ 0.045859077151226536;
#X obj 10 390 *~ 0.5519006702584628;
#X obj 10 414 +~ 65.53360856982522;
#X obj 10 438 mtof~;
#X obj 10 462 osc~;
#X obj 10 486 *~ 0.046485260770975055;
#X obj 217 10 osc~ 0.03438386180268217;
#X obj 217 68 *~ 0.893977108773849;
#X obj 217 92 +~ 65.78529369766329;
#X obj 217 116 mtof~;
#X obj 217 140 osc~;
#X obj 217 164 *~ 0.04535147392290249;
#X obj 415 10 osc~ 0.08326753207436201;
#X obj 415 68 *~ 0.4400842961420375;
#X obj 415 92 +~ 65.45711284643743;
#X obj 415 116 mtof~;
#X obj 415 140 osc~;
#X obj 415 164 *~ 0.04421768707482993;
#X obj 613 10 osc~ 0.08804212972155549;
#X obj 613 68 *~ 0.2950517765782983;
#X obj 613 92 +~ 66.99050205907899;
#X obj 613 116 mtof~;
#X obj 613 140 osc~;
#X obj 613 164 *~ 0.043083900226757364;
#X obj 820 10 osc~ 0.05135772273723599;
#X obj 820 68 *~ 0.2934047431298219;
#X obj 820 92 +~ 71.23868109865872;
#X obj 820 116 mtof~;
#X obj 820 140 osc~;
#X obj 820 164 *~ 0.0419501133786848;
#X obj 1009 10 osc~ 0.00399018381914843;
#X obj 1009 68 *~ 0.16327476125200766;
#X obj 1009 92 +~ 71.11260236805657;
#X obj 1009 116 mtof~;
#X obj 1009 140 osc~;
#X obj 1009 164 *~ 0.04081632653061225;
#X obj 1207 10 osc~ 0.05895704306446228;
#X obj 1207 68 *~ 0.13911456892224647;
#X obj 1207 92 +~ 75.80232686589554;
#X obj 1207 116 mtof~;
#X obj 1207 140 osc~;
#X obj 1207 164 *~ 0.03968253968253968;
#X obj 1405 10 osc~ 0.07591225531654029;
#X obj 1405 68 *~ 0.017529353434043993;
#X obj 1405 92 +~ 65.56011129261697;
#X obj 1405 116 mtof~;
#X obj 1405 140 osc~;
#X obj 1405 164 *~ 0.03854875283446712;
#X obj 1603 10 osc~ 0.05588538818959768;
#X obj 1603 68 *~ 0.19687734283366487;
#X obj 1603 92 +~ 72.37296703054754;
#X obj 1603 116 mtof~;
#X obj 1603 140 osc~;
#X obj 1603 164 *~ 0.03741496598639456;
#X obj 1801 10 osc~ 0.08671445659995125;
#X obj 1801 68 *~ 0.07520865588422854;
#X obj 1801 92 +~ 73.60480386729658;
#X obj 1801 116 mtof~;
#X obj 1801 140 osc~;
#X obj 1801 164 *~ 0.03628117913832199;
#X obj 1999 10 osc~ 0.061324198089009976;
#X obj 1999 68 *~ 0.046606852208540994;
#X obj 1999 92 +~ 75.11615683469053;
#X obj 1999 116 mtof~;
#X obj 1999 140 osc~;
#X obj 1999 164 *~ 0.035147392290249435;
#X obj 2206 10 osc~ 0.098427462377224;
#X obj 2206 68 *~ 0.1236894530211467;
#X obj 2206 92 +~ 83.10158840153805;
#X obj 2206 116 mtof~;
#X obj 2206 140 osc~;
#X obj 2206 164 *~ 0.03401360544217687;
#X obj 2404 10 osc~ 0.02739441598841823;
#X obj 2404 68 *~ 0.11406143655013992;
#X obj 2404 92 +~ 73.40948684406712;
#X obj 2404 116 mtof~;
#X obj 2404 140 osc~;
#X obj 2404 164 *~ 0.032879818594104306;
#X obj 2611 10 osc~ 0.05262707878000566;
#X obj 2611 68 *~ 0.060890895734542615;
#X obj 2611 92 +~ 85.06808391748895;
#X obj 2611 116 mtof~;
#X obj 2611 140 osc~;
#X obj 2611 164 *~ 0.03174603174603175;
#X obj 2809 10 osc~ 0.07529195273279074;
#X obj 2809 68 *~ 0.08375414119352911;
#X obj 2809 92 +~ 80.97908056773454;
#X obj 2809 116 mtof~;
#X obj 2809 140 osc~;
#X obj 2809 164 *~ 0.03061224489795918;
#X obj 3007 10 osc~ 0.027058360305469688;
#X obj 3007 68 *~ 0.048105891701282225;
#X obj 3007 92 +~ 84.4449519447547;
#X obj 3007 116 mtof~;
#X obj 3007 140 osc~;
#X obj 3007 164 *~ 0.02947845804988662;
#X obj 3205 10 osc~ 0.04874253317224513;
#X obj 3205 68 *~ 0.046863532131517234;
#X obj 3205 92 +~ 86.15953298603405;
#X obj 3205 116 mtof~;
#X obj 3205 140 osc~;
#X obj 3205 164 *~ 0.028344671201814057;
#X obj 3412 10 osc~ 0.012734357799630914;
#X obj 3412 68 *~ 0.07191713105259634;
#X obj 3412 92 +~ 79.05783690091863;
#X obj 3412 116 mtof~;
#X obj 3412 140 osc~;
#X obj 3412 164 *~ 0.027210884353741492;
#X obj 3619 10 osc~ 0.04764175652828349;
#X obj 3619 68 *~ 0.007481489675493838;
#X obj 3619 92 +~ 65.38116881581598;
#X obj 3619 116 mtof~;
#X obj 3619 140 osc~;
#X obj 3619 164 *~ 0.026077097505668934;
#X obj 3826 10 osc~ 0.03810974201661527;
#X obj 3826 68 *~ 0.08059156843003125;
#X obj 3826 92 +~ 88.97500363821928;
#X obj 3826 116 mtof~;
#X obj 3826 140 osc~;
#X obj 3826 164 *~ 0.024943310657596373;
#X obj 4033 10 osc~ 0.054939921480110156;
#X obj 4033 68 *~ 0.08224399583407738;
#X obj 4033 92 +~ 78.55414829704776;
#X obj 4033 116 mtof~;
#X obj 4033 140 osc~;
#X obj 4033 164 *~ 0.023809523809523808;
#X obj 4240 10 osc~ 0.024010445390595006;
#X obj 4240 68 *~ 0.08877087940466742;
#X obj 4240 92 +~ 66.91096882432379;
#X obj 4240 116 mtof~;
#X obj 4240 140 osc~;
#X obj 4240 164 *~ 0.022675736961451243;
#X obj 4447 10 osc~ 0.018399507458950082;
#X obj 4447 68 *~ 0.06374523200215758;
#X obj 4447 92 +~ 84.76078063739548;
#X obj 4447 116 mtof~;
#X obj 4447 140 osc~;
#X obj 4447 164 *~ 0.021541950113378682;
#X obj 4654 10 osc~ 0.04758327685935753;
#X obj 4654 68 *~ 0.059518673451941284;
#X obj 4654 92 +~ 80.53852398113551;
#X obj 4654 116 mtof~;
#X obj 4654 140 osc~;
#X obj 4654 164 *~ 0.020408163265306124;
#X obj 4861 10 osc~ 0.09462032420647892;
#X obj 4861 68 *~ 0.024119858907073192;
#X obj 4861 92 +~ 87.34877228266687;
#X obj 4861 116 mtof~;
#X obj 4861 140 osc~;
#X obj 4861 164 *~ 0.01927437641723356;
#X obj 5059 10 osc~ 0.0058048650587710585;
#X obj 5059 68 *~ 0.017849046014178624;
#X obj 5059 92 +~ 101.9505089647397;
#X obj 5059 116 mtof~;
#X obj 5059 140 osc~;
#X obj 5059 164 *~ 0.018140589569160995;
#X obj 5266 10 osc~ 0.08296537033984333;
#X obj 5266 68 *~ 0.010839855955104049;
#X obj 5266 92 +~ 81.43300027164534;
#X obj 5266 116 mtof~;
#X obj 5266 140 osc~;
#X obj 5266 164 *~ 0.017006802721088433;
#X obj 5473 10 osc~ 0.054638776868996736;
#X obj 5473 68 *~ 0.0067479388867938694;
#X obj 5473 92 +~ 83.65692151422337;
#X obj 5473 116 mtof~;
#X obj 5473 140 osc~;
#X obj 5473 164 *~ 0.015873015873015876;
#X obj 5680 10 osc~ 0.07199001956166833;
#X obj 5680 68 *~ 0.024375576716346783;
#X obj 5680 92 +~ 82.15321902846745;
#X obj 5680 116 mtof~;
#X obj 5680 140 osc~;
#X obj 5680 164 *~ 0.01473922902494331;
#X obj 5878 10 osc~ 0.012031223944699344;
#X obj 5878 68 *~ 0.057109690144215006;
#X obj 5878 92 +~ 102.29647390017993;
#X obj 5878 116 mtof~;
#X obj 5878 140 osc~;
#X obj 5878 164 *~ 0.013605442176870746;
#X obj 6085 10 osc~ 0.013880723620991176;
#X obj 6085 68 *~ 0.0089464632686471;
#X obj 6085 92 +~ 68.38686930633747;
#X obj 6085 116 mtof~;
#X obj 6085 140 osc~;
#X obj 6085 164 *~ 0.012471655328798183;
#X obj 6292 10 osc~ 0.07576342711231937;
#X obj 6292 68 *~ 0.045314214525805564;
#X obj 6292 92 +~ 84.92514910154983;
#X obj 6292 116 mtof~;
#X obj 6292 140 osc~;
#X obj 6292 164 *~ 0.011337868480725625;
#X obj 6499 10 osc~ 0.03026535676320692;
#X obj 6499 68 *~ 0.0488067557618875;
#X obj 6499 92 +~ 70.63969112486019;
#X obj 6499 116 mtof~;
#X obj 6499 140 osc~;
#X obj 6499 164 *~ 0.010204081632653062;
#X obj 6706 10 osc~ 0.09718533933486827;
#X obj 6706 68 *~ 0.005998509771301916;
#X obj 6706 92 +~ 79.65563977855817;
#X obj 6706 116 mtof~;
#X obj 6706 140 osc~;
#X obj 6706 164 *~ 0.009070294784580497;
#X obj 6913 10 osc~ 0.039834677941690315;
#X obj 6913 68 *~ 0.026941197806059268;
#X obj 6913 92 +~ 92.05236670018125;
#X obj 6913 116 mtof~;
#X obj 6913 140 osc~;
#X obj 6913 164 *~ 0.007936507936507934;
#X obj 7120 10 osc~ 0.09007967533667328;
#X obj 7120 68 *~ 0.008815875460833449;
#X obj 7120 92 +~ 111.26009624756131;
#X obj 7120 116 mtof~;
#X obj 7120 140 osc~;
#X obj 7120 164 *~ 0.006802721088435376;
#X obj 7327 10 osc~ 0.07900235443535955;
#X obj 7327 68 *~ 0.008555615268390146;
#X obj 7327 92 +~ 92.8011657364097;
#X obj 7327 116 mtof~;
#X obj 7327 140 osc~;
#X obj 7327 164 *~ 0.005668934240362813;
#X obj 7534 10 osc~ 0.030679542054113954;
#X obj 7534 68 *~ 0.04121202616435841;
#X obj 7534 92 +~ 87.09119849067011;
#X obj 7534 116 mtof~;
#X obj 7534 140 osc~;
#X obj 7534 164 *~ 0.004535147392290249;
#X obj 7741 10 osc~ 0.03540747991619602;
#X obj 7741 68 *~ 0.014728307909760043;
#X obj 7741 92 +~ 93.27738807645059;
#X obj 7741 116 mtof~;
#X obj 7741 140 osc~;
#X obj 7741 164 *~ 0.003401360544217685;
#X obj 7948 10 osc~ 0.04188837286176972;
#X obj 7948 68 *~ 0.012158823151887316;
#X obj 7948 92 +~ 67.30994565357418;
#X obj 7948 116 mtof~;
#X obj 7948 140 osc~;
#X obj 7948 164 *~ 0.002267573696145127;
#X obj 8155 10 osc~ 0.08847447221157011;
#X obj 8155 68 *~ 0.04405095911601951;
#X obj 8155 92 +~ 135.50824589401577;
#X obj 8155 116 mtof~;
#X obj 8155 140 osc~;
#X obj 8155 164 *~ 0.0011337868480725635;
#X obj 8371 10 osc~ 0.04006903778556631;
#X obj 8371 68 *~ 1.2887324486101193;
#X obj 8371 92 +~ 65.86314865554297;
#X obj 8371 116 mtof~;
#X obj 8371 140 osc~;
#X obj 8371 164 *~ 0.046485260770975055;
#X obj 8578 10 osc~ 0.008267057223892427;
#X obj 8578 68 *~ 0.12723039745929443;
#X obj 8578 92 +~ 67.46469697292338;
#X obj 8578 116 mtof~;
#X obj 8578 140 osc~;
#X obj 8578 164 *~ 0.04535147392290249;
#X obj 8776 10 osc~ 0.05924392051518121;
#X obj 8776 68 *~ 0.6520780631404405;
#X obj 8776 92 +~ 69.9859188499431;
#X obj 8776 116 mtof~;
#X obj 8776 140 osc~;
#X obj 8776 164 *~ 0.04421768707482993;
#X obj 8974 10 osc~ 0.09765995186435161;
#X obj 8974 68 *~ 0.2682485512424615;
#X obj 8974 92 +~ 69.15178197624573;
#X obj 8974 116 mtof~;
#X obj 8974 140 osc~;
#X obj 8974 164 *~ 0.043083900226757364;
#X obj 9181 10 osc~ 0.06548292942951055;
#X obj 9181 68 *~ 0.2945088751242021;
#X obj 9181 92 +~ 66.27201820660873;
#X obj 9181 116 mtof~;
#X obj 9181 140 osc~;
#X obj 9181 164 *~ 0.0419501133786848;
#X obj 9370 10 osc~ 0.014600569241922424;
#X obj 9370 68 *~ 0.10401228008334484;
#X obj 9370 92 +~ 75.01350824595394;
#X obj 9370 116 mtof~;
#X obj 9370 140 osc~;
#X obj 9370 164 *~ 0.04081632653061225;
#X obj 9568 10 osc~ 0.06801948512634802;
#X obj 9568 68 *~ 0.27981077268949717;
#X obj 9568 92 +~ 71.43236659349735;
#X obj 9568 116 mtof~;
#X obj 9568 140 osc~;
#X obj 9568 164 *~ 0.03968253968253968;
#X obj 9766 10 osc~ 0.07373299705409733;
#X obj 9766 68 *~ 0.10769126415444119;
#X obj 9766 92 +~ 66.1396105998617;
#X obj 9766 116 mtof~;
#X obj 9766 140 osc~;
#X obj 9766 164 *~ 0.03854875283446712;
#X obj 9964 10 osc~ 0.09480351400508896;
#X obj 9964 68 *~ 0.07688792000029052;
#X obj 9964 92 +~ 69.81318455956674;
#X obj 9964 116 mtof~;
#X obj 9964 140 osc~;
#X obj 9964 164 *~ 0.03741496598639456;
#X obj 10162 10 osc~ 0.02536241636109601;
#X obj 10162 68 *~ 0.16308529218786708;
#X obj 10162 92 +~ 70.46849540297629;
#X obj 10162 116 mtof~;
#X obj 10162 140 osc~;
#X obj 10162 164 *~ 0.03628117913832199;
#X obj 10360 10 osc~ 0.02939530926281274;
#X obj 10360 68 *~ 0.02551136144730227;
#X obj 10360 92 +~ 73.3006065085517;
#X obj 10360 116 mtof~;
#X obj 10360 140 osc~;
#X obj 10360 164 *~ 0.035147392290249435;
#X obj 10567 10 osc~ 0.07359207265854781;
#X obj 10567 68 *~ 0.04447976774730039;
#X obj 10567 92 +~ 68.74903375957152;
#X obj 10567 116 mtof~;
#X obj 10567 140 osc~;
#X obj 10567 164 *~ 0.03401360544217687;
#X obj 10765 10 osc~ 0.04067511238133869;
#X obj 10765 68 *~ 0.023180952158305478;
#X obj 10765 92 +~ 74.84692202281992;
#X obj 10765 116 mtof~;
#X obj 10765 140 osc~;
#X obj 10765 164 *~ 0.032879818594104306;
#X obj 10972 10 osc~ 0.028012283154195895;
#X obj 10972 68 *~ 0.05455129205849512;
#X obj 10972 92 +~ 77.70879790118022;
#X obj 10972 116 mtof~;
#X obj 10972 140 osc~;
#X obj 10972 164 *~ 0.03174603174603175;
#X obj 11170 10 osc~ 0.06745774036669147;
#X obj 11170 68 *~ 0.11889631050250724;
#X obj 11170 92 +~ 89.4162210813495;
#X obj 11170 116 mtof~;
#X obj 11170 140 osc~;
#X obj 11170 164 *~ 0.03061224489795918;
#X obj 11368 10 osc~ 0.03436573257694288;
#X obj 11368 68 *~ 0.04174056355720465;
#X obj 11368 92 +~ 73.54018147516824;
#X obj 11368 116 mtof~;
#X obj 11368 140 osc~;
#X obj 11368 164 *~ 0.02947845804988662;
#X obj 11566 10 osc~ 0.007423877529868384;
#X obj 11566 68 *~ 0.0005837956469660376;
#X obj 11566 92 +~ 91.8161122439233;
#X obj 11566 116 mtof~;
#X obj 11566 140 osc~;
#X obj 11566 164 *~ 0.028344671201814057;
#X obj 11773 10 osc~ 0.07410145894616922;
#X obj 11773 68 *~ 0.10838951279375919;
#X obj 11773 92 +~ 65.06081164720695;
#X obj 11773 116 mtof~;
#X obj 11773 140 osc~;
#X obj 11773 164 *~ 0.027210884353741492;
#X obj 11980 10 osc~ 0.07476310038479503;
#X obj 11980 68 *~ 0.04165546631761064;
#X obj 11980 92 +~ 96.79004237610363;
#X obj 11980 116 mtof~;
#X obj 11980 140 osc~;
#X obj 11980 164 *~ 0.026077097505668934;
#X obj 12187 10 osc~ 0.014982739522902367;
#X obj 12187 68 *~ 0.030376361538926165;
#X obj 12187 92 +~ 71.92887224317994;
#X obj 12187 116 mtof~;
#X obj 12187 140 osc~;
#X obj 12187 164 *~ 0.024943310657596373;
#X obj 12394 10 osc~ 0.019417383310270264;
#X obj 12394 68 *~ 0.055697474701436836;
#X obj 12394 92 +~ 70.90023291912055;
#X obj 12394 116 mtof~;
#X obj 12394 140 osc~;
#X obj 12394 164 *~ 0.023809523809523808;
#X obj 12601 10 osc~ 0.07374283932873336;
#X obj 12601 68 *~ 0.06960928382949928;
#X obj 12601 92 +~ 79.83527489313131;
#X obj 12601 116 mtof~;
#X obj 12601 140 osc~;
#X obj 12601 164 *~ 0.022675736961451243;
#X obj 12808 10 osc~ 0.05098665393300087;
#X obj 12808 68 *~ 0.0573209911842739;
#X obj 12808 92 +~ 72.30908445507606;
#X obj 12808 116 mtof~;
#X obj 12808 140 osc~;
#X obj 12808 164 *~ 0.021541950113378682;
#X obj 13015 10 osc~ 0.07779511654808549;
#X obj 13015 68 *~ 0.032808178910683335;
#X obj 13015 92 +~ 69.33008046305169;
#X obj 13015 116 mtof~;
#X obj 13015 140 osc~;
#X obj 13015 164 *~ 0.020408163265306124;
#X obj 13222 10 osc~ 0.05036451329275491;
#X obj 13222 68 *~ 0.02948387260936239;
#X obj 13222 92 +~ 66.74882884163443;
#X obj 13222 116 mtof~;
#X obj 13222 140 osc~;
#X obj 13222 164 *~ 0.01927437641723356;
#X obj 13420 10 osc~ 0.04022304089573553;
#X obj 13420 68 *~ 0.005134692327599256;
#X obj 13420 92 +~ 89.19749622238945;
#X obj 13420 116 mtof~;
#X obj 13420 140 osc~;
#X obj 13420 164 *~ 0.018140589569160995;
#X obj 13627 10 osc~ 0.07392537880221926;
#X obj 13627 68 *~ 0.025821013871093694;
#X obj 13627 92 +~ 106.7423661567887;
#X obj 13627 116 mtof~;
#X obj 13627 140 osc~;
#X obj 13627 164 *~ 0.017006802721088433;
#X obj 13834 10 osc~ 0.08580312360880754;
#X obj 13834 68 *~ 0.0035790577704327303;
#X obj 13834 92 +~ 71.86347745303404;
#X obj 13834 116 mtof~;
#X obj 13834 140 osc~;
#X obj 13834 164 *~ 0.015873015873015876;
#X obj 14041 10 osc~ 0.06034599302694468;
#X obj 14041 68 *~ 0.059753629566400346;
#X obj 14041 92 +~ 70.0929911201354;
#X obj 14041 116 mtof~;
#X obj 14041 140 osc~;
#X obj 14041 164 *~ 0.01473922902494331;
#X obj 14239 10 osc~ 0.002133172946131989;
#X obj 14239 68 *~ 0.023005254151123956;
#X obj 14239 92 +~ 104.28199205273366;
#X obj 14239 116 mtof~;
#X obj 14239 140 osc~;
#X obj 14239 164 *~ 0.013605442176870746;
#X obj 14446 10 osc~ 0.08614758184458864;
#X obj 14446 68 *~ 0.02901134088624126;
#X obj 14446 92 +~ 100.7277630586965;
#X obj 14446 116 mtof~;
#X obj 14446 140 osc~;
#X obj 14446 164 *~ 0.012471655328798183;
#X obj 14653 10 osc~ 0.07343199913135444;
#X obj 14653 68 *~ 0.0021537084849600346;
#X obj 14653 92 +~ 81.90507726240952;
#X obj 14653 116 mtof~;
#X obj 14653 140 osc~;
#X obj 14653 164 *~ 0.011337868480725625;
#X obj 14860 10 osc~ 0.09479173522599255;
#X obj 14860 68 *~ 0.04762611383064783;
#X obj 14860 92 +~ 85.26279981164095;
#X obj 14860 116 mtof~;
#X obj 14860 140 osc~;
#X obj 14860 164 *~ 0.010204081632653062;
#X obj 15067 10 osc~ 0.08729391560408106;
#X obj 15067 68 *~ 0.02025636462887567;
#X obj 15067 92 +~ 68.24945230800145;
#X obj 15067 116 mtof~;
#X obj 15067 140 osc~;
#X obj 15067 164 *~ 0.009070294784580497;
#X obj 15274 10 osc~ 0.021547025645851682;
#X obj 15274 68 *~ 0.012597940810893769;
#X obj 15274 92 +~ 123.68376245574899;
#X obj 15274 116 mtof~;
#X obj 15274 140 osc~;
#X obj 15274 164 *~ 0.007936507936507934;
#X obj 15481 10 osc~ 0.0477555339698734;
#X obj 15481 68 *~ 0.0018626354169158613;
#X obj 15481 92 +~ 90.36594505513543;
#X obj 15481 116 mtof~;
#X obj 15481 140 osc~;
#X obj 15481 164 *~ 0.006802721088435376;
#X obj 15688 10 osc~ 0.08756901977839512;
#X obj 15688 68 *~ 0.015165724456366374;
#X obj 15688 92 +~ 115.82017292784053;
#X obj 15688 116 mtof~;
#X obj 15688 140 osc~;
#X obj 15688 164 *~ 0.005668934240362813;
#X obj 15895 10 osc~ 0.08377570395172614;
#X obj 15895 68 *~ 0.007023849363380145;
#X obj 15895 92 +~ 109.45150704782564;
#X obj 15895 116 mtof~;
#X obj 15895 140 osc~;
#X obj 15895 164 *~ 0.004535147392290249;
#X obj 16102 10 osc~ 0.038828033581839075;
#X obj 16102 68 *~ 0.02622502283026577;
#X obj 16102 92 +~ 131.06677122979733;
#X obj 16102 116 mtof~;
#X obj 16102 140 osc~;
#X obj 16102 164 *~ 0.003401360544217685;
#X obj 16309 10 osc~ 0.06827280750998553;
#X obj 16309 68 *~ 0.004100454167695666;
#X obj 16309 92 +~ 118.54736821378276;
#X obj 16309 116 mtof~;
#X obj 16309 140 osc~;
#X obj 16309 164 *~ 0.002267573696145127;
#X obj 16516 10 osc~ 0.043259493884317546;
#X obj 16516 68 *~ 0.03851011860908076;
#X obj 16516 92 +~ 129.977362107386;
#X obj 16516 116 mtof~;
#X obj 16516 140 osc~;
#X obj 16516 164 *~ 0.0011337868480725635;
#X connect 0 0 1 0;
#X connect 1 0 2 0;
#X connect 2 0 3 0;
#X connect 3 0 4 0;
#X connect 4 0 5 0;
#X connect 5 0 6 0;
#X connect 6 0 7 0;
#X connect 2 0 8 0;
#X connect 8 0 9 0;
#X connect 9 0 10 0;
#X connect 10 0 11 0;
#X connect 11 0 12 0;
#X connect 13 0 14 0;
#X connect 14 0 15 0;
#X connect 15 0 16 0;
#X connect 16 0 17 0;
#X connect 17 0 18 0;
#X connect 18 0 4 1;
#X connect 19 0 20 0;
#X connect 20 0 21 0;
#X connect 21 0 22 0;
#X connect 22 0 23 0;
#X connect 23 0 24 0;
#X connect 24 0 4 1;
#X connect 25 0 26 0;
#X connect 26 0 27 0;
#X connect 27 0 28 0;
#X connect 28 0 29 0;
#X connect 29 0 30 0;
#X connect 30 0 4 1;
#X connect 31 0 32 0;
#X connect 32 0 33 0;
#X connect 33 0 34 0;
#X connect 34 0 35 0;
#X connect 35 0 36 0;
#X connect 36 0 4 1;
#X connect 37 0 38 0;
#X connect 38 0 39 0;
#X connect 39 0 40 0;
#X connect 40 0 41 0;
#X connect 41 0 42 0;
#X connect 42 0 4 1;
#X connect 43 0 44 0;
#X connect 44 0 45 0;
#X connect 45 0 46 0;
#X connect 46 0 47 0;
#X connect 47 0 48 0;
#X connect 48 0 4 1;
#X connect 49 0 50 0;
#X connect 50 0 51 0;
#X connect 51 0 52 0;
#X connect 52 0 53 0;
#X connect 53 0 54 0;
#X connect 54 0 4 1;
#X connect 55 0 56 0;
#X connect 56 0 57 0;
#X connect 57 0 58 0;
#X connect 58 0 59 0;
#X connect 59 0 60 0;
#X connect 60 0 4 1;
#X connect 61 0 62 0;
#X connect 62 0 63 0;
#X connect 63 0 64 0;
#X connect 64 0 65 0;
#X connect 65 0 66 0;
#X connect 66 0 4 1;
#X connect 67 0 68 0;
#X connect 68 0 69 0;
#X connect 69 0 70 0;
#X connect 70 0 71 0;
#X connect 71 0 72 0;
#X connect 72 0 4 1;
#X connect 73 0 74 0;
#X connect 74 0 75 0;
#X connect 75 0 76 0;
#X connect 76 0 77 0;
#X connect 77 0 78 0;
#X connect 78 0 4 1;
#X connect 79 0 80 0;
#X connect 80 0 81 0;
#X connect 81 0 82 0;
#X connect 82 0 83 0;
#X connect 83 0 84 0;
#X connect 84 0 4 1;
#X connect 85 0 86 0;
#X connect 86 0 87 0;
#X connect 87 0 88 0;
#X connect 88 0 89 0;
#X connect 89 0 90 0;
#X connect 90 0 4 1;
#X connect 91 0 92 0;
#X connect 92 0 93 0;
#X connect 93 0 94 0;
#X connect 94 0 95 0;
#X connect 95 0 96 0;
#X connect 96 0 4 1;
#X connect 97 0 98 0;
#X connect 98 0 99 0;
#X connect 99 0 100 0;
#X connect 100 0 101 0;
#X connect 101 0 102 0;
#X connect 102 0 4 1;
#X connect 103 0 104 0;
#X connect 104 0 105 0;
#X connect 105 0 106 0;
#X connect 106 0 107 0;
#X connect 107 0 108 0;
#X connect 108 0 4 1;
#X connect 109 0 110 0;
#X connect 110 0 111 0;
#X connect 111 0 112 0;
#X connect 112 0 113 0;
#X connect 113 0 114 0;
#X connect 114 0 4 1;
#X connect 115 0 116 0;
#X connect 116 0 117 0;
#X connect 117 0 118 0;
#X connect 118 0 119 0;
#X connect 119 0 120 0;
#X connect 120 0 4 1;
#X connect 121 0 122 0;
#X connect 122 0 123 0;
#X connect 123 0 124 0;
#X connect 124 0 125 0;
#X connect 125 0 126 0;
#X connect 126 0 4 1;
#X connect 127 0 128 0;
#X connect 128 0 129 0;
#X connect 129 0 130 0;
#X connect 130 0 131 0;
#X connect 131 0 132 0;
#X connect 132 0 4 1;
#X connect 133 0 134 0;
#X connect 134 0 135 0;
#X connect 135 0 136 0;
#X connect 136 0 137 0;
#X connect 137 0 138 0;
#X connect 138 0 4 1;
#X connect 139 0 140 0;
#X connect 140 0 141 0;
#X connect 141 0 142 0;
#X connect 142 0 143 0;
#X connect 143 0 144 0;
#X connect 144 0 4 1;
#X connect 145 0 146 0;
#X connect 146 0 147 0;
#X connect 147 0 148 0;
#X connect 148 0 149 0;
#X connect 149 0 150 0;
#X connect 150 0 4 1;
#X connect 151 0 152 0;
#X connect 152 0 153 0;
#X connect 153 0 154 0;
#X connect 154 0 155 0;
#X connect 155 0 156 0;
#X connect 156 0 4 1;
#X connect 157 0 158 0;
#X connect 158 0 159 0;
#X connect 159 0 160 0;
#X connect 160 0 161 0;
#X connect 161 0 162 0;
#X connect 162 0 4 1;
#X connect 163 0 164 0;
#X connect 164 0 165 0;
#X connect 165 0 166 0;
#X connect 166 0 167 0;
#X connect 167 0 168 0;
#X connect 168 0 4 1;
#X connect 169 0 170 0;
#X connect 170 0 171 0;
#X connect 171 0 172 0;
#X connect 172 0 173 0;
#X connect 173 0 174 0;
#X connect 174 0 4 1;
#X connect 175 0 176 0;
#X connect 176 0 177 0;
#X connect 177 0 178 0;
#X connect 178 0 179 0;
#X connect 179 0 180 0;
#X connect 180 0 4 1;
#X connect 181 0 182 0;
#X connect 182 0 183 0;
#X connect 183 0 184 0;
#X connect 184 0 185 0;
#X connect 185 0 186 0;
#X connect 186 0 4 1;
#X connect 187 0 188 0;
#X connect 188 0 189 0;
#X connect 189 0 190 0;
#X connect 190 0 191 0;
#X connect 191 0 192 0;
#X connect 192 0 4 1;
#X connect 193 0 194 0;
#X connect 194 0 195 0;
#X connect 195 0 196 0;
#X connect 196 0 197 0;
#X connect 197 0 198 0;
#X connect 198 0 4 1;
#X connect 199 0 200 0;
#X connect 200 0 201 0;
#X connect 201 0 202 0;
#X connect 202 0 203 0;
#X connect 203 0 204 0;
#X connect 204 0 4 1;
#X connect 205 0 206 0;
#X connect 206 0 207 0;
#X connect 207 0 208 0;
#X connect 208 0 209 0;
#X connect 209 0 210 0;
#X connect 210 0 4 1;
#X connect 211 0 212 0;
#X connect 212 0 213 0;
#X connect 213 0 214 0;
#X connect 214 0 215 0;
#X connect 215 0 216 0;
#X connect 216 0 4 1;
#X connect 217 0 218 0;
#X connect 218 0 219 0;
#X connect 219 0 220 0;
#X connect 220 0 221 0;
#X connect 221 0 222 0;
#X connect 222 0 4 1;
#X connect 223 0 224 0;
#X connect 224 0 225 0;
#X connect 225 0 226 0;
#X connect 226 0 227 0;
#X connect 227 0 228 0;
#X connect 228 0 4 1;
#X connect 229 0 230 0;
#X connect 230 0 231 0;
#X connect 231 0 232 0;
#X connect 232 0 233 0;
#X connect 233 0 234 0;
#X connect 234 0 4 1;
#X connect 235 0 236 0;
#X connect 236 0 237 0;
#X connect 237 0 238 0;
#X connect 238 0 239 0;
#X connect 239 0 240 0;
#X connect 240 0 4 1;
#X connect 241 0 242 0;
#X connect 242 0 243 0;
#X connect 243 0 244 0;
#X connect 244 0 245 0;
#X connect 245 0 246 0;
#X connect 246 0 4 1;
#X connect 247 0 248 0;
#X connect 248 0 249 0;
#X connect 249 0 250 0;
#X connect 250 0 251 0;
#X connect 251 0 252 0;
#X connect 252 0 4 1;
#X connect 253 0 254 0;
#X connect 254 0 255 0;
#X connect 255 0 256 0;
#X connect 256 0 257 0;
#X connect 257 0 258 0;
#X connect 258 0 4 1;
#X connect 259 0 260 0;
#X connect 260 0 261 0;
#X connect 261 0 262 0;
#X connect 262 0 263 0;
#X connect 263 0 264 0;
#X connect 264 0 9 1;
#X connect 265 0 266 0;
#X connect 266 0 267 0;
#X connect 267 0 268 0;
#X connect 268 0 269 0;
#X connect 269 0 270 0;
#X connect 270 0 9 1;
#X connect 271 0 272 0;
#X connect 272 0 273 0;
#X connect 273 0 274 0;
#X connect 274 0 275 0;
#X connect 275 0 276 0;
#X connect 276 0 9 1;
#X connect 277 0 278 0;
#X connect 278 0 279 0;
#X connect 279 0 280 0;
#X connect 280 0 281 0;
#X connect 281 0 282 0;
#X connect 282 0 9 1;
#X connect 283 0 284 0;
#X connect 284 0 285 0;
#X connect 285 0 286 0;
#X connect 286 0 287 0;
#X connect 287 0 288 0;
#X connect 288 0 9 1;
#X connect 289 0 290 0;
#X connect 290 0 291 0;
#X connect 291 0 292 0;
#X connect 292 0 293 0;
#X connect 293 0 294 0;
#X connect 294 0 9 1;
#X connect 295 0 296 0;
#X connect 296 0 297 0;
#X connect 297 0 298 0;
#X connect 298 0 299 0;
#X connect 299 0 300 0;
#X connect 300 0 9 1;
#X connect 301 0 302 0;
#X connect 302 0 303 0;
#X connect 303 0 304 0;
#X connect 304 0 305 0;
#X connect 305 0 306 0;
#X connect 306 0 9 1;
#X connect 307 0 308 0;
#X connect 308 0 309 0;
#X connect 309 0 310 0;
#X connect 310 0 311 0;
#X connect 311 0 312 0;
#X connect 312 0 9 1;
#X connect 313 0 314 0;
#X connect 314 0 315 0;
#X connect 315 0 316 0;
#X connect 316 0 317 0;
#X connect 317 0 318 0;
#X connect 318 0 9 1;
#X connect 319 0 320 0;
#X connect 320 0 321 0;
#X connect 321 0 322 0;
#X connect 322 0 323 0;
#X connect 323 0 324 0;
#X connect 324 0 9 1;
#X connect 325 0 326 0;
#X connect 326 0 327 0;
#X connect 327 0 328 0;
#X connect 328 0 329 0;
#X connect 329 0 330 0;
#X connect 330 0 9 1;
#X connect 331 0 332 0;
#X connect 332 0 333 0;
#X connect 333 0 334 0;
#X connect 334 0 335 0;
#X connect 335 0 336 0;
#X connect 336 0 9 1;
#X connect 337 0 338 0;
#X connect 338 0 339 0;
#X connect 339 0 340 0;
#X connect 340 0 341 0;
#X connect 341 0 342 0;
#X connect 342 0 9 1;
#X connect 343 0 344 0;
#X connect 344 0 345 0;
#X connect 345 0 346 0;
#X connect 346 0 347 0;
#X connect 347 0 348 0;
#X connect 348 0 9 1;
#X connect 349 0 350 0;
#X connect 350 0 351 0;
#X connect 351 0 352 0;
#X connect 352 0 353 0;
#X connect 353 0 354 0;
#X connect 354 0 9 1;
#X connect 355 0 356 0;
#X connect 356 0 357 0;
#X connect 357 0 358 0;
#X connect 358 0 359 0;
#X connect 359 0 360 0;
#X connect 360 0 9 1;
#X connect 361 0 362 0;
#X connect 362 0 363 0;
#X connect 363 0 364 0;
#X connect 364 0 365 0;
#X connect 365 0 366 0;
#X connect 366 0 9 1;
#X connect 367 0 368 0;
#X connect 368 0 369 0;
#X connect 369 0 370 0;
#X connect 370 0 371 0;
#X connect 371 0 372 0;
#X connect 372 0 9 1;
#X connect 373 0 374 0;
#X connect 374 0 375 0;
#X connect 375 0 376 0;
#X connect 376 0 377 0;
#X connect 377 0 378 0;
#X connect 378 0 9 1;
#X connect 379 0 380 0;
#X connect 380 0 381 0;
#X connect 381 0 382 0;
#X connect 382 0 383 0;
#X connect 383 0 384 0;
#X connect 384 0 9 1;
#X connect 385 0 386 0;
#X connect 386 0 387 0;
#X connect 387 0 388 0;
#X connect 388 0 389 0;
#X connect 389 0 390 0;
#X connect 390 0 9 1;
#X connect 391 0 392 0;
#X connect 392 0 393 0;
#X connect 393 0 394 0;
#X connect 394 0 395 0;
#X connect 395 0 396 0;
#X connect 396 0 9 1;
#X connect 397 0 398 0;
#X connect 398 0 399 0;
#X connect 399 0 400 0;
#X connect 400 0 401 0;
#X connect 401 0 402 0;
#X connect 402 0 9 1;
#X connect 403 0 404 0;
#X connect 404 0 405 0;
#X connect 405 0 406 0;
#X connect 406 0 407 0;
#X connect 407 0 408 0;
#X connect 408 0 9 1;
#X connect 409 0 410 0;
#X connect 410 0 411 0;
#X connect 411 0 412 0;
#X connect 412 0 413 0;
#X connect 413 0 414 0;
#X connect 414 0 9 1;
#X connect 415 0 416 0;
#X connect 416 0 417 0;
#X connect 417 0 418 0;
#X connect 418 0 419 0;
#X connect 419 0 420 0;
#X connect 420 0 9 1;
#X connect 421 0 422 0;
#X connect 422 0 423 0;
#X connect 423 0 424 0;
#X connect 424 0 425 0;
#X connect 425 0 426 0;
#X connect 426 0 9 1;
#X connect 427 0 428 0;
#X connect 428 0 429 0;
#X connect 429 0 430 0;
#X connect 430 0 431 0;
#X connect 431 0 432 0;
#X connect 432 0 9 1;
#X connect 433 0 434 0;
#X connect 434 0 435 0;
#X connect 435 0 436 0;
#X connect 436 0 437 0;
#X connect 437 0 438 0;
#X connect 438 0 9 1;
#X connect 439 0 440 0;
#X connect 440 0 441 0;
#X connect 441 0 442 0;
#X connect 442 0 443 0;
#X connect 443 0 444 0;
#X connect 444 0 9 1;
#X connect 445 0 446 0;
#X connect 446 0 447 0;
#X connect 447 0 448 0;
#X connect 448 0 449 0;
#X connect 449 0 450 0;
#X connect 450 0 9 1;
#X connect 451 0 452 0;
#X connect 452 0 453 0;
#X connect 453 0 454 0;
#X connect 454 0 455 0;
#X connect 455 0 456 0;
#X connect 456 0 9 1;
#X connect 457 0 458 0;
#X connect 458 0 459 0;
#X connect 459 0 460 0;
#X connect 460 0 461 0;
#X connect 461 0 462 0;
#X connect 462 0 9 1;
#X connect 463 0 464 0;
#X connect 464 0 465 0;
#X connect 465 0 466 0;
#X connect 466 0 467 0;
#X connect 467 0 468 0;
#X connect 468 0 9 1;
#X connect 469 0 470 0;
#X connect 470 0 471 0;
#X connect 471 0 472 0;
#X connect 472 0 473 0;
#X connect 473 0 474 0;
#X connect 474 0 9 1;
#X connect 475 0 476 0;
#X connect 476 0 477 0;
#X connect 477 0 478 0;
#X connect 478 0 479 0;
#X connect 479 0 480 0;
#X connect 480 0 9 1;
#X connect 481 0 482 0;
#X connect 482 0 483 0;
#X connect 483 0 484 0;
#X connect 484 0 485 0;
#X connect 485 0 486 0;
#X connect 486 0 9 1;
#X connect 487 0 488 0;
#X connect 488 0 489 0;
#X connect 489 0 490 0;
#X connect 490 0 491 0;
#X connect 491 0 492 0;
#X connect 492 0 9 1;
#X connect 493 0 494 0;
#X connect 494 0 495 0;
#X connect 495 0 496 0;
#X connect 496 0 497 0;
#X connect 497 0 498 0;
#X connect 498 0 9 1;
#X connect 499 0 500 0;
#X connect 500 0 501 0;
#X connect 501 0 502 0;
#X connect 502 0 503 0;
#X connect 503 0 504 0;
#X connect 504 0 9 1;
