#N canvas 0 22 450 2400 12;
#X obj 552 22332 dac~;
#X obj 552 22356 phasor~ 0.8829106588114616 0.9961048751388847;
#X obj 552 22380 lop~ 100;
#X obj 552 22404 *~ 70.63285270491693;
#X obj 552 22428 +~ 570.6328527049169;
#X obj 552 22452 phasor~;
#X obj 552 22476 +~ 0.6123956440593549;
#X obj 552 22500 cos~;
#X obj 552 22524 *~ 2;
#X obj 552 22548 -~ 1;
#X obj 552 22572 clip~ -0.3 0.3;
#X obj 552 22596 *~ 0.08829106588114616;
#X obj 552 22620 *~;
#X obj 552 22644 *~ 0.603229674173889;
#X obj 552 22668 *~ 0.39677032582611105;
#X obj 552 22692 sig~ 1;
#X obj 552 22716 -~;
#X obj 552 22740 *~;
#X obj 552 22764 *~;
#X obj 552 22788 *~;
#X obj 552 22812 *~;
#X obj 552 22836 *~;
#X obj 552 22860 phasor~ 0.9744140393036116 0.9952563415340353;
#X obj 552 22884 lop~ 100;
#X obj 552 22908 *~ 77.95312314428892;
#X obj 552 22932 +~ 577.953123144289;
#X obj 552 22956 phasor~;
#X obj 552 22980 +~ 0.6196037186482457;
#X obj 552 23004 cos~;
#X obj 552 23028 *~ 2;
#X obj 552 23052 -~ 1;
#X obj 552 23076 clip~ -0.3 0.3;
#X obj 552 23100 *~ 0.09744140393036116;
#X obj 552 23124 *~;
#X obj 552 23148 *~ 0.11463737411013819;
#X obj 552 23172 *~ 0.8853626258898618;
#X obj 552 23196 sig~ 1;
#X obj 552 23220 -~;
#X obj 552 23244 *~;
#X obj 552 23268 *~;
#X obj 552 23292 *~;
#X obj 552 23316 *~;
#X obj 552 23340 *~;
#X obj 552 23364 phasor~ 0.7169337844972408 0.9974311303458364;
#X obj 552 23388 lop~ 100;
#X obj 552 23412 *~ 57.354702759779265;
#X obj 552 23436 +~ 557.3547027597792;
#X obj 552 23460 phasor~;
#X obj 552 23484 +~ 0.5991905704179008;
#X obj 552 23508 cos~;
#X obj 552 23532 *~ 2;
#X obj 552 23556 -~ 1;
#X obj 552 23580 clip~ -0.3 0.3;
#X obj 552 23604 *~ 0.07169337844972408;
#X obj 552 23628 *~;
#X obj 552 23652 *~ 0.4101791164936841;
#X obj 552 23676 *~ 0.5898208835063159;
#X obj 552 23700 sig~ 1;
#X obj 552 23724 -~;
#X obj 552 23748 *~;
#X obj 552 23772 *~;
#X obj 552 23796 *~;
#X obj 552 23820 *~;
#X obj 552 23844 *~;
#X obj 552 23868 phasor~ 0.39561779999665825 0.9992175348448793;
#X obj 552 23892 lop~ 100;
#X obj 552 23916 *~ 31.64942399973266;
#X obj 552 23940 +~ 531.6494239997327;
#X obj 552 23964 phasor~;
#X obj 552 23988 +~ 0.5731609448861502;
#X obj 552 24012 cos~;
#X obj 552 24036 *~ 2;
#X obj 552 24060 -~ 1;
#X obj 552 24084 clip~ -0.3 0.3;
#X obj 552 24108 *~ 0.03956177999966583;
#X obj 552 24132 *~;
#X obj 552 24156 *~ 0.2900464978783134;
#X obj 552 24180 *~ 0.7099535021216866;
#X obj 552 24204 sig~ 1;
#X obj 552 24228 -~;
#X obj 552 24252 *~;
#X obj 552 24276 *~;
#X obj 552 24300 *~;
#X obj 552 24324 *~;
#X obj 552 24348 *~;
#X obj 552 24372 phasor~ 0.17464758621629528 0.9998474949795987;
#X obj 552 24396 lop~ 100;
#X obj 552 24420 *~ 13.971806897303624;
#X obj 552 24444 +~ 513.9718068973036;
#X obj 552 24468 phasor~;
#X obj 552 24492 +~ 0.5549152476074245;
#X obj 552 24516 cos~;
#X obj 552 24540 *~ 2;
#X obj 552 24564 -~ 1;
#X obj 552 24588 clip~ -0.3 0.3;
#X obj 552 24612 *~ 0.01746475862162953;
#X obj 552 24636 *~;
#X obj 552 24660 *~ 0.9505341269080061;
#X obj 552 24684 *~ 0.049465873091993906;
#X obj 552 24708 sig~ 1;
#X obj 552 24732 -~;
#X obj 552 24756 *~;
#X obj 552 24780 *~;
#X obj 552 24804 *~;
#X obj 552 24828 *~;
#X obj 552 24852 *~;
#X obj 552 24876 phasor~ 0.06424925641919202 0.9999793602362482;
#X obj 552 24900 lop~ 100;
#X obj 552 24924 *~ 5.139940513535361;
#X obj 552 24948 +~ 505.13994051353535;
#X obj 552 24972 phasor~;
#X obj 552 24996 +~ 0.545697505467837;
#X obj 552 25020 cos~;
#X obj 552 25044 *~ 2;
#X obj 552 25068 -~ 1;
#X obj 552 25092 clip~ -0.3 0.3;
#X obj 552 25116 *~ 0.0064249256419192016;
#X obj 552 25140 *~;
#X obj 552 25164 *~ 0.24768390703501086;
#X obj 552 25188 *~ 0.7523160929649891;
#X obj 552 25212 sig~ 1;
#X obj 552 25236 -~;
#X obj 552 25260 *~;
#X obj 552 25284 *~;
#X obj 552 25308 *~;
#X obj 552 25332 *~;
#X obj 552 25356 *~;
#X obj 552 25380 phasor~ 0.020259411897576907 0.9999979477818498;
#X obj 552 25404 lop~ 100;
#X obj 552 25428 *~ 1.6207529518061525;
#X obj 552 25452 +~ 501.62075295180614;
#X obj 552 25476 phasor~;
#X obj 552 25500 +~ 0.5420059666118621;
#X obj 552 25524 cos~;
#X obj 552 25548 *~ 2;
#X obj 552 25572 -~ 1;
#X obj 552 25596 clip~ -0.3 0.3;
#X obj 552 25620 *~ 0.0020259411897576908;
#X obj 552 25644 *~;
#X obj 552 25668 *~ 0.9265549983719915;
#X obj 552 25692 *~ 0.07344500162800849;
#X obj 552 25716 sig~ 1;
#X obj 552 25740 -~;
#X obj 552 25764 *~;
#X obj 552 25788 *~;
#X obj 552 25812 *~;
#X obj 552 25836 *~;
#X obj 552 25860 *~;
#X obj 552 25884 phasor~ 0.005589765845506998 0.999999843772593;
#X obj 552 25908 lop~ 100;
#X obj 552 25932 *~ 0.4471812676405599;
#X obj 552 25956 +~ 500.4471812676406;
#X obj 552 25980 phasor~;
#X obj 552 26004 +~ 0.5407725840107035;
#X obj 552 26028 cos~;
#X obj 552 26052 *~ 2;
#X obj 552 26076 -~ 1;
#X obj 552 26100 clip~ -0.3 0.3;
#X obj 552 26124 *~ 0.0005589765845506998;
#X obj 552 26148 *~;
#X obj 552 26172 *~ 0.8758593582535587;
#X obj 552 26196 *~ 0.12414064174644135;
#X obj 552 26220 sig~ 1;
#X obj 552 26244 -~;
#X obj 552 26268 *~;
#X obj 552 26292 *~;
#X obj 552 26316 *~;
#X obj 552 26340 *~;
#X obj 552 26364 *~;
#X obj 552 26388 phasor~ 0.001370906623682886 0.9999999906030752;
#X obj 552 26412 lop~ 100;
#X obj 552 26436 *~ 0.10967252989463089;
#X obj 552 26460 +~ 500.1096725298946;
#X obj 552 26484 phasor~;
#X obj 552 26508 +~ 0.5404176586052694;
#X obj 552 26532 cos~;
#X obj 552 26556 *~ 2;
#X obj 552 26580 -~ 1;
#X obj 552 26604 clip~ -0.3 0.3;
#X obj 552 26628 *~ 0.0001370906623682886;
#X obj 552 26652 *~;
#X obj 552 26676 *~ 0.6769356977093598;
#X obj 552 26700 *~ 0.3230643022906402;
#X obj 552 26724 sig~ 1;
#X obj 552 26748 -~;
#X obj 552 26772 *~;
#X obj 552 26796 *~;
#X obj 552 26820 *~;
#X obj 552 26844 *~;
#X obj 552 26868 *~;
#X obj 552 26892 phasor~ 0.0003025970175712133 0.9999999995421752;
#X obj 552 26916 lop~ 100;
#X obj 552 26940 *~ 0.024207761405697064;
#X obj 552 26964 +~ 500.0242077614057;
#X obj 552 26988 phasor~;
#X obj 552 27012 +~ 0.5403277682818096;
#X obj 552 27036 cos~;
#X obj 552 27060 *~ 2;
#X obj 552 27084 -~ 1;
#X obj 552 27108 clip~ -0.3 0.3;
#X obj 552 27132 *~ 0.000000e+00;
#X obj 552 27156 *~;
#X obj 552 27180 *~ 0.45726029021439885;
#X obj 552 27204 *~ 0.5427397097856012;
#X obj 552 27228 sig~ 1;
#X obj 552 27252 -~;
#X obj 552 27276 *~;
#X obj 552 27300 *~;
#X obj 552 27324 *~;
#X obj 552 27348 *~;
#X obj 552 27372 *~;
#X obj 552 27396 phasor~ 0.000000e+00 0.9999999999815656;
#X obj 552 27420 lop~ 100;
#X obj 552 27444 *~ 0.004857566038876061;
#X obj 552 27468 +~ 500.0048575660389;
#X obj 552 27492 phasor~;
#X obj 552 27516 +~ 0.5403074152342778;
#X obj 552 27540 cos~;
#X obj 552 27564 *~ 2;
#X obj 552 27588 -~ 1;
#X obj 552 27612 clip~ -0.3 0.3;
#X obj 552 27636 *~ 0.000000e+00;
#X obj 552 27660 *~;
#X obj 552 27684 *~ 0.576409950607252;
#X obj 552 27708 *~ 0.423590049392748;
#X obj 552 27732 sig~ 1;
#X obj 552 27756 -~;
#X obj 552 27780 *~;
#X obj 552 27804 *~;
#X obj 552 27828 *~;
#X obj 552 27852 *~;
#X obj 552 27876 *~;
#X obj 552 27900 phasor~ 0.000000e+00 0.9999999999993763;
#X obj 552 27924 lop~ 100;
#X obj 552 27948 *~ 0.0008934993399175511;
#X obj 552 27972 +~ 500.0008934993399;
#X obj 552 27996 phasor~;
#X obj 552 28020 +~ 0.5403032456850146;
#X obj 552 28044 cos~;
#X obj 552 28068 *~ 2;
#X obj 552 28092 -~ 1;
#X obj 552 28116 clip~ -0.3 0.3;
#X obj 552 28140 *~ 0.000000e+00;
#X obj 552 28164 *~;
#X obj 552 28188 *~ 0.9706804198314272;
#X obj 552 28212 *~ 0.029319580168572834;
#X obj 552 28236 sig~ 1;
#X obj 552 28260 -~;
#X obj 552 28284 *~;
#X obj 552 28308 *~;
#X obj 552 28332 *~;
#X obj 552 28356 *~;
#X obj 552 28380 *~;
#X obj 552 28404 phasor~ 0.000000e+00 0.999999999999982;
#X obj 552 28428 lop~ 100;
#X obj 552 28452 *~ 0.00015170770977965595;
#X obj 552 28476 +~ 500.0001517077098;
#X obj 552 28500 phasor~;
#X obj 552 28524 +~ 0.540302465440175;
#X obj 552 28548 cos~;
#X obj 552 28572 *~ 2;
#X obj 552 28596 -~ 1;
#X obj 552 28620 clip~ -0.3 0.3;
#X obj 552 28644 *~ 0.000000e+00;
#X obj 552 28668 *~;
#X obj 552 28692 *~ 0.1651759243820322;
#X obj 552 28716 *~ 0.8348240756179678;
#X obj 552 28740 sig~ 1;
#X obj 552 28764 -~;
#X obj 552 28788 *~;
#X obj 552 28812 *~;
#X obj 552 28836 *~;
#X obj 552 28860 *~;
#X obj 552 28884 *~;
#X obj 552 28908 phasor~ 0.000000e+00 0.9999999999999996;
#X obj 552 28932 lop~ 100;
#X obj 552 28956 *~ 0.000000e+00;
#X obj 552 28980 +~ 500.00002391863467;
#X obj 552 29004 phasor~;
#X obj 552 29028 +~ 0.5403023310266858;
#X obj 552 29052 cos~;
#X obj 552 29076 *~ 2;
#X obj 552 29100 -~ 1;
#X obj 552 29124 clip~ -0.3 0.3;
#X obj 552 29148 *~ 0.000000e+00;
#X obj 552 29172 *~;
#X obj 552 29196 *~ 0.3777759906076186;
#X obj 552 29220 *~ 0.6222240093923814;
#X obj 552 29244 sig~ 1;
#X obj 552 29268 -~;
#X obj 552 29292 *~;
#X obj 552 29316 *~;
#X obj 552 29340 *~;
#X obj 552 29364 *~;
#X obj 552 29388 *~;
#X obj 552 29412 phasor~ 0.000000e+00 1.0;
#X obj 552 29436 lop~ 100;
#X obj 552 29460 *~ 0.000000e+00;
#X obj 552 29484 +~ 500.0000035196696;
#X obj 552 29508 phasor~;
#X obj 552 29532 +~ 0.5403023095702646;
#X obj 552 29556 cos~;
#X obj 552 29580 *~ 2;
#X obj 552 29604 -~ 1;
#X obj 552 29628 clip~ -0.3 0.3;
#X obj 552 29652 *~ 0.000000e+00;
#X obj 552 29676 *~;
#X obj 552 29700 *~ 0.34585540697951833;
#X obj 552 29724 *~ 0.6541445930204817;
#X obj 552 29748 sig~ 1;
#X obj 552 29772 -~;
#X obj 552 29796 *~;
#X obj 552 29820 *~;
#X obj 552 29844 *~;
#X obj 552 29868 *~;
#X obj 552 29892 *~;
#X obj 552 29916 phasor~ 0.000000e+00 1.0;
#X obj 552 29940 lop~ 100;
#X obj 552 29964 *~ 0.000000e+00;
#X obj 552 29988 +~ 500.0000004855553;
#X obj 552 30012 phasor~;
#X obj 552 30036 +~ 0.5403023063788656;
#X obj 552 30060 cos~;
#X obj 552 30084 *~ 2;
#X obj 552 30108 -~ 1;
#X obj 552 30132 clip~ -0.3 0.3;
#X obj 552 30156 *~ 0.000000e+00;
#X obj 552 30180 *~;
#X obj 552 30204 *~ 0.29181807081646194;
#X obj 552 30228 *~ 0.7081819291835381;
#X obj 552 30252 sig~ 1;
#X obj 552 30276 -~;
#X obj 552 30300 *~;
#X obj 552 30324 *~;
#X obj 552 30348 *~;
#X obj 552 30372 *~;
#X obj 552 30396 *~;
#X obj 552 30420 phasor~ 0.000000e+00 1.0;
#X obj 552 30444 lop~ 100;
#X obj 552 30468 *~ 0.000000e+00;
#X obj 552 30492 +~ 500.0000000630444;
#X obj 552 30516 phasor~;
#X obj 552 30540 +~ 0.5403023059344523;
#X obj 552 30564 cos~;
#X obj 552 30588 *~ 2;
#X obj 552 30612 -~ 1;
#X obj 552 30636 clip~ -0.3 0.3;
#X obj 552 30660 *~ 0.000000e+00;
#X obj 552 30684 *~;
#X obj 552 30708 *~ 0.37833585617061327;
#X obj 552 30732 *~ 0.6216641438293867;
#X obj 552 30756 sig~ 1;
#X obj 552 30780 -~;
#X obj 552 30804 *~;
#X obj 552 30828 *~;
#X obj 552 30852 *~;
#X obj 552 30876 *~;
#X obj 552 30900 *~;
#X obj 552 30924 phasor~ 0.000000e+00 1.0;
#X obj 552 30948 lop~ 100;
#X obj 552 30972 *~ 0.000000e+00;
#X obj 552 30996 +~ 500.00000000773093;
#X obj 552 31020 phasor~;
#X obj 552 31044 +~ 0.5403023058762714;
#X obj 552 31068 cos~;
#X obj 552 31092 *~ 2;
#X obj 552 31116 -~ 1;
#X obj 552 31140 clip~ -0.3 0.3;
#X obj 552 31164 *~ 0.000000e+00;
#X obj 552 31188 *~;
#X obj 552 31212 *~ 0.19451626049735116;
#X obj 552 31236 *~ 0.8054837395026488;
#X obj 552 31260 sig~ 1;
#X obj 552 31284 -~;
#X obj 552 31308 *~;
#X obj 552 31332 *~;
#X obj 552 31356 *~;
#X obj 552 31380 *~;
#X obj 552 31404 *~;
#X obj 552 31428 phasor~ 0.000000e+00 1.0;
#X obj 552 31452 lop~ 100;
#X obj 552 31476 *~ 0.000000e+00;
#X obj 552 31500 +~ 500.0000000008981;
#X obj 552 31524 phasor~;
#X obj 552 31548 +~ 0.5403023058690845;
#X obj 552 31572 cos~;
#X obj 552 31596 *~ 2;
#X obj 552 31620 -~ 1;
#X obj 552 31644 clip~ -0.3 0.3;
#X obj 552 31668 *~ 0.000000e+00;
#X obj 552 31692 *~;
#X obj 552 31716 *~ 0.7887092133470096;
#X obj 552 31740 *~ 0.2112907866529904;
#X obj 552 31764 sig~ 1;
#X obj 552 31788 -~;
#X obj 552 31812 *~;
#X obj 552 31836 *~;
#X obj 552 31860 *~;
#X obj 552 31884 *~;
#X obj 552 31908 *~;
#X obj 552 31932 phasor~ 0.000000e+00 1.0;
#X obj 552 31956 lop~ 100;
#X obj 552 31980 *~ 0.000000e+00;
#X obj 552 32004 +~ 500.00000000009913;
#X obj 552 32028 phasor~;
#X obj 552 32052 +~ 0.540302305868244;
#X obj 552 32076 cos~;
#X obj 552 32100 *~ 2;
#X obj 552 32124 -~ 1;
#X obj 552 32148 clip~ -0.3 0.3;
#X obj 552 32172 *~ 0.000000e+00;
#X obj 552 32196 *~;
#X obj 552 32220 *~ 0.7671999655512041;
#X obj 552 32244 *~ 0.23280003444879593;
#X obj 552 32268 sig~ 1;
#X obj 552 32292 -~;
#X obj 552 32316 *~;
#X obj 552 32340 *~;
#X obj 552 32364 *~;
#X obj 552 32388 *~;
#X obj 552 32412 *~;
#X obj 552 32436 phasor~ 0.000000e+00 1.0;
#X obj 552 32460 lop~ 100;
#X obj 552 32484 *~ 0.000000e+00;
#X obj 552 32508 +~ 500.0000000000104;
#X obj 552 32532 phasor~;
#X obj 552 32556 +~ 0.5403023058681506;
#X obj 552 32580 cos~;
#X obj 552 32604 *~ 2;
#X obj 552 32628 -~ 1;
#X obj 552 32652 clip~ -0.3 0.3;
#X obj 552 32676 *~ 0.000000e+00;
#X obj 552 32700 *~;
#X obj 552 32724 *~ 0.0803105962691989;
#X obj 552 32748 *~ 0.9196894037308011;
#X obj 552 32772 sig~ 1;
#X obj 552 32796 -~;
#X obj 552 32820 *~;
#X obj 552 32844 *~;
#X obj 552 32868 *~;
#X obj 552 32892 *~;
#X obj 552 32916 *~;
#X obj 552 32940 phasor~ 0.000000e+00 1.0;
#X obj 552 32964 lop~ 100;
#X obj 552 32988 *~ 0.000000e+00;
#X obj 552 33012 +~ 500.000000000001;
#X obj 552 33036 phasor~;
#X obj 552 33060 +~ 0.5403023058681409;
#X obj 552 33084 cos~;
#X obj 552 33108 *~ 2;
#X obj 552 33132 -~ 1;
#X obj 552 33156 clip~ -0.3 0.3;
#X obj 552 33180 *~ 0.000000e+00;
#X obj 552 33204 *~;
#X obj 552 33228 *~ 0.16616113598343885;
#X obj 552 33252 *~ 0.8338388640165612;
#X obj 552 33276 sig~ 1;
#X obj 552 33300 -~;
#X obj 552 33324 *~;
#X obj 552 33348 *~;
#X obj 552 33372 *~;
#X obj 552 33396 *~;
#X obj 552 33420 *~;
#X obj 552 33444 phasor~ 0.000000e+00 1.0;
#X obj 552 33468 lop~ 100;
#X obj 552 33492 *~ 0.000000e+00;
#X obj 552 33516 +~ 500.0000000000001;
#X obj 552 33540 phasor~;
#X obj 552 33564 +~ 0.5403023058681399;
#X obj 552 33588 cos~;
#X obj 552 33612 *~ 2;
#X obj 552 33636 -~ 1;
#X obj 552 33660 clip~ -0.3 0.3;
#X obj 552 33684 *~ 0.000000e+00;
#X obj 552 33708 *~;
#X obj 552 33732 *~ 0.016373877537773085;
#X obj 552 33756 *~ 0.9836261224622269;
#X obj 552 33780 sig~ 1;
#X obj 552 33804 -~;
#X obj 552 33828 *~;
#X obj 552 33852 *~;
#X obj 552 33876 *~;
#X obj 552 33900 *~;
#X obj 552 33924 *~;
#X obj 552 33948 phasor~ 0.000000e+00 1.0;
#X obj 552 33972 lop~ 100;
#X obj 552 33996 *~ 0.000000e+00;
#X obj 552 34020 +~ 500.0;
#X obj 552 34044 phasor~;
#X obj 552 34068 +~ 0.5403023058681398;
#X obj 552 34092 cos~;
#X obj 552 34116 *~ 2;
#X obj 552 34140 -~ 1;
#X obj 552 34164 clip~ -0.3 0.3;
#X obj 552 34188 *~ 0.000000e+00;
#X obj 552 34212 *~;
#X obj 552 34236 *~ 0.9976487268714558;
#X obj 552 34260 *~ 0.002351273128544218;
#X obj 552 34284 sig~ 1;
#X obj 552 34308 -~;
#X obj 552 34332 *~;
#X obj 552 34356 *~;
#X obj 552 34380 *~;
#X obj 552 34404 *~;
#X obj 552 34428 *~;
#X connect 1 0 2 0;
#X connect 2 0 3 0;
#X connect 3 0 4 0;
#X connect 4 0 5 0;
#X connect 5 0 6 0;
#X connect 6 0 7 0;
#X connect 7 0 8 0;
#X connect 8 0 9 0;
#X connect 9 0 10 0;
#X connect 10 0 11 0;
#X connect 11 0 12 0;
#X connect 15 0 16 0;
#X connect 2 0 17 0;
#X connect 2 0 17 1;
#X connect 17 0 18 0;
#X connect 17 0 18 1;
#X connect 18 0 19 0;
#X connect 18 0 19 1;
#X connect 19 0 20 0;
#X connect 19 0 20 1;
#X connect 20 0 21 0;
#X connect 20 0 21 1;
#X connect 21 0 16 1;
#X connect 16 0 12 1;
#X connect 12 0 13 0;
#X connect 12 0 14 0;
#X connect 14 0 0 0;
#X connect 13 0 0 1;
#X connect 22 0 23 0;
#X connect 23 0 24 0;
#X connect 24 0 25 0;
#X connect 25 0 26 0;
#X connect 26 0 27 0;
#X connect 27 0 28 0;
#X connect 28 0 29 0;
#X connect 29 0 30 0;
#X connect 30 0 31 0;
#X connect 31 0 32 0;
#X connect 32 0 33 0;
#X connect 36 0 37 0;
#X connect 23 0 38 0;
#X connect 23 0 38 1;
#X connect 38 0 39 0;
#X connect 38 0 39 1;
#X connect 39 0 40 0;
#X connect 39 0 40 1;
#X connect 40 0 41 0;
#X connect 40 0 41 1;
#X connect 41 0 42 0;
#X connect 41 0 42 1;
#X connect 42 0 37 1;
#X connect 37 0 33 1;
#X connect 33 0 34 0;
#X connect 33 0 35 0;
#X connect 35 0 0 0;
#X connect 34 0 0 1;
#X connect 43 0 44 0;
#X connect 44 0 45 0;
#X connect 45 0 46 0;
#X connect 46 0 47 0;
#X connect 47 0 48 0;
#X connect 48 0 49 0;
#X connect 49 0 50 0;
#X connect 50 0 51 0;
#X connect 51 0 52 0;
#X connect 52 0 53 0;
#X connect 53 0 54 0;
#X connect 57 0 58 0;
#X connect 44 0 59 0;
#X connect 44 0 59 1;
#X connect 59 0 60 0;
#X connect 59 0 60 1;
#X connect 60 0 61 0;
#X connect 60 0 61 1;
#X connect 61 0 62 0;
#X connect 61 0 62 1;
#X connect 62 0 63 0;
#X connect 62 0 63 1;
#X connect 63 0 58 1;
#X connect 58 0 54 1;
#X connect 54 0 55 0;
#X connect 54 0 56 0;
#X connect 56 0 0 0;
#X connect 55 0 0 1;
#X connect 64 0 65 0;
#X connect 65 0 66 0;
#X connect 66 0 67 0;
#X connect 67 0 68 0;
#X connect 68 0 69 0;
#X connect 69 0 70 0;
#X connect 70 0 71 0;
#X connect 71 0 72 0;
#X connect 72 0 73 0;
#X connect 73 0 74 0;
#X connect 74 0 75 0;
#X connect 78 0 79 0;
#X connect 65 0 80 0;
#X connect 65 0 80 1;
#X connect 80 0 81 0;
#X connect 80 0 81 1;
#X connect 81 0 82 0;
#X connect 81 0 82 1;
#X connect 82 0 83 0;
#X connect 82 0 83 1;
#X connect 83 0 84 0;
#X connect 83 0 84 1;
#X connect 84 0 79 1;
#X connect 79 0 75 1;
#X connect 75 0 76 0;
#X connect 75 0 77 0;
#X connect 77 0 0 0;
#X connect 76 0 0 1;
#X connect 85 0 86 0;
#X connect 86 0 87 0;
#X connect 87 0 88 0;
#X connect 88 0 89 0;
#X connect 89 0 90 0;
#X connect 90 0 91 0;
#X connect 91 0 92 0;
#X connect 92 0 93 0;
#X connect 93 0 94 0;
#X connect 94 0 95 0;
#X connect 95 0 96 0;
#X connect 99 0 100 0;
#X connect 86 0 101 0;
#X connect 86 0 101 1;
#X connect 101 0 102 0;
#X connect 101 0 102 1;
#X connect 102 0 103 0;
#X connect 102 0 103 1;
#X connect 103 0 104 0;
#X connect 103 0 104 1;
#X connect 104 0 105 0;
#X connect 104 0 105 1;
#X connect 105 0 100 1;
#X connect 100 0 96 1;
#X connect 96 0 97 0;
#X connect 96 0 98 0;
#X connect 98 0 0 0;
#X connect 97 0 0 1;
#X connect 106 0 107 0;
#X connect 107 0 108 0;
#X connect 108 0 109 0;
#X connect 109 0 110 0;
#X connect 110 0 111 0;
#X connect 111 0 112 0;
#X connect 112 0 113 0;
#X connect 113 0 114 0;
#X connect 114 0 115 0;
#X connect 115 0 116 0;
#X connect 116 0 117 0;
#X connect 120 0 121 0;
#X connect 107 0 122 0;
#X connect 107 0 122 1;
#X connect 122 0 123 0;
#X connect 122 0 123 1;
#X connect 123 0 124 0;
#X connect 123 0 124 1;
#X connect 124 0 125 0;
#X connect 124 0 125 1;
#X connect 125 0 126 0;
#X connect 125 0 126 1;
#X connect 126 0 121 1;
#X connect 121 0 117 1;
#X connect 117 0 118 0;
#X connect 117 0 119 0;
#X connect 119 0 0 0;
#X connect 118 0 0 1;
#X connect 127 0 128 0;
#X connect 128 0 129 0;
#X connect 129 0 130 0;
#X connect 130 0 131 0;
#X connect 131 0 132 0;
#X connect 132 0 133 0;
#X connect 133 0 134 0;
#X connect 134 0 135 0;
#X connect 135 0 136 0;
#X connect 136 0 137 0;
#X connect 137 0 138 0;
#X connect 141 0 142 0;
#X connect 128 0 143 0;
#X connect 128 0 143 1;
#X connect 143 0 144 0;
#X connect 143 0 144 1;
#X connect 144 0 145 0;
#X connect 144 0 145 1;
#X connect 145 0 146 0;
#X connect 145 0 146 1;
#X connect 146 0 147 0;
#X connect 146 0 147 1;
#X connect 147 0 142 1;
#X connect 142 0 138 1;
#X connect 138 0 139 0;
#X connect 138 0 140 0;
#X connect 140 0 0 0;
#X connect 139 0 0 1;
#X connect 148 0 149 0;
#X connect 149 0 150 0;
#X connect 150 0 151 0;
#X connect 151 0 152 0;
#X connect 152 0 153 0;
#X connect 153 0 154 0;
#X connect 154 0 155 0;
#X connect 155 0 156 0;
#X connect 156 0 157 0;
#X connect 157 0 158 0;
#X connect 158 0 159 0;
#X connect 162 0 163 0;
#X connect 149 0 164 0;
#X connect 149 0 164 1;
#X connect 164 0 165 0;
#X connect 164 0 165 1;
#X connect 165 0 166 0;
#X connect 165 0 166 1;
#X connect 166 0 167 0;
#X connect 166 0 167 1;
#X connect 167 0 168 0;
#X connect 167 0 168 1;
#X connect 168 0 163 1;
#X connect 163 0 159 1;
#X connect 159 0 160 0;
#X connect 159 0 161 0;
#X connect 161 0 0 0;
#X connect 160 0 0 1;
#X connect 169 0 170 0;
#X connect 170 0 171 0;
#X connect 171 0 172 0;
#X connect 172 0 173 0;
#X connect 173 0 174 0;
#X connect 174 0 175 0;
#X connect 175 0 176 0;
#X connect 176 0 177 0;
#X connect 177 0 178 0;
#X connect 178 0 179 0;
#X connect 179 0 180 0;
#X connect 183 0 184 0;
#X connect 170 0 185 0;
#X connect 170 0 185 1;
#X connect 185 0 186 0;
#X connect 185 0 186 1;
#X connect 186 0 187 0;
#X connect 186 0 187 1;
#X connect 187 0 188 0;
#X connect 187 0 188 1;
#X connect 188 0 189 0;
#X connect 188 0 189 1;
#X connect 189 0 184 1;
#X connect 184 0 180 1;
#X connect 180 0 181 0;
#X connect 180 0 182 0;
#X connect 182 0 0 0;
#X connect 181 0 0 1;
#X connect 190 0 191 0;
#X connect 191 0 192 0;
#X connect 192 0 193 0;
#X connect 193 0 194 0;
#X connect 194 0 195 0;
#X connect 195 0 196 0;
#X connect 196 0 197 0;
#X connect 197 0 198 0;
#X connect 198 0 199 0;
#X connect 199 0 200 0;
#X connect 200 0 201 0;
#X connect 204 0 205 0;
#X connect 191 0 206 0;
#X connect 191 0 206 1;
#X connect 206 0 207 0;
#X connect 206 0 207 1;
#X connect 207 0 208 0;
#X connect 207 0 208 1;
#X connect 208 0 209 0;
#X connect 208 0 209 1;
#X connect 209 0 210 0;
#X connect 209 0 210 1;
#X connect 210 0 205 1;
#X connect 205 0 201 1;
#X connect 201 0 202 0;
#X connect 201 0 203 0;
#X connect 203 0 0 0;
#X connect 202 0 0 1;
#X connect 211 0 212 0;
#X connect 212 0 213 0;
#X connect 213 0 214 0;
#X connect 214 0 215 0;
#X connect 215 0 216 0;
#X connect 216 0 217 0;
#X connect 217 0 218 0;
#X connect 218 0 219 0;
#X connect 219 0 220 0;
#X connect 220 0 221 0;
#X connect 221 0 222 0;
#X connect 225 0 226 0;
#X connect 212 0 227 0;
#X connect 212 0 227 1;
#X connect 227 0 228 0;
#X connect 227 0 228 1;
#X connect 228 0 229 0;
#X connect 228 0 229 1;
#X connect 229 0 230 0;
#X connect 229 0 230 1;
#X connect 230 0 231 0;
#X connect 230 0 231 1;
#X connect 231 0 226 1;
#X connect 226 0 222 1;
#X connect 222 0 223 0;
#X connect 222 0 224 0;
#X connect 224 0 0 0;
#X connect 223 0 0 1;
#X connect 232 0 233 0;
#X connect 233 0 234 0;
#X connect 234 0 235 0;
#X connect 235 0 236 0;
#X connect 236 0 237 0;
#X connect 237 0 238 0;
#X connect 238 0 239 0;
#X connect 239 0 240 0;
#X connect 240 0 241 0;
#X connect 241 0 242 0;
#X connect 242 0 243 0;
#X connect 246 0 247 0;
#X connect 233 0 248 0;
#X connect 233 0 248 1;
#X connect 248 0 249 0;
#X connect 248 0 249 1;
#X connect 249 0 250 0;
#X connect 249 0 250 1;
#X connect 250 0 251 0;
#X connect 250 0 251 1;
#X connect 251 0 252 0;
#X connect 251 0 252 1;
#X connect 252 0 247 1;
#X connect 247 0 243 1;
#X connect 243 0 244 0;
#X connect 243 0 245 0;
#X connect 245 0 0 0;
#X connect 244 0 0 1;
#X connect 253 0 254 0;
#X connect 254 0 255 0;
#X connect 255 0 256 0;
#X connect 256 0 257 0;
#X connect 257 0 258 0;
#X connect 258 0 259 0;
#X connect 259 0 260 0;
#X connect 260 0 261 0;
#X connect 261 0 262 0;
#X connect 262 0 263 0;
#X connect 263 0 264 0;
#X connect 267 0 268 0;
#X connect 254 0 269 0;
#X connect 254 0 269 1;
#X connect 269 0 270 0;
#X connect 269 0 270 1;
#X connect 270 0 271 0;
#X connect 270 0 271 1;
#X connect 271 0 272 0;
#X connect 271 0 272 1;
#X connect 272 0 273 0;
#X connect 272 0 273 1;
#X connect 273 0 268 1;
#X connect 268 0 264 1;
#X connect 264 0 265 0;
#X connect 264 0 266 0;
#X connect 266 0 0 0;
#X connect 265 0 0 1;
#X connect 274 0 275 0;
#X connect 275 0 276 0;
#X connect 276 0 277 0;
#X connect 277 0 278 0;
#X connect 278 0 279 0;
#X connect 279 0 280 0;
#X connect 280 0 281 0;
#X connect 281 0 282 0;
#X connect 282 0 283 0;
#X connect 283 0 284 0;
#X connect 284 0 285 0;
#X connect 288 0 289 0;
#X connect 275 0 290 0;
#X connect 275 0 290 1;
#X connect 290 0 291 0;
#X connect 290 0 291 1;
#X connect 291 0 292 0;
#X connect 291 0 292 1;
#X connect 292 0 293 0;
#X connect 292 0 293 1;
#X connect 293 0 294 0;
#X connect 293 0 294 1;
#X connect 294 0 289 1;
#X connect 289 0 285 1;
#X connect 285 0 286 0;
#X connect 285 0 287 0;
#X connect 287 0 0 0;
#X connect 286 0 0 1;
#X connect 295 0 296 0;
#X connect 296 0 297 0;
#X connect 297 0 298 0;
#X connect 298 0 299 0;
#X connect 299 0 300 0;
#X connect 300 0 301 0;
#X connect 301 0 302 0;
#X connect 302 0 303 0;
#X connect 303 0 304 0;
#X connect 304 0 305 0;
#X connect 305 0 306 0;
#X connect 309 0 310 0;
#X connect 296 0 311 0;
#X connect 296 0 311 1;
#X connect 311 0 312 0;
#X connect 311 0 312 1;
#X connect 312 0 313 0;
#X connect 312 0 313 1;
#X connect 313 0 314 0;
#X connect 313 0 314 1;
#X connect 314 0 315 0;
#X connect 314 0 315 1;
#X connect 315 0 310 1;
#X connect 310 0 306 1;
#X connect 306 0 307 0;
#X connect 306 0 308 0;
#X connect 308 0 0 0;
#X connect 307 0 0 1;
#X connect 316 0 317 0;
#X connect 317 0 318 0;
#X connect 318 0 319 0;
#X connect 319 0 320 0;
#X connect 320 0 321 0;
#X connect 321 0 322 0;
#X connect 322 0 323 0;
#X connect 323 0 324 0;
#X connect 324 0 325 0;
#X connect 325 0 326 0;
#X connect 326 0 327 0;
#X connect 330 0 331 0;
#X connect 317 0 332 0;
#X connect 317 0 332 1;
#X connect 332 0 333 0;
#X connect 332 0 333 1;
#X connect 333 0 334 0;
#X connect 333 0 334 1;
#X connect 334 0 335 0;
#X connect 334 0 335 1;
#X connect 335 0 336 0;
#X connect 335 0 336 1;
#X connect 336 0 331 1;
#X connect 331 0 327 1;
#X connect 327 0 328 0;
#X connect 327 0 329 0;
#X connect 329 0 0 0;
#X connect 328 0 0 1;
#X connect 337 0 338 0;
#X connect 338 0 339 0;
#X connect 339 0 340 0;
#X connect 340 0 341 0;
#X connect 341 0 342 0;
#X connect 342 0 343 0;
#X connect 343 0 344 0;
#X connect 344 0 345 0;
#X connect 345 0 346 0;
#X connect 346 0 347 0;
#X connect 347 0 348 0;
#X connect 351 0 352 0;
#X connect 338 0 353 0;
#X connect 338 0 353 1;
#X connect 353 0 354 0;
#X connect 353 0 354 1;
#X connect 354 0 355 0;
#X connect 354 0 355 1;
#X connect 355 0 356 0;
#X connect 355 0 356 1;
#X connect 356 0 357 0;
#X connect 356 0 357 1;
#X connect 357 0 352 1;
#X connect 352 0 348 1;
#X connect 348 0 349 0;
#X connect 348 0 350 0;
#X connect 350 0 0 0;
#X connect 349 0 0 1;
#X connect 358 0 359 0;
#X connect 359 0 360 0;
#X connect 360 0 361 0;
#X connect 361 0 362 0;
#X connect 362 0 363 0;
#X connect 363 0 364 0;
#X connect 364 0 365 0;
#X connect 365 0 366 0;
#X connect 366 0 367 0;
#X connect 367 0 368 0;
#X connect 368 0 369 0;
#X connect 372 0 373 0;
#X connect 359 0 374 0;
#X connect 359 0 374 1;
#X connect 374 0 375 0;
#X connect 374 0 375 1;
#X connect 375 0 376 0;
#X connect 375 0 376 1;
#X connect 376 0 377 0;
#X connect 376 0 377 1;
#X connect 377 0 378 0;
#X connect 377 0 378 1;
#X connect 378 0 373 1;
#X connect 373 0 369 1;
#X connect 369 0 370 0;
#X connect 369 0 371 0;
#X connect 371 0 0 0;
#X connect 370 0 0 1;
#X connect 379 0 380 0;
#X connect 380 0 381 0;
#X connect 381 0 382 0;
#X connect 382 0 383 0;
#X connect 383 0 384 0;
#X connect 384 0 385 0;
#X connect 385 0 386 0;
#X connect 386 0 387 0;
#X connect 387 0 388 0;
#X connect 388 0 389 0;
#X connect 389 0 390 0;
#X connect 393 0 394 0;
#X connect 380 0 395 0;
#X connect 380 0 395 1;
#X connect 395 0 396 0;
#X connect 395 0 396 1;
#X connect 396 0 397 0;
#X connect 396 0 397 1;
#X connect 397 0 398 0;
#X connect 397 0 398 1;
#X connect 398 0 399 0;
#X connect 398 0 399 1;
#X connect 399 0 394 1;
#X connect 394 0 390 1;
#X connect 390 0 391 0;
#X connect 390 0 392 0;
#X connect 392 0 0 0;
#X connect 391 0 0 1;
#X connect 400 0 401 0;
#X connect 401 0 402 0;
#X connect 402 0 403 0;
#X connect 403 0 404 0;
#X connect 404 0 405 0;
#X connect 405 0 406 0;
#X connect 406 0 407 0;
#X connect 407 0 408 0;
#X connect 408 0 409 0;
#X connect 409 0 410 0;
#X connect 410 0 411 0;
#X connect 414 0 415 0;
#X connect 401 0 416 0;
#X connect 401 0 416 1;
#X connect 416 0 417 0;
#X connect 416 0 417 1;
#X connect 417 0 418 0;
#X connect 417 0 418 1;
#X connect 418 0 419 0;
#X connect 418 0 419 1;
#X connect 419 0 420 0;
#X connect 419 0 420 1;
#X connect 420 0 415 1;
#X connect 415 0 411 1;
#X connect 411 0 412 0;
#X connect 411 0 413 0;
#X connect 413 0 0 0;
#X connect 412 0 0 1;
#X connect 421 0 422 0;
#X connect 422 0 423 0;
#X connect 423 0 424 0;
#X connect 424 0 425 0;
#X connect 425 0 426 0;
#X connect 426 0 427 0;
#X connect 427 0 428 0;
#X connect 428 0 429 0;
#X connect 429 0 430 0;
#X connect 430 0 431 0;
#X connect 431 0 432 0;
#X connect 435 0 436 0;
#X connect 422 0 437 0;
#X connect 422 0 437 1;
#X connect 437 0 438 0;
#X connect 437 0 438 1;
#X connect 438 0 439 0;
#X connect 438 0 439 1;
#X connect 439 0 440 0;
#X connect 439 0 440 1;
#X connect 440 0 441 0;
#X connect 440 0 441 1;
#X connect 441 0 436 1;
#X connect 436 0 432 1;
#X connect 432 0 433 0;
#X connect 432 0 434 0;
#X connect 434 0 0 0;
#X connect 433 0 0 1;
#X connect 442 0 443 0;
#X connect 443 0 444 0;
#X connect 444 0 445 0;
#X connect 445 0 446 0;
#X connect 446 0 447 0;
#X connect 447 0 448 0;
#X connect 448 0 449 0;
#X connect 449 0 450 0;
#X connect 450 0 451 0;
#X connect 451 0 452 0;
#X connect 452 0 453 0;
#X connect 456 0 457 0;
#X connect 443 0 458 0;
#X connect 443 0 458 1;
#X connect 458 0 459 0;
#X connect 458 0 459 1;
#X connect 459 0 460 0;
#X connect 459 0 460 1;
#X connect 460 0 461 0;
#X connect 460 0 461 1;
#X connect 461 0 462 0;
#X connect 461 0 462 1;
#X connect 462 0 457 1;
#X connect 457 0 453 1;
#X connect 453 0 454 0;
#X connect 453 0 455 0;
#X connect 455 0 0 0;
#X connect 454 0 0 1;
#X connect 463 0 464 0;
#X connect 464 0 465 0;
#X connect 465 0 466 0;
#X connect 466 0 467 0;
#X connect 467 0 468 0;
#X connect 468 0 469 0;
#X connect 469 0 470 0;
#X connect 470 0 471 0;
#X connect 471 0 472 0;
#X connect 472 0 473 0;
#X connect 473 0 474 0;
#X connect 477 0 478 0;
#X connect 464 0 479 0;
#X connect 464 0 479 1;
#X connect 479 0 480 0;
#X connect 479 0 480 1;
#X connect 480 0 481 0;
#X connect 480 0 481 1;
#X connect 481 0 482 0;
#X connect 481 0 482 1;
#X connect 482 0 483 0;
#X connect 482 0 483 1;
#X connect 483 0 478 1;
#X connect 478 0 474 1;
#X connect 474 0 475 0;
#X connect 474 0 476 0;
#X connect 476 0 0 0;
#X connect 475 0 0 1;
#X connect 484 0 485 0;
#X connect 485 0 486 0;
#X connect 486 0 487 0;
#X connect 487 0 488 0;
#X connect 488 0 489 0;
#X connect 489 0 490 0;
#X connect 490 0 491 0;
#X connect 491 0 492 0;
#X connect 492 0 493 0;
#X connect 493 0 494 0;
#X connect 494 0 495 0;
#X connect 498 0 499 0;
#X connect 485 0 500 0;
#X connect 485 0 500 1;
#X connect 500 0 501 0;
#X connect 500 0 501 1;
#X connect 501 0 502 0;
#X connect 501 0 502 1;
#X connect 502 0 503 0;
#X connect 502 0 503 1;
#X connect 503 0 504 0;
#X connect 503 0 504 1;
#X connect 504 0 499 1;
#X connect 499 0 495 1;
#X connect 495 0 496 0;
#X connect 495 0 497 0;
#X connect 497 0 0 0;
#X connect 496 0 0 1;
