#N canvas 0 22 450 300 12;
#X obj 10 10 dac~;
#X obj 10 44 phasor~ 0.8829106588114616 0.9961048751388847;
#X obj 10 102 lop~ 100;
#X obj 10 160 *~ 70.63285270491693;
#X obj 10 184 +~ 570.6328527049169;
#X obj 10 208 phasor~;
#X obj 10 232 +~ 0.6123956440593549;
#X obj 10 256 cos~;
#X obj 10 280 *~ 2;
#X obj 10 304 -~ 1;
#X obj 10 328 clip~ -0.3 0.3;
#X obj 10 352 *~ 0.08829106588114616;
#X obj 10 376 *~;
#X obj 10 400 *~ 0.528196677208358;
#X obj 3700 34 *~ 0.47180332279164205;
#X obj 190 10 sig~ 1;
#X obj 190 68 -~;
#X obj 3898 34 *~;
#X obj 208 10 *~;
#X obj 208 102 *~;
#X obj 208 160 *~;
#X obj 208 218 *~;
#X obj 226 10 phasor~ 0.9744140393036116 0.9952563415340353;
#X obj 226 68 lop~ 100;
#X obj 226 126 *~ 77.95312314428892;
#X obj 226 150 +~ 577.953123144289;
#X obj 226 174 phasor~;
#X obj 226 198 +~ 0.6196037186482457;
#X obj 226 222 cos~;
#X obj 226 246 *~ 2;
#X obj 226 270 -~ 1;
#X obj 226 294 clip~ -0.3 0.3;
#X obj 226 318 *~ 0.09744140393036116;
#X obj 226 342 *~;
#X obj 226 366 *~ 0.8175388074521115;
#X obj 3493 34 *~ 0.1824611925478885;
#X obj 415 10 sig~ 1;
#X obj 415 68 -~;
#X obj 3682 34 *~;
#X obj 433 10 *~;
#X obj 433 102 *~;
#X obj 433 160 *~;
#X obj 433 218 *~;
#X obj 451 10 phasor~ 0.7169337844972408 0.9974311303458364;
#X obj 451 68 lop~ 100;
#X obj 451 126 *~ 57.354702759779265;
#X obj 451 150 +~ 557.3547027597792;
#X obj 451 174 phasor~;
#X obj 451 198 +~ 0.5991905704179008;
#X obj 451 222 cos~;
#X obj 451 246 *~ 2;
#X obj 451 270 -~ 1;
#X obj 451 294 clip~ -0.3 0.3;
#X obj 451 318 *~ 0.07169337844972408;
#X obj 451 342 *~;
#X obj 451 366 *~ 0.4306651117815793;
#X obj 3286 34 *~ 0.5693348882184207;
#X obj 640 10 sig~ 1;
#X obj 640 68 -~;
#X obj 3475 34 *~;
#X obj 658 10 *~;
#X obj 658 102 *~;
#X obj 658 160 *~;
#X obj 658 218 *~;
#X obj 676 10 phasor~ 0.39561779999665825 0.9992175348448793;
#X obj 676 68 lop~ 100;
#X obj 676 126 *~ 31.64942399973266;
#X obj 676 150 +~ 531.6494239997327;
#X obj 676 174 phasor~;
#X obj 676 198 +~ 0.5731609448861502;
#X obj 676 222 cos~;
#X obj 676 246 *~ 2;
#X obj 676 270 -~ 1;
#X obj 676 294 clip~ -0.3 0.3;
#X obj 676 318 *~ 0.03956177999966583;
#X obj 676 342 *~;
#X obj 676 366 *~ 0.3258635327623354;
#X obj 3079 34 *~ 0.6741364672376646;
#X obj 865 10 sig~ 1;
#X obj 865 68 -~;
#X obj 3268 34 *~;
#X obj 883 10 *~;
#X obj 883 102 *~;
#X obj 883 160 *~;
#X obj 883 218 *~;
#X obj 901 10 phasor~ 0.17464758621629528 0.9998474949795987;
#X obj 901 68 lop~ 100;
#X obj 901 126 *~ 13.971806897303624;
#X obj 901 150 +~ 513.9718068973036;
#X obj 901 174 phasor~;
#X obj 901 198 +~ 0.5549152476074245;
#X obj 901 222 cos~;
#X obj 901 246 *~ 2;
#X obj 901 270 -~ 1;
#X obj 901 294 clip~ -0.3 0.3;
#X obj 901 318 *~ 0.01746475862162953;
#X obj 901 342 *~;
#X obj 901 366 *~ 0.7241063718159871;
#X obj 2863 34 *~ 0.27589362818401286;
#X obj 1090 10 sig~ 1;
#X obj 1090 68 -~;
#X obj 3061 34 *~;
#X obj 1108 10 *~;
#X obj 1108 102 *~;
#X obj 1108 160 *~;
#X obj 1108 218 *~;
#X obj 1126 10 phasor~ 0.06424925641919202 0.9999793602362482;
#X obj 1126 68 lop~ 100;
#X obj 1126 126 *~ 5.139940513535361;
#X obj 1126 150 +~ 505.13994051353535;
#X obj 1126 174 phasor~;
#X obj 1126 198 +~ 0.545697505467837;
#X obj 1126 222 cos~;
#X obj 1126 246 *~ 2;
#X obj 1126 270 -~ 1;
#X obj 1126 294 clip~ -0.3 0.3;
#X obj 1126 318 *~ 0.0064249256419192016;
#X obj 1126 342 *~;
#X obj 1126 366 *~ 0.4871524529132951;
#X obj 2656 34 *~ 0.5128475470867049;
#X obj 1315 10 sig~ 1;
#X obj 1315 68 -~;
#X obj 2845 34 *~;
#X obj 1333 10 *~;
#X obj 1333 102 *~;
#X obj 1333 160 *~;
#X obj 1333 218 *~;
#X obj 1351 10 phasor~ 0.020259411897576907 0.9999979477818498;
#X obj 1351 68 lop~ 100;
#X obj 1351 126 *~ 1.6207529518061525;
#X obj 1351 150 +~ 501.62075295180614;
#X obj 1351 174 phasor~;
#X obj 1351 198 +~ 0.5420059666118621;
#X obj 1351 222 cos~;
#X obj 1351 246 *~ 2;
#X obj 1351 270 -~ 1;
#X obj 1351 294 clip~ -0.3 0.3;
#X obj 1351 318 *~ 0.0020259411897576908;
#X obj 1351 342 *~;
#X obj 1351 366 *~ 0.6689028206689609;
#X obj 2449 34 *~ 0.3310971793310391;
#X obj 1540 10 sig~ 1;
#X obj 1540 68 -~;
#X obj 2638 34 *~;
#X obj 1558 10 *~;
#X obj 1558 102 *~;
#X obj 1558 160 *~;
#X obj 1558 218 *~;
#X obj 1576 10 phasor~ 0.005589765845506998 0.999999843772593;
#X obj 1576 68 lop~ 100;
#X obj 1576 126 *~ 0.4471812676405599;
#X obj 1576 150 +~ 500.4471812676406;
#X obj 1576 174 phasor~;
#X obj 1576 198 +~ 0.5407725840107035;
#X obj 1576 222 cos~;
#X obj 1576 246 *~ 2;
#X obj 1576 270 -~ 1;
#X obj 1576 294 clip~ -0.3 0.3;
#X obj 1576 318 *~ 0.0005589765845506998;
#X obj 1576 342 *~;
#X obj 1576 366 *~ 0.2765578121645841;
#X obj 2242 34 *~ 0.7234421878354159;
#X obj 1765 10 sig~ 1;
#X obj 1765 68 -~;
#X obj 2431 34 *~;
#X obj 1783 10 *~;
#X obj 1783 102 *~;
#X obj 1783 160 *~;
#X obj 1783 218 *~;
#X obj 1801 10 phasor~ 0.001370906623682886 0.9999999906030752;
#X obj 1801 68 lop~ 100;
#X obj 1801 126 *~ 0.10967252989463089;
#X obj 1801 150 +~ 500.1096725298946;
#X obj 1801 174 phasor~;
#X obj 1801 198 +~ 0.5404176586052694;
#X obj 1801 222 cos~;
#X obj 1801 246 *~ 2;
#X obj 1801 270 -~ 1;
#X obj 1801 294 clip~ -0.3 0.3;
#X obj 1801 318 *~ 0.0001370906623682886;
#X obj 1801 342 *~;
#X obj 1801 366 *~ 0.35902878018659845;
#X obj 2035 34 *~ 0.6409712198134015;
#X obj 1999 10 sig~ 1;
#X obj 1999 68 -~;
#X obj 2224 34 *~;
#X obj 2017 10 *~;
#X obj 2017 102 *~;
#X obj 2017 160 *~;
#X obj 2017 184 *~;
#X connect 1 0 2 0;
#X connect 2 0 3 0;
#X connect 3 0 4 0;
#X connect 4 0 5 0;
#X connect 5 0 6 0;
#X connect 6 0 7 0;
#X connect 7 0 8 0;
#X connect 8 0 9 0;
#X connect 9 0 10 0;
#X connect 10 0 11 0;
#X connect 11 0 12 0;
#X connect 15 0 16 0;
#X connect 2 0 17 0;
#X connect 2 0 17 1;
#X connect 17 0 18 0;
#X connect 17 0 18 1;
#X connect 18 0 19 0;
#X connect 18 0 19 1;
#X connect 19 0 20 0;
#X connect 19 0 20 1;
#X connect 20 0 21 0;
#X connect 20 0 21 1;
#X connect 21 0 16 1;
#X connect 16 0 12 1;
#X connect 12 0 13 0;
#X connect 12 0 14 0;
#X connect 14 0 0 0;
#X connect 13 0 0 1;
#X connect 22 0 23 0;
#X connect 23 0 24 0;
#X connect 24 0 25 0;
#X connect 25 0 26 0;
#X connect 26 0 27 0;
#X connect 27 0 28 0;
#X connect 28 0 29 0;
#X connect 29 0 30 0;
#X connect 30 0 31 0;
#X connect 31 0 32 0;
#X connect 32 0 33 0;
#X connect 36 0 37 0;
#X connect 23 0 38 0;
#X connect 23 0 38 1;
#X connect 38 0 39 0;
#X connect 38 0 39 1;
#X connect 39 0 40 0;
#X connect 39 0 40 1;
#X connect 40 0 41 0;
#X connect 40 0 41 1;
#X connect 41 0 42 0;
#X connect 41 0 42 1;
#X connect 42 0 37 1;
#X connect 37 0 33 1;
#X connect 33 0 34 0;
#X connect 33 0 35 0;
#X connect 35 0 0 0;
#X connect 34 0 0 1;
#X connect 43 0 44 0;
#X connect 44 0 45 0;
#X connect 45 0 46 0;
#X connect 46 0 47 0;
#X connect 47 0 48 0;
#X connect 48 0 49 0;
#X connect 49 0 50 0;
#X connect 50 0 51 0;
#X connect 51 0 52 0;
#X connect 52 0 53 0;
#X connect 53 0 54 0;
#X connect 57 0 58 0;
#X connect 44 0 59 0;
#X connect 44 0 59 1;
#X connect 59 0 60 0;
#X connect 59 0 60 1;
#X connect 60 0 61 0;
#X connect 60 0 61 1;
#X connect 61 0 62 0;
#X connect 61 0 62 1;
#X connect 62 0 63 0;
#X connect 62 0 63 1;
#X connect 63 0 58 1;
#X connect 58 0 54 1;
#X connect 54 0 55 0;
#X connect 54 0 56 0;
#X connect 56 0 0 0;
#X connect 55 0 0 1;
#X connect 64 0 65 0;
#X connect 65 0 66 0;
#X connect 66 0 67 0;
#X connect 67 0 68 0;
#X connect 68 0 69 0;
#X connect 69 0 70 0;
#X connect 70 0 71 0;
#X connect 71 0 72 0;
#X connect 72 0 73 0;
#X connect 73 0 74 0;
#X connect 74 0 75 0;
#X connect 78 0 79 0;
#X connect 65 0 80 0;
#X connect 65 0 80 1;
#X connect 80 0 81 0;
#X connect 80 0 81 1;
#X connect 81 0 82 0;
#X connect 81 0 82 1;
#X connect 82 0 83 0;
#X connect 82 0 83 1;
#X connect 83 0 84 0;
#X connect 83 0 84 1;
#X connect 84 0 79 1;
#X connect 79 0 75 1;
#X connect 75 0 76 0;
#X connect 75 0 77 0;
#X connect 77 0 0 0;
#X connect 76 0 0 1;
#X connect 85 0 86 0;
#X connect 86 0 87 0;
#X connect 87 0 88 0;
#X connect 88 0 89 0;
#X connect 89 0 90 0;
#X connect 90 0 91 0;
#X connect 91 0 92 0;
#X connect 92 0 93 0;
#X connect 93 0 94 0;
#X connect 94 0 95 0;
#X connect 95 0 96 0;
#X connect 99 0 100 0;
#X connect 86 0 101 0;
#X connect 86 0 101 1;
#X connect 101 0 102 0;
#X connect 101 0 102 1;
#X connect 102 0 103 0;
#X connect 102 0 103 1;
#X connect 103 0 104 0;
#X connect 103 0 104 1;
#X connect 104 0 105 0;
#X connect 104 0 105 1;
#X connect 105 0 100 1;
#X connect 100 0 96 1;
#X connect 96 0 97 0;
#X connect 96 0 98 0;
#X connect 98 0 0 0;
#X connect 97 0 0 1;
#X connect 106 0 107 0;
#X connect 107 0 108 0;
#X connect 108 0 109 0;
#X connect 109 0 110 0;
#X connect 110 0 111 0;
#X connect 111 0 112 0;
#X connect 112 0 113 0;
#X connect 113 0 114 0;
#X connect 114 0 115 0;
#X connect 115 0 116 0;
#X connect 116 0 117 0;
#X connect 120 0 121 0;
#X connect 107 0 122 0;
#X connect 107 0 122 1;
#X connect 122 0 123 0;
#X connect 122 0 123 1;
#X connect 123 0 124 0;
#X connect 123 0 124 1;
#X connect 124 0 125 0;
#X connect 124 0 125 1;
#X connect 125 0 126 0;
#X connect 125 0 126 1;
#X connect 126 0 121 1;
#X connect 121 0 117 1;
#X connect 117 0 118 0;
#X connect 117 0 119 0;
#X connect 119 0 0 0;
#X connect 118 0 0 1;
#X connect 127 0 128 0;
#X connect 128 0 129 0;
#X connect 129 0 130 0;
#X connect 130 0 131 0;
#X connect 131 0 132 0;
#X connect 132 0 133 0;
#X connect 133 0 134 0;
#X connect 134 0 135 0;
#X connect 135 0 136 0;
#X connect 136 0 137 0;
#X connect 137 0 138 0;
#X connect 141 0 142 0;
#X connect 128 0 143 0;
#X connect 128 0 143 1;
#X connect 143 0 144 0;
#X connect 143 0 144 1;
#X connect 144 0 145 0;
#X connect 144 0 145 1;
#X connect 145 0 146 0;
#X connect 145 0 146 1;
#X connect 146 0 147 0;
#X connect 146 0 147 1;
#X connect 147 0 142 1;
#X connect 142 0 138 1;
#X connect 138 0 139 0;
#X connect 138 0 140 0;
#X connect 140 0 0 0;
#X connect 139 0 0 1;
#X connect 148 0 149 0;
#X connect 149 0 150 0;
#X connect 150 0 151 0;
#X connect 151 0 152 0;
#X connect 152 0 153 0;
#X connect 153 0 154 0;
#X connect 154 0 155 0;
#X connect 155 0 156 0;
#X connect 156 0 157 0;
#X connect 157 0 158 0;
#X connect 158 0 159 0;
#X connect 162 0 163 0;
#X connect 149 0 164 0;
#X connect 149 0 164 1;
#X connect 164 0 165 0;
#X connect 164 0 165 1;
#X connect 165 0 166 0;
#X connect 165 0 166 1;
#X connect 166 0 167 0;
#X connect 166 0 167 1;
#X connect 167 0 168 0;
#X connect 167 0 168 1;
#X connect 168 0 163 1;
#X connect 163 0 159 1;
#X connect 159 0 160 0;
#X connect 159 0 161 0;
#X connect 161 0 0 0;
#X connect 160 0 0 1;
#X connect 169 0 170 0;
#X connect 170 0 171 0;
#X connect 171 0 172 0;
#X connect 172 0 173 0;
#X connect 173 0 174 0;
#X connect 174 0 175 0;
#X connect 175 0 176 0;
#X connect 176 0 177 0;
#X connect 177 0 178 0;
#X connect 178 0 179 0;
#X connect 179 0 180 0;
#X connect 183 0 184 0;
#X connect 170 0 185 0;
#X connect 170 0 185 1;
#X connect 185 0 186 0;
#X connect 185 0 186 1;
#X connect 186 0 187 0;
#X connect 186 0 187 1;
#X connect 187 0 188 0;
#X connect 187 0 188 1;
#X connect 188 0 189 0;
#X connect 188 0 189 1;
#X connect 189 0 184 1;
#X connect 184 0 180 1;
#X connect 180 0 181 0;
#X connect 180 0 182 0;
#X connect 182 0 0 0;
#X connect 181 0 0 1;
