#N canvas 0 22 450 300 12;
#X obj 17650 1480 dac~;
#X obj 370 70 phasor~ 0.8829106588114616 0.9961048751388847;
#X obj 370 100 lop~ 100;
#X obj 370 130 *~ 70.63285270491693;
#X obj 370 160 +~ 570.6328527049169;
#X obj 370 190 phasor~;
#X obj 370 220 +~ 0.6123956440593549;
#X obj 370 250 cos~;
#X obj 370 280 *~ 2;
#X obj 370 310 -~ 1;
#X obj 730 370 clip~ -0.3 0.3;
#X obj 370 370 *~ 0.08829106588114616;
#X obj 370 400 *~;
#X obj 10 400 *~ 0.45851363064654327;
#X obj 730 490 *~ 0.5414863693534567;
#X obj 730 520 sig~ 1;
#X obj 370 520 -~;
#X obj 730 580 *~;
#X obj 370 580 *~;
#X obj 730 640 *~;
#X obj 730 670 *~;
#X obj 370 670 *~;
#X obj 370 700 phasor~ 0.9744140393036116 0.9952563415340353;
#X obj 370 730 lop~ 100;
#X obj 370 760 *~ 77.95312314428892;
#X obj 370 790 +~ 577.953123144289;
#X obj 370 820 phasor~;
#X obj 370 850 +~ 0.6196037186482457;
#X obj 370 880 cos~;
#X obj 370 910 *~ 2;
#X obj 370 940 -~ 1;
#X obj 730 1000 clip~ -0.3 0.3;
#X obj 370 1000 *~ 0.09744140393036116;
#X obj 370 1030 *~;
#X obj 10 1030 *~ 0.5412692644332208;
#X obj 730 1120 *~ 0.45873073556677924;
#X obj 730 1150 sig~ 1;
#X obj 370 1150 -~;
#X obj 730 1210 *~;
#X obj 370 1210 *~;
#X obj 730 1270 *~;
#X obj 730 1300 *~;
#X obj 370 1300 *~;
#X obj 370 1330 phasor~ 0.7169337844972408 0.9974311303458364;
#X obj 370 1360 lop~ 100;
#X obj 370 1390 *~ 57.354702759779265;
#X obj 370 1420 +~ 557.3547027597792;
#X obj 370 1450 phasor~;
#X obj 370 1480 +~ 0.5991905704179008;
#X obj 370 1510 cos~;
#X obj 370 1540 *~ 2;
#X obj 370 1570 -~ 1;
#X obj 730 1630 clip~ -0.3 0.3;
#X obj 370 1630 *~ 0.07169337844972408;
#X obj 370 1660 *~;
#X obj 10 1660 *~ 0.06217301635609496;
#X obj 730 1750 *~ 0.937826983643905;
#X obj 730 1780 sig~ 1;
#X obj 370 1780 -~;
#X obj 730 1840 *~;
#X obj 370 1840 *~;
#X obj 730 1900 *~;
#X obj 730 1930 *~;
#X obj 370 1930 *~;
#X obj 370 1960 phasor~ 0.39561779999665825 0.9992175348448793;
#X obj 370 1990 lop~ 100;
#X obj 370 2020 *~ 31.64942399973266;
#X obj 370 2050 +~ 531.6494239997327;
#X obj 370 2080 phasor~;
#X obj 370 2110 +~ 0.5731609448861502;
#X obj 370 2140 cos~;
#X obj 370 2170 *~ 2;
#X obj 370 2200 -~ 1;
#X obj 730 2260 clip~ -0.3 0.3;
#X obj 370 2260 *~ 0.03956177999966583;
#X obj 370 2290 *~;
#X obj 10 2290 *~ 0.16190599657360583;
#X obj 730 2380 *~ 0.8380940034263942;
#X obj 730 2410 sig~ 1;
#X obj 370 2410 -~;
#X obj 730 2470 *~;
#X obj 370 2470 *~;
#X obj 730 2530 *~;
#X obj 730 2560 *~;
#X obj 370 2560 *~;
#X obj 370 2590 phasor~ 0.17464758621629528 0.9998474949795987;
#X obj 370 2620 lop~ 100;
#X obj 370 2650 *~ 13.971806897303624;
#X obj 370 2680 +~ 513.9718068973036;
#X obj 370 2710 phasor~;
#X obj 370 2740 +~ 0.5549152476074245;
#X obj 370 2770 cos~;
#X obj 370 2800 *~ 2;
#X obj 370 2830 -~ 1;
#X obj 730 2890 clip~ -0.3 0.3;
#X obj 370 2890 *~ 0.01746475862162953;
#X obj 370 2920 *~;
#X obj 10 2920 *~ 0.4059472960732827;
#X obj 730 3010 *~ 0.5940527039267173;
#X obj 730 3040 sig~ 1;
#X obj 370 3040 -~;
#X obj 730 3100 *~;
#X obj 370 3100 *~;
#X obj 730 3160 *~;
#X obj 730 3190 *~;
#X obj 370 3190 *~;
#X obj 370 3220 phasor~ 0.06424925641919202 0.9999793602362482;
#X obj 370 3250 lop~ 100;
#X obj 370 3280 *~ 5.139940513535361;
#X obj 370 3310 +~ 505.13994051353535;
#X obj 370 3340 phasor~;
#X obj 370 3370 +~ 0.545697505467837;
#X obj 370 3400 cos~;
#X obj 370 3430 *~ 2;
#X obj 370 3460 -~ 1;
#X obj 730 3520 clip~ -0.3 0.3;
#X obj 370 3520 *~ 0.0064249256419192016;
#X obj 370 3550 *~;
#X obj 10 3550 *~ 0.94399786464159;
#X obj 730 3640 *~ 0.05600213535841003;
#X obj 730 3670 sig~ 1;
#X obj 370 3670 -~;
#X obj 730 3730 *~;
#X obj 370 3730 *~;
#X obj 730 3790 *~;
#X obj 730 3820 *~;
#X obj 370 3820 *~;
#X obj 370 3850 phasor~ 0.020259411897576907 0.9999979477818498;
#X obj 370 3880 lop~ 100;
#X obj 370 3910 *~ 1.6207529518061525;
#X obj 370 3940 +~ 501.62075295180614;
#X obj 370 3970 phasor~;
#X obj 370 4000 +~ 0.5420059666118621;
#X obj 370 4030 cos~;
#X obj 370 4060 *~ 2;
#X obj 370 4090 -~ 1;
#X obj 730 4150 clip~ -0.3 0.3;
#X obj 370 4150 *~ 0.0020259411897576908;
#X obj 370 4180 *~;
#X obj 10 4180 *~ 0.2566765384329003;
#X obj 730 4270 *~ 0.7433234615670997;
#X obj 730 4300 sig~ 1;
#X obj 370 4300 -~;
#X obj 730 4360 *~;
#X obj 370 4360 *~;
#X obj 730 4420 *~;
#X obj 730 4450 *~;
#X obj 370 4450 *~;
#X obj 370 4480 phasor~ 0.005589765845506998 0.999999843772593;
#X obj 370 4510 lop~ 100;
#X obj 370 4540 *~ 0.4471812676405599;
#X obj 370 4570 +~ 500.4471812676406;
#X obj 370 4600 phasor~;
#X obj 370 4630 +~ 0.5407725840107035;
#X obj 370 4660 cos~;
#X obj 370 4690 *~ 2;
#X obj 370 4720 -~ 1;
#X obj 730 4780 clip~ -0.3 0.3;
#X obj 370 4780 *~ 0.0005589765845506998;
#X obj 370 4810 *~;
#X obj 10 4810 *~ 0.9872793376540999;
#X obj 730 4900 *~ 0.01272066234590008;
#X obj 730 4930 sig~ 1;
#X obj 370 4930 -~;
#X obj 730 4990 *~;
#X obj 370 4990 *~;
#X obj 730 5050 *~;
#X obj 730 5080 *~;
#X obj 370 5080 *~;
#X obj 370 5110 phasor~ 0.001370906623682886 0.9999999906030752;
#X obj 370 5140 lop~ 100;
#X obj 370 5170 *~ 0.10967252989463089;
#X obj 370 5200 +~ 500.1096725298946;
#X obj 370 5230 phasor~;
#X obj 370 5260 +~ 0.5404176586052694;
#X obj 370 5290 cos~;
#X obj 370 5320 *~ 2;
#X obj 370 5350 -~ 1;
#X obj 730 5410 clip~ -0.3 0.3;
#X obj 370 5410 *~ 0.0001370906623682886;
#X obj 370 5440 *~;
#X obj 10 5440 *~ 0.9142241069961776;
#X obj 730 5530 *~ 0.08577589300382238;
#X obj 730 5560 sig~ 1;
#X obj 370 5560 -~;
#X obj 730 5620 *~;
#X obj 370 5620 *~;
#X obj 730 5680 *~;
#X obj 730 5710 *~;
#X obj 370 5710 *~;
#X obj 370 5740 phasor~ 0.0003025970175712133 0.9999999995421752;
#X obj 370 5770 lop~ 100;
#X obj 370 5800 *~ 0.024207761405697064;
#X obj 370 5830 +~ 500.0242077614057;
#X obj 370 5860 phasor~;
#X obj 370 5890 +~ 0.5403277682818096;
#X obj 370 5920 cos~;
#X obj 370 5950 *~ 2;
#X obj 370 5980 -~ 1;
#X obj 730 6040 clip~ -0.3 0.3;
#X obj 370 6040 *~ 0.000000e+00;
#X obj 370 6070 *~;
#X obj 10 6070 *~ 0.3244528400832758;
#X obj 730 6160 *~ 0.6755471599167242;
#X obj 730 6190 sig~ 1;
#X obj 370 6190 -~;
#X obj 730 6250 *~;
#X obj 370 6250 *~;
#X obj 730 6310 *~;
#X obj 730 6340 *~;
#X obj 370 6340 *~;
#X obj 370 6370 phasor~ 0.000000e+00 0.9999999999815656;
#X obj 370 6400 lop~ 100;
#X obj 370 6430 *~ 0.004857566038876061;
#X obj 370 6460 +~ 500.0048575660389;
#X obj 370 6490 phasor~;
#X obj 370 6520 +~ 0.5403074152342778;
#X obj 370 6550 cos~;
#X obj 370 6580 *~ 2;
#X obj 370 6610 -~ 1;
#X obj 730 6670 clip~ -0.3 0.3;
#X obj 370 6670 *~ 0.000000e+00;
#X obj 370 6700 *~;
#X obj 10 6700 *~ 0.5649683969380815;
#X obj 730 6790 *~ 0.43503160306191846;
#X obj 730 6820 sig~ 1;
#X obj 370 6820 -~;
#X obj 730 6880 *~;
#X obj 370 6880 *~;
#X obj 730 6940 *~;
#X obj 730 6970 *~;
#X obj 370 6970 *~;
#X obj 370 7000 phasor~ 0.000000e+00 0.9999999999993763;
#X obj 370 7030 lop~ 100;
#X obj 370 7060 *~ 0.0008934993399175511;
#X obj 370 7090 +~ 500.0008934993399;
#X obj 370 7120 phasor~;
#X obj 370 7150 +~ 0.5403032456850146;
#X obj 370 7180 cos~;
#X obj 370 7210 *~ 2;
#X obj 370 7240 -~ 1;
#X obj 730 7300 clip~ -0.3 0.3;
#X obj 370 7300 *~ 0.000000e+00;
#X obj 370 7330 *~;
#X obj 10 7330 *~ 0.2635794804727998;
#X obj 730 7420 *~ 0.7364205195272002;
#X obj 730 7450 sig~ 1;
#X obj 370 7450 -~;
#X obj 730 7510 *~;
#X obj 370 7510 *~;
#X obj 730 7570 *~;
#X obj 730 7600 *~;
#X obj 370 7600 *~;
#X obj 370 7630 phasor~ 0.000000e+00 0.999999999999982;
#X obj 370 7660 lop~ 100;
#X obj 370 7690 *~ 0.00015170770977965595;
#X obj 370 7720 +~ 500.0001517077098;
#X obj 370 7750 phasor~;
#X obj 370 7780 +~ 0.540302465440175;
#X obj 370 7810 cos~;
#X obj 370 7840 *~ 2;
#X obj 370 7870 -~ 1;
#X obj 730 7930 clip~ -0.3 0.3;
#X obj 370 7930 *~ 0.000000e+00;
#X obj 370 7960 *~;
#X obj 10 7960 *~ 0.15444280557341472;
#X obj 730 8050 *~ 0.8455571944265853;
#X obj 730 8080 sig~ 1;
#X obj 370 8080 -~;
#X obj 730 8140 *~;
#X obj 370 8140 *~;
#X obj 730 8200 *~;
#X obj 730 8230 *~;
#X obj 370 8230 *~;
#X obj 370 8260 phasor~ 0.000000e+00 0.9999999999999996;
#X obj 370 8290 lop~ 100;
#X obj 370 8320 *~ 0.000000e+00;
#X obj 370 8350 +~ 500.00002391863467;
#X obj 370 8380 phasor~;
#X obj 370 8410 +~ 0.5403023310266858;
#X obj 370 8440 cos~;
#X obj 370 8470 *~ 2;
#X obj 370 8500 -~ 1;
#X obj 730 8560 clip~ -0.3 0.3;
#X obj 370 8560 *~ 0.000000e+00;
#X obj 370 8590 *~;
#X obj 10 8590 *~ 0.19112521634008972;
#X obj 730 8680 *~ 0.8088747836599103;
#X obj 730 8710 sig~ 1;
#X obj 370 8710 -~;
#X obj 730 8770 *~;
#X obj 370 8770 *~;
#X obj 730 8830 *~;
#X obj 730 8860 *~;
#X obj 370 8860 *~;
#X obj 370 8890 phasor~ 0.000000e+00 1.0;
#X obj 370 8920 lop~ 100;
#X obj 370 8950 *~ 0.000000e+00;
#X obj 370 8980 +~ 500.0000035196696;
#X obj 370 9010 phasor~;
#X obj 370 9040 +~ 0.5403023095702646;
#X obj 370 9070 cos~;
#X obj 370 9100 *~ 2;
#X obj 370 9130 -~ 1;
#X obj 730 9190 clip~ -0.3 0.3;
#X obj 370 9190 *~ 0.000000e+00;
#X obj 370 9220 *~;
#X obj 10 9220 *~ 0.14762851820705902;
#X obj 730 9310 *~ 0.852371481792941;
#X obj 730 9340 sig~ 1;
#X obj 370 9340 -~;
#X obj 730 9400 *~;
#X obj 370 9400 *~;
#X obj 730 9460 *~;
#X obj 730 9490 *~;
#X obj 370 9490 *~;
#X obj 370 9520 phasor~ 0.000000e+00 1.0;
#X obj 370 9550 lop~ 100;
#X obj 370 9580 *~ 0.000000e+00;
#X obj 370 9610 +~ 500.0000004855553;
#X obj 370 9640 phasor~;
#X obj 370 9670 +~ 0.5403023063788656;
#X obj 370 9700 cos~;
#X obj 370 9730 *~ 2;
#X obj 370 9760 -~ 1;
#X obj 730 9820 clip~ -0.3 0.3;
#X obj 370 9820 *~ 0.000000e+00;
#X obj 370 9850 *~;
#X obj 10 9850 *~ 0.21930514283200497;
#X obj 730 9940 *~ 0.780694857167995;
#X obj 730 9970 sig~ 1;
#X obj 370 9970 -~;
#X obj 730 10030 *~;
#X obj 370 10030 *~;
#X obj 730 10090 *~;
#X obj 730 10120 *~;
#X obj 370 10120 *~;
#X obj 370 10150 phasor~ 0.000000e+00 1.0;
#X obj 370 10180 lop~ 100;
#X obj 370 10210 *~ 0.000000e+00;
#X obj 370 10240 +~ 500.0000000630444;
#X obj 370 10270 phasor~;
#X obj 370 10300 +~ 0.5403023059344523;
#X obj 370 10330 cos~;
#X obj 370 10360 *~ 2;
#X obj 370 10390 -~ 1;
#X obj 730 10450 clip~ -0.3 0.3;
#X obj 370 10450 *~ 0.000000e+00;
#X obj 370 10480 *~;
#X obj 10 10480 *~ 0.7288277298531269;
#X obj 730 10570 *~ 0.27117227014687306;
#X obj 730 10600 sig~ 1;
#X obj 370 10600 -~;
#X obj 730 10660 *~;
#X obj 370 10660 *~;
#X obj 730 10720 *~;
#X obj 730 10750 *~;
#X obj 370 10750 *~;
#X obj 370 10780 phasor~ 0.000000e+00 1.0;
#X obj 370 10810 lop~ 100;
#X obj 370 10840 *~ 0.000000e+00;
#X obj 370 10870 +~ 500.00000000773093;
#X obj 370 10900 phasor~;
#X obj 370 10930 +~ 0.5403023058762714;
#X obj 370 10960 cos~;
#X obj 370 10990 *~ 2;
#X obj 370 11020 -~ 1;
#X obj 730 11080 clip~ -0.3 0.3;
#X obj 370 11080 *~ 0.000000e+00;
#X obj 370 11110 *~;
#X obj 10 11110 *~ 0.1550175439708693;
#X obj 730 11200 *~ 0.8449824560291307;
#X obj 730 11230 sig~ 1;
#X obj 370 11230 -~;
#X obj 730 11290 *~;
#X obj 370 11290 *~;
#X obj 730 11350 *~;
#X obj 730 11380 *~;
#X obj 370 11380 *~;
#X obj 370 11410 phasor~ 0.000000e+00 1.0;
#X obj 370 11440 lop~ 100;
#X obj 370 11470 *~ 0.000000e+00;
#X obj 370 11500 +~ 500.0000000008981;
#X obj 370 11530 phasor~;
#X obj 370 11560 +~ 0.5403023058690845;
#X obj 370 11590 cos~;
#X obj 370 11620 *~ 2;
#X obj 370 11650 -~ 1;
#X obj 730 11710 clip~ -0.3 0.3;
#X obj 370 11710 *~ 0.000000e+00;
#X obj 370 11740 *~;
#X obj 10 11740 *~ 0.4412463718115591;
#X obj 730 11830 *~ 0.5587536281884409;
#X obj 730 11860 sig~ 1;
#X obj 370 11860 -~;
#X obj 730 11920 *~;
#X obj 370 11920 *~;
#X obj 730 11980 *~;
#X obj 730 12010 *~;
#X obj 370 12010 *~;
#X obj 370 12040 phasor~ 0.000000e+00 1.0;
#X obj 370 12070 lop~ 100;
#X obj 370 12100 *~ 0.000000e+00;
#X obj 370 12130 +~ 500.00000000009913;
#X obj 370 12160 phasor~;
#X obj 370 12190 +~ 0.540302305868244;
#X obj 370 12220 cos~;
#X obj 370 12250 *~ 2;
#X obj 370 12280 -~ 1;
#X obj 730 12340 clip~ -0.3 0.3;
#X obj 370 12340 *~ 0.000000e+00;
#X obj 370 12370 *~;
#X obj 10 12370 *~ 0.7920496604866918;
#X obj 730 12460 *~ 0.2079503395133082;
#X obj 730 12490 sig~ 1;
#X obj 370 12490 -~;
#X obj 730 12550 *~;
#X obj 370 12550 *~;
#X obj 730 12610 *~;
#X obj 730 12640 *~;
#X obj 370 12640 *~;
#X obj 370 12670 phasor~ 0.000000e+00 1.0;
#X obj 370 12700 lop~ 100;
#X obj 370 12730 *~ 0.000000e+00;
#X obj 370 12760 +~ 500.0000000000104;
#X obj 370 12790 phasor~;
#X obj 370 12820 +~ 0.5403023058681506;
#X obj 370 12850 cos~;
#X obj 370 12880 *~ 2;
#X obj 370 12910 -~ 1;
#X obj 730 12970 clip~ -0.3 0.3;
#X obj 370 12970 *~ 0.000000e+00;
#X obj 370 13000 *~;
#X obj 10 13000 *~ 0.42246935640061145;
#X obj 730 13090 *~ 0.5775306435993885;
#X obj 730 13120 sig~ 1;
#X obj 370 13120 -~;
#X obj 730 13180 *~;
#X obj 370 13180 *~;
#X obj 730 13240 *~;
#X obj 730 13270 *~;
#X obj 370 13270 *~;
#X obj 370 13300 phasor~ 0.000000e+00 1.0;
#X obj 370 13330 lop~ 100;
#X obj 370 13360 *~ 0.000000e+00;
#X obj 370 13390 +~ 500.000000000001;
#X obj 370 13420 phasor~;
#X obj 370 13450 +~ 0.5403023058681409;
#X obj 370 13480 cos~;
#X obj 370 13510 *~ 2;
#X obj 370 13540 -~ 1;
#X obj 730 13600 clip~ -0.3 0.3;
#X obj 370 13600 *~ 0.000000e+00;
#X obj 370 13630 *~;
#X obj 10 13630 *~ 0.9660327425776807;
#X obj 730 13720 *~ 0.03396725742231932;
#X obj 730 13750 sig~ 1;
#X obj 370 13750 -~;
#X obj 730 13810 *~;
#X obj 370 13810 *~;
#X obj 730 13870 *~;
#X obj 730 13900 *~;
#X obj 370 13900 *~;
#X obj 370 13930 phasor~ 0.000000e+00 1.0;
#X obj 370 13960 lop~ 100;
#X obj 370 13990 *~ 0.000000e+00;
#X obj 370 14020 +~ 500.0000000000001;
#X obj 370 14050 phasor~;
#X obj 370 14080 +~ 0.5403023058681399;
#X obj 370 14110 cos~;
#X obj 370 14140 *~ 2;
#X obj 370 14170 -~ 1;
#X obj 730 14230 clip~ -0.3 0.3;
#X obj 370 14230 *~ 0.000000e+00;
#X obj 370 14260 *~;
#X obj 10 14260 *~ 0.6139096757701341;
#X obj 730 14350 *~ 0.3860903242298659;
#X obj 730 14380 sig~ 1;
#X obj 370 14380 -~;
#X obj 730 14440 *~;
#X obj 370 14440 *~;
#X obj 730 14500 *~;
#X obj 730 14530 *~;
#X obj 370 14530 *~;
#X obj 370 14560 phasor~ 0.000000e+00 1.0;
#X obj 370 14590 lop~ 100;
#X obj 370 14620 *~ 0.000000e+00;
#X obj 370 14650 +~ 500.0;
#X obj 370 14680 phasor~;
#X obj 370 14710 +~ 0.5403023058681398;
#X obj 370 14740 cos~;
#X obj 370 14770 *~ 2;
#X obj 370 14800 -~ 1;
#X obj 730 14860 clip~ -0.3 0.3;
#X obj 370 14860 *~ 0.000000e+00;
#X obj 370 14890 *~;
#X obj 10 14890 *~ 0.25790885973161093;
#X obj 730 14980 *~ 0.7420911402683891;
#X obj 730 15010 sig~ 1;
#X obj 370 15010 -~;
#X obj 730 15070 *~;
#X obj 370 15070 *~;
#X obj 730 15130 *~;
#X obj 730 15160 *~;
#X obj 10 15070 *~;
#X connect 1 0 2 0;
#X connect 2 0 3 0;
#X connect 3 0 4 0;
#X connect 4 0 5 0;
#X connect 5 0 6 0;
#X connect 6 0 7 0;
#X connect 7 0 8 0;
#X connect 8 0 9 0;
#X connect 9 0 10 0;
#X connect 10 0 11 0;
#X connect 11 0 12 0;
#X connect 15 0 16 0;
#X connect 2 0 17 0;
#X connect 2 0 17 1;
#X connect 17 0 18 0;
#X connect 17 0 18 1;
#X connect 18 0 19 0;
#X connect 18 0 19 1;
#X connect 19 0 20 0;
#X connect 19 0 20 1;
#X connect 20 0 21 0;
#X connect 20 0 21 1;
#X connect 21 0 16 1;
#X connect 16 0 12 1;
#X connect 12 0 13 0;
#X connect 12 0 14 0;
#X connect 14 0 0 0;
#X connect 13 0 0 1;
#X connect 22 0 23 0;
#X connect 23 0 24 0;
#X connect 24 0 25 0;
#X connect 25 0 26 0;
#X connect 26 0 27 0;
#X connect 27 0 28 0;
#X connect 28 0 29 0;
#X connect 29 0 30 0;
#X connect 30 0 31 0;
#X connect 31 0 32 0;
#X connect 32 0 33 0;
#X connect 36 0 37 0;
#X connect 23 0 38 0;
#X connect 23 0 38 1;
#X connect 38 0 39 0;
#X connect 38 0 39 1;
#X connect 39 0 40 0;
#X connect 39 0 40 1;
#X connect 40 0 41 0;
#X connect 40 0 41 1;
#X connect 41 0 42 0;
#X connect 41 0 42 1;
#X connect 42 0 37 1;
#X connect 37 0 33 1;
#X connect 33 0 34 0;
#X connect 33 0 35 0;
#X connect 35 0 0 0;
#X connect 34 0 0 1;
#X connect 43 0 44 0;
#X connect 44 0 45 0;
#X connect 45 0 46 0;
#X connect 46 0 47 0;
#X connect 47 0 48 0;
#X connect 48 0 49 0;
#X connect 49 0 50 0;
#X connect 50 0 51 0;
#X connect 51 0 52 0;
#X connect 52 0 53 0;
#X connect 53 0 54 0;
#X connect 57 0 58 0;
#X connect 44 0 59 0;
#X connect 44 0 59 1;
#X connect 59 0 60 0;
#X connect 59 0 60 1;
#X connect 60 0 61 0;
#X connect 60 0 61 1;
#X connect 61 0 62 0;
#X connect 61 0 62 1;
#X connect 62 0 63 0;
#X connect 62 0 63 1;
#X connect 63 0 58 1;
#X connect 58 0 54 1;
#X connect 54 0 55 0;
#X connect 54 0 56 0;
#X connect 56 0 0 0;
#X connect 55 0 0 1;
#X connect 64 0 65 0;
#X connect 65 0 66 0;
#X connect 66 0 67 0;
#X connect 67 0 68 0;
#X connect 68 0 69 0;
#X connect 69 0 70 0;
#X connect 70 0 71 0;
#X connect 71 0 72 0;
#X connect 72 0 73 0;
#X connect 73 0 74 0;
#X connect 74 0 75 0;
#X connect 78 0 79 0;
#X connect 65 0 80 0;
#X connect 65 0 80 1;
#X connect 80 0 81 0;
#X connect 80 0 81 1;
#X connect 81 0 82 0;
#X connect 81 0 82 1;
#X connect 82 0 83 0;
#X connect 82 0 83 1;
#X connect 83 0 84 0;
#X connect 83 0 84 1;
#X connect 84 0 79 1;
#X connect 79 0 75 1;
#X connect 75 0 76 0;
#X connect 75 0 77 0;
#X connect 77 0 0 0;
#X connect 76 0 0 1;
#X connect 85 0 86 0;
#X connect 86 0 87 0;
#X connect 87 0 88 0;
#X connect 88 0 89 0;
#X connect 89 0 90 0;
#X connect 90 0 91 0;
#X connect 91 0 92 0;
#X connect 92 0 93 0;
#X connect 93 0 94 0;
#X connect 94 0 95 0;
#X connect 95 0 96 0;
#X connect 99 0 100 0;
#X connect 86 0 101 0;
#X connect 86 0 101 1;
#X connect 101 0 102 0;
#X connect 101 0 102 1;
#X connect 102 0 103 0;
#X connect 102 0 103 1;
#X connect 103 0 104 0;
#X connect 103 0 104 1;
#X connect 104 0 105 0;
#X connect 104 0 105 1;
#X connect 105 0 100 1;
#X connect 100 0 96 1;
#X connect 96 0 97 0;
#X connect 96 0 98 0;
#X connect 98 0 0 0;
#X connect 97 0 0 1;
#X connect 106 0 107 0;
#X connect 107 0 108 0;
#X connect 108 0 109 0;
#X connect 109 0 110 0;
#X connect 110 0 111 0;
#X connect 111 0 112 0;
#X connect 112 0 113 0;
#X connect 113 0 114 0;
#X connect 114 0 115 0;
#X connect 115 0 116 0;
#X connect 116 0 117 0;
#X connect 120 0 121 0;
#X connect 107 0 122 0;
#X connect 107 0 122 1;
#X connect 122 0 123 0;
#X connect 122 0 123 1;
#X connect 123 0 124 0;
#X connect 123 0 124 1;
#X connect 124 0 125 0;
#X connect 124 0 125 1;
#X connect 125 0 126 0;
#X connect 125 0 126 1;
#X connect 126 0 121 1;
#X connect 121 0 117 1;
#X connect 117 0 118 0;
#X connect 117 0 119 0;
#X connect 119 0 0 0;
#X connect 118 0 0 1;
#X connect 127 0 128 0;
#X connect 128 0 129 0;
#X connect 129 0 130 0;
#X connect 130 0 131 0;
#X connect 131 0 132 0;
#X connect 132 0 133 0;
#X connect 133 0 134 0;
#X connect 134 0 135 0;
#X connect 135 0 136 0;
#X connect 136 0 137 0;
#X connect 137 0 138 0;
#X connect 141 0 142 0;
#X connect 128 0 143 0;
#X connect 128 0 143 1;
#X connect 143 0 144 0;
#X connect 143 0 144 1;
#X connect 144 0 145 0;
#X connect 144 0 145 1;
#X connect 145 0 146 0;
#X connect 145 0 146 1;
#X connect 146 0 147 0;
#X connect 146 0 147 1;
#X connect 147 0 142 1;
#X connect 142 0 138 1;
#X connect 138 0 139 0;
#X connect 138 0 140 0;
#X connect 140 0 0 0;
#X connect 139 0 0 1;
#X connect 148 0 149 0;
#X connect 149 0 150 0;
#X connect 150 0 151 0;
#X connect 151 0 152 0;
#X connect 152 0 153 0;
#X connect 153 0 154 0;
#X connect 154 0 155 0;
#X connect 155 0 156 0;
#X connect 156 0 157 0;
#X connect 157 0 158 0;
#X connect 158 0 159 0;
#X connect 162 0 163 0;
#X connect 149 0 164 0;
#X connect 149 0 164 1;
#X connect 164 0 165 0;
#X connect 164 0 165 1;
#X connect 165 0 166 0;
#X connect 165 0 166 1;
#X connect 166 0 167 0;
#X connect 166 0 167 1;
#X connect 167 0 168 0;
#X connect 167 0 168 1;
#X connect 168 0 163 1;
#X connect 163 0 159 1;
#X connect 159 0 160 0;
#X connect 159 0 161 0;
#X connect 161 0 0 0;
#X connect 160 0 0 1;
#X connect 169 0 170 0;
#X connect 170 0 171 0;
#X connect 171 0 172 0;
#X connect 172 0 173 0;
#X connect 173 0 174 0;
#X connect 174 0 175 0;
#X connect 175 0 176 0;
#X connect 176 0 177 0;
#X connect 177 0 178 0;
#X connect 178 0 179 0;
#X connect 179 0 180 0;
#X connect 183 0 184 0;
#X connect 170 0 185 0;
#X connect 170 0 185 1;
#X connect 185 0 186 0;
#X connect 185 0 186 1;
#X connect 186 0 187 0;
#X connect 186 0 187 1;
#X connect 187 0 188 0;
#X connect 187 0 188 1;
#X connect 188 0 189 0;
#X connect 188 0 189 1;
#X connect 189 0 184 1;
#X connect 184 0 180 1;
#X connect 180 0 181 0;
#X connect 180 0 182 0;
#X connect 182 0 0 0;
#X connect 181 0 0 1;
#X connect 190 0 191 0;
#X connect 191 0 192 0;
#X connect 192 0 193 0;
#X connect 193 0 194 0;
#X connect 194 0 195 0;
#X connect 195 0 196 0;
#X connect 196 0 197 0;
#X connect 197 0 198 0;
#X connect 198 0 199 0;
#X connect 199 0 200 0;
#X connect 200 0 201 0;
#X connect 204 0 205 0;
#X connect 191 0 206 0;
#X connect 191 0 206 1;
#X connect 206 0 207 0;
#X connect 206 0 207 1;
#X connect 207 0 208 0;
#X connect 207 0 208 1;
#X connect 208 0 209 0;
#X connect 208 0 209 1;
#X connect 209 0 210 0;
#X connect 209 0 210 1;
#X connect 210 0 205 1;
#X connect 205 0 201 1;
#X connect 201 0 202 0;
#X connect 201 0 203 0;
#X connect 203 0 0 0;
#X connect 202 0 0 1;
#X connect 211 0 212 0;
#X connect 212 0 213 0;
#X connect 213 0 214 0;
#X connect 214 0 215 0;
#X connect 215 0 216 0;
#X connect 216 0 217 0;
#X connect 217 0 218 0;
#X connect 218 0 219 0;
#X connect 219 0 220 0;
#X connect 220 0 221 0;
#X connect 221 0 222 0;
#X connect 225 0 226 0;
#X connect 212 0 227 0;
#X connect 212 0 227 1;
#X connect 227 0 228 0;
#X connect 227 0 228 1;
#X connect 228 0 229 0;
#X connect 228 0 229 1;
#X connect 229 0 230 0;
#X connect 229 0 230 1;
#X connect 230 0 231 0;
#X connect 230 0 231 1;
#X connect 231 0 226 1;
#X connect 226 0 222 1;
#X connect 222 0 223 0;
#X connect 222 0 224 0;
#X connect 224 0 0 0;
#X connect 223 0 0 1;
#X connect 232 0 233 0;
#X connect 233 0 234 0;
#X connect 234 0 235 0;
#X connect 235 0 236 0;
#X connect 236 0 237 0;
#X connect 237 0 238 0;
#X connect 238 0 239 0;
#X connect 239 0 240 0;
#X connect 240 0 241 0;
#X connect 241 0 242 0;
#X connect 242 0 243 0;
#X connect 246 0 247 0;
#X connect 233 0 248 0;
#X connect 233 0 248 1;
#X connect 248 0 249 0;
#X connect 248 0 249 1;
#X connect 249 0 250 0;
#X connect 249 0 250 1;
#X connect 250 0 251 0;
#X connect 250 0 251 1;
#X connect 251 0 252 0;
#X connect 251 0 252 1;
#X connect 252 0 247 1;
#X connect 247 0 243 1;
#X connect 243 0 244 0;
#X connect 243 0 245 0;
#X connect 245 0 0 0;
#X connect 244 0 0 1;
#X connect 253 0 254 0;
#X connect 254 0 255 0;
#X connect 255 0 256 0;
#X connect 256 0 257 0;
#X connect 257 0 258 0;
#X connect 258 0 259 0;
#X connect 259 0 260 0;
#X connect 260 0 261 0;
#X connect 261 0 262 0;
#X connect 262 0 263 0;
#X connect 263 0 264 0;
#X connect 267 0 268 0;
#X connect 254 0 269 0;
#X connect 254 0 269 1;
#X connect 269 0 270 0;
#X connect 269 0 270 1;
#X connect 270 0 271 0;
#X connect 270 0 271 1;
#X connect 271 0 272 0;
#X connect 271 0 272 1;
#X connect 272 0 273 0;
#X connect 272 0 273 1;
#X connect 273 0 268 1;
#X connect 268 0 264 1;
#X connect 264 0 265 0;
#X connect 264 0 266 0;
#X connect 266 0 0 0;
#X connect 265 0 0 1;
#X connect 274 0 275 0;
#X connect 275 0 276 0;
#X connect 276 0 277 0;
#X connect 277 0 278 0;
#X connect 278 0 279 0;
#X connect 279 0 280 0;
#X connect 280 0 281 0;
#X connect 281 0 282 0;
#X connect 282 0 283 0;
#X connect 283 0 284 0;
#X connect 284 0 285 0;
#X connect 288 0 289 0;
#X connect 275 0 290 0;
#X connect 275 0 290 1;
#X connect 290 0 291 0;
#X connect 290 0 291 1;
#X connect 291 0 292 0;
#X connect 291 0 292 1;
#X connect 292 0 293 0;
#X connect 292 0 293 1;
#X connect 293 0 294 0;
#X connect 293 0 294 1;
#X connect 294 0 289 1;
#X connect 289 0 285 1;
#X connect 285 0 286 0;
#X connect 285 0 287 0;
#X connect 287 0 0 0;
#X connect 286 0 0 1;
#X connect 295 0 296 0;
#X connect 296 0 297 0;
#X connect 297 0 298 0;
#X connect 298 0 299 0;
#X connect 299 0 300 0;
#X connect 300 0 301 0;
#X connect 301 0 302 0;
#X connect 302 0 303 0;
#X connect 303 0 304 0;
#X connect 304 0 305 0;
#X connect 305 0 306 0;
#X connect 309 0 310 0;
#X connect 296 0 311 0;
#X connect 296 0 311 1;
#X connect 311 0 312 0;
#X connect 311 0 312 1;
#X connect 312 0 313 0;
#X connect 312 0 313 1;
#X connect 313 0 314 0;
#X connect 313 0 314 1;
#X connect 314 0 315 0;
#X connect 314 0 315 1;
#X connect 315 0 310 1;
#X connect 310 0 306 1;
#X connect 306 0 307 0;
#X connect 306 0 308 0;
#X connect 308 0 0 0;
#X connect 307 0 0 1;
#X connect 316 0 317 0;
#X connect 317 0 318 0;
#X connect 318 0 319 0;
#X connect 319 0 320 0;
#X connect 320 0 321 0;
#X connect 321 0 322 0;
#X connect 322 0 323 0;
#X connect 323 0 324 0;
#X connect 324 0 325 0;
#X connect 325 0 326 0;
#X connect 326 0 327 0;
#X connect 330 0 331 0;
#X connect 317 0 332 0;
#X connect 317 0 332 1;
#X connect 332 0 333 0;
#X connect 332 0 333 1;
#X connect 333 0 334 0;
#X connect 333 0 334 1;
#X connect 334 0 335 0;
#X connect 334 0 335 1;
#X connect 335 0 336 0;
#X connect 335 0 336 1;
#X connect 336 0 331 1;
#X connect 331 0 327 1;
#X connect 327 0 328 0;
#X connect 327 0 329 0;
#X connect 329 0 0 0;
#X connect 328 0 0 1;
#X connect 337 0 338 0;
#X connect 338 0 339 0;
#X connect 339 0 340 0;
#X connect 340 0 341 0;
#X connect 341 0 342 0;
#X connect 342 0 343 0;
#X connect 343 0 344 0;
#X connect 344 0 345 0;
#X connect 345 0 346 0;
#X connect 346 0 347 0;
#X connect 347 0 348 0;
#X connect 351 0 352 0;
#X connect 338 0 353 0;
#X connect 338 0 353 1;
#X connect 353 0 354 0;
#X connect 353 0 354 1;
#X connect 354 0 355 0;
#X connect 354 0 355 1;
#X connect 355 0 356 0;
#X connect 355 0 356 1;
#X connect 356 0 357 0;
#X connect 356 0 357 1;
#X connect 357 0 352 1;
#X connect 352 0 348 1;
#X connect 348 0 349 0;
#X connect 348 0 350 0;
#X connect 350 0 0 0;
#X connect 349 0 0 1;
#X connect 358 0 359 0;
#X connect 359 0 360 0;
#X connect 360 0 361 0;
#X connect 361 0 362 0;
#X connect 362 0 363 0;
#X connect 363 0 364 0;
#X connect 364 0 365 0;
#X connect 365 0 366 0;
#X connect 366 0 367 0;
#X connect 367 0 368 0;
#X connect 368 0 369 0;
#X connect 372 0 373 0;
#X connect 359 0 374 0;
#X connect 359 0 374 1;
#X connect 374 0 375 0;
#X connect 374 0 375 1;
#X connect 375 0 376 0;
#X connect 375 0 376 1;
#X connect 376 0 377 0;
#X connect 376 0 377 1;
#X connect 377 0 378 0;
#X connect 377 0 378 1;
#X connect 378 0 373 1;
#X connect 373 0 369 1;
#X connect 369 0 370 0;
#X connect 369 0 371 0;
#X connect 371 0 0 0;
#X connect 370 0 0 1;
#X connect 379 0 380 0;
#X connect 380 0 381 0;
#X connect 381 0 382 0;
#X connect 382 0 383 0;
#X connect 383 0 384 0;
#X connect 384 0 385 0;
#X connect 385 0 386 0;
#X connect 386 0 387 0;
#X connect 387 0 388 0;
#X connect 388 0 389 0;
#X connect 389 0 390 0;
#X connect 393 0 394 0;
#X connect 380 0 395 0;
#X connect 380 0 395 1;
#X connect 395 0 396 0;
#X connect 395 0 396 1;
#X connect 396 0 397 0;
#X connect 396 0 397 1;
#X connect 397 0 398 0;
#X connect 397 0 398 1;
#X connect 398 0 399 0;
#X connect 398 0 399 1;
#X connect 399 0 394 1;
#X connect 394 0 390 1;
#X connect 390 0 391 0;
#X connect 390 0 392 0;
#X connect 392 0 0 0;
#X connect 391 0 0 1;
#X connect 400 0 401 0;
#X connect 401 0 402 0;
#X connect 402 0 403 0;
#X connect 403 0 404 0;
#X connect 404 0 405 0;
#X connect 405 0 406 0;
#X connect 406 0 407 0;
#X connect 407 0 408 0;
#X connect 408 0 409 0;
#X connect 409 0 410 0;
#X connect 410 0 411 0;
#X connect 414 0 415 0;
#X connect 401 0 416 0;
#X connect 401 0 416 1;
#X connect 416 0 417 0;
#X connect 416 0 417 1;
#X connect 417 0 418 0;
#X connect 417 0 418 1;
#X connect 418 0 419 0;
#X connect 418 0 419 1;
#X connect 419 0 420 0;
#X connect 419 0 420 1;
#X connect 420 0 415 1;
#X connect 415 0 411 1;
#X connect 411 0 412 0;
#X connect 411 0 413 0;
#X connect 413 0 0 0;
#X connect 412 0 0 1;
#X connect 421 0 422 0;
#X connect 422 0 423 0;
#X connect 423 0 424 0;
#X connect 424 0 425 0;
#X connect 425 0 426 0;
#X connect 426 0 427 0;
#X connect 427 0 428 0;
#X connect 428 0 429 0;
#X connect 429 0 430 0;
#X connect 430 0 431 0;
#X connect 431 0 432 0;
#X connect 435 0 436 0;
#X connect 422 0 437 0;
#X connect 422 0 437 1;
#X connect 437 0 438 0;
#X connect 437 0 438 1;
#X connect 438 0 439 0;
#X connect 438 0 439 1;
#X connect 439 0 440 0;
#X connect 439 0 440 1;
#X connect 440 0 441 0;
#X connect 440 0 441 1;
#X connect 441 0 436 1;
#X connect 436 0 432 1;
#X connect 432 0 433 0;
#X connect 432 0 434 0;
#X connect 434 0 0 0;
#X connect 433 0 0 1;
#X connect 442 0 443 0;
#X connect 443 0 444 0;
#X connect 444 0 445 0;
#X connect 445 0 446 0;
#X connect 446 0 447 0;
#X connect 447 0 448 0;
#X connect 448 0 449 0;
#X connect 449 0 450 0;
#X connect 450 0 451 0;
#X connect 451 0 452 0;
#X connect 452 0 453 0;
#X connect 456 0 457 0;
#X connect 443 0 458 0;
#X connect 443 0 458 1;
#X connect 458 0 459 0;
#X connect 458 0 459 1;
#X connect 459 0 460 0;
#X connect 459 0 460 1;
#X connect 460 0 461 0;
#X connect 460 0 461 1;
#X connect 461 0 462 0;
#X connect 461 0 462 1;
#X connect 462 0 457 1;
#X connect 457 0 453 1;
#X connect 453 0 454 0;
#X connect 453 0 455 0;
#X connect 455 0 0 0;
#X connect 454 0 0 1;
#X connect 463 0 464 0;
#X connect 464 0 465 0;
#X connect 465 0 466 0;
#X connect 466 0 467 0;
#X connect 467 0 468 0;
#X connect 468 0 469 0;
#X connect 469 0 470 0;
#X connect 470 0 471 0;
#X connect 471 0 472 0;
#X connect 472 0 473 0;
#X connect 473 0 474 0;
#X connect 477 0 478 0;
#X connect 464 0 479 0;
#X connect 464 0 479 1;
#X connect 479 0 480 0;
#X connect 479 0 480 1;
#X connect 480 0 481 0;
#X connect 480 0 481 1;
#X connect 481 0 482 0;
#X connect 481 0 482 1;
#X connect 482 0 483 0;
#X connect 482 0 483 1;
#X connect 483 0 478 1;
#X connect 478 0 474 1;
#X connect 474 0 475 0;
#X connect 474 0 476 0;
#X connect 476 0 0 0;
#X connect 475 0 0 1;
#X connect 484 0 485 0;
#X connect 485 0 486 0;
#X connect 486 0 487 0;
#X connect 487 0 488 0;
#X connect 488 0 489 0;
#X connect 489 0 490 0;
#X connect 490 0 491 0;
#X connect 491 0 492 0;
#X connect 492 0 493 0;
#X connect 493 0 494 0;
#X connect 494 0 495 0;
#X connect 498 0 499 0;
#X connect 485 0 500 0;
#X connect 485 0 500 1;
#X connect 500 0 501 0;
#X connect 500 0 501 1;
#X connect 501 0 502 0;
#X connect 501 0 502 1;
#X connect 502 0 503 0;
#X connect 502 0 503 1;
#X connect 503 0 504 0;
#X connect 503 0 504 1;
#X connect 504 0 499 1;
#X connect 499 0 495 1;
#X connect 495 0 496 0;
#X connect 495 0 497 0;
#X connect 497 0 0 0;
#X connect 496 0 0 1;
