#N canvas 0 22 450 300 12;
#X obj 10 10 dac~;
#X obj 10 34 phasor~ 0.8829106588114616 0.9961048751388847;
#X obj 10 82 lop~ 100;
#X obj 10 130 *~ 70.63285270491693;
#X obj 10 154 +~ 570.6328527049169;
#X obj 10 178 phasor~;
#X obj 10 202 +~ 0.6123956440593549;
#X obj 10 226 cos~;
#X obj 10 250 *~ 2;
#X obj 10 274 -~ 1;
#X obj 10 298 clip~ -0.3 0.3;
#X obj 10 322 *~ 0.08829106588114616;
#X obj 10 346 *~;
#X obj 10 370 *~ 0.16278165910821785;
#X obj 18199 34 *~ 0.8372183408917822;
#X obj 433 10 sig~ 1;
#X obj 433 58 -~;
#X obj 18622 34 *~;
#X obj 856 10 *~;
#X obj 856 82 *~;
#X obj 856 130 *~;
#X obj 856 178 *~;
#X obj 1279 10 phasor~ 0.9744140393036116 0.9952563415340353;
#X obj 1279 58 lop~ 100;
#X obj 1279 106 *~ 77.95312314428892;
#X obj 1279 130 +~ 577.953123144289;
#X obj 1279 154 phasor~;
#X obj 1279 178 +~ 0.6196037186482457;
#X obj 1279 202 cos~;
#X obj 1279 226 *~ 2;
#X obj 1279 250 -~ 1;
#X obj 1279 274 clip~ -0.3 0.3;
#X obj 1279 298 *~ 0.09744140393036116;
#X obj 1279 322 *~;
#X obj 1279 346 *~ 0.857770577019047;
#X obj 17353 34 *~ 0.14222942298095298;
#X obj 1702 10 sig~ 1;
#X obj 1702 58 -~;
#X obj 17776 34 *~;
#X obj 2125 10 *~;
#X obj 2125 82 *~;
#X obj 2125 130 *~;
#X obj 2125 178 *~;
#X obj 2548 10 phasor~ 0.7169337844972408 0.9974311303458364;
#X obj 2548 58 lop~ 100;
#X obj 2548 106 *~ 57.354702759779265;
#X obj 2548 130 +~ 557.3547027597792;
#X obj 2548 154 phasor~;
#X obj 2548 178 +~ 0.5991905704179008;
#X obj 2548 202 cos~;
#X obj 2548 226 *~ 2;
#X obj 2548 250 -~ 1;
#X obj 2548 274 clip~ -0.3 0.3;
#X obj 2548 298 *~ 0.07169337844972408;
#X obj 2548 322 *~;
#X obj 2548 346 *~ 0.48866629619272006;
#X obj 16507 34 *~ 0.5113337038072799;
#X obj 2971 10 sig~ 1;
#X obj 2971 58 -~;
#X obj 16930 34 *~;
#X obj 3394 10 *~;
#X obj 3394 82 *~;
#X obj 3394 130 *~;
#X obj 3394 178 *~;
#X obj 3817 10 phasor~ 0.39561779999665825 0.9992175348448793;
#X obj 3817 58 lop~ 100;
#X obj 3817 106 *~ 31.64942399973266;
#X obj 3817 130 +~ 531.6494239997327;
#X obj 3817 154 phasor~;
#X obj 3817 178 +~ 0.5731609448861502;
#X obj 3817 202 cos~;
#X obj 3817 226 *~ 2;
#X obj 3817 250 -~ 1;
#X obj 3817 274 clip~ -0.3 0.3;
#X obj 3817 298 *~ 0.03956177999966583;
#X obj 3817 322 *~;
#X obj 3817 346 *~ 0.3400280761989808;
#X obj 15661 34 *~ 0.6599719238010192;
#X obj 4240 10 sig~ 1;
#X obj 4240 58 -~;
#X obj 16084 34 *~;
#X obj 4663 10 *~;
#X obj 4663 82 *~;
#X obj 4663 130 *~;
#X obj 4663 178 *~;
#X obj 5086 10 phasor~ 0.17464758621629528 0.9998474949795987;
#X obj 5086 58 lop~ 100;
#X obj 5086 106 *~ 13.971806897303624;
#X obj 5086 130 +~ 513.9718068973036;
#X obj 5086 154 phasor~;
#X obj 5086 178 +~ 0.5549152476074245;
#X obj 5086 202 cos~;
#X obj 5086 226 *~ 2;
#X obj 5086 250 -~ 1;
#X obj 5086 274 clip~ -0.3 0.3;
#X obj 5086 298 *~ 0.01746475862162953;
#X obj 5086 322 *~;
#X obj 5086 346 *~ 0.5066475779860831;
#X obj 14815 34 *~ 0.49335242201391694;
#X obj 5509 10 sig~ 1;
#X obj 5509 58 -~;
#X obj 15238 34 *~;
#X obj 5932 10 *~;
#X obj 5932 82 *~;
#X obj 5932 130 *~;
#X obj 5932 178 *~;
#X obj 6355 10 phasor~ 0.06424925641919202 0.9999793602362482;
#X obj 6355 58 lop~ 100;
#X obj 6355 106 *~ 5.139940513535361;
#X obj 6355 130 +~ 505.13994051353535;
#X obj 6355 154 phasor~;
#X obj 6355 178 +~ 0.545697505467837;
#X obj 6355 202 cos~;
#X obj 6355 226 *~ 2;
#X obj 6355 250 -~ 1;
#X obj 6355 274 clip~ -0.3 0.3;
#X obj 6355 298 *~ 0.0064249256419192016;
#X obj 6355 322 *~;
#X obj 6355 346 *~ 0.3259484350052183;
#X obj 13969 34 *~ 0.6740515649947817;
#X obj 6778 10 sig~ 1;
#X obj 6778 58 -~;
#X obj 14392 34 *~;
#X obj 7201 10 *~;
#X obj 7201 82 *~;
#X obj 7201 130 *~;
#X obj 7201 178 *~;
#X obj 7624 10 phasor~ 0.020259411897576907 0.9999979477818498;
#X obj 7624 58 lop~ 100;
#X obj 7624 106 *~ 1.6207529518061525;
#X obj 7624 130 +~ 501.62075295180614;
#X obj 7624 154 phasor~;
#X obj 7624 178 +~ 0.5420059666118621;
#X obj 7624 202 cos~;
#X obj 7624 226 *~ 2;
#X obj 7624 250 -~ 1;
#X obj 7624 274 clip~ -0.3 0.3;
#X obj 7624 298 *~ 0.0020259411897576908;
#X obj 7624 322 *~;
#X obj 7624 346 *~ 0.3139024896689233;
#X obj 13123 34 *~ 0.6860975103310767;
#X obj 8047 10 sig~ 1;
#X obj 8047 58 -~;
#X obj 13546 34 *~;
#X obj 8470 10 *~;
#X obj 8470 82 *~;
#X obj 8470 130 *~;
#X obj 8470 178 *~;
#X obj 8893 10 phasor~ 0.005589765845506998 0.999999843772593;
#X obj 8893 58 lop~ 100;
#X obj 8893 106 *~ 0.4471812676405599;
#X obj 8893 130 +~ 500.4471812676406;
#X obj 8893 154 phasor~;
#X obj 8893 178 +~ 0.5407725840107035;
#X obj 8893 202 cos~;
#X obj 8893 226 *~ 2;
#X obj 8893 250 -~ 1;
#X obj 8893 274 clip~ -0.3 0.3;
#X obj 8893 298 *~ 0.0005589765845506998;
#X obj 8893 322 *~;
#X obj 8893 346 *~ 0.36678960996807664;
#X obj 12277 34 *~ 0.6332103900319234;
#X obj 9316 10 sig~ 1;
#X obj 9316 58 -~;
#X obj 12700 34 *~;
#X obj 9739 10 *~;
#X obj 9739 82 *~;
#X obj 9739 130 *~;
#X obj 9739 178 *~;
#X obj 10162 10 phasor~ 0.001370906623682886 0.9999999906030752;
#X obj 10162 58 lop~ 100;
#X obj 10162 106 *~ 0.10967252989463089;
#X obj 10162 130 +~ 500.1096725298946;
#X obj 10162 154 phasor~;
#X obj 10162 178 +~ 0.5404176586052694;
#X obj 10162 202 cos~;
#X obj 10162 226 *~ 2;
#X obj 10162 250 -~ 1;
#X obj 10162 274 clip~ -0.3 0.3;
#X obj 10162 298 *~ 0.0001370906623682886;
#X obj 10162 322 *~;
#X obj 10162 346 *~ 0.9583574113286037;
#X obj 11431 34 *~ 0.04164258867139625;
#X obj 10585 10 sig~ 1;
#X obj 10585 58 -~;
#X obj 11854 34 *~;
#X obj 11008 10 *~;
#X obj 11008 82 *~;
#X obj 11008 130 *~;
#X obj 11008 154 *~;
#X connect 1 0 2 0;
#X connect 2 0 3 0;
#X connect 3 0 4 0;
#X connect 4 0 5 0;
#X connect 5 0 6 0;
#X connect 6 0 7 0;
#X connect 7 0 8 0;
#X connect 8 0 9 0;
#X connect 9 0 10 0;
#X connect 10 0 11 0;
#X connect 11 0 12 0;
#X connect 15 0 16 0;
#X connect 2 0 17 0;
#X connect 2 0 17 1;
#X connect 17 0 18 0;
#X connect 17 0 18 1;
#X connect 18 0 19 0;
#X connect 18 0 19 1;
#X connect 19 0 20 0;
#X connect 19 0 20 1;
#X connect 20 0 21 0;
#X connect 20 0 21 1;
#X connect 21 0 16 1;
#X connect 16 0 12 1;
#X connect 12 0 13 0;
#X connect 12 0 14 0;
#X connect 14 0 0 0;
#X connect 13 0 0 1;
#X connect 22 0 23 0;
#X connect 23 0 24 0;
#X connect 24 0 25 0;
#X connect 25 0 26 0;
#X connect 26 0 27 0;
#X connect 27 0 28 0;
#X connect 28 0 29 0;
#X connect 29 0 30 0;
#X connect 30 0 31 0;
#X connect 31 0 32 0;
#X connect 32 0 33 0;
#X connect 36 0 37 0;
#X connect 23 0 38 0;
#X connect 23 0 38 1;
#X connect 38 0 39 0;
#X connect 38 0 39 1;
#X connect 39 0 40 0;
#X connect 39 0 40 1;
#X connect 40 0 41 0;
#X connect 40 0 41 1;
#X connect 41 0 42 0;
#X connect 41 0 42 1;
#X connect 42 0 37 1;
#X connect 37 0 33 1;
#X connect 33 0 34 0;
#X connect 33 0 35 0;
#X connect 35 0 0 0;
#X connect 34 0 0 1;
#X connect 43 0 44 0;
#X connect 44 0 45 0;
#X connect 45 0 46 0;
#X connect 46 0 47 0;
#X connect 47 0 48 0;
#X connect 48 0 49 0;
#X connect 49 0 50 0;
#X connect 50 0 51 0;
#X connect 51 0 52 0;
#X connect 52 0 53 0;
#X connect 53 0 54 0;
#X connect 57 0 58 0;
#X connect 44 0 59 0;
#X connect 44 0 59 1;
#X connect 59 0 60 0;
#X connect 59 0 60 1;
#X connect 60 0 61 0;
#X connect 60 0 61 1;
#X connect 61 0 62 0;
#X connect 61 0 62 1;
#X connect 62 0 63 0;
#X connect 62 0 63 1;
#X connect 63 0 58 1;
#X connect 58 0 54 1;
#X connect 54 0 55 0;
#X connect 54 0 56 0;
#X connect 56 0 0 0;
#X connect 55 0 0 1;
#X connect 64 0 65 0;
#X connect 65 0 66 0;
#X connect 66 0 67 0;
#X connect 67 0 68 0;
#X connect 68 0 69 0;
#X connect 69 0 70 0;
#X connect 70 0 71 0;
#X connect 71 0 72 0;
#X connect 72 0 73 0;
#X connect 73 0 74 0;
#X connect 74 0 75 0;
#X connect 78 0 79 0;
#X connect 65 0 80 0;
#X connect 65 0 80 1;
#X connect 80 0 81 0;
#X connect 80 0 81 1;
#X connect 81 0 82 0;
#X connect 81 0 82 1;
#X connect 82 0 83 0;
#X connect 82 0 83 1;
#X connect 83 0 84 0;
#X connect 83 0 84 1;
#X connect 84 0 79 1;
#X connect 79 0 75 1;
#X connect 75 0 76 0;
#X connect 75 0 77 0;
#X connect 77 0 0 0;
#X connect 76 0 0 1;
#X connect 85 0 86 0;
#X connect 86 0 87 0;
#X connect 87 0 88 0;
#X connect 88 0 89 0;
#X connect 89 0 90 0;
#X connect 90 0 91 0;
#X connect 91 0 92 0;
#X connect 92 0 93 0;
#X connect 93 0 94 0;
#X connect 94 0 95 0;
#X connect 95 0 96 0;
#X connect 99 0 100 0;
#X connect 86 0 101 0;
#X connect 86 0 101 1;
#X connect 101 0 102 0;
#X connect 101 0 102 1;
#X connect 102 0 103 0;
#X connect 102 0 103 1;
#X connect 103 0 104 0;
#X connect 103 0 104 1;
#X connect 104 0 105 0;
#X connect 104 0 105 1;
#X connect 105 0 100 1;
#X connect 100 0 96 1;
#X connect 96 0 97 0;
#X connect 96 0 98 0;
#X connect 98 0 0 0;
#X connect 97 0 0 1;
#X connect 106 0 107 0;
#X connect 107 0 108 0;
#X connect 108 0 109 0;
#X connect 109 0 110 0;
#X connect 110 0 111 0;
#X connect 111 0 112 0;
#X connect 112 0 113 0;
#X connect 113 0 114 0;
#X connect 114 0 115 0;
#X connect 115 0 116 0;
#X connect 116 0 117 0;
#X connect 120 0 121 0;
#X connect 107 0 122 0;
#X connect 107 0 122 1;
#X connect 122 0 123 0;
#X connect 122 0 123 1;
#X connect 123 0 124 0;
#X connect 123 0 124 1;
#X connect 124 0 125 0;
#X connect 124 0 125 1;
#X connect 125 0 126 0;
#X connect 125 0 126 1;
#X connect 126 0 121 1;
#X connect 121 0 117 1;
#X connect 117 0 118 0;
#X connect 117 0 119 0;
#X connect 119 0 0 0;
#X connect 118 0 0 1;
#X connect 127 0 128 0;
#X connect 128 0 129 0;
#X connect 129 0 130 0;
#X connect 130 0 131 0;
#X connect 131 0 132 0;
#X connect 132 0 133 0;
#X connect 133 0 134 0;
#X connect 134 0 135 0;
#X connect 135 0 136 0;
#X connect 136 0 137 0;
#X connect 137 0 138 0;
#X connect 141 0 142 0;
#X connect 128 0 143 0;
#X connect 128 0 143 1;
#X connect 143 0 144 0;
#X connect 143 0 144 1;
#X connect 144 0 145 0;
#X connect 144 0 145 1;
#X connect 145 0 146 0;
#X connect 145 0 146 1;
#X connect 146 0 147 0;
#X connect 146 0 147 1;
#X connect 147 0 142 1;
#X connect 142 0 138 1;
#X connect 138 0 139 0;
#X connect 138 0 140 0;
#X connect 140 0 0 0;
#X connect 139 0 0 1;
#X connect 148 0 149 0;
#X connect 149 0 150 0;
#X connect 150 0 151 0;
#X connect 151 0 152 0;
#X connect 152 0 153 0;
#X connect 153 0 154 0;
#X connect 154 0 155 0;
#X connect 155 0 156 0;
#X connect 156 0 157 0;
#X connect 157 0 158 0;
#X connect 158 0 159 0;
#X connect 162 0 163 0;
#X connect 149 0 164 0;
#X connect 149 0 164 1;
#X connect 164 0 165 0;
#X connect 164 0 165 1;
#X connect 165 0 166 0;
#X connect 165 0 166 1;
#X connect 166 0 167 0;
#X connect 166 0 167 1;
#X connect 167 0 168 0;
#X connect 167 0 168 1;
#X connect 168 0 163 1;
#X connect 163 0 159 1;
#X connect 159 0 160 0;
#X connect 159 0 161 0;
#X connect 161 0 0 0;
#X connect 160 0 0 1;
#X connect 169 0 170 0;
#X connect 170 0 171 0;
#X connect 171 0 172 0;
#X connect 172 0 173 0;
#X connect 173 0 174 0;
#X connect 174 0 175 0;
#X connect 175 0 176 0;
#X connect 176 0 177 0;
#X connect 177 0 178 0;
#X connect 178 0 179 0;
#X connect 179 0 180 0;
#X connect 183 0 184 0;
#X connect 170 0 185 0;
#X connect 170 0 185 1;
#X connect 185 0 186 0;
#X connect 185 0 186 1;
#X connect 186 0 187 0;
#X connect 186 0 187 1;
#X connect 187 0 188 0;
#X connect 187 0 188 1;
#X connect 188 0 189 0;
#X connect 188 0 189 1;
#X connect 189 0 184 1;
#X connect 184 0 180 1;
#X connect 180 0 181 0;
#X connect 180 0 182 0;
#X connect 182 0 0 0;
#X connect 181 0 0 1;
