#N canvas 0 22 450 300 12;
#X obj 12 12 dac~;
#X obj 12 36 phasor~ 0.8829106588114616 0.9961048751388847;
#X obj 372 84 lop~ 100;
#X obj 12 132 *~ 70.63285270491693;
#X obj 12 156 +~ 570.6328527049169;
#X obj 12 180 phasor~;
#X obj 12 204 +~ 0.6123956440593549;
#X obj 12 228 cos~;
#X obj 12 252 *~ 2;
#X obj 12 276 -~ 1;
#X obj 12 300 clip~ -0.3 0.3;
#X obj 12 324 *~ 0.08829106588114616;
#X obj 12 348 *~;
#X obj 372 372 *~ 0.19540950741830687;
#X obj 372 14412 *~ 0.8045904925816931;
#X obj 12 372 sig~ 1;
#X obj 372 420 -~;
#X obj 372 14436 *~;
#X obj 12 420 *~;
#X obj 372 492 *~;
#X obj 372 540 *~;
#X obj 372 588 *~;
#X obj 12 588 phasor~ 0.9744140393036116 0.9952563415340353;
#X obj 372 636 lop~ 100;
#X obj 12 684 *~ 77.95312314428892;
#X obj 12 708 +~ 577.953123144289;
#X obj 12 732 phasor~;
#X obj 12 756 +~ 0.6196037186482457;
#X obj 12 780 cos~;
#X obj 12 804 *~ 2;
#X obj 12 828 -~ 1;
#X obj 12 852 clip~ -0.3 0.3;
#X obj 12 876 *~ 0.09744140393036116;
#X obj 12 900 *~;
#X obj 372 924 *~ 0.7389722272085103;
#X obj 372 14364 *~ 0.2610277727914897;
#X obj 12 924 sig~ 1;
#X obj 372 972 -~;
#X obj 372 14388 *~;
#X obj 12 972 *~;
#X obj 372 1044 *~;
#X obj 372 1092 *~;
#X obj 372 1140 *~;
#X obj 12 1140 phasor~ 0.7169337844972408 0.9974311303458364;
#X obj 372 1188 lop~ 100;
#X obj 12 1236 *~ 57.354702759779265;
#X obj 12 1260 +~ 557.3547027597792;
#X obj 12 1284 phasor~;
#X obj 12 1308 +~ 0.5991905704179008;
#X obj 12 1332 cos~;
#X obj 12 1356 *~ 2;
#X obj 12 1380 -~ 1;
#X obj 12 1404 clip~ -0.3 0.3;
#X obj 12 1428 *~ 0.07169337844972408;
#X obj 12 1452 *~;
#X obj 372 1476 *~ 0.28421456731883665;
#X obj 372 14316 *~ 0.7157854326811633;
#X obj 12 1476 sig~ 1;
#X obj 372 1524 -~;
#X obj 372 14340 *~;
#X obj 12 1524 *~;
#X obj 372 1596 *~;
#X obj 372 1644 *~;
#X obj 372 1692 *~;
#X obj 12 1692 phasor~ 0.39561779999665825 0.9992175348448793;
#X obj 372 1740 lop~ 100;
#X obj 12 1788 *~ 31.64942399973266;
#X obj 12 1812 +~ 531.6494239997327;
#X obj 12 1836 phasor~;
#X obj 12 1860 +~ 0.5731609448861502;
#X obj 12 1884 cos~;
#X obj 12 1908 *~ 2;
#X obj 12 1932 -~ 1;
#X obj 12 1956 clip~ -0.3 0.3;
#X obj 12 1980 *~ 0.03956177999966583;
#X obj 12 2004 *~;
#X obj 372 2028 *~ 0.70032010347675;
#X obj 372 14268 *~ 0.29967989652325;
#X obj 12 2028 sig~ 1;
#X obj 372 2076 -~;
#X obj 372 14292 *~;
#X obj 12 2076 *~;
#X obj 372 2148 *~;
#X obj 372 2196 *~;
#X obj 372 2244 *~;
#X obj 12 2244 phasor~ 0.17464758621629528 0.9998474949795987;
#X obj 372 2292 lop~ 100;
#X obj 12 2340 *~ 13.971806897303624;
#X obj 12 2364 +~ 513.9718068973036;
#X obj 12 2388 phasor~;
#X obj 12 2412 +~ 0.5549152476074245;
#X obj 12 2436 cos~;
#X obj 12 2460 *~ 2;
#X obj 12 2484 -~ 1;
#X obj 12 2508 clip~ -0.3 0.3;
#X obj 12 2532 *~ 0.01746475862162953;
#X obj 12 2556 *~;
#X obj 372 2580 *~ 0.3063848342869083;
#X obj 372 14220 *~ 0.6936151657130917;
#X obj 12 2580 sig~ 1;
#X obj 372 2628 -~;
#X obj 372 14244 *~;
#X obj 12 2628 *~;
#X obj 372 2700 *~;
#X obj 372 2748 *~;
#X obj 372 2796 *~;
#X obj 12 2796 phasor~ 0.06424925641919202 0.9999793602362482;
#X obj 372 2844 lop~ 100;
#X obj 12 2892 *~ 5.139940513535361;
#X obj 12 2916 +~ 505.13994051353535;
#X obj 12 2940 phasor~;
#X obj 12 2964 +~ 0.545697505467837;
#X obj 12 2988 cos~;
#X obj 12 3012 *~ 2;
#X obj 12 3036 -~ 1;
#X obj 12 3060 clip~ -0.3 0.3;
#X obj 12 3084 *~ 0.0064249256419192016;
#X obj 12 3108 *~;
#X obj 372 3132 *~ 0.9882991040066577;
#X obj 372 14172 *~ 0.011700895993342342;
#X obj 12 3132 sig~ 1;
#X obj 372 3180 -~;
#X obj 372 14196 *~;
#X obj 12 3180 *~;
#X obj 372 3252 *~;
#X obj 372 3300 *~;
#X obj 372 3348 *~;
#X obj 12 3348 phasor~ 0.020259411897576907 0.9999979477818498;
#X obj 372 3396 lop~ 100;
#X obj 12 3444 *~ 1.6207529518061525;
#X obj 12 3468 +~ 501.62075295180614;
#X obj 12 3492 phasor~;
#X obj 12 3516 +~ 0.5420059666118621;
#X obj 12 3540 cos~;
#X obj 12 3564 *~ 2;
#X obj 12 3588 -~ 1;
#X obj 12 3612 clip~ -0.3 0.3;
#X obj 12 3636 *~ 0.0020259411897576908;
#X obj 12 3660 *~;
#X obj 372 3684 *~ 0.4857259162582387;
#X obj 372 14124 *~ 0.5142740837417613;
#X obj 12 3684 sig~ 1;
#X obj 372 3732 -~;
#X obj 372 14148 *~;
#X obj 12 3732 *~;
#X obj 372 3804 *~;
#X obj 372 3852 *~;
#X obj 372 3900 *~;
#X obj 12 3900 phasor~ 0.005589765845506998 0.999999843772593;
#X obj 372 3948 lop~ 100;
#X obj 12 3996 *~ 0.4471812676405599;
#X obj 12 4020 +~ 500.4471812676406;
#X obj 12 4044 phasor~;
#X obj 12 4068 +~ 0.5407725840107035;
#X obj 12 4092 cos~;
#X obj 12 4116 *~ 2;
#X obj 12 4140 -~ 1;
#X obj 12 4164 clip~ -0.3 0.3;
#X obj 12 4188 *~ 0.0005589765845506998;
#X obj 12 4212 *~;
#X obj 372 4236 *~ 0.5684107605565635;
#X obj 372 14076 *~ 0.4315892394434365;
#X obj 12 4236 sig~ 1;
#X obj 372 4284 -~;
#X obj 372 14100 *~;
#X obj 12 4284 *~;
#X obj 372 4356 *~;
#X obj 372 4404 *~;
#X obj 372 4452 *~;
#X obj 12 4452 phasor~ 0.001370906623682886 0.9999999906030752;
#X obj 372 4500 lop~ 100;
#X obj 12 4548 *~ 0.10967252989463089;
#X obj 12 4572 +~ 500.1096725298946;
#X obj 12 4596 phasor~;
#X obj 12 4620 +~ 0.5404176586052694;
#X obj 12 4644 cos~;
#X obj 12 4668 *~ 2;
#X obj 12 4692 -~ 1;
#X obj 12 4716 clip~ -0.3 0.3;
#X obj 12 4740 *~ 0.0001370906623682886;
#X obj 12 4764 *~;
#X obj 372 4788 *~ 0.26499464218176993;
#X obj 372 14028 *~ 0.7350053578182301;
#X obj 12 4788 sig~ 1;
#X obj 372 4836 -~;
#X obj 372 14052 *~;
#X obj 12 4836 *~;
#X obj 372 4908 *~;
#X obj 372 4956 *~;
#X obj 372 5004 *~;
#X obj 12 5004 phasor~ 0.0003025970175712133 0.9999999995421752;
#X obj 372 5052 lop~ 100;
#X obj 12 5100 *~ 0.024207761405697064;
#X obj 12 5124 +~ 500.0242077614057;
#X obj 12 5148 phasor~;
#X obj 12 5172 +~ 0.5403277682818096;
#X obj 12 5196 cos~;
#X obj 12 5220 *~ 2;
#X obj 12 5244 -~ 1;
#X obj 12 5268 clip~ -0.3 0.3;
#X obj 12 5292 *~ 0.000000e+00;
#X obj 12 5316 *~;
#X obj 372 5340 *~ 0.5706670316317205;
#X obj 372 13980 *~ 0.4293329683682795;
#X obj 12 5340 sig~ 1;
#X obj 372 5388 -~;
#X obj 372 14004 *~;
#X obj 12 5388 *~;
#X obj 372 5460 *~;
#X obj 372 5508 *~;
#X obj 372 5556 *~;
#X obj 12 5556 phasor~ 0.000000e+00 0.9999999999815656;
#X obj 372 5604 lop~ 100;
#X obj 12 5652 *~ 0.004857566038876061;
#X obj 12 5676 +~ 500.0048575660389;
#X obj 12 5700 phasor~;
#X obj 12 5724 +~ 0.5403074152342778;
#X obj 12 5748 cos~;
#X obj 12 5772 *~ 2;
#X obj 12 5796 -~ 1;
#X obj 12 5820 clip~ -0.3 0.3;
#X obj 12 5844 *~ 0.000000e+00;
#X obj 12 5868 *~;
#X obj 372 5892 *~ 0.6890359970659449;
#X obj 372 13932 *~ 0.31096400293405513;
#X obj 12 5892 sig~ 1;
#X obj 372 5940 -~;
#X obj 372 13956 *~;
#X obj 12 5940 *~;
#X obj 372 6012 *~;
#X obj 372 6060 *~;
#X obj 372 6108 *~;
#X obj 12 6108 phasor~ 0.000000e+00 0.9999999999993763;
#X obj 372 6156 lop~ 100;
#X obj 12 6204 *~ 0.0008934993399175511;
#X obj 12 6228 +~ 500.0008934993399;
#X obj 12 6252 phasor~;
#X obj 12 6276 +~ 0.5403032456850146;
#X obj 12 6300 cos~;
#X obj 12 6324 *~ 2;
#X obj 12 6348 -~ 1;
#X obj 12 6372 clip~ -0.3 0.3;
#X obj 12 6396 *~ 0.000000e+00;
#X obj 12 6420 *~;
#X obj 372 6444 *~ 0.5974370272619309;
#X obj 372 13884 *~ 0.40256297273806907;
#X obj 12 6444 sig~ 1;
#X obj 372 6492 -~;
#X obj 372 13908 *~;
#X obj 12 6492 *~;
#X obj 372 6564 *~;
#X obj 372 6612 *~;
#X obj 372 6660 *~;
#X obj 12 6660 phasor~ 0.000000e+00 0.999999999999982;
#X obj 372 6708 lop~ 100;
#X obj 12 6756 *~ 0.00015170770977965595;
#X obj 12 6780 +~ 500.0001517077098;
#X obj 12 6804 phasor~;
#X obj 12 6828 +~ 0.540302465440175;
#X obj 12 6852 cos~;
#X obj 12 6876 *~ 2;
#X obj 12 6900 -~ 1;
#X obj 12 6924 clip~ -0.3 0.3;
#X obj 12 6948 *~ 0.000000e+00;
#X obj 12 6972 *~;
#X obj 372 6996 *~ 0.4338227591788971;
#X obj 372 13836 *~ 0.5661772408211029;
#X obj 12 6996 sig~ 1;
#X obj 372 7044 -~;
#X obj 372 13860 *~;
#X obj 12 7044 *~;
#X obj 372 7116 *~;
#X obj 372 7164 *~;
#X obj 372 7212 *~;
#X obj 12 7212 phasor~ 0.000000e+00 0.9999999999999996;
#X obj 372 7260 lop~ 100;
#X obj 12 7308 *~ 0.000000e+00;
#X obj 12 7332 +~ 500.00002391863467;
#X obj 12 7356 phasor~;
#X obj 12 7380 +~ 0.5403023310266858;
#X obj 12 7404 cos~;
#X obj 12 7428 *~ 2;
#X obj 12 7452 -~ 1;
#X obj 12 7476 clip~ -0.3 0.3;
#X obj 12 7500 *~ 0.000000e+00;
#X obj 12 7524 *~;
#X obj 372 7548 *~ 0.9367148063507981;
#X obj 372 13788 *~ 0.06328519364920193;
#X obj 12 7548 sig~ 1;
#X obj 372 7596 -~;
#X obj 372 13812 *~;
#X obj 12 7596 *~;
#X obj 372 7668 *~;
#X obj 372 7716 *~;
#X obj 372 7764 *~;
#X obj 12 7764 phasor~ 0.000000e+00 1.0;
#X obj 372 7812 lop~ 100;
#X obj 12 7860 *~ 0.000000e+00;
#X obj 12 7884 +~ 500.0000035196696;
#X obj 12 7908 phasor~;
#X obj 12 7932 +~ 0.5403023095702646;
#X obj 12 7956 cos~;
#X obj 12 7980 *~ 2;
#X obj 12 8004 -~ 1;
#X obj 12 8028 clip~ -0.3 0.3;
#X obj 12 8052 *~ 0.000000e+00;
#X obj 12 8076 *~;
#X obj 372 8100 *~ 0.032034420733326296;
#X obj 372 13740 *~ 0.9679655792666737;
#X obj 12 8100 sig~ 1;
#X obj 372 8148 -~;
#X obj 372 13764 *~;
#X obj 12 8148 *~;
#X obj 372 8220 *~;
#X obj 372 8268 *~;
#X obj 372 8316 *~;
#X obj 12 8316 phasor~ 0.000000e+00 1.0;
#X obj 372 8364 lop~ 100;
#X obj 12 8412 *~ 0.000000e+00;
#X obj 12 8436 +~ 500.0000004855553;
#X obj 12 8460 phasor~;
#X obj 12 8484 +~ 0.5403023063788656;
#X obj 12 8508 cos~;
#X obj 12 8532 *~ 2;
#X obj 12 8556 -~ 1;
#X obj 12 8580 clip~ -0.3 0.3;
#X obj 12 8604 *~ 0.000000e+00;
#X obj 12 8628 *~;
#X obj 372 8652 *~ 0.2118592640571776;
#X obj 372 13692 *~ 0.7881407359428224;
#X obj 12 8652 sig~ 1;
#X obj 372 8700 -~;
#X obj 372 13716 *~;
#X obj 12 8700 *~;
#X obj 372 8772 *~;
#X obj 372 8820 *~;
#X obj 372 8868 *~;
#X obj 12 8868 phasor~ 0.000000e+00 1.0;
#X obj 372 8916 lop~ 100;
#X obj 12 8964 *~ 0.000000e+00;
#X obj 12 8988 +~ 500.0000000630444;
#X obj 12 9012 phasor~;
#X obj 12 9036 +~ 0.5403023059344523;
#X obj 12 9060 cos~;
#X obj 12 9084 *~ 2;
#X obj 12 9108 -~ 1;
#X obj 12 9132 clip~ -0.3 0.3;
#X obj 12 9156 *~ 0.000000e+00;
#X obj 12 9180 *~;
#X obj 372 9204 *~ 0.48102644975863096;
#X obj 372 13644 *~ 0.518973550241369;
#X obj 12 9204 sig~ 1;
#X obj 372 9252 -~;
#X obj 372 13668 *~;
#X obj 12 9252 *~;
#X obj 372 9324 *~;
#X obj 372 9372 *~;
#X obj 372 9420 *~;
#X obj 12 9420 phasor~ 0.000000e+00 1.0;
#X obj 372 9468 lop~ 100;
#X obj 12 9516 *~ 0.000000e+00;
#X obj 12 9540 +~ 500.00000000773093;
#X obj 12 9564 phasor~;
#X obj 12 9588 +~ 0.5403023058762714;
#X obj 12 9612 cos~;
#X obj 12 9636 *~ 2;
#X obj 12 9660 -~ 1;
#X obj 12 9684 clip~ -0.3 0.3;
#X obj 12 9708 *~ 0.000000e+00;
#X obj 12 9732 *~;
#X obj 372 9756 *~ 0.11320274444556566;
#X obj 372 13596 *~ 0.8867972555544343;
#X obj 12 9756 sig~ 1;
#X obj 372 9804 -~;
#X obj 372 13620 *~;
#X obj 12 9804 *~;
#X obj 372 9876 *~;
#X obj 372 9924 *~;
#X obj 372 9972 *~;
#X obj 12 9972 phasor~ 0.000000e+00 1.0;
#X obj 372 10020 lop~ 100;
#X obj 12 10068 *~ 0.000000e+00;
#X obj 12 10092 +~ 500.0000000008981;
#X obj 12 10116 phasor~;
#X obj 12 10140 +~ 0.5403023058690845;
#X obj 12 10164 cos~;
#X obj 12 10188 *~ 2;
#X obj 12 10212 -~ 1;
#X obj 12 10236 clip~ -0.3 0.3;
#X obj 12 10260 *~ 0.000000e+00;
#X obj 12 10284 *~;
#X obj 372 10308 *~ 0.9092720603020716;
#X obj 372 13548 *~ 0.09072793969792836;
#X obj 12 10308 sig~ 1;
#X obj 372 10356 -~;
#X obj 372 13572 *~;
#X obj 12 10356 *~;
#X obj 372 10428 *~;
#X obj 372 10476 *~;
#X obj 372 10524 *~;
#X obj 12 10524 phasor~ 0.000000e+00 1.0;
#X obj 372 10572 lop~ 100;
#X obj 12 10620 *~ 0.000000e+00;
#X obj 12 10644 +~ 500.00000000009913;
#X obj 12 10668 phasor~;
#X obj 12 10692 +~ 0.540302305868244;
#X obj 12 10716 cos~;
#X obj 12 10740 *~ 2;
#X obj 12 10764 -~ 1;
#X obj 12 10788 clip~ -0.3 0.3;
#X obj 12 10812 *~ 0.000000e+00;
#X obj 12 10836 *~;
#X obj 372 10860 *~ 0.5548095692028464;
#X obj 372 13500 *~ 0.4451904307971536;
#X obj 12 10860 sig~ 1;
#X obj 372 10908 -~;
#X obj 372 13524 *~;
#X obj 12 10908 *~;
#X obj 372 10980 *~;
#X obj 372 11028 *~;
#X obj 372 11076 *~;
#X obj 12 11076 phasor~ 0.000000e+00 1.0;
#X obj 372 11124 lop~ 100;
#X obj 12 11172 *~ 0.000000e+00;
#X obj 12 11196 +~ 500.0000000000104;
#X obj 12 11220 phasor~;
#X obj 12 11244 +~ 0.5403023058681506;
#X obj 12 11268 cos~;
#X obj 12 11292 *~ 2;
#X obj 12 11316 -~ 1;
#X obj 12 11340 clip~ -0.3 0.3;
#X obj 12 11364 *~ 0.000000e+00;
#X obj 12 11388 *~;
#X obj 372 11412 *~ 0.2828576914888923;
#X obj 372 13452 *~ 0.7171423085111077;
#X obj 12 11412 sig~ 1;
#X obj 372 11460 -~;
#X obj 372 13476 *~;
#X obj 12 11460 *~;
#X obj 372 11532 *~;
#X obj 372 11580 *~;
#X obj 372 11628 *~;
#X obj 12 11628 phasor~ 0.000000e+00 1.0;
#X obj 372 11676 lop~ 100;
#X obj 12 11724 *~ 0.000000e+00;
#X obj 12 11748 +~ 500.000000000001;
#X obj 12 11772 phasor~;
#X obj 12 11796 +~ 0.5403023058681409;
#X obj 12 11820 cos~;
#X obj 12 11844 *~ 2;
#X obj 12 11868 -~ 1;
#X obj 12 11892 clip~ -0.3 0.3;
#X obj 12 11916 *~ 0.000000e+00;
#X obj 12 11940 *~;
#X obj 372 11964 *~ 0.9075888646280704;
#X obj 372 13404 *~ 0.09241113537192958;
#X obj 12 11964 sig~ 1;
#X obj 372 12012 -~;
#X obj 372 13428 *~;
#X obj 12 12012 *~;
#X obj 372 12084 *~;
#X obj 372 12132 *~;
#X obj 372 12180 *~;
#X obj 12 12180 phasor~ 0.000000e+00 1.0;
#X obj 372 12228 lop~ 100;
#X obj 12 12276 *~ 0.000000e+00;
#X obj 12 12300 +~ 500.0000000000001;
#X obj 12 12324 phasor~;
#X obj 12 12348 +~ 0.5403023058681399;
#X obj 12 12372 cos~;
#X obj 12 12396 *~ 2;
#X obj 12 12420 -~ 1;
#X obj 12 12444 clip~ -0.3 0.3;
#X obj 12 12468 *~ 0.000000e+00;
#X obj 12 12492 *~;
#X obj 372 12516 *~ 0.25713358564902833;
#X obj 372 13356 *~ 0.7428664143509717;
#X obj 12 12516 sig~ 1;
#X obj 372 12564 -~;
#X obj 372 13380 *~;
#X obj 12 12564 *~;
#X obj 372 12636 *~;
#X obj 372 12684 *~;
#X obj 372 12732 *~;
#X obj 12 12732 phasor~ 0.000000e+00 1.0;
#X obj 372 12780 lop~ 100;
#X obj 12 12828 *~ 0.000000e+00;
#X obj 12 12852 +~ 500.0;
#X obj 12 12876 phasor~;
#X obj 12 12900 +~ 0.5403023058681398;
#X obj 12 12924 cos~;
#X obj 12 12948 *~ 2;
#X obj 12 12972 -~ 1;
#X obj 12 12996 clip~ -0.3 0.3;
#X obj 12 13020 *~ 0.000000e+00;
#X obj 12 13044 *~;
#X obj 372 13068 *~ 0.08472032410723562;
#X obj 372 13308 *~ 0.9152796758927644;
#X obj 12 13068 sig~ 1;
#X obj 372 13116 -~;
#X obj 372 13332 *~;
#X obj 12 13116 *~;
#X obj 372 13188 *~;
#X obj 372 13236 *~;
#X obj 372 13284 *~;
#X connect 1 0 2 0;
#X connect 2 0 3 0;
#X connect 3 0 4 0;
#X connect 4 0 5 0;
#X connect 5 0 6 0;
#X connect 6 0 7 0;
#X connect 7 0 8 0;
#X connect 8 0 9 0;
#X connect 9 0 10 0;
#X connect 10 0 11 0;
#X connect 11 0 12 0;
#X connect 15 0 16 0;
#X connect 2 0 17 0;
#X connect 2 0 17 1;
#X connect 17 0 18 0;
#X connect 17 0 18 1;
#X connect 18 0 19 0;
#X connect 18 0 19 1;
#X connect 19 0 20 0;
#X connect 19 0 20 1;
#X connect 20 0 21 0;
#X connect 20 0 21 1;
#X connect 21 0 16 1;
#X connect 16 0 12 1;
#X connect 12 0 13 0;
#X connect 12 0 14 0;
#X connect 14 0 0 0;
#X connect 13 0 0 1;
#X connect 22 0 23 0;
#X connect 23 0 24 0;
#X connect 24 0 25 0;
#X connect 25 0 26 0;
#X connect 26 0 27 0;
#X connect 27 0 28 0;
#X connect 28 0 29 0;
#X connect 29 0 30 0;
#X connect 30 0 31 0;
#X connect 31 0 32 0;
#X connect 32 0 33 0;
#X connect 36 0 37 0;
#X connect 23 0 38 0;
#X connect 23 0 38 1;
#X connect 38 0 39 0;
#X connect 38 0 39 1;
#X connect 39 0 40 0;
#X connect 39 0 40 1;
#X connect 40 0 41 0;
#X connect 40 0 41 1;
#X connect 41 0 42 0;
#X connect 41 0 42 1;
#X connect 42 0 37 1;
#X connect 37 0 33 1;
#X connect 33 0 34 0;
#X connect 33 0 35 0;
#X connect 35 0 0 0;
#X connect 34 0 0 1;
#X connect 43 0 44 0;
#X connect 44 0 45 0;
#X connect 45 0 46 0;
#X connect 46 0 47 0;
#X connect 47 0 48 0;
#X connect 48 0 49 0;
#X connect 49 0 50 0;
#X connect 50 0 51 0;
#X connect 51 0 52 0;
#X connect 52 0 53 0;
#X connect 53 0 54 0;
#X connect 57 0 58 0;
#X connect 44 0 59 0;
#X connect 44 0 59 1;
#X connect 59 0 60 0;
#X connect 59 0 60 1;
#X connect 60 0 61 0;
#X connect 60 0 61 1;
#X connect 61 0 62 0;
#X connect 61 0 62 1;
#X connect 62 0 63 0;
#X connect 62 0 63 1;
#X connect 63 0 58 1;
#X connect 58 0 54 1;
#X connect 54 0 55 0;
#X connect 54 0 56 0;
#X connect 56 0 0 0;
#X connect 55 0 0 1;
#X connect 64 0 65 0;
#X connect 65 0 66 0;
#X connect 66 0 67 0;
#X connect 67 0 68 0;
#X connect 68 0 69 0;
#X connect 69 0 70 0;
#X connect 70 0 71 0;
#X connect 71 0 72 0;
#X connect 72 0 73 0;
#X connect 73 0 74 0;
#X connect 74 0 75 0;
#X connect 78 0 79 0;
#X connect 65 0 80 0;
#X connect 65 0 80 1;
#X connect 80 0 81 0;
#X connect 80 0 81 1;
#X connect 81 0 82 0;
#X connect 81 0 82 1;
#X connect 82 0 83 0;
#X connect 82 0 83 1;
#X connect 83 0 84 0;
#X connect 83 0 84 1;
#X connect 84 0 79 1;
#X connect 79 0 75 1;
#X connect 75 0 76 0;
#X connect 75 0 77 0;
#X connect 77 0 0 0;
#X connect 76 0 0 1;
#X connect 85 0 86 0;
#X connect 86 0 87 0;
#X connect 87 0 88 0;
#X connect 88 0 89 0;
#X connect 89 0 90 0;
#X connect 90 0 91 0;
#X connect 91 0 92 0;
#X connect 92 0 93 0;
#X connect 93 0 94 0;
#X connect 94 0 95 0;
#X connect 95 0 96 0;
#X connect 99 0 100 0;
#X connect 86 0 101 0;
#X connect 86 0 101 1;
#X connect 101 0 102 0;
#X connect 101 0 102 1;
#X connect 102 0 103 0;
#X connect 102 0 103 1;
#X connect 103 0 104 0;
#X connect 103 0 104 1;
#X connect 104 0 105 0;
#X connect 104 0 105 1;
#X connect 105 0 100 1;
#X connect 100 0 96 1;
#X connect 96 0 97 0;
#X connect 96 0 98 0;
#X connect 98 0 0 0;
#X connect 97 0 0 1;
#X connect 106 0 107 0;
#X connect 107 0 108 0;
#X connect 108 0 109 0;
#X connect 109 0 110 0;
#X connect 110 0 111 0;
#X connect 111 0 112 0;
#X connect 112 0 113 0;
#X connect 113 0 114 0;
#X connect 114 0 115 0;
#X connect 115 0 116 0;
#X connect 116 0 117 0;
#X connect 120 0 121 0;
#X connect 107 0 122 0;
#X connect 107 0 122 1;
#X connect 122 0 123 0;
#X connect 122 0 123 1;
#X connect 123 0 124 0;
#X connect 123 0 124 1;
#X connect 124 0 125 0;
#X connect 124 0 125 1;
#X connect 125 0 126 0;
#X connect 125 0 126 1;
#X connect 126 0 121 1;
#X connect 121 0 117 1;
#X connect 117 0 118 0;
#X connect 117 0 119 0;
#X connect 119 0 0 0;
#X connect 118 0 0 1;
#X connect 127 0 128 0;
#X connect 128 0 129 0;
#X connect 129 0 130 0;
#X connect 130 0 131 0;
#X connect 131 0 132 0;
#X connect 132 0 133 0;
#X connect 133 0 134 0;
#X connect 134 0 135 0;
#X connect 135 0 136 0;
#X connect 136 0 137 0;
#X connect 137 0 138 0;
#X connect 141 0 142 0;
#X connect 128 0 143 0;
#X connect 128 0 143 1;
#X connect 143 0 144 0;
#X connect 143 0 144 1;
#X connect 144 0 145 0;
#X connect 144 0 145 1;
#X connect 145 0 146 0;
#X connect 145 0 146 1;
#X connect 146 0 147 0;
#X connect 146 0 147 1;
#X connect 147 0 142 1;
#X connect 142 0 138 1;
#X connect 138 0 139 0;
#X connect 138 0 140 0;
#X connect 140 0 0 0;
#X connect 139 0 0 1;
#X connect 148 0 149 0;
#X connect 149 0 150 0;
#X connect 150 0 151 0;
#X connect 151 0 152 0;
#X connect 152 0 153 0;
#X connect 153 0 154 0;
#X connect 154 0 155 0;
#X connect 155 0 156 0;
#X connect 156 0 157 0;
#X connect 157 0 158 0;
#X connect 158 0 159 0;
#X connect 162 0 163 0;
#X connect 149 0 164 0;
#X connect 149 0 164 1;
#X connect 164 0 165 0;
#X connect 164 0 165 1;
#X connect 165 0 166 0;
#X connect 165 0 166 1;
#X connect 166 0 167 0;
#X connect 166 0 167 1;
#X connect 167 0 168 0;
#X connect 167 0 168 1;
#X connect 168 0 163 1;
#X connect 163 0 159 1;
#X connect 159 0 160 0;
#X connect 159 0 161 0;
#X connect 161 0 0 0;
#X connect 160 0 0 1;
#X connect 169 0 170 0;
#X connect 170 0 171 0;
#X connect 171 0 172 0;
#X connect 172 0 173 0;
#X connect 173 0 174 0;
#X connect 174 0 175 0;
#X connect 175 0 176 0;
#X connect 176 0 177 0;
#X connect 177 0 178 0;
#X connect 178 0 179 0;
#X connect 179 0 180 0;
#X connect 183 0 184 0;
#X connect 170 0 185 0;
#X connect 170 0 185 1;
#X connect 185 0 186 0;
#X connect 185 0 186 1;
#X connect 186 0 187 0;
#X connect 186 0 187 1;
#X connect 187 0 188 0;
#X connect 187 0 188 1;
#X connect 188 0 189 0;
#X connect 188 0 189 1;
#X connect 189 0 184 1;
#X connect 184 0 180 1;
#X connect 180 0 181 0;
#X connect 180 0 182 0;
#X connect 182 0 0 0;
#X connect 181 0 0 1;
#X connect 190 0 191 0;
#X connect 191 0 192 0;
#X connect 192 0 193 0;
#X connect 193 0 194 0;
#X connect 194 0 195 0;
#X connect 195 0 196 0;
#X connect 196 0 197 0;
#X connect 197 0 198 0;
#X connect 198 0 199 0;
#X connect 199 0 200 0;
#X connect 200 0 201 0;
#X connect 204 0 205 0;
#X connect 191 0 206 0;
#X connect 191 0 206 1;
#X connect 206 0 207 0;
#X connect 206 0 207 1;
#X connect 207 0 208 0;
#X connect 207 0 208 1;
#X connect 208 0 209 0;
#X connect 208 0 209 1;
#X connect 209 0 210 0;
#X connect 209 0 210 1;
#X connect 210 0 205 1;
#X connect 205 0 201 1;
#X connect 201 0 202 0;
#X connect 201 0 203 0;
#X connect 203 0 0 0;
#X connect 202 0 0 1;
#X connect 211 0 212 0;
#X connect 212 0 213 0;
#X connect 213 0 214 0;
#X connect 214 0 215 0;
#X connect 215 0 216 0;
#X connect 216 0 217 0;
#X connect 217 0 218 0;
#X connect 218 0 219 0;
#X connect 219 0 220 0;
#X connect 220 0 221 0;
#X connect 221 0 222 0;
#X connect 225 0 226 0;
#X connect 212 0 227 0;
#X connect 212 0 227 1;
#X connect 227 0 228 0;
#X connect 227 0 228 1;
#X connect 228 0 229 0;
#X connect 228 0 229 1;
#X connect 229 0 230 0;
#X connect 229 0 230 1;
#X connect 230 0 231 0;
#X connect 230 0 231 1;
#X connect 231 0 226 1;
#X connect 226 0 222 1;
#X connect 222 0 223 0;
#X connect 222 0 224 0;
#X connect 224 0 0 0;
#X connect 223 0 0 1;
#X connect 232 0 233 0;
#X connect 233 0 234 0;
#X connect 234 0 235 0;
#X connect 235 0 236 0;
#X connect 236 0 237 0;
#X connect 237 0 238 0;
#X connect 238 0 239 0;
#X connect 239 0 240 0;
#X connect 240 0 241 0;
#X connect 241 0 242 0;
#X connect 242 0 243 0;
#X connect 246 0 247 0;
#X connect 233 0 248 0;
#X connect 233 0 248 1;
#X connect 248 0 249 0;
#X connect 248 0 249 1;
#X connect 249 0 250 0;
#X connect 249 0 250 1;
#X connect 250 0 251 0;
#X connect 250 0 251 1;
#X connect 251 0 252 0;
#X connect 251 0 252 1;
#X connect 252 0 247 1;
#X connect 247 0 243 1;
#X connect 243 0 244 0;
#X connect 243 0 245 0;
#X connect 245 0 0 0;
#X connect 244 0 0 1;
#X connect 253 0 254 0;
#X connect 254 0 255 0;
#X connect 255 0 256 0;
#X connect 256 0 257 0;
#X connect 257 0 258 0;
#X connect 258 0 259 0;
#X connect 259 0 260 0;
#X connect 260 0 261 0;
#X connect 261 0 262 0;
#X connect 262 0 263 0;
#X connect 263 0 264 0;
#X connect 267 0 268 0;
#X connect 254 0 269 0;
#X connect 254 0 269 1;
#X connect 269 0 270 0;
#X connect 269 0 270 1;
#X connect 270 0 271 0;
#X connect 270 0 271 1;
#X connect 271 0 272 0;
#X connect 271 0 272 1;
#X connect 272 0 273 0;
#X connect 272 0 273 1;
#X connect 273 0 268 1;
#X connect 268 0 264 1;
#X connect 264 0 265 0;
#X connect 264 0 266 0;
#X connect 266 0 0 0;
#X connect 265 0 0 1;
#X connect 274 0 275 0;
#X connect 275 0 276 0;
#X connect 276 0 277 0;
#X connect 277 0 278 0;
#X connect 278 0 279 0;
#X connect 279 0 280 0;
#X connect 280 0 281 0;
#X connect 281 0 282 0;
#X connect 282 0 283 0;
#X connect 283 0 284 0;
#X connect 284 0 285 0;
#X connect 288 0 289 0;
#X connect 275 0 290 0;
#X connect 275 0 290 1;
#X connect 290 0 291 0;
#X connect 290 0 291 1;
#X connect 291 0 292 0;
#X connect 291 0 292 1;
#X connect 292 0 293 0;
#X connect 292 0 293 1;
#X connect 293 0 294 0;
#X connect 293 0 294 1;
#X connect 294 0 289 1;
#X connect 289 0 285 1;
#X connect 285 0 286 0;
#X connect 285 0 287 0;
#X connect 287 0 0 0;
#X connect 286 0 0 1;
#X connect 295 0 296 0;
#X connect 296 0 297 0;
#X connect 297 0 298 0;
#X connect 298 0 299 0;
#X connect 299 0 300 0;
#X connect 300 0 301 0;
#X connect 301 0 302 0;
#X connect 302 0 303 0;
#X connect 303 0 304 0;
#X connect 304 0 305 0;
#X connect 305 0 306 0;
#X connect 309 0 310 0;
#X connect 296 0 311 0;
#X connect 296 0 311 1;
#X connect 311 0 312 0;
#X connect 311 0 312 1;
#X connect 312 0 313 0;
#X connect 312 0 313 1;
#X connect 313 0 314 0;
#X connect 313 0 314 1;
#X connect 314 0 315 0;
#X connect 314 0 315 1;
#X connect 315 0 310 1;
#X connect 310 0 306 1;
#X connect 306 0 307 0;
#X connect 306 0 308 0;
#X connect 308 0 0 0;
#X connect 307 0 0 1;
#X connect 316 0 317 0;
#X connect 317 0 318 0;
#X connect 318 0 319 0;
#X connect 319 0 320 0;
#X connect 320 0 321 0;
#X connect 321 0 322 0;
#X connect 322 0 323 0;
#X connect 323 0 324 0;
#X connect 324 0 325 0;
#X connect 325 0 326 0;
#X connect 326 0 327 0;
#X connect 330 0 331 0;
#X connect 317 0 332 0;
#X connect 317 0 332 1;
#X connect 332 0 333 0;
#X connect 332 0 333 1;
#X connect 333 0 334 0;
#X connect 333 0 334 1;
#X connect 334 0 335 0;
#X connect 334 0 335 1;
#X connect 335 0 336 0;
#X connect 335 0 336 1;
#X connect 336 0 331 1;
#X connect 331 0 327 1;
#X connect 327 0 328 0;
#X connect 327 0 329 0;
#X connect 329 0 0 0;
#X connect 328 0 0 1;
#X connect 337 0 338 0;
#X connect 338 0 339 0;
#X connect 339 0 340 0;
#X connect 340 0 341 0;
#X connect 341 0 342 0;
#X connect 342 0 343 0;
#X connect 343 0 344 0;
#X connect 344 0 345 0;
#X connect 345 0 346 0;
#X connect 346 0 347 0;
#X connect 347 0 348 0;
#X connect 351 0 352 0;
#X connect 338 0 353 0;
#X connect 338 0 353 1;
#X connect 353 0 354 0;
#X connect 353 0 354 1;
#X connect 354 0 355 0;
#X connect 354 0 355 1;
#X connect 355 0 356 0;
#X connect 355 0 356 1;
#X connect 356 0 357 0;
#X connect 356 0 357 1;
#X connect 357 0 352 1;
#X connect 352 0 348 1;
#X connect 348 0 349 0;
#X connect 348 0 350 0;
#X connect 350 0 0 0;
#X connect 349 0 0 1;
#X connect 358 0 359 0;
#X connect 359 0 360 0;
#X connect 360 0 361 0;
#X connect 361 0 362 0;
#X connect 362 0 363 0;
#X connect 363 0 364 0;
#X connect 364 0 365 0;
#X connect 365 0 366 0;
#X connect 366 0 367 0;
#X connect 367 0 368 0;
#X connect 368 0 369 0;
#X connect 372 0 373 0;
#X connect 359 0 374 0;
#X connect 359 0 374 1;
#X connect 374 0 375 0;
#X connect 374 0 375 1;
#X connect 375 0 376 0;
#X connect 375 0 376 1;
#X connect 376 0 377 0;
#X connect 376 0 377 1;
#X connect 377 0 378 0;
#X connect 377 0 378 1;
#X connect 378 0 373 1;
#X connect 373 0 369 1;
#X connect 369 0 370 0;
#X connect 369 0 371 0;
#X connect 371 0 0 0;
#X connect 370 0 0 1;
#X connect 379 0 380 0;
#X connect 380 0 381 0;
#X connect 381 0 382 0;
#X connect 382 0 383 0;
#X connect 383 0 384 0;
#X connect 384 0 385 0;
#X connect 385 0 386 0;
#X connect 386 0 387 0;
#X connect 387 0 388 0;
#X connect 388 0 389 0;
#X connect 389 0 390 0;
#X connect 393 0 394 0;
#X connect 380 0 395 0;
#X connect 380 0 395 1;
#X connect 395 0 396 0;
#X connect 395 0 396 1;
#X connect 396 0 397 0;
#X connect 396 0 397 1;
#X connect 397 0 398 0;
#X connect 397 0 398 1;
#X connect 398 0 399 0;
#X connect 398 0 399 1;
#X connect 399 0 394 1;
#X connect 394 0 390 1;
#X connect 390 0 391 0;
#X connect 390 0 392 0;
#X connect 392 0 0 0;
#X connect 391 0 0 1;
#X connect 400 0 401 0;
#X connect 401 0 402 0;
#X connect 402 0 403 0;
#X connect 403 0 404 0;
#X connect 404 0 405 0;
#X connect 405 0 406 0;
#X connect 406 0 407 0;
#X connect 407 0 408 0;
#X connect 408 0 409 0;
#X connect 409 0 410 0;
#X connect 410 0 411 0;
#X connect 414 0 415 0;
#X connect 401 0 416 0;
#X connect 401 0 416 1;
#X connect 416 0 417 0;
#X connect 416 0 417 1;
#X connect 417 0 418 0;
#X connect 417 0 418 1;
#X connect 418 0 419 0;
#X connect 418 0 419 1;
#X connect 419 0 420 0;
#X connect 419 0 420 1;
#X connect 420 0 415 1;
#X connect 415 0 411 1;
#X connect 411 0 412 0;
#X connect 411 0 413 0;
#X connect 413 0 0 0;
#X connect 412 0 0 1;
#X connect 421 0 422 0;
#X connect 422 0 423 0;
#X connect 423 0 424 0;
#X connect 424 0 425 0;
#X connect 425 0 426 0;
#X connect 426 0 427 0;
#X connect 427 0 428 0;
#X connect 428 0 429 0;
#X connect 429 0 430 0;
#X connect 430 0 431 0;
#X connect 431 0 432 0;
#X connect 435 0 436 0;
#X connect 422 0 437 0;
#X connect 422 0 437 1;
#X connect 437 0 438 0;
#X connect 437 0 438 1;
#X connect 438 0 439 0;
#X connect 438 0 439 1;
#X connect 439 0 440 0;
#X connect 439 0 440 1;
#X connect 440 0 441 0;
#X connect 440 0 441 1;
#X connect 441 0 436 1;
#X connect 436 0 432 1;
#X connect 432 0 433 0;
#X connect 432 0 434 0;
#X connect 434 0 0 0;
#X connect 433 0 0 1;
#X connect 442 0 443 0;
#X connect 443 0 444 0;
#X connect 444 0 445 0;
#X connect 445 0 446 0;
#X connect 446 0 447 0;
#X connect 447 0 448 0;
#X connect 448 0 449 0;
#X connect 449 0 450 0;
#X connect 450 0 451 0;
#X connect 451 0 452 0;
#X connect 452 0 453 0;
#X connect 456 0 457 0;
#X connect 443 0 458 0;
#X connect 443 0 458 1;
#X connect 458 0 459 0;
#X connect 458 0 459 1;
#X connect 459 0 460 0;
#X connect 459 0 460 1;
#X connect 460 0 461 0;
#X connect 460 0 461 1;
#X connect 461 0 462 0;
#X connect 461 0 462 1;
#X connect 462 0 457 1;
#X connect 457 0 453 1;
#X connect 453 0 454 0;
#X connect 453 0 455 0;
#X connect 455 0 0 0;
#X connect 454 0 0 1;
#X connect 463 0 464 0;
#X connect 464 0 465 0;
#X connect 465 0 466 0;
#X connect 466 0 467 0;
#X connect 467 0 468 0;
#X connect 468 0 469 0;
#X connect 469 0 470 0;
#X connect 470 0 471 0;
#X connect 471 0 472 0;
#X connect 472 0 473 0;
#X connect 473 0 474 0;
#X connect 477 0 478 0;
#X connect 464 0 479 0;
#X connect 464 0 479 1;
#X connect 479 0 480 0;
#X connect 479 0 480 1;
#X connect 480 0 481 0;
#X connect 480 0 481 1;
#X connect 481 0 482 0;
#X connect 481 0 482 1;
#X connect 482 0 483 0;
#X connect 482 0 483 1;
#X connect 483 0 478 1;
#X connect 478 0 474 1;
#X connect 474 0 475 0;
#X connect 474 0 476 0;
#X connect 476 0 0 0;
#X connect 475 0 0 1;
#X connect 484 0 485 0;
#X connect 485 0 486 0;
#X connect 486 0 487 0;
#X connect 487 0 488 0;
#X connect 488 0 489 0;
#X connect 489 0 490 0;
#X connect 490 0 491 0;
#X connect 491 0 492 0;
#X connect 492 0 493 0;
#X connect 493 0 494 0;
#X connect 494 0 495 0;
#X connect 498 0 499 0;
#X connect 485 0 500 0;
#X connect 485 0 500 1;
#X connect 500 0 501 0;
#X connect 500 0 501 1;
#X connect 501 0 502 0;
#X connect 501 0 502 1;
#X connect 502 0 503 0;
#X connect 502 0 503 1;
#X connect 503 0 504 0;
#X connect 503 0 504 1;
#X connect 504 0 499 1;
#X connect 499 0 495 1;
#X connect 495 0 496 0;
#X connect 495 0 497 0;
#X connect 497 0 0 0;
#X connect 496 0 0 1;
