#N canvas 0 22 450 300 12;
#X obj 10 10 dac~;
#X obj 10 44 phasor~ 0.8829106588114616 0.9961048751388847;
#X obj 10 102 lop~ 100;
#X obj 10 160 *~ 70.63285270491693;
#X obj 10 184 +~ 570.6328527049169;
#X obj 10 208 phasor~;
#X obj 10 232 +~ 0.6123956440593549;
#X obj 10 256 cos~;
#X obj 10 280 *~ 2;
#X obj 10 304 -~ 1;
#X obj 10 328 clip~ -0.3 0.3;
#X obj 10 352 *~ 0.08829106588114616;
#X obj 10 376 *~;
#X obj 10 400 *~ 0.5605846592215111;
#X obj 3727 34 *~ 0.43941534077848887;
#X obj 199 10 sig~ 1;
#X obj 199 68 -~;
#X obj 3925 34 *~;
#X obj 217 10 *~;
#X obj 217 102 *~;
#X obj 217 160 *~;
#X obj 217 218 *~;
#X obj 235 10 phasor~ 0.9744140393036116 0.9952563415340353;
#X obj 235 68 lop~ 100;
#X obj 235 126 *~ 77.95312314428892;
#X obj 235 150 +~ 577.953123144289;
#X obj 235 174 phasor~;
#X obj 235 198 +~ 0.6196037186482457;
#X obj 235 222 cos~;
#X obj 235 246 *~ 2;
#X obj 235 270 -~ 1;
#X obj 235 294 clip~ -0.3 0.3;
#X obj 235 318 *~ 0.09744140393036116;
#X obj 235 342 *~;
#X obj 235 366 *~ 0.5037536149414634;
#X obj 3520 34 *~ 0.4962463850585366;
#X obj 424 10 sig~ 1;
#X obj 424 68 -~;
#X obj 3709 34 *~;
#X obj 442 10 *~;
#X obj 442 102 *~;
#X obj 442 160 *~;
#X obj 442 218 *~;
#X obj 460 10 phasor~ 0.7169337844972408 0.9974311303458364;
#X obj 460 68 lop~ 100;
#X obj 460 126 *~ 57.354702759779265;
#X obj 460 150 +~ 557.3547027597792;
#X obj 460 174 phasor~;
#X obj 460 198 +~ 0.5991905704179008;
#X obj 460 222 cos~;
#X obj 460 246 *~ 2;
#X obj 460 270 -~ 1;
#X obj 460 294 clip~ -0.3 0.3;
#X obj 460 318 *~ 0.07169337844972408;
#X obj 460 342 *~;
#X obj 460 366 *~ 0.922362393071175;
#X obj 3304 34 *~ 0.07763760692882504;
#X obj 640 10 sig~ 1;
#X obj 640 68 -~;
#X obj 3502 34 *~;
#X obj 658 10 *~;
#X obj 658 102 *~;
#X obj 658 160 *~;
#X obj 658 218 *~;
#X obj 676 10 phasor~ 0.39561779999665825 0.9992175348448793;
#X obj 676 68 lop~ 100;
#X obj 676 126 *~ 31.64942399973266;
#X obj 676 150 +~ 531.6494239997327;
#X obj 676 174 phasor~;
#X obj 676 198 +~ 0.5731609448861502;
#X obj 676 222 cos~;
#X obj 676 246 *~ 2;
#X obj 676 270 -~ 1;
#X obj 676 294 clip~ -0.3 0.3;
#X obj 676 318 *~ 0.03956177999966583;
#X obj 676 342 *~;
#X obj 676 366 *~ 0.887790768812553;
#X obj 3088 34 *~ 0.11220923118744697;
#X obj 856 10 sig~ 1;
#X obj 856 68 -~;
#X obj 3286 34 *~;
#X obj 874 10 *~;
#X obj 874 102 *~;
#X obj 874 160 *~;
#X obj 874 218 *~;
#X obj 892 10 phasor~ 0.17464758621629528 0.9998474949795987;
#X obj 892 68 lop~ 100;
#X obj 892 126 *~ 13.971806897303624;
#X obj 892 150 +~ 513.9718068973036;
#X obj 892 174 phasor~;
#X obj 892 198 +~ 0.5549152476074245;
#X obj 892 222 cos~;
#X obj 892 246 *~ 2;
#X obj 892 270 -~ 1;
#X obj 892 294 clip~ -0.3 0.3;
#X obj 892 318 *~ 0.01746475862162953;
#X obj 892 342 *~;
#X obj 892 366 *~ 0.6587656874714669;
#X obj 2881 34 *~ 0.3412343125285331;
#X obj 1081 10 sig~ 1;
#X obj 1081 68 -~;
#X obj 3070 34 *~;
#X obj 1099 10 *~;
#X obj 1099 102 *~;
#X obj 1099 160 *~;
#X obj 1099 218 *~;
#X obj 1117 10 phasor~ 0.06424925641919202 0.9999793602362482;
#X obj 1117 68 lop~ 100;
#X obj 1117 126 *~ 5.139940513535361;
#X obj 1117 150 +~ 505.13994051353535;
#X obj 1117 174 phasor~;
#X obj 1117 198 +~ 0.545697505467837;
#X obj 1117 222 cos~;
#X obj 1117 246 *~ 2;
#X obj 1117 270 -~ 1;
#X obj 1117 294 clip~ -0.3 0.3;
#X obj 1117 318 *~ 0.0064249256419192016;
#X obj 1117 342 *~;
#X obj 1117 366 *~ 0.9909915791212276;
#X obj 2656 34 *~ 0.009008420878772405;
#X obj 1306 10 sig~ 1;
#X obj 1306 68 -~;
#X obj 2863 34 *~;
#X obj 1324 10 *~;
#X obj 1324 102 *~;
#X obj 1324 160 *~;
#X obj 1324 218 *~;
#X obj 1342 10 phasor~ 0.020259411897576907 0.9999979477818498;
#X obj 1342 68 lop~ 100;
#X obj 1342 126 *~ 1.6207529518061525;
#X obj 1342 150 +~ 501.62075295180614;
#X obj 1342 174 phasor~;
#X obj 1342 198 +~ 0.5420059666118621;
#X obj 1342 222 cos~;
#X obj 1342 246 *~ 2;
#X obj 1342 270 -~ 1;
#X obj 1342 294 clip~ -0.3 0.3;
#X obj 1342 318 *~ 0.0020259411897576908;
#X obj 1342 342 *~;
#X obj 1342 366 *~ 0.3715105656405142;
#X obj 2449 34 *~ 0.6284894343594858;
#X obj 1531 10 sig~ 1;
#X obj 1531 68 -~;
#X obj 2638 34 *~;
#X obj 1549 10 *~;
#X obj 1549 102 *~;
#X obj 1549 160 *~;
#X obj 1549 218 *~;
#X obj 1567 10 phasor~ 0.005589765845506998 0.999999843772593;
#X obj 1567 68 lop~ 100;
#X obj 1567 126 *~ 0.4471812676405599;
#X obj 1567 150 +~ 500.4471812676406;
#X obj 1567 174 phasor~;
#X obj 1567 198 +~ 0.5407725840107035;
#X obj 1567 222 cos~;
#X obj 1567 246 *~ 2;
#X obj 1567 270 -~ 1;
#X obj 1567 294 clip~ -0.3 0.3;
#X obj 1567 318 *~ 0.0005589765845506998;
#X obj 1567 342 *~;
#X obj 1567 366 *~ 0.5198269149169094;
#X obj 2233 34 *~ 0.48017308508309064;
#X obj 1756 10 sig~ 1;
#X obj 1756 68 -~;
#X obj 2431 34 *~;
#X obj 1774 10 *~;
#X obj 1774 102 *~;
#X obj 1774 160 *~;
#X obj 1774 218 *~;
#X obj 1792 10 phasor~ 0.001370906623682886 0.9999999906030752;
#X obj 1792 68 lop~ 100;
#X obj 1792 126 *~ 0.10967252989463089;
#X obj 1792 150 +~ 500.1096725298946;
#X obj 1792 174 phasor~;
#X obj 1792 198 +~ 0.5404176586052694;
#X obj 1792 222 cos~;
#X obj 1792 246 *~ 2;
#X obj 1792 270 -~ 1;
#X obj 1792 294 clip~ -0.3 0.3;
#X obj 1792 318 *~ 0.0001370906623682886;
#X obj 1792 342 *~;
#X obj 1792 366 *~ 0.20394614477846984;
#X obj 2026 34 *~ 0.7960538552215302;
#X obj 1990 10 sig~ 1;
#X obj 1990 68 -~;
#X obj 2215 34 *~;
#X obj 2008 10 *~;
#X obj 2008 102 *~;
#X obj 2008 160 *~;
#X obj 2008 184 *~;
#X connect 1 0 2 0;
#X connect 2 0 3 0;
#X connect 3 0 4 0;
#X connect 4 0 5 0;
#X connect 5 0 6 0;
#X connect 6 0 7 0;
#X connect 7 0 8 0;
#X connect 8 0 9 0;
#X connect 9 0 10 0;
#X connect 10 0 11 0;
#X connect 11 0 12 0;
#X connect 15 0 16 0;
#X connect 2 0 17 0;
#X connect 2 0 17 1;
#X connect 17 0 18 0;
#X connect 17 0 18 1;
#X connect 18 0 19 0;
#X connect 18 0 19 1;
#X connect 19 0 20 0;
#X connect 19 0 20 1;
#X connect 20 0 21 0;
#X connect 20 0 21 1;
#X connect 21 0 16 1;
#X connect 16 0 12 1;
#X connect 12 0 13 0;
#X connect 12 0 14 0;
#X connect 14 0 0 0;
#X connect 13 0 0 1;
#X connect 22 0 23 0;
#X connect 23 0 24 0;
#X connect 24 0 25 0;
#X connect 25 0 26 0;
#X connect 26 0 27 0;
#X connect 27 0 28 0;
#X connect 28 0 29 0;
#X connect 29 0 30 0;
#X connect 30 0 31 0;
#X connect 31 0 32 0;
#X connect 32 0 33 0;
#X connect 36 0 37 0;
#X connect 23 0 38 0;
#X connect 23 0 38 1;
#X connect 38 0 39 0;
#X connect 38 0 39 1;
#X connect 39 0 40 0;
#X connect 39 0 40 1;
#X connect 40 0 41 0;
#X connect 40 0 41 1;
#X connect 41 0 42 0;
#X connect 41 0 42 1;
#X connect 42 0 37 1;
#X connect 37 0 33 1;
#X connect 33 0 34 0;
#X connect 33 0 35 0;
#X connect 35 0 0 0;
#X connect 34 0 0 1;
#X connect 43 0 44 0;
#X connect 44 0 45 0;
#X connect 45 0 46 0;
#X connect 46 0 47 0;
#X connect 47 0 48 0;
#X connect 48 0 49 0;
#X connect 49 0 50 0;
#X connect 50 0 51 0;
#X connect 51 0 52 0;
#X connect 52 0 53 0;
#X connect 53 0 54 0;
#X connect 57 0 58 0;
#X connect 44 0 59 0;
#X connect 44 0 59 1;
#X connect 59 0 60 0;
#X connect 59 0 60 1;
#X connect 60 0 61 0;
#X connect 60 0 61 1;
#X connect 61 0 62 0;
#X connect 61 0 62 1;
#X connect 62 0 63 0;
#X connect 62 0 63 1;
#X connect 63 0 58 1;
#X connect 58 0 54 1;
#X connect 54 0 55 0;
#X connect 54 0 56 0;
#X connect 56 0 0 0;
#X connect 55 0 0 1;
#X connect 64 0 65 0;
#X connect 65 0 66 0;
#X connect 66 0 67 0;
#X connect 67 0 68 0;
#X connect 68 0 69 0;
#X connect 69 0 70 0;
#X connect 70 0 71 0;
#X connect 71 0 72 0;
#X connect 72 0 73 0;
#X connect 73 0 74 0;
#X connect 74 0 75 0;
#X connect 78 0 79 0;
#X connect 65 0 80 0;
#X connect 65 0 80 1;
#X connect 80 0 81 0;
#X connect 80 0 81 1;
#X connect 81 0 82 0;
#X connect 81 0 82 1;
#X connect 82 0 83 0;
#X connect 82 0 83 1;
#X connect 83 0 84 0;
#X connect 83 0 84 1;
#X connect 84 0 79 1;
#X connect 79 0 75 1;
#X connect 75 0 76 0;
#X connect 75 0 77 0;
#X connect 77 0 0 0;
#X connect 76 0 0 1;
#X connect 85 0 86 0;
#X connect 86 0 87 0;
#X connect 87 0 88 0;
#X connect 88 0 89 0;
#X connect 89 0 90 0;
#X connect 90 0 91 0;
#X connect 91 0 92 0;
#X connect 92 0 93 0;
#X connect 93 0 94 0;
#X connect 94 0 95 0;
#X connect 95 0 96 0;
#X connect 99 0 100 0;
#X connect 86 0 101 0;
#X connect 86 0 101 1;
#X connect 101 0 102 0;
#X connect 101 0 102 1;
#X connect 102 0 103 0;
#X connect 102 0 103 1;
#X connect 103 0 104 0;
#X connect 103 0 104 1;
#X connect 104 0 105 0;
#X connect 104 0 105 1;
#X connect 105 0 100 1;
#X connect 100 0 96 1;
#X connect 96 0 97 0;
#X connect 96 0 98 0;
#X connect 98 0 0 0;
#X connect 97 0 0 1;
#X connect 106 0 107 0;
#X connect 107 0 108 0;
#X connect 108 0 109 0;
#X connect 109 0 110 0;
#X connect 110 0 111 0;
#X connect 111 0 112 0;
#X connect 112 0 113 0;
#X connect 113 0 114 0;
#X connect 114 0 115 0;
#X connect 115 0 116 0;
#X connect 116 0 117 0;
#X connect 120 0 121 0;
#X connect 107 0 122 0;
#X connect 107 0 122 1;
#X connect 122 0 123 0;
#X connect 122 0 123 1;
#X connect 123 0 124 0;
#X connect 123 0 124 1;
#X connect 124 0 125 0;
#X connect 124 0 125 1;
#X connect 125 0 126 0;
#X connect 125 0 126 1;
#X connect 126 0 121 1;
#X connect 121 0 117 1;
#X connect 117 0 118 0;
#X connect 117 0 119 0;
#X connect 119 0 0 0;
#X connect 118 0 0 1;
#X connect 127 0 128 0;
#X connect 128 0 129 0;
#X connect 129 0 130 0;
#X connect 130 0 131 0;
#X connect 131 0 132 0;
#X connect 132 0 133 0;
#X connect 133 0 134 0;
#X connect 134 0 135 0;
#X connect 135 0 136 0;
#X connect 136 0 137 0;
#X connect 137 0 138 0;
#X connect 141 0 142 0;
#X connect 128 0 143 0;
#X connect 128 0 143 1;
#X connect 143 0 144 0;
#X connect 143 0 144 1;
#X connect 144 0 145 0;
#X connect 144 0 145 1;
#X connect 145 0 146 0;
#X connect 145 0 146 1;
#X connect 146 0 147 0;
#X connect 146 0 147 1;
#X connect 147 0 142 1;
#X connect 142 0 138 1;
#X connect 138 0 139 0;
#X connect 138 0 140 0;
#X connect 140 0 0 0;
#X connect 139 0 0 1;
#X connect 148 0 149 0;
#X connect 149 0 150 0;
#X connect 150 0 151 0;
#X connect 151 0 152 0;
#X connect 152 0 153 0;
#X connect 153 0 154 0;
#X connect 154 0 155 0;
#X connect 155 0 156 0;
#X connect 156 0 157 0;
#X connect 157 0 158 0;
#X connect 158 0 159 0;
#X connect 162 0 163 0;
#X connect 149 0 164 0;
#X connect 149 0 164 1;
#X connect 164 0 165 0;
#X connect 164 0 165 1;
#X connect 165 0 166 0;
#X connect 165 0 166 1;
#X connect 166 0 167 0;
#X connect 166 0 167 1;
#X connect 167 0 168 0;
#X connect 167 0 168 1;
#X connect 168 0 163 1;
#X connect 163 0 159 1;
#X connect 159 0 160 0;
#X connect 159 0 161 0;
#X connect 161 0 0 0;
#X connect 160 0 0 1;
#X connect 169 0 170 0;
#X connect 170 0 171 0;
#X connect 171 0 172 0;
#X connect 172 0 173 0;
#X connect 173 0 174 0;
#X connect 174 0 175 0;
#X connect 175 0 176 0;
#X connect 176 0 177 0;
#X connect 177 0 178 0;
#X connect 178 0 179 0;
#X connect 179 0 180 0;
#X connect 183 0 184 0;
#X connect 170 0 185 0;
#X connect 170 0 185 1;
#X connect 185 0 186 0;
#X connect 185 0 186 1;
#X connect 186 0 187 0;
#X connect 186 0 187 1;
#X connect 187 0 188 0;
#X connect 187 0 188 1;
#X connect 188 0 189 0;
#X connect 188 0 189 1;
#X connect 189 0 184 1;
#X connect 184 0 180 1;
#X connect 180 0 181 0;
#X connect 180 0 182 0;
#X connect 182 0 0 0;
#X connect 181 0 0 1;
