#N canvas 0 22 450 4800 12;
#X obj 144 3036 dac~;
#X obj 144 3060 phasor~ 0.25;
#X obj 144 3084 -~ 1.570795;
#X obj 144 3108 cos~;
#X obj 144 3132 +~ 1;
#X obj 144 3156 /~ 2;
#X obj 144 3180 loadbang;
#X msg 144 3204 0.0625;
#X obj 144 3228 osc~ 110;
#X obj 144 3252 *~ 0.0625;
#X obj 144 3276 *~;
#X obj 144 3300 phasor~ 0.25;
#X obj 144 3324 -~ 1.570795;
#X obj 144 3348 cos~;
#X obj 144 3372 +~ 1;
#X obj 144 3396 /~ 2;
#X obj 144 3420 loadbang;
#X msg 144 3444 0.125;
#X obj 144 3468 osc~ 220;
#X obj 144 3492 *~ 0.0625;
#X obj 144 3516 *~;
#X obj 144 3540 phasor~ 0.25;
#X obj 144 3564 -~ 1.570795;
#X obj 144 3588 cos~;
#X obj 144 3612 +~ 1;
#X obj 144 3636 /~ 2;
#X obj 144 3660 loadbang;
#X msg 144 3684 0.1875;
#X obj 144 3708 osc~ 330;
#X obj 144 3732 *~ 0.0625;
#X obj 144 3756 *~;
#X obj 144 3780 phasor~ 0.25;
#X obj 144 3804 -~ 1.570795;
#X obj 144 3828 cos~;
#X obj 144 3852 +~ 1;
#X obj 144 3876 /~ 2;
#X obj 144 3900 loadbang;
#X msg 144 3924 0.25;
#X obj 144 3948 osc~ 440;
#X obj 144 3972 *~ 0.0625;
#X obj 144 3996 *~;
#X obj 144 4020 phasor~ 0.25;
#X obj 144 4044 -~ 1.570795;
#X obj 144 4068 cos~;
#X obj 144 4092 +~ 1;
#X obj 144 4116 /~ 2;
#X obj 144 4140 loadbang;
#X msg 144 4164 0.3125;
#X obj 144 4188 osc~ 550;
#X obj 144 4212 *~ 0.0625;
#X obj 144 4236 *~;
#X obj 144 4260 phasor~ 0.25;
#X obj 144 4284 -~ 1.570795;
#X obj 144 4308 cos~;
#X obj 144 4332 +~ 1;
#X obj 144 4356 /~ 2;
#X obj 144 4380 loadbang;
#X msg 144 4404 0.375;
#X obj 144 4428 osc~ 660;
#X obj 144 4452 *~ 0.0625;
#X obj 144 4476 *~;
#X obj 144 4500 phasor~ 0.25;
#X obj 144 4524 -~ 1.570795;
#X obj 144 4548 cos~;
#X obj 144 4572 +~ 1;
#X obj 144 4596 /~ 2;
#X obj 144 4620 loadbang;
#X msg 144 4644 0.4375;
#X obj 144 4668 osc~ 770;
#X obj 144 4692 *~ 0.0625;
#X obj 144 4716 *~;
#X obj 144 4740 phasor~ 0.25;
#X obj 144 4764 -~ 1.570795;
#X obj 144 4788 cos~;
#X obj 144 4812 +~ 1;
#X obj 192 36 /~ 2;
#X obj 192 60 loadbang;
#X msg 192 84 0.5;
#X obj 192 108 osc~ 880;
#X obj 192 132 *~ 0.0625;
#X obj 192 156 *~;
#X obj 192 180 phasor~ 0.25;
#X obj 192 204 -~ 1.570795;
#X obj 192 228 cos~;
#X obj 192 252 +~ 1;
#X obj 192 276 /~ 2;
#X obj 192 300 loadbang;
#X msg 192 324 0.5625;
#X obj 192 348 osc~ 990;
#X obj 192 372 *~ 0.0625;
#X obj 192 396 *~;
#X obj 192 420 phasor~ 0.25;
#X obj 192 444 -~ 1.570795;
#X obj 192 468 cos~;
#X obj 192 492 +~ 1;
#X obj 192 516 /~ 2;
#X obj 192 540 loadbang;
#X msg 192 564 0.625;
#X obj 192 588 osc~ 1100;
#X obj 192 612 *~ 0.0625;
#X obj 192 636 *~;
#X obj 192 660 phasor~ 0.25;
#X obj 192 684 -~ 1.570795;
#X obj 192 708 cos~;
#X obj 192 732 +~ 1;
#X obj 192 756 /~ 2;
#X obj 192 780 loadbang;
#X msg 192 804 0.6875;
#X obj 192 828 osc~ 1210;
#X obj 192 852 *~ 0.0625;
#X obj 192 876 *~;
#X obj 192 900 phasor~ 0.25;
#X obj 192 924 -~ 1.570795;
#X obj 192 948 cos~;
#X obj 192 972 +~ 1;
#X obj 192 996 /~ 2;
#X obj 192 1020 loadbang;
#X msg 192 1044 0.75;
#X obj 192 1068 osc~ 1320;
#X obj 192 1092 *~ 0.0625;
#X obj 192 1116 *~;
#X obj 192 1140 phasor~ 0.25;
#X obj 192 1164 -~ 1.570795;
#X obj 192 1188 cos~;
#X obj 192 1212 +~ 1;
#X obj 192 1236 /~ 2;
#X obj 192 1260 loadbang;
#X msg 192 1284 0.8125;
#X obj 192 1308 osc~ 1430;
#X obj 192 1332 *~ 0.0625;
#X obj 192 1356 *~;
#X obj 192 1380 phasor~ 0.25;
#X obj 192 1404 -~ 1.570795;
#X obj 192 1428 cos~;
#X obj 192 1452 +~ 1;
#X obj 192 1476 /~ 2;
#X obj 192 1500 loadbang;
#X msg 192 1524 0.875;
#X obj 192 1548 osc~ 1540;
#X obj 192 1572 *~ 0.0625;
#X obj 192 1596 *~;
#X obj 192 1620 phasor~ 0.25;
#X obj 192 1644 -~ 1.570795;
#X obj 192 1668 cos~;
#X obj 192 1692 +~ 1;
#X obj 192 1716 /~ 2;
#X obj 192 1740 loadbang;
#X msg 192 1764 0.9375;
#X obj 192 1788 osc~ 1650;
#X obj 192 1812 *~ 0.0625;
#X obj 192 1836 *~;
#X connect 1 0 2 0;
#X connect 2 0 3 0;
#X connect 3 0 4 0;
#X connect 4 0 5 0;
#X connect 6 0 7 0;
#X connect 7 0 1 1;
#X connect 8 0 9 0;
#X connect 9 0 10 0;
#X connect 5 0 10 1;
#X connect 10 0 0 1;
#X connect 11 0 12 0;
#X connect 12 0 13 0;
#X connect 13 0 14 0;
#X connect 14 0 15 0;
#X connect 16 0 17 0;
#X connect 17 0 11 1;
#X connect 18 0 19 0;
#X connect 19 0 20 0;
#X connect 15 0 20 1;
#X connect 20 0 0 0;
#X connect 21 0 22 0;
#X connect 22 0 23 0;
#X connect 23 0 24 0;
#X connect 24 0 25 0;
#X connect 26 0 27 0;
#X connect 27 0 21 1;
#X connect 28 0 29 0;
#X connect 29 0 30 0;
#X connect 25 0 30 1;
#X connect 30 0 0 1;
#X connect 31 0 32 0;
#X connect 32 0 33 0;
#X connect 33 0 34 0;
#X connect 34 0 35 0;
#X connect 36 0 37 0;
#X connect 37 0 31 1;
#X connect 38 0 39 0;
#X connect 39 0 40 0;
#X connect 35 0 40 1;
#X connect 40 0 0 0;
#X connect 41 0 42 0;
#X connect 42 0 43 0;
#X connect 43 0 44 0;
#X connect 44 0 45 0;
#X connect 46 0 47 0;
#X connect 47 0 41 1;
#X connect 48 0 49 0;
#X connect 49 0 50 0;
#X connect 45 0 50 1;
#X connect 50 0 0 1;
#X connect 51 0 52 0;
#X connect 52 0 53 0;
#X connect 53 0 54 0;
#X connect 54 0 55 0;
#X connect 56 0 57 0;
#X connect 57 0 51 1;
#X connect 58 0 59 0;
#X connect 59 0 60 0;
#X connect 55 0 60 1;
#X connect 60 0 0 0;
#X connect 61 0 62 0;
#X connect 62 0 63 0;
#X connect 63 0 64 0;
#X connect 64 0 65 0;
#X connect 66 0 67 0;
#X connect 67 0 61 1;
#X connect 68 0 69 0;
#X connect 69 0 70 0;
#X connect 65 0 70 1;
#X connect 70 0 0 1;
#X connect 71 0 72 0;
#X connect 72 0 73 0;
#X connect 73 0 74 0;
#X connect 74 0 75 0;
#X connect 76 0 77 0;
#X connect 77 0 71 1;
#X connect 78 0 79 0;
#X connect 79 0 80 0;
#X connect 75 0 80 1;
#X connect 80 0 0 0;
#X connect 81 0 82 0;
#X connect 82 0 83 0;
#X connect 83 0 84 0;
#X connect 84 0 85 0;
#X connect 86 0 87 0;
#X connect 87 0 81 1;
#X connect 88 0 89 0;
#X connect 89 0 90 0;
#X connect 85 0 90 1;
#X connect 90 0 0 1;
#X connect 91 0 92 0;
#X connect 92 0 93 0;
#X connect 93 0 94 0;
#X connect 94 0 95 0;
#X connect 96 0 97 0;
#X connect 97 0 91 1;
#X connect 98 0 99 0;
#X connect 99 0 100 0;
#X connect 95 0 100 1;
#X connect 100 0 0 0;
#X connect 101 0 102 0;
#X connect 102 0 103 0;
#X connect 103 0 104 0;
#X connect 104 0 105 0;
#X connect 106 0 107 0;
#X connect 107 0 101 1;
#X connect 108 0 109 0;
#X connect 109 0 110 0;
#X connect 105 0 110 1;
#X connect 110 0 0 1;
#X connect 111 0 112 0;
#X connect 112 0 113 0;
#X connect 113 0 114 0;
#X connect 114 0 115 0;
#X connect 116 0 117 0;
#X connect 117 0 111 1;
#X connect 118 0 119 0;
#X connect 119 0 120 0;
#X connect 115 0 120 1;
#X connect 120 0 0 0;
#X connect 121 0 122 0;
#X connect 122 0 123 0;
#X connect 123 0 124 0;
#X connect 124 0 125 0;
#X connect 126 0 127 0;
#X connect 127 0 121 1;
#X connect 128 0 129 0;
#X connect 129 0 130 0;
#X connect 125 0 130 1;
#X connect 130 0 0 1;
#X connect 131 0 132 0;
#X connect 132 0 133 0;
#X connect 133 0 134 0;
#X connect 134 0 135 0;
#X connect 136 0 137 0;
#X connect 137 0 131 1;
#X connect 138 0 139 0;
#X connect 139 0 140 0;
#X connect 135 0 140 1;
#X connect 140 0 0 0;
#X connect 141 0 142 0;
#X connect 142 0 143 0;
#X connect 143 0 144 0;
#X connect 144 0 145 0;
#X connect 146 0 147 0;
#X connect 147 0 141 1;
#X connect 148 0 149 0;
#X connect 149 0 150 0;
#X connect 145 0 150 1;
#X connect 150 0 0 1;
