#N canvas 0 22 450 300 12;
#X obj 10 10 bng 20 250 50 1 empty empty 0 17 7 0 10 #fcfcfc #000000 #000000;
#X obj 10 64 print 0;
#X obj 10 64 print 0;
#X obj 10 98 bng 20 250 50 1 empty empty 1 17 7 0 10 #fcfcfc #000000 #000000;
#X obj 10 152 print 1;
#X obj 10 152 print 1;
#X obj 10 186 bng 20 250 50 1 empty empty 2 17 7 0 10 #fcfcfc #000000 #000000;
#X obj 10 240 print 2;
#X obj 10 240 print 2;
#X obj 10 274 bng 20 250 50 1 empty empty 3 17 7 0 10 #fcfcfc #000000 #000000;
#X obj 10 328 print 3;
#X obj 10 328 print 3;
#X obj 10 362 bng 20 250 50 1 empty empty 4 17 7 0 10 #fcfcfc #000000 #000000;
#X obj 10 416 print 4;
#X obj 10 416 print 4;
#X obj 10 450 bng 20 250 50 1 empty empty 5 17 7 0 10 #fcfcfc #000000 #000000;
#X obj 10 504 print 5;
#X obj 10 504 print 5;
#X obj 10 538 bng 20 250 50 1 empty empty 6 17 7 0 10 #fcfcfc #000000 #000000;
#X obj 10 592 print 6;
#X obj 10 592 print 6;
#X obj 10 626 bng 20 250 50 1 empty empty 7 17 7 0 10 #fcfcfc #000000 #000000;
#X obj 10 680 print 7;
#X obj 10 680 print 7;
#X obj 10 714 bng 20 250 50 1 empty empty 8 17 7 0 10 #fcfcfc #000000 #000000;
#X obj 10 768 print 8;
#X obj 10 768 print 8;
#X obj 10 802 bng 20 250 50 1 empty empty 9 17 7 0 10 #fcfcfc #000000 #000000;
#X obj 10 856 print 9;
#X obj 10 856 print 9;
#X obj 10 890 bng 20 250 50 1 empty empty 10 17 7 0 10 #fcfcfc #000000 #000000;
#X obj 10 944 print 10;
#X obj 10 944 print 10;
#X obj 10 978 bng 20 250 50 1 empty empty 11 17 7 0 10 #fcfcfc #000000 #000000;
#X obj 10 1032 print 11;
#X obj 10 1032 print 11;
#X obj 10 1066 bng 20 250 50 1 empty empty 12 17 7 0 10 #fcfcfc #000000 #000000;
#X obj 10 1120 print 12;
#X obj 10 1120 print 12;
#X obj 10 1154 bng 20 250 50 1 empty empty 13 17 7 0 10 #fcfcfc #000000 #000000;
#X obj 10 1208 print 13;
#X obj 10 1208 print 13;
#X obj 10 1242 bng 20 250 50 1 empty empty 14 17 7 0 10 #fcfcfc #000000 #000000;
#X obj 10 1296 print 14;
#X obj 10 1296 print 14;
#X obj 10 1330 bng 20 250 50 1 empty empty 15 17 7 0 10 #fcfcfc #000000 #000000;
#X obj 10 1384 print 15;
#X obj 10 1384 print 15;
#X obj 10 1418 bng 20 250 50 1 empty empty 16 17 7 0 10 #fcfcfc #000000 #000000;
#X obj 10 1472 print 16;
#X obj 10 1472 print 16;
#X obj 10 1506 bng 20 250 50 1 empty empty 17 17 7 0 10 #fcfcfc #000000 #000000;
#X obj 10 1560 print 17;
#X obj 10 1560 print 17;
#X obj 10 1594 bng 20 250 50 1 empty empty 18 17 7 0 10 #fcfcfc #000000 #000000;
#X obj 10 1648 print 18;
#X obj 10 1648 print 18;
#X obj 10 1682 bng 20 250 50 1 empty empty 19 17 7 0 10 #fcfcfc #000000 #000000;
#X obj 10 1736 print 19;
#X obj 10 1736 print 19;
#X connect 0 0 1 0;
#X connect 3 0 4 0;
#X connect 6 0 7 0;
#X connect 9 0 10 0;
#X connect 12 0 13 0;
#X connect 15 0 16 0;
#X connect 18 0 19 0;
#X connect 21 0 22 0;
#X connect 24 0 25 0;
#X connect 27 0 28 0;
#X connect 30 0 31 0;
#X connect 33 0 34 0;
#X connect 36 0 37 0;
#X connect 39 0 40 0;
#X connect 42 0 43 0;
#X connect 45 0 46 0;
#X connect 48 0 49 0;
#X connect 51 0 52 0;
#X connect 54 0 55 0;
#X connect 57 0 58 0;
