#N canvas 0 22 450 300 12;
#X obj 10 10 osc~ 110;
#X obj 10 106 osc~ 220;
#X obj 91 10 osc~ 330;
#X obj 172 10 osc~ 440;
#X obj 253 10 osc~ 550;
#X obj 334 10 osc~ 660;
#X obj 415 10 osc~ 770;
#X obj 496 10 osc~ 880;
#X obj 577 10 osc~ 990;
#X obj 658 10 osc~ 1100;
#X obj 739 10 osc~ 1210;
#X obj 820 10 osc~ 1320;
#X obj 901 10 osc~ 1430;
#X obj 982 10 osc~ 1540;
#X obj 1063 10 osc~ 1650;
#X obj 10 106 dac~;
#X obj 10 58 *~ 0.0625;
#X connect 0 0 16 0;
#X connect 1 0 16 0;
#X connect 2 0 16 0;
#X connect 3 0 16 0;
#X connect 4 0 16 0;
#X connect 5 0 16 0;
#X connect 6 0 16 0;
#X connect 7 0 16 0;
#X connect 8 0 16 0;
#X connect 9 0 16 0;
#X connect 10 0 16 0;
#X connect 11 0 16 0;
#X connect 12 0 16 0;
#X connect 13 0 16 0;
#X connect 14 0 16 0;
#X connect 16 0 15 0;
#X connect 16 0 15 1;
