#N canvas 0 22 450 300 12;
#X obj 10 10 phasor~ 55;
#X obj 10 82 phasor~ 110;
#X obj 118 10 phasor~ 165;
#X obj 226 10 phasor~ 220;
#X obj 334 10 phasor~ 275;
#X obj 442 10 phasor~ 330;
#X obj 550 10 phasor~ 385;
#X obj 658 10 phasor~ 440;
#X obj 766 10 phasor~ 495;
#X obj 874 10 phasor~ 550;
#X obj 982 10 phasor~ 605;
#X obj 1090 10 phasor~ 660;
#X obj 1198 10 phasor~ 715;
#X obj 1306 10 phasor~ 770;
#X obj 1414 10 phasor~ 825;
#X obj 1522 10 phasor~ 880;
#X obj 1630 10 phasor~ 935;
#X obj 1738 10 phasor~ 990;
#X obj 1846 10 phasor~ 1045;
#X obj 1954 10 phasor~ 1100;
#X obj 2062 10 phasor~ 1155;
#X obj 2170 10 phasor~ 1210;
#X obj 2278 10 phasor~ 1265;
#X obj 2386 10 phasor~ 1320;
#X obj 2494 10 phasor~ 1375;
#X obj 2602 10 phasor~ 1430;
#X obj 2710 10 phasor~ 1485;
#X obj 2818 10 phasor~ 1540;
#X obj 2926 10 phasor~ 1595;
#X obj 3034 10 phasor~ 1650;
#X obj 3142 10 phasor~ 1705;
#X obj 3250 10 phasor~ 1760;
#X obj 3358 10 phasor~ 1815;
#X obj 3466 10 phasor~ 1870;
#X obj 3574 10 phasor~ 1925;
#X obj 3682 10 phasor~ 1980;
#X obj 3790 10 phasor~ 2035;
#X obj 3898 10 phasor~ 2090;
#X obj 4006 10 phasor~ 2145;
#X obj 4114 10 phasor~ 2200;
#X obj 4222 10 phasor~ 2255;
#X obj 4330 10 phasor~ 2310;
#X obj 4438 10 phasor~ 2365;
#X obj 4546 10 phasor~ 2420;
#X obj 4654 10 phasor~ 2475;
#X obj 4762 10 phasor~ 2530;
#X obj 4870 10 phasor~ 2585;
#X obj 4978 10 phasor~ 2640;
#X obj 5086 10 phasor~ 2695;
#X obj 5194 10 phasor~ 2750;
#X obj 5302 10 phasor~ 2805;
#X obj 5410 10 phasor~ 2860;
#X obj 5518 10 phasor~ 2915;
#X obj 5626 10 phasor~ 2970;
#X obj 5734 10 phasor~ 3025;
#X obj 5842 10 phasor~ 3080;
#X obj 5950 10 phasor~ 3135;
#X obj 6058 10 phasor~ 3190;
#X obj 6166 10 phasor~ 3245;
#X obj 6274 10 phasor~ 3300;
#X obj 6382 10 phasor~ 3355;
#X obj 6490 10 phasor~ 3410;
#X obj 6598 10 phasor~ 3465;
#X obj 6706 10 phasor~ 3520;
#X obj 6814 10 phasor~ 3575;
#X obj 6922 10 phasor~ 3630;
#X obj 7030 10 phasor~ 3685;
#X obj 7138 10 phasor~ 3740;
#X obj 7246 10 phasor~ 3795;
#X obj 7354 10 phasor~ 3850;
#X obj 7462 10 phasor~ 3905;
#X obj 7570 10 phasor~ 3960;
#X obj 7678 10 phasor~ 4015;
#X obj 7786 10 phasor~ 4070;
#X obj 7894 10 phasor~ 4125;
#X obj 8002 10 phasor~ 4180;
#X obj 8110 10 phasor~ 4235;
#X obj 8218 10 phasor~ 4290;
#X obj 8326 10 phasor~ 4345;
#X obj 8434 10 phasor~ 4400;
#X obj 8542 10 phasor~ 4455;
#X obj 8650 10 phasor~ 4510;
#X obj 8758 10 phasor~ 4565;
#X obj 8866 10 phasor~ 4620;
#X obj 8974 10 phasor~ 4675;
#X obj 9082 10 phasor~ 4730;
#X obj 9190 10 phasor~ 4785;
#X obj 9298 10 phasor~ 4840;
#X obj 9406 10 phasor~ 4895;
#X obj 9514 10 phasor~ 4950;
#X obj 9622 10 phasor~ 5005;
#X obj 9730 10 phasor~ 5060;
#X obj 9838 10 phasor~ 5115;
#X obj 9946 10 phasor~ 5170;
#X obj 10054 10 phasor~ 5225;
#X obj 10162 10 phasor~ 5280;
#X obj 10270 10 phasor~ 5335;
#X obj 10378 10 phasor~ 5390;
#X obj 10486 10 phasor~ 5445;
#X obj 10 82 dac~;
#X connect 0 0 99 0;
#X connect 0 0 99 1;
#X connect 1 0 99 0;
#X connect 1 0 99 1;
#X connect 2 0 99 0;
#X connect 2 0 99 1;
#X connect 3 0 99 0;
#X connect 3 0 99 1;
#X connect 4 0 99 0;
#X connect 4 0 99 1;
#X connect 5 0 99 0;
#X connect 5 0 99 1;
#X connect 6 0 99 0;
#X connect 6 0 99 1;
#X connect 7 0 99 0;
#X connect 7 0 99 1;
#X connect 8 0 99 0;
#X connect 8 0 99 1;
#X connect 9 0 99 0;
#X connect 9 0 99 1;
#X connect 10 0 99 0;
#X connect 10 0 99 1;
#X connect 11 0 99 0;
#X connect 11 0 99 1;
#X connect 12 0 99 0;
#X connect 12 0 99 1;
#X connect 13 0 99 0;
#X connect 13 0 99 1;
#X connect 14 0 99 0;
#X connect 14 0 99 1;
#X connect 15 0 99 0;
#X connect 15 0 99 1;
#X connect 16 0 99 0;
#X connect 16 0 99 1;
#X connect 17 0 99 0;
#X connect 17 0 99 1;
#X connect 18 0 99 0;
#X connect 18 0 99 1;
#X connect 19 0 99 0;
#X connect 19 0 99 1;
#X connect 20 0 99 0;
#X connect 20 0 99 1;
#X connect 21 0 99 0;
#X connect 21 0 99 1;
#X connect 22 0 99 0;
#X connect 22 0 99 1;
#X connect 23 0 99 0;
#X connect 23 0 99 1;
#X connect 24 0 99 0;
#X connect 24 0 99 1;
#X connect 25 0 99 0;
#X connect 25 0 99 1;
#X connect 26 0 99 0;
#X connect 26 0 99 1;
#X connect 27 0 99 0;
#X connect 27 0 99 1;
#X connect 28 0 99 0;
#X connect 28 0 99 1;
#X connect 29 0 99 0;
#X connect 29 0 99 1;
#X connect 30 0 99 0;
#X connect 30 0 99 1;
#X connect 31 0 99 0;
#X connect 31 0 99 1;
#X connect 32 0 99 0;
#X connect 32 0 99 1;
#X connect 33 0 99 0;
#X connect 33 0 99 1;
#X connect 34 0 99 0;
#X connect 34 0 99 1;
#X connect 35 0 99 0;
#X connect 35 0 99 1;
#X connect 36 0 99 0;
#X connect 36 0 99 1;
#X connect 37 0 99 0;
#X connect 37 0 99 1;
#X connect 38 0 99 0;
#X connect 38 0 99 1;
#X connect 39 0 99 0;
#X connect 39 0 99 1;
#X connect 40 0 99 0;
#X connect 40 0 99 1;
#X connect 41 0 99 0;
#X connect 41 0 99 1;
#X connect 42 0 99 0;
#X connect 42 0 99 1;
#X connect 43 0 99 0;
#X connect 43 0 99 1;
#X connect 44 0 99 0;
#X connect 44 0 99 1;
#X connect 45 0 99 0;
#X connect 45 0 99 1;
#X connect 46 0 99 0;
#X connect 46 0 99 1;
#X connect 47 0 99 0;
#X connect 47 0 99 1;
#X connect 48 0 99 0;
#X connect 48 0 99 1;
#X connect 49 0 99 0;
#X connect 49 0 99 1;
#X connect 50 0 99 0;
#X connect 50 0 99 1;
#X connect 51 0 99 0;
#X connect 51 0 99 1;
#X connect 52 0 99 0;
#X connect 52 0 99 1;
#X connect 53 0 99 0;
#X connect 53 0 99 1;
#X connect 54 0 99 0;
#X connect 54 0 99 1;
#X connect 55 0 99 0;
#X connect 55 0 99 1;
#X connect 56 0 99 0;
#X connect 56 0 99 1;
#X connect 57 0 99 0;
#X connect 57 0 99 1;
#X connect 58 0 99 0;
#X connect 58 0 99 1;
#X connect 59 0 99 0;
#X connect 59 0 99 1;
#X connect 60 0 99 0;
#X connect 60 0 99 1;
#X connect 61 0 99 0;
#X connect 61 0 99 1;
#X connect 62 0 99 0;
#X connect 62 0 99 1;
#X connect 63 0 99 0;
#X connect 63 0 99 1;
#X connect 64 0 99 0;
#X connect 64 0 99 1;
#X connect 65 0 99 0;
#X connect 65 0 99 1;
#X connect 66 0 99 0;
#X connect 66 0 99 1;
#X connect 67 0 99 0;
#X connect 67 0 99 1;
#X connect 68 0 99 0;
#X connect 68 0 99 1;
#X connect 69 0 99 0;
#X connect 69 0 99 1;
#X connect 70 0 99 0;
#X connect 70 0 99 1;
#X connect 71 0 99 0;
#X connect 71 0 99 1;
#X connect 72 0 99 0;
#X connect 72 0 99 1;
#X connect 73 0 99 0;
#X connect 73 0 99 1;
#X connect 74 0 99 0;
#X connect 74 0 99 1;
#X connect 75 0 99 0;
#X connect 75 0 99 1;
#X connect 76 0 99 0;
#X connect 76 0 99 1;
#X connect 77 0 99 0;
#X connect 77 0 99 1;
#X connect 78 0 99 0;
#X connect 78 0 99 1;
#X connect 79 0 99 0;
#X connect 79 0 99 1;
#X connect 80 0 99 0;
#X connect 80 0 99 1;
#X connect 81 0 99 0;
#X connect 81 0 99 1;
#X connect 82 0 99 0;
#X connect 82 0 99 1;
#X connect 83 0 99 0;
#X connect 83 0 99 1;
#X connect 84 0 99 0;
#X connect 84 0 99 1;
#X connect 85 0 99 0;
#X connect 85 0 99 1;
#X connect 86 0 99 0;
#X connect 86 0 99 1;
#X connect 87 0 99 0;
#X connect 87 0 99 1;
#X connect 88 0 99 0;
#X connect 88 0 99 1;
#X connect 89 0 99 0;
#X connect 89 0 99 1;
#X connect 90 0 99 0;
#X connect 90 0 99 1;
#X connect 91 0 99 0;
#X connect 91 0 99 1;
#X connect 92 0 99 0;
#X connect 92 0 99 1;
#X connect 93 0 99 0;
#X connect 93 0 99 1;
#X connect 94 0 99 0;
#X connect 94 0 99 1;
#X connect 95 0 99 0;
#X connect 95 0 99 1;
#X connect 96 0 99 0;
#X connect 96 0 99 1;
#X connect 97 0 99 0;
#X connect 97 0 99 1;
#X connect 98 0 99 0;
#X connect 98 0 99 1;
