#N canvas 0 22 450 300 12;
#X obj 190 70 loadbang;
#X obj 190 100 t b b;
#X msg 100 100 Hi There...;
#X msg 10 130 Bye!;
#X obj 10 100 print;
#X connect 1 1 2 0;
#X connect 2 0 4 0;
#X connect 0 0 1 0;
#X connect 1 0 3 0;
#X connect 3 0 4 0;
