#N canvas 0 22 450 300 12;
#N canvas 0 22 450 300 loadbang 0;
#X obj 10 10 loadbang;
#X msg 10 58 \; pd dsp 1;
#X connect 0 0 1 0;
#X restore 10 10 pd loadbang;
#N canvas 0 22 450 300 dacout 0;
#X obj 10 10 loadbang;
#X obj 10 58 del 10;
#X msg 10 82 0.8 100;
#X obj 10 106 line~;
#X obj 10 178 catch~ dacout;
#X obj 10 130 *~;
#X obj 10 154 clip~ -0.707 0.707;
#X obj 10 178 dac~ 1;
#X connect 4 0 5 0;
#X connect 5 0 6 0;
#X connect 6 0 7 0;
#X connect 0 0 1 0;
#X connect 1 0 2 0;
#X connect 2 0 3 0;
#X connect 3 0 5 1;
#X restore 10 34 pd dacout;
#N canvas 0 22 450 300 oscil 1 0;
#X obj 10 10 osc~ 0.013461274592249585;
#X obj 10 58 *~ 1.9240964769970064;
#X obj 10 82 +~ 66.28720800085809;
#X obj 10 106 mtof~;
#X obj 10 130 osc~;
#X obj 10 154 *~ 0.0198;
#X obj 10 178 throw~ dacout;
#X connect 0 0 1 0;
#X connect 1 0 2 0;
#X connect 2 0 3 0;
#X connect 3 0 4 0;
#X connect 4 0 5 0;
#X connect 5 0 6 0;
#X restore 10 58 pd oscil 1;
#N canvas 0 22 450 300 oscil 2 0;
#X obj 10 10 osc~ 0.0858624188138403;
#X obj 10 58 *~ 0.14876418460924434;
#X obj 10 82 +~ 66.6604344286776;
#X obj 10 106 mtof~;
#X obj 10 130 osc~;
#X obj 10 154 *~ 0.0196;
#X obj 10 178 throw~ dacout;
#X connect 0 0 1 0;
#X connect 1 0 2 0;
#X connect 2 0 3 0;
#X connect 3 0 4 0;
#X connect 4 0 5 0;
#X connect 5 0 6 0;
#X restore 10 82 pd oscil 2;
#N canvas 0 22 450 300 oscil 3 0;
#X obj 10 10 osc~ 0.018627557355492652;
#X obj 10 58 *~ 0.49868480590124104;
#X obj 10 82 +~ 65.6175504330331;
#X obj 10 106 mtof~;
#X obj 10 130 osc~;
#X obj 10 154 *~ 0.0194;
#X obj 10 178 throw~ dacout;
#X connect 0 0 1 0;
#X connect 1 0 2 0;
#X connect 2 0 3 0;
#X connect 3 0 4 0;
#X connect 4 0 5 0;
#X connect 5 0 6 0;
#X restore 10 106 pd oscil 3;
#N canvas 0 22 450 300 oscil 4 0;
#X obj 10 10 osc~ 0.02896174950621897;
#X obj 10 58 *~ 0.09069130902540845;
#X obj 10 82 +~ 70.7485316930844;
#X obj 10 106 mtof~;
#X obj 10 130 osc~;
#X obj 10 154 *~ 0.0192;
#X obj 10 178 throw~ dacout;
#X connect 0 0 1 0;
#X connect 1 0 2 0;
#X connect 2 0 3 0;
#X connect 3 0 4 0;
#X connect 4 0 5 0;
#X connect 5 0 6 0;
#X restore 10 130 pd oscil 4;
#N canvas 0 22 450 300 oscil 5 0;
#X obj 10 10 osc~ 0.018069212237635624;
#X obj 10 58 *~ 0.21978462901499415;
#X obj 10 82 +~ 70.15164146120138;
#X obj 10 106 mtof~;
#X obj 10 130 osc~;
#X obj 10 154 *~ 0.019;
#X obj 10 178 throw~ dacout;
#X connect 0 0 1 0;
#X connect 1 0 2 0;
#X connect 2 0 3 0;
#X connect 3 0 4 0;
#X connect 4 0 5 0;
#X connect 5 0 6 0;
#X restore 10 154 pd oscil 5;
#N canvas 0 22 450 300 oscil 6 0;
#X obj 10 10 osc~ 0.07371973532650615;
#X obj 10 58 *~ 0.08514938324245584;
#X obj 10 82 +~ 73.97712873694033;
#X obj 10 106 mtof~;
#X obj 10 130 osc~;
#X obj 10 154 *~ 0.0188;
#X obj 10 178 throw~ dacout;
#X connect 0 0 1 0;
#X connect 1 0 2 0;
#X connect 2 0 3 0;
#X connect 3 0 4 0;
#X connect 4 0 5 0;
#X connect 5 0 6 0;
#X restore 10 178 pd oscil 6;
#N canvas 0 22 450 300 oscil 7 0;
#X obj 10 10 osc~ 0.011595958005695683;
#X obj 10 58 *~ 0.19811428182299623;
#X obj 10 82 +~ 69.97438131682303;
#X obj 10 106 mtof~;
#X obj 10 130 osc~;
#X obj 10 154 *~ 0.0186;
#X obj 10 178 throw~ dacout;
#X connect 0 0 1 0;
#X connect 1 0 2 0;
#X connect 2 0 3 0;
#X connect 3 0 4 0;
#X connect 4 0 5 0;
#X connect 5 0 6 0;
#X restore 10 202 pd oscil 7;
#N canvas 0 22 450 300 oscil 8 0;
#X obj 10 10 osc~ 0.07345740328960625;
#X obj 10 58 *~ 0.08602809947375073;
#X obj 10 82 +~ 77.29971427582356;
#X obj 10 106 mtof~;
#X obj 10 130 osc~;
#X obj 10 154 *~ 0.0184;
#X obj 10 178 throw~ dacout;
#X connect 0 0 1 0;
#X connect 1 0 2 0;
#X connect 2 0 3 0;
#X connect 3 0 4 0;
#X connect 4 0 5 0;
#X connect 5 0 6 0;
#X restore 10 226 pd oscil 8;
#N canvas 0 22 450 300 oscil 9 0;
#X obj 10 10 osc~ 0.02250137775403409;
#X obj 10 58 *~ 0.06852696873656841;
#X obj 10 82 +~ 73.97725033935933;
#X obj 10 106 mtof~;
#X obj 10 130 osc~;
#X obj 10 154 *~ 0.0182;
#X obj 10 178 throw~ dacout;
#X connect 0 0 1 0;
#X connect 1 0 2 0;
#X connect 2 0 3 0;
#X connect 3 0 4 0;
#X connect 4 0 5 0;
#X connect 5 0 6 0;
#X restore 10 250 pd oscil 9;
#N canvas 0 22 450 300 oscil 10 0;
#X obj 10 10 osc~ 0.09936265554755541;
#X obj 10 58 *~ 0.011078450606288825;
#X obj 10 82 +~ 79.35048055430074;
#X obj 10 106 mtof~;
#X obj 10 130 osc~;
#X obj 10 154 *~ 0.018000000000000002;
#X obj 10 178 throw~ dacout;
#X connect 0 0 1 0;
#X connect 1 0 2 0;
#X connect 2 0 3 0;
#X connect 3 0 4 0;
#X connect 4 0 5 0;
#X connect 5 0 6 0;
#X restore 10 274 pd oscil 10;
#N canvas 0 22 450 300 oscil 11 0;
#X obj 10 10 osc~ 0.09791135194238096;
#X obj 10 58 *~ 0.09254559435414711;
#X obj 10 82 +~ 67.43087449834174;
#X obj 10 106 mtof~;
#X obj 10 130 osc~;
#X obj 10 154 *~ 0.0178;
#X obj 10 178 throw~ dacout;
#X connect 0 0 1 0;
#X connect 1 0 2 0;
#X connect 2 0 3 0;
#X connect 3 0 4 0;
#X connect 4 0 5 0;
#X connect 5 0 6 0;
#X restore 10 298 pd oscil 11;
#N canvas 0 22 450 300 oscil 12 0;
#X obj 10 10 osc~ 0.05508004539422609;
#X obj 10 58 *~ 0.03315713467562098;
#X obj 10 82 +~ 85.97702966818494;
#X obj 10 106 mtof~;
#X obj 10 130 osc~;
#X obj 10 154 *~ 0.0176;
#X obj 10 178 throw~ dacout;
#X connect 0 0 1 0;
#X connect 1 0 2 0;
#X connect 2 0 3 0;
#X connect 3 0 4 0;
#X connect 4 0 5 0;
#X connect 5 0 6 0;
#X restore 10 322 pd oscil 12;
#N canvas 0 22 450 300 oscil 13 0;
#X obj 10 10 osc~ 0.02450998980576521;
#X obj 10 58 *~ 0.11920986079095543;
#X obj 10 82 +~ 80.11879792967031;
#X obj 10 106 mtof~;
#X obj 10 130 osc~;
#X obj 10 154 *~ 0.0174;
#X obj 10 178 throw~ dacout;
#X connect 0 0 1 0;
#X connect 1 0 2 0;
#X connect 2 0 3 0;
#X connect 3 0 4 0;
#X connect 4 0 5 0;
#X connect 5 0 6 0;
#X restore 10 346 pd oscil 13;
#N canvas 0 22 450 300 oscil 14 0;
#X obj 10 10 osc~ 0.04792475803851152;
#X obj 10 58 *~ 0.08229461004755313;
#X obj 10 82 +~ 73.25687324847893;
#X obj 10 106 mtof~;
#X obj 10 130 osc~;
#X obj 10 154 *~ 0.0172;
#X obj 10 178 throw~ dacout;
#X connect 0 0 1 0;
#X connect 1 0 2 0;
#X connect 2 0 3 0;
#X connect 3 0 4 0;
#X connect 4 0 5 0;
#X connect 5 0 6 0;
#X restore 10 370 pd oscil 14;
#N canvas 0 22 450 300 oscil 15 0;
#X obj 10 10 osc~ 0.0069407363295474036;
#X obj 10 58 *~ 0.10596546523294852;
#X obj 10 82 +~ 65.80560090120622;
#X obj 10 106 mtof~;
#X obj 10 130 osc~;
#X obj 10 154 *~ 0.017;
#X obj 10 178 throw~ dacout;
#X connect 0 0 1 0;
#X connect 1 0 2 0;
#X connect 2 0 3 0;
#X connect 3 0 4 0;
#X connect 4 0 5 0;
#X connect 5 0 6 0;
#X restore 10 394 pd oscil 15;
#N canvas 0 22 450 300 oscil 16 0;
#X obj 10 10 osc~ 0.03660796034035673;
#X obj 10 58 *~ 0.12397712402578538;
#X obj 10 82 +~ 72.44842664905981;
#X obj 10 106 mtof~;
#X obj 10 130 osc~;
#X obj 10 154 *~ 0.0168;
#X obj 10 178 throw~ dacout;
#X connect 0 0 1 0;
#X connect 1 0 2 0;
#X connect 2 0 3 0;
#X connect 3 0 4 0;
#X connect 4 0 5 0;
#X connect 5 0 6 0;
#X restore 10 418 pd oscil 16;
#N canvas 0 22 450 300 oscil 17 0;
#X obj 10 10 osc~ 0.05679708900206998;
#X obj 10 58 *~ 0.007348753317872984;
#X obj 10 82 +~ 68.21652411907439;
#X obj 10 106 mtof~;
#X obj 10 130 osc~;
#X obj 10 154 *~ 0.0166;
#X obj 10 178 throw~ dacout;
#X connect 0 0 1 0;
#X connect 1 0 2 0;
#X connect 2 0 3 0;
#X connect 3 0 4 0;
#X connect 4 0 5 0;
#X connect 5 0 6 0;
#X restore 10 442 pd oscil 17;
#N canvas 0 22 450 300 oscil 18 0;
#X obj 10 10 osc~ 0.029831427985096373;
#X obj 10 58 *~ 0.10462101543702225;
#X obj 10 82 +~ 95.88956938881353;
#X obj 10 106 mtof~;
#X obj 10 130 osc~;
#X obj 10 154 *~ 0.0164;
#X obj 10 178 throw~ dacout;
#X connect 0 0 1 0;
#X connect 1 0 2 0;
#X connect 2 0 3 0;
#X connect 3 0 4 0;
#X connect 4 0 5 0;
#X connect 5 0 6 0;
#X restore 10 466 pd oscil 18;
#N canvas 0 22 450 300 oscil 19 0;
#X obj 10 10 osc~ 0.01097484807719067;
#X obj 10 58 *~ 0.06917657041552916;
#X obj 10 82 +~ 93.35889492741023;
#X obj 10 106 mtof~;
#X obj 10 130 osc~;
#X obj 10 154 *~ 0.016200000000000003;
#X obj 10 178 throw~ dacout;
#X connect 0 0 1 0;
#X connect 1 0 2 0;
#X connect 2 0 3 0;
#X connect 3 0 4 0;
#X connect 4 0 5 0;
#X connect 5 0 6 0;
#X restore 10 490 pd oscil 19;
#N canvas 0 22 450 300 oscil 20 0;
#X obj 10 10 osc~ 0.06587900470084519;
#X obj 10 58 *~ 0.08057633820714122;
#X obj 10 82 +~ 78.09816917396438;
#X obj 10 106 mtof~;
#X obj 10 130 osc~;
#X obj 10 154 *~ 0.016;
#X obj 10 178 throw~ dacout;
#X connect 0 0 1 0;
#X connect 1 0 2 0;
#X connect 2 0 3 0;
#X connect 3 0 4 0;
#X connect 4 0 5 0;
#X connect 5 0 6 0;
#X restore 10 514 pd oscil 20;
#N canvas 0 22 450 300 oscil 21 0;
#X obj 10 10 osc~ 0.0827524150311354;
#X obj 10 58 *~ 0.0027505143760646715;
#X obj 10 82 +~ 74.64507339507429;
#X obj 10 106 mtof~;
#X obj 10 130 osc~;
#X obj 10 154 *~ 0.0158;
#X obj 10 178 throw~ dacout;
#X connect 0 0 1 0;
#X connect 1 0 2 0;
#X connect 2 0 3 0;
#X connect 3 0 4 0;
#X connect 4 0 5 0;
#X connect 5 0 6 0;
#X restore 10 538 pd oscil 21;
#N canvas 0 22 450 300 oscil 22 0;
#X obj 10 10 osc~ 0.0393264292532038;
#X obj 10 58 *~ 0.07506202297029757;
#X obj 10 82 +~ 94.84733407263226;
#X obj 10 106 mtof~;
#X obj 10 130 osc~;
#X obj 10 154 *~ 0.015600000000000001;
#X obj 10 178 throw~ dacout;
#X connect 0 0 1 0;
#X connect 1 0 2 0;
#X connect 2 0 3 0;
#X connect 3 0 4 0;
#X connect 4 0 5 0;
#X connect 5 0 6 0;
#X restore 10 562 pd oscil 22;
#N canvas 0 22 450 300 oscil 23 0;
#X obj 10 10 osc~ 0.02445023592682746;
#X obj 10 58 *~ 0.05582488858700366;
#X obj 10 82 +~ 101.21637373033434;
#X obj 10 106 mtof~;
#X obj 10 130 osc~;
#X obj 10 154 *~ 0.0154;
#X obj 10 178 throw~ dacout;
#X connect 0 0 1 0;
#X connect 1 0 2 0;
#X connect 2 0 3 0;
#X connect 3 0 4 0;
#X connect 4 0 5 0;
#X connect 5 0 6 0;
#X restore 10 586 pd oscil 23;
#N canvas 0 22 450 300 oscil 24 0;
#X obj 10 10 osc~ 0.032002583444380076;
#X obj 10 58 *~ 0.011506577603494736;
#X obj 10 82 +~ 86.32541657732747;
#X obj 10 106 mtof~;
#X obj 10 130 osc~;
#X obj 10 154 *~ 0.0152;
#X obj 10 178 throw~ dacout;
#X connect 0 0 1 0;
#X connect 1 0 2 0;
#X connect 2 0 3 0;
#X connect 3 0 4 0;
#X connect 4 0 5 0;
#X connect 5 0 6 0;
#X restore 10 610 pd oscil 24;
#N canvas 0 22 450 300 oscil 25 0;
#X obj 10 10 osc~ 0.08152257465091182;
#X obj 10 58 *~ 0.05295558285308019;
#X obj 10 82 +~ 86.18483746326676;
#X obj 10 106 mtof~;
#X obj 10 130 osc~;
#X obj 10 154 *~ 0.015;
#X obj 10 178 throw~ dacout;
#X connect 0 0 1 0;
#X connect 1 0 2 0;
#X connect 2 0 3 0;
#X connect 3 0 4 0;
#X connect 4 0 5 0;
#X connect 5 0 6 0;
#X restore 10 634 pd oscil 25;
#N canvas 0 22 450 300 oscil 26 0;
#X obj 10 10 osc~ 0.081695671532595;
#X obj 10 58 *~ 0.02175754896830369;
#X obj 10 82 +~ 98.10361784419098;
#X obj 10 106 mtof~;
#X obj 10 130 osc~;
#X obj 10 154 *~ 0.0148;
#X obj 10 178 throw~ dacout;
#X connect 0 0 1 0;
#X connect 1 0 2 0;
#X connect 2 0 3 0;
#X connect 3 0 4 0;
#X connect 4 0 5 0;
#X connect 5 0 6 0;
#X restore 10 658 pd oscil 26;
#N canvas 0 22 450 300 oscil 27 0;
#X obj 10 10 osc~ 0.08010309865696372;
#X obj 10 58 *~ 0.016106041920790563;
#X obj 10 82 +~ 74.08080609537194;
#X obj 10 106 mtof~;
#X obj 10 130 osc~;
#X obj 10 154 *~ 0.0146;
#X obj 10 178 throw~ dacout;
#X connect 0 0 1 0;
#X connect 1 0 2 0;
#X connect 2 0 3 0;
#X connect 3 0 4 0;
#X connect 4 0 5 0;
#X connect 5 0 6 0;
#X restore 10 682 pd oscil 27;
#N canvas 0 22 450 300 oscil 28 0;
#X obj 10 10 osc~ 0.0885614171882988;
#X obj 10 58 *~ 0.05048109136015164;
#X obj 10 82 +~ 104.52536461493686;
#X obj 10 106 mtof~;
#X obj 10 130 osc~;
#X obj 10 154 *~ 0.0144;
#X obj 10 178 throw~ dacout;
#X connect 0 0 1 0;
#X connect 1 0 2 0;
#X connect 2 0 3 0;
#X connect 3 0 4 0;
#X connect 4 0 5 0;
#X connect 5 0 6 0;
#X restore 10 706 pd oscil 28;
#N canvas 0 22 450 300 oscil 29 0;
#X obj 10 10 osc~ 0.03106530363831165;
#X obj 10 58 *~ 0.032561560627976306;
#X obj 10 82 +~ 102.33696361271207;
#X obj 10 106 mtof~;
#X obj 10 130 osc~;
#X obj 10 154 *~ 0.014199999999999999;
#X obj 10 178 throw~ dacout;
#X connect 0 0 1 0;
#X connect 1 0 2 0;
#X connect 2 0 3 0;
#X connect 3 0 4 0;
#X connect 4 0 5 0;
#X connect 5 0 6 0;
#X restore 10 730 pd oscil 29;
#N canvas 0 22 450 300 oscil 30 0;
#X obj 10 10 osc~ 0.02021304171867997;
#X obj 10 58 *~ 0.04989957488071686;
#X obj 10 82 +~ 86.56999842185046;
#X obj 10 106 mtof~;
#X obj 10 130 osc~;
#X obj 10 154 *~ 0.013999999999999999;
#X obj 10 178 throw~ dacout;
#X connect 0 0 1 0;
#X connect 1 0 2 0;
#X connect 2 0 3 0;
#X connect 3 0 4 0;
#X connect 4 0 5 0;
#X connect 5 0 6 0;
#X restore 10 754 pd oscil 30;
#N canvas 0 22 450 300 oscil 31 0;
#X obj 10 10 osc~ 0.05475739808554239;
#X obj 10 58 *~ 0.026854291384095137;
#X obj 10 82 +~ 114.61250611949009;
#X obj 10 106 mtof~;
#X obj 10 130 osc~;
#X obj 10 154 *~ 0.0138;
#X obj 10 178 throw~ dacout;
#X connect 0 0 1 0;
#X connect 1 0 2 0;
#X connect 2 0 3 0;
#X connect 3 0 4 0;
#X connect 4 0 5 0;
#X connect 5 0 6 0;
#X restore 10 778 pd oscil 31;
#N canvas 0 22 450 300 oscil 32 0;
#X obj 10 10 osc~ 0.0613964435481202;
#X obj 10 58 *~ 0.04153565213328657;
#X obj 10 82 +~ 81.74278723950192;
#X obj 10 106 mtof~;
#X obj 10 130 osc~;
#X obj 10 154 *~ 0.0136;
#X obj 10 178 throw~ dacout;
#X connect 0 0 1 0;
#X connect 1 0 2 0;
#X connect 2 0 3 0;
#X connect 3 0 4 0;
#X connect 4 0 5 0;
#X connect 5 0 6 0;
#X restore 10 802 pd oscil 32;
#N canvas 0 22 450 300 oscil 33 0;
#X obj 10 10 osc~ 0.014899668740646077;
#X obj 10 58 *~ 0.002080223861719822;
#X obj 10 82 +~ 86.11019286032474;
#X obj 10 106 mtof~;
#X obj 10 130 osc~;
#X obj 10 154 *~ 0.013399999999999999;
#X obj 10 178 throw~ dacout;
#X connect 0 0 1 0;
#X connect 1 0 2 0;
#X connect 2 0 3 0;
#X connect 3 0 4 0;
#X connect 4 0 5 0;
#X connect 5 0 6 0;
#X restore 10 826 pd oscil 33;
#N canvas 0 22 450 300 oscil 34 0;
#X obj 10 10 osc~ 0.023434494544939833;
#X obj 10 58 *~ 0.03780989377403041;
#X obj 10 82 +~ 97.70885433524164;
#X obj 10 106 mtof~;
#X obj 10 130 osc~;
#X obj 10 154 *~ 0.013199999999999998;
#X obj 10 178 throw~ dacout;
#X connect 0 0 1 0;
#X connect 1 0 2 0;
#X connect 2 0 3 0;
#X connect 3 0 4 0;
#X connect 4 0 5 0;
#X connect 5 0 6 0;
#X restore 10 850 pd oscil 34;
#N canvas 0 22 450 300 oscil 35 0;
#X obj 10 10 osc~ 0.06239565742943021;
#X obj 10 58 *~ 0.05455012657226242;
#X obj 10 82 +~ 74.99744029693635;
#X obj 10 106 mtof~;
#X obj 10 130 osc~;
#X obj 10 154 *~ 0.013000000000000001;
#X obj 10 178 throw~ dacout;
#X connect 0 0 1 0;
#X connect 1 0 2 0;
#X connect 2 0 3 0;
#X connect 3 0 4 0;
#X connect 4 0 5 0;
#X connect 5 0 6 0;
#X restore 10 874 pd oscil 35;
#N canvas 0 22 450 300 oscil 36 0;
#X obj 10 10 osc~ 0.021673011145554578;
#X obj 10 58 *~ 0.023605292919494463;
#X obj 10 82 +~ 75.83098056480888;
#X obj 10 106 mtof~;
#X obj 10 130 osc~;
#X obj 10 154 *~ 0.0128;
#X obj 10 178 throw~ dacout;
#X connect 0 0 1 0;
#X connect 1 0 2 0;
#X connect 2 0 3 0;
#X connect 3 0 4 0;
#X connect 4 0 5 0;
#X connect 5 0 6 0;
#X restore 10 898 pd oscil 36;
#N canvas 0 22 450 300 oscil 37 0;
#X obj 10 10 osc~ 0.038142961984452106;
#X obj 10 58 *~ 0.0037746159785372623;
#X obj 10 82 +~ 109.70246597296347;
#X obj 10 106 mtof~;
#X obj 10 130 osc~;
#X obj 10 154 *~ 0.0126;
#X obj 10 178 throw~ dacout;
#X connect 0 0 1 0;
#X connect 1 0 2 0;
#X connect 2 0 3 0;
#X connect 3 0 4 0;
#X connect 4 0 5 0;
#X connect 5 0 6 0;
#X restore 10 922 pd oscil 37;
#N canvas 0 22 450 300 oscil 38 0;
#X obj 10 10 osc~ 0.015951388601939367;
#X obj 10 58 *~ 0.027981105288685377;
#X obj 10 82 +~ 100.81091440821807;
#X obj 10 106 mtof~;
#X obj 10 130 osc~;
#X obj 10 154 *~ 0.0124;
#X obj 10 178 throw~ dacout;
#X connect 0 0 1 0;
#X connect 1 0 2 0;
#X connect 2 0 3 0;
#X connect 3 0 4 0;
#X connect 4 0 5 0;
#X connect 5 0 6 0;
#X restore 10 946 pd oscil 38;
#N canvas 0 22 450 300 oscil 39 0;
#X obj 10 10 osc~ 0.018662509580202557;
#X obj 10 58 *~ 0.03630366755404442;
#X obj 10 82 +~ 113.49667381268239;
#X obj 10 106 mtof~;
#X obj 10 130 osc~;
#X obj 10 154 *~ 0.0122;
#X obj 10 178 throw~ dacout;
#X connect 0 0 1 0;
#X connect 1 0 2 0;
#X connect 2 0 3 0;
#X connect 3 0 4 0;
#X connect 4 0 5 0;
#X connect 5 0 6 0;
#X restore 10 970 pd oscil 39;
#N canvas 0 22 450 300 oscil 40 0;
#X obj 10 10 osc~ 0.09265195547227979;
#X obj 10 58 *~ 0.04321760548349472;
#X obj 10 82 +~ 109.64467238022664;
#X obj 10 106 mtof~;
#X obj 10 130 osc~;
#X obj 10 154 *~ 0.012;
#X obj 10 178 throw~ dacout;
#X connect 0 0 1 0;
#X connect 1 0 2 0;
#X connect 2 0 3 0;
#X connect 3 0 4 0;
#X connect 4 0 5 0;
#X connect 5 0 6 0;
#X restore 10 994 pd oscil 40;
#N canvas 0 22 450 300 oscil 41 0;
#X obj 10 10 osc~ 0.06706011437969454;
#X obj 10 58 *~ 0.030980493946316457;
#X obj 10 82 +~ 132.30552730402414;
#X obj 10 106 mtof~;
#X obj 10 130 osc~;
#X obj 10 154 *~ 0.011800000000000001;
#X obj 10 178 throw~ dacout;
#X connect 0 0 1 0;
#X connect 1 0 2 0;
#X connect 2 0 3 0;
#X connect 3 0 4 0;
#X connect 4 0 5 0;
#X connect 5 0 6 0;
#X restore 10 1018 pd oscil 41;
#N canvas 0 22 450 300 oscil 42 0;
#X obj 10 10 osc~ 0.030013149537541563;
#X obj 10 58 *~ 0.02236154573597817;
#X obj 10 82 +~ 133.60505660782198;
#X obj 10 106 mtof~;
#X obj 10 130 osc~;
#X obj 10 154 *~ 0.011600000000000001;
#X obj 10 178 throw~ dacout;
#X connect 0 0 1 0;
#X connect 1 0 2 0;
#X connect 2 0 3 0;
#X connect 3 0 4 0;
#X connect 4 0 5 0;
#X connect 5 0 6 0;
#X restore 10 1042 pd oscil 42;
#N canvas 0 22 450 300 oscil 43 0;
#X obj 10 10 osc~ 0.04774285672287692;
#X obj 10 58 *~ 0.03989373379725676;
#X obj 10 82 +~ 107.63696036482133;
#X obj 10 106 mtof~;
#X obj 10 130 osc~;
#X obj 10 154 *~ 0.011400000000000002;
#X obj 10 178 throw~ dacout;
#X connect 0 0 1 0;
#X connect 1 0 2 0;
#X connect 2 0 3 0;
#X connect 3 0 4 0;
#X connect 4 0 5 0;
#X connect 5 0 6 0;
#X restore 10 1066 pd oscil 43;
#N canvas 0 22 450 300 oscil 44 0;
#X obj 10 10 osc~ 0.0013326171691899757;
#X obj 10 58 *~ 0.03747034798361767;
#X obj 10 82 +~ 83.47208712510287;
#X obj 10 106 mtof~;
#X obj 10 130 osc~;
#X obj 10 154 *~ 0.011200000000000002;
#X obj 10 178 throw~ dacout;
#X connect 0 0 1 0;
#X connect 1 0 2 0;
#X connect 2 0 3 0;
#X connect 3 0 4 0;
#X connect 4 0 5 0;
#X connect 5 0 6 0;
#X restore 10 1090 pd oscil 44;
#N canvas 0 22 450 300 oscil 45 0;
#X obj 10 10 osc~ 0.016595473920414782;
#X obj 10 58 *~ 0.042417346574161664;
#X obj 10 82 +~ 108.42886606944204;
#X obj 10 106 mtof~;
#X obj 10 130 osc~;
#X obj 10 154 *~ 0.011000000000000001;
#X obj 10 178 throw~ dacout;
#X connect 0 0 1 0;
#X connect 1 0 2 0;
#X connect 2 0 3 0;
#X connect 3 0 4 0;
#X connect 4 0 5 0;
#X connect 5 0 6 0;
#X restore 10 1114 pd oscil 45;
#N canvas 0 22 450 300 oscil 46 0;
#X obj 10 10 osc~ 0.01578056422545079;
#X obj 10 58 *~ 0.008740999525480474;
#X obj 10 82 +~ 66.43182791032146;
#X obj 10 106 mtof~;
#X obj 10 130 osc~;
#X obj 10 154 *~ 0.0108;
#X obj 10 178 throw~ dacout;
#X connect 0 0 1 0;
#X connect 1 0 2 0;
#X connect 2 0 3 0;
#X connect 3 0 4 0;
#X connect 4 0 5 0;
#X connect 5 0 6 0;
#X restore 10 1138 pd oscil 46;
#N canvas 0 22 450 300 oscil 47 0;
#X obj 10 10 osc~ 0.0008160863843440502;
#X obj 10 58 *~ 0.018022586277037105;
#X obj 10 82 +~ 135.61930973949916;
#X obj 10 106 mtof~;
#X obj 10 130 osc~;
#X obj 10 154 *~ 0.0106;
#X obj 10 178 throw~ dacout;
#X connect 0 0 1 0;
#X connect 1 0 2 0;
#X connect 2 0 3 0;
#X connect 3 0 4 0;
#X connect 4 0 5 0;
#X connect 5 0 6 0;
#X restore 10 1162 pd oscil 47;
#N canvas 0 22 450 300 oscil 48 0;
#X obj 10 10 osc~ 0.09331996847599049;
#X obj 10 58 *~ 0.03979527276201875;
#X obj 10 82 +~ 107.88154471911633;
#X obj 10 106 mtof~;
#X obj 10 130 osc~;
#X obj 10 154 *~ 0.010400000000000001;
#X obj 10 178 throw~ dacout;
#X connect 0 0 1 0;
#X connect 1 0 2 0;
#X connect 2 0 3 0;
#X connect 3 0 4 0;
#X connect 4 0 5 0;
#X connect 5 0 6 0;
#X restore 10 1186 pd oscil 48;
#N canvas 0 22 450 300 oscil 49 0;
#X obj 10 10 osc~ 0.07244485728332345;
#X obj 10 58 *~ 0.025658217219363653;
#X obj 10 82 +~ 134.04850970259184;
#X obj 10 106 mtof~;
#X obj 10 130 osc~;
#X obj 10 154 *~ 0.0102;
#X obj 10 178 throw~ dacout;
#X connect 0 0 1 0;
#X connect 1 0 2 0;
#X connect 2 0 3 0;
#X connect 3 0 4 0;
#X connect 4 0 5 0;
#X connect 5 0 6 0;
#X restore 10 1210 pd oscil 49;
#N canvas 0 22 450 300 oscil 50 0;
#X obj 10 10 osc~ 0.04896912679129039;
#X obj 10 58 *~ 0.02759953553990575;
#X obj 10 82 +~ 103.68347201196997;
#X obj 10 106 mtof~;
#X obj 10 130 osc~;
#X obj 10 154 *~ 0.01;
#X obj 10 178 throw~ dacout;
#X connect 0 0 1 0;
#X connect 1 0 2 0;
#X connect 2 0 3 0;
#X connect 3 0 4 0;
#X connect 4 0 5 0;
#X connect 5 0 6 0;
#X restore 10 1234 pd oscil 50;
#N canvas 0 22 450 300 oscil 51 0;
#X obj 10 10 osc~ 0.04691997327122434;
#X obj 10 58 *~ 0.029150278802555423;
#X obj 10 82 +~ 144.72119372590998;
#X obj 10 106 mtof~;
#X obj 10 130 osc~;
#X obj 10 154 *~ 0.0098;
#X obj 10 178 throw~ dacout;
#X connect 0 0 1 0;
#X connect 1 0 2 0;
#X connect 2 0 3 0;
#X connect 3 0 4 0;
#X connect 4 0 5 0;
#X connect 5 0 6 0;
#X restore 10 1258 pd oscil 51;
#N canvas 0 22 450 300 oscil 52 0;
#X obj 10 10 osc~ 0.04929806242734735;
#X obj 10 58 *~ 0.01910855452167542;
#X obj 10 82 +~ 155.1762244702968;
#X obj 10 106 mtof~;
#X obj 10 130 osc~;
#X obj 10 154 *~ 0.0096;
#X obj 10 178 throw~ dacout;
#X connect 0 0 1 0;
#X connect 1 0 2 0;
#X connect 2 0 3 0;
#X connect 3 0 4 0;
#X connect 4 0 5 0;
#X connect 5 0 6 0;
#X restore 10 1282 pd oscil 52;
#N canvas 0 22 450 300 oscil 53 0;
#X obj 10 10 osc~ 0.015402846532759263;
#X obj 10 58 *~ 0.03142921496079373;
#X obj 10 82 +~ 108.29688883554266;
#X obj 10 106 mtof~;
#X obj 10 130 osc~;
#X obj 10 154 *~ 0.0094;
#X obj 10 178 throw~ dacout;
#X connect 0 0 1 0;
#X connect 1 0 2 0;
#X connect 2 0 3 0;
#X connect 3 0 4 0;
#X connect 4 0 5 0;
#X connect 5 0 6 0;
#X restore 10 1306 pd oscil 53;
#N canvas 0 22 450 300 oscil 54 0;
#X obj 10 10 osc~ 0.08573808582111639;
#X obj 10 58 *~ 0.0069861193256945744;
#X obj 10 82 +~ 91.68942439730799;
#X obj 10 106 mtof~;
#X obj 10 130 osc~;
#X obj 10 154 *~ 0.0092;
#X obj 10 178 throw~ dacout;
#X connect 0 0 1 0;
#X connect 1 0 2 0;
#X connect 2 0 3 0;
#X connect 3 0 4 0;
#X connect 4 0 5 0;
#X connect 5 0 6 0;
#X restore 10 1330 pd oscil 54;
#N canvas 0 22 450 300 oscil 55 0;
#X obj 10 10 osc~ 0.06814544117076864;
#X obj 10 58 *~ 0.03047098072793767;
#X obj 10 82 +~ 160.68862778060182;
#X obj 10 106 mtof~;
#X obj 10 130 osc~;
#X obj 10 154 *~ 0.009;
#X obj 10 178 throw~ dacout;
#X connect 0 0 1 0;
#X connect 1 0 2 0;
#X connect 2 0 3 0;
#X connect 3 0 4 0;
#X connect 4 0 5 0;
#X connect 5 0 6 0;
#X restore 10 1354 pd oscil 55;
#N canvas 0 22 450 300 oscil 56 0;
#X obj 10 10 osc~ 0.0692559839046145;
#X obj 10 58 *~ 0.023003990394223028;
#X obj 10 82 +~ 119.40723037150879;
#X obj 10 106 mtof~;
#X obj 10 130 osc~;
#X obj 10 154 *~ 0.008799999999999999;
#X obj 10 178 throw~ dacout;
#X connect 0 0 1 0;
#X connect 1 0 2 0;
#X connect 2 0 3 0;
#X connect 3 0 4 0;
#X connect 4 0 5 0;
#X connect 5 0 6 0;
#X restore 10 1378 pd oscil 56;
#N canvas 0 22 450 300 oscil 57 0;
#X obj 10 10 osc~ 0.03093602682705179;
#X obj 10 58 *~ 0.0034701467811324087;
#X obj 10 82 +~ 155.40748857731882;
#X obj 10 106 mtof~;
#X obj 10 130 osc~;
#X obj 10 154 *~ 0.008600000000000002;
#X obj 10 178 throw~ dacout;
#X connect 0 0 1 0;
#X connect 1 0 2 0;
#X connect 2 0 3 0;
#X connect 3 0 4 0;
#X connect 4 0 5 0;
#X connect 5 0 6 0;
#X restore 10 1402 pd oscil 57;
#N canvas 0 22 450 300 oscil 58 0;
#X obj 10 10 osc~ 0.017679774752914303;
#X obj 10 58 *~ 0.000638228125285716;
#X obj 10 82 +~ 98.08186293641396;
#X obj 10 106 mtof~;
#X obj 10 130 osc~;
#X obj 10 154 *~ 0.008400000000000001;
#X obj 10 178 throw~ dacout;
#X connect 0 0 1 0;
#X connect 1 0 2 0;
#X connect 2 0 3 0;
#X connect 3 0 4 0;
#X connect 4 0 5 0;
#X connect 5 0 6 0;
#X restore 10 1426 pd oscil 58;
#N canvas 0 22 450 300 oscil 59 0;
#X obj 10 10 osc~ 0.06669665280045094;
#X obj 10 58 *~ 0.032431014170366576;
#X obj 10 82 +~ 82.31980820933452;
#X obj 10 106 mtof~;
#X obj 10 130 osc~;
#X obj 10 154 *~ 0.0082;
#X obj 10 178 throw~ dacout;
#X connect 0 0 1 0;
#X connect 1 0 2 0;
#X connect 2 0 3 0;
#X connect 3 0 4 0;
#X connect 4 0 5 0;
#X connect 5 0 6 0;
#X restore 10 1450 pd oscil 59;
#N canvas 0 22 450 300 oscil 60 0;
#X obj 10 10 osc~ 0.06405766586290411;
#X obj 10 58 *~ 0.00310766222375846;
#X obj 10 82 +~ 159.1708646671782;
#X obj 10 106 mtof~;
#X obj 10 130 osc~;
#X obj 10 154 *~ 0.008;
#X obj 10 178 throw~ dacout;
#X connect 0 0 1 0;
#X connect 1 0 2 0;
#X connect 2 0 3 0;
#X connect 3 0 4 0;
#X connect 4 0 5 0;
#X connect 5 0 6 0;
#X restore 10 1474 pd oscil 60;
#N canvas 0 22 450 300 oscil 61 0;
#X obj 10 10 osc~ 0.09931997756085786;
#X obj 10 58 *~ 0.009492258740535883;
#X obj 10 82 +~ 134.88125049124946;
#X obj 10 106 mtof~;
#X obj 10 130 osc~;
#X obj 10 154 *~ 0.0078000000000000005;
#X obj 10 178 throw~ dacout;
#X connect 0 0 1 0;
#X connect 1 0 2 0;
#X connect 2 0 3 0;
#X connect 3 0 4 0;
#X connect 4 0 5 0;
#X connect 5 0 6 0;
#X restore 10 1498 pd oscil 61;
#N canvas 0 22 450 300 oscil 62 0;
#X obj 10 10 osc~ 0.023872520122655574;
#X obj 10 58 *~ 0.029474874097269888;
#X obj 10 82 +~ 91.86260897623166;
#X obj 10 106 mtof~;
#X obj 10 130 osc~;
#X obj 10 154 *~ 0.0076;
#X obj 10 178 throw~ dacout;
#X connect 0 0 1 0;
#X connect 1 0 2 0;
#X connect 2 0 3 0;
#X connect 3 0 4 0;
#X connect 4 0 5 0;
#X connect 5 0 6 0;
#X restore 10 1522 pd oscil 62;
#N canvas 0 22 450 300 oscil 63 0;
#X obj 10 10 osc~ 0.05014998176358015;
#X obj 10 58 *~ 0.031247838333031304;
#X obj 10 82 +~ 163.8943992767413;
#X obj 10 106 mtof~;
#X obj 10 130 osc~;
#X obj 10 154 *~ 0.0074;
#X obj 10 178 throw~ dacout;
#X connect 0 0 1 0;
#X connect 1 0 2 0;
#X connect 2 0 3 0;
#X connect 3 0 4 0;
#X connect 4 0 5 0;
#X connect 5 0 6 0;
#X restore 10 1546 pd oscil 63;
#N canvas 0 22 450 300 oscil 64 0;
#X obj 10 10 osc~ 0.0637957897041165;
#X obj 10 58 *~ 0.030503180539657615;
#X obj 10 82 +~ 72.02491640817723;
#X obj 10 106 mtof~;
#X obj 10 130 osc~;
#X obj 10 154 *~ 0.0072;
#X obj 10 178 throw~ dacout;
#X connect 0 0 1 0;
#X connect 1 0 2 0;
#X connect 2 0 3 0;
#X connect 3 0 4 0;
#X connect 4 0 5 0;
#X connect 5 0 6 0;
#X restore 10 1570 pd oscil 64;
#N canvas 0 22 450 300 oscil 65 0;
#X obj 10 10 osc~ 0.09268370547300503;
#X obj 10 58 *~ 0.022830357931354014;
#X obj 10 82 +~ 153.86911264854677;
#X obj 10 106 mtof~;
#X obj 10 130 osc~;
#X obj 10 154 *~ 0.006999999999999999;
#X obj 10 178 throw~ dacout;
#X connect 0 0 1 0;
#X connect 1 0 2 0;
#X connect 2 0 3 0;
#X connect 3 0 4 0;
#X connect 4 0 5 0;
#X connect 5 0 6 0;
#X restore 10 1594 pd oscil 65;
#N canvas 0 22 450 300 oscil 66 0;
#X obj 10 10 osc~ 0.05152237089867006;
#X obj 10 58 *~ 0.023786441935821034;
#X obj 10 82 +~ 100.75838552030845;
#X obj 10 106 mtof~;
#X obj 10 130 osc~;
#X obj 10 154 *~ 0.0068;
#X obj 10 178 throw~ dacout;
#X connect 0 0 1 0;
#X connect 1 0 2 0;
#X connect 2 0 3 0;
#X connect 3 0 4 0;
#X connect 4 0 5 0;
#X connect 5 0 6 0;
#X restore 10 1618 pd oscil 66;
#N canvas 0 22 450 300 oscil 67 0;
#X obj 10 10 osc~ 0.09227572128843232;
#X obj 10 58 *~ 0.007309578506777978;
#X obj 10 82 +~ 178.67574205066856;
#X obj 10 106 mtof~;
#X obj 10 130 osc~;
#X obj 10 154 *~ 0.006599999999999999;
#X obj 10 178 throw~ dacout;
#X connect 0 0 1 0;
#X connect 1 0 2 0;
#X connect 2 0 3 0;
#X connect 3 0 4 0;
#X connect 4 0 5 0;
#X connect 5 0 6 0;
#X restore 10 1642 pd oscil 67;
#N canvas 0 22 450 300 oscil 68 0;
#X obj 10 10 osc~ 0.07768855893026477;
#X obj 10 58 *~ 0.00437587651338702;
#X obj 10 82 +~ 152.25757309338087;
#X obj 10 106 mtof~;
#X obj 10 130 osc~;
#X obj 10 154 *~ 0.0063999999999999994;
#X obj 10 178 throw~ dacout;
#X connect 0 0 1 0;
#X connect 1 0 2 0;
#X connect 2 0 3 0;
#X connect 3 0 4 0;
#X connect 4 0 5 0;
#X connect 5 0 6 0;
#X restore 10 1666 pd oscil 68;
#N canvas 0 22 450 300 oscil 69 0;
#X obj 10 10 osc~ 0.05550154314962873;
#X obj 10 58 *~ 0.007964463805929436;
#X obj 10 82 +~ 153.92245588384304;
#X obj 10 106 mtof~;
#X obj 10 130 osc~;
#X obj 10 154 *~ 0.0062000000000000015;
#X obj 10 178 throw~ dacout;
#X connect 0 0 1 0;
#X connect 1 0 2 0;
#X connect 2 0 3 0;
#X connect 3 0 4 0;
#X connect 4 0 5 0;
#X connect 5 0 6 0;
#X restore 10 1690 pd oscil 69;
#N canvas 0 22 450 300 oscil 70 0;
#X obj 10 10 osc~ 0.008447552938766667;
#X obj 10 58 *~ 0.02223334557437602;
#X obj 10 82 +~ 175.13844662429983;
#X obj 10 106 mtof~;
#X obj 10 130 osc~;
#X obj 10 154 *~ 0.006000000000000001;
#X obj 10 178 throw~ dacout;
#X connect 0 0 1 0;
#X connect 1 0 2 0;
#X connect 2 0 3 0;
#X connect 3 0 4 0;
#X connect 4 0 5 0;
#X connect 5 0 6 0;
#X restore 10 1714 pd oscil 70;
#N canvas 0 22 450 300 oscil 71 0;
#X obj 10 10 osc~ 0.0988131865323824;
#X obj 10 58 *~ 0.027908997006008053;
#X obj 10 82 +~ 141.79960874214913;
#X obj 10 106 mtof~;
#X obj 10 130 osc~;
#X obj 10 154 *~ 0.0058000000000000005;
#X obj 10 178 throw~ dacout;
#X connect 0 0 1 0;
#X connect 1 0 2 0;
#X connect 2 0 3 0;
#X connect 3 0 4 0;
#X connect 4 0 5 0;
#X connect 5 0 6 0;
#X restore 10 1738 pd oscil 71;
#N canvas 0 22 450 300 oscil 72 0;
#X obj 10 10 osc~ 0.017698206318670483;
#X obj 10 58 *~ 0.007262478998115486;
#X obj 10 82 +~ 166.7815723395923;
#X obj 10 106 mtof~;
#X obj 10 130 osc~;
#X obj 10 154 *~ 0.005600000000000001;
#X obj 10 178 throw~ dacout;
#X connect 0 0 1 0;
#X connect 1 0 2 0;
#X connect 2 0 3 0;
#X connect 3 0 4 0;
#X connect 4 0 5 0;
#X connect 5 0 6 0;
#X restore 10 1762 pd oscil 72;
#N canvas 0 22 450 300 oscil 73 0;
#X obj 10 10 osc~ 0.04916834429400189;
#X obj 10 58 *~ 0.015462711736145827;
#X obj 10 82 +~ 90.50020943540588;
#X obj 10 106 mtof~;
#X obj 10 130 osc~;
#X obj 10 154 *~ 0.0054;
#X obj 10 178 throw~ dacout;
#X connect 0 0 1 0;
#X connect 1 0 2 0;
#X connect 2 0 3 0;
#X connect 3 0 4 0;
#X connect 4 0 5 0;
#X connect 5 0 6 0;
#X restore 10 1786 pd oscil 73;
#N canvas 0 22 450 300 oscil 74 0;
#X obj 10 10 osc~ 0.01449022063700365;
#X obj 10 58 *~ 0.005776171388578066;
#X obj 10 82 +~ 194.43275052562018;
#X obj 10 106 mtof~;
#X obj 10 130 osc~;
#X obj 10 154 *~ 0.005200000000000001;
#X obj 10 178 throw~ dacout;
#X connect 0 0 1 0;
#X connect 1 0 2 0;
#X connect 2 0 3 0;
#X connect 3 0 4 0;
#X connect 4 0 5 0;
#X connect 5 0 6 0;
#X restore 10 1810 pd oscil 74;
#N canvas 0 22 450 300 oscil 75 0;
#X obj 10 10 osc~ 0.07855671866562998;
#X obj 10 58 *~ 0.012899776896860943;
#X obj 10 82 +~ 105.6541193706386;
#X obj 10 106 mtof~;
#X obj 10 130 osc~;
#X obj 10 154 *~ 0.005;
#X obj 10 178 throw~ dacout;
#X connect 0 0 1 0;
#X connect 1 0 2 0;
#X connect 2 0 3 0;
#X connect 3 0 4 0;
#X connect 4 0 5 0;
#X connect 5 0 6 0;
#X restore 10 1834 pd oscil 75;
#N canvas 0 22 450 300 oscil 76 0;
#X obj 10 10 osc~ 0.02642990023718829;
#X obj 10 58 *~ 0.0025079151378298624;
#X obj 10 82 +~ 98.1520883889404;
#X obj 10 106 mtof~;
#X obj 10 130 osc~;
#X obj 10 154 *~ 0.0048;
#X obj 10 178 throw~ dacout;
#X connect 0 0 1 0;
#X connect 1 0 2 0;
#X connect 2 0 3 0;
#X connect 3 0 4 0;
#X connect 4 0 5 0;
#X connect 5 0 6 0;
#X restore 10 1858 pd oscil 76;
#N canvas 0 22 450 300 oscil 77 0;
#X obj 10 10 osc~ 0.04324461795567411;
#X obj 10 58 *~ 0.0013915601388510463;
#X obj 10 82 +~ 87.51310635877473;
#X obj 10 106 mtof~;
#X obj 10 130 osc~;
#X obj 10 154 *~ 0.0046;
#X obj 10 178 throw~ dacout;
#X connect 0 0 1 0;
#X connect 1 0 2 0;
#X connect 2 0 3 0;
#X connect 3 0 4 0;
#X connect 4 0 5 0;
#X connect 5 0 6 0;
#X restore 10 1882 pd oscil 77;
#N canvas 0 22 450 300 oscil 78 0;
#X obj 10 10 osc~ 0.07149949590087906;
#X obj 10 58 *~ 0.007148816686611831;
#X obj 10 82 +~ 135.1801161708801;
#X obj 10 106 mtof~;
#X obj 10 130 osc~;
#X obj 10 154 *~ 0.004399999999999999;
#X obj 10 178 throw~ dacout;
#X connect 0 0 1 0;
#X connect 1 0 2 0;
#X connect 2 0 3 0;
#X connect 3 0 4 0;
#X connect 4 0 5 0;
#X connect 5 0 6 0;
#X restore 10 1906 pd oscil 78;
#N canvas 0 22 450 300 oscil 79 0;
#X obj 10 10 osc~ 0.015578862024371455;
#X obj 10 58 *~ 0.0012379820019328446;
#X obj 10 82 +~ 100.81144963707564;
#X obj 10 106 mtof~;
#X obj 10 130 osc~;
#X obj 10 154 *~ 0.0042;
#X obj 10 178 throw~ dacout;
#X connect 0 0 1 0;
#X connect 1 0 2 0;
#X connect 2 0 3 0;
#X connect 3 0 4 0;
#X connect 4 0 5 0;
#X connect 5 0 6 0;
#X restore 10 1930 pd oscil 79;
#N canvas 0 22 450 300 oscil 80 0;
#X obj 10 10 osc~ 0.0989412337342671;
#X obj 10 58 *~ 0.0026787324416986833;
#X obj 10 82 +~ 106.71942095307834;
#X obj 10 106 mtof~;
#X obj 10 130 osc~;
#X obj 10 154 *~ 0.003999999999999999;
#X obj 10 178 throw~ dacout;
#X connect 0 0 1 0;
#X connect 1 0 2 0;
#X connect 2 0 3 0;
#X connect 3 0 4 0;
#X connect 4 0 5 0;
#X connect 5 0 6 0;
#X restore 10 1954 pd oscil 80;
#N canvas 0 22 450 300 oscil 81 0;
#X obj 10 10 osc~ 0.06994946532969729;
#X obj 10 58 *~ 0.017612628437826308;
#X obj 10 82 +~ 131.16597501494834;
#X obj 10 106 mtof~;
#X obj 10 130 osc~;
#X obj 10 154 *~ 0.003799999999999999;
#X obj 10 178 throw~ dacout;
#X connect 0 0 1 0;
#X connect 1 0 2 0;
#X connect 2 0 3 0;
#X connect 3 0 4 0;
#X connect 4 0 5 0;
#X connect 5 0 6 0;
#X restore 10 1978 pd oscil 81;
#N canvas 0 22 450 300 oscil 82 0;
#X obj 10 10 osc~ 0.07669491173104756;
#X obj 10 58 *~ 0.007676364204694655;
#X obj 10 82 +~ 134.41044750256384;
#X obj 10 106 mtof~;
#X obj 10 130 osc~;
#X obj 10 154 *~ 0.003600000000000001;
#X obj 10 178 throw~ dacout;
#X connect 0 0 1 0;
#X connect 1 0 2 0;
#X connect 2 0 3 0;
#X connect 3 0 4 0;
#X connect 4 0 5 0;
#X connect 5 0 6 0;
#X restore 10 2002 pd oscil 82;
#N canvas 0 22 450 300 oscil 83 0;
#X obj 10 10 osc~ 0.0850856493137041;
#X obj 10 58 *~ 0.019566976223801182;
#X obj 10 82 +~ 71.14663701635111;
#X obj 10 106 mtof~;
#X obj 10 130 osc~;
#X obj 10 154 *~ 0.0034000000000000007;
#X obj 10 178 throw~ dacout;
#X connect 0 0 1 0;
#X connect 1 0 2 0;
#X connect 2 0 3 0;
#X connect 3 0 4 0;
#X connect 4 0 5 0;
#X connect 5 0 6 0;
#X restore 10 2026 pd oscil 83;
#N canvas 0 22 450 300 oscil 84 0;
#X obj 10 10 osc~ 0.04940922400233255;
#X obj 10 58 *~ 0.020791346072644105;
#X obj 10 82 +~ 164.12199206417233;
#X obj 10 106 mtof~;
#X obj 10 130 osc~;
#X obj 10 154 *~ 0.0032000000000000006;
#X obj 10 178 throw~ dacout;
#X connect 0 0 1 0;
#X connect 1 0 2 0;
#X connect 2 0 3 0;
#X connect 3 0 4 0;
#X connect 4 0 5 0;
#X connect 5 0 6 0;
#X restore 10 2050 pd oscil 84;
#N canvas 0 22 450 300 oscil 85 0;
#X obj 10 10 osc~ 0.03615401758359623;
#X obj 10 58 *~ 0.005361118625518468;
#X obj 10 82 +~ 205.8588336124468;
#X obj 10 106 mtof~;
#X obj 10 130 osc~;
#X obj 10 154 *~ 0.0030000000000000005;
#X obj 10 178 throw~ dacout;
#X connect 0 0 1 0;
#X connect 1 0 2 0;
#X connect 2 0 3 0;
#X connect 3 0 4 0;
#X connect 4 0 5 0;
#X connect 5 0 6 0;
#X restore 10 2074 pd oscil 85;
#N canvas 0 22 450 300 oscil 86 0;
#X obj 10 10 osc~ 0.038147189743725496;
#X obj 10 58 *~ 0.020034746840742555;
#X obj 10 82 +~ 124.93839144839347;
#X obj 10 106 mtof~;
#X obj 10 130 osc~;
#X obj 10 154 *~ 0.0028000000000000004;
#X obj 10 178 throw~ dacout;
#X connect 0 0 1 0;
#X connect 1 0 2 0;
#X connect 2 0 3 0;
#X connect 3 0 4 0;
#X connect 4 0 5 0;
#X connect 5 0 6 0;
#X restore 10 2098 pd oscil 86;
#N canvas 0 22 450 300 oscil 87 0;
#X obj 10 10 osc~ 0.05717833448961386;
#X obj 10 58 *~ 0.018512138153151888;
#X obj 10 82 +~ 102.40034862056956;
#X obj 10 106 mtof~;
#X obj 10 130 osc~;
#X obj 10 154 *~ 0.0026000000000000003;
#X obj 10 178 throw~ dacout;
#X connect 0 0 1 0;
#X connect 1 0 2 0;
#X connect 2 0 3 0;
#X connect 3 0 4 0;
#X connect 4 0 5 0;
#X connect 5 0 6 0;
#X restore 10 2122 pd oscil 87;
#N canvas 0 22 450 300 oscil 88 0;
#X obj 10 10 osc~ 0.09113713372637725;
#X obj 10 58 *~ 0.020743153419334005;
#X obj 10 82 +~ 131.23869345950675;
#X obj 10 106 mtof~;
#X obj 10 130 osc~;
#X obj 10 154 *~ 0.0024;
#X obj 10 178 throw~ dacout;
#X connect 0 0 1 0;
#X connect 1 0 2 0;
#X connect 2 0 3 0;
#X connect 3 0 4 0;
#X connect 4 0 5 0;
#X connect 5 0 6 0;
#X restore 10 2146 pd oscil 88;
#N canvas 0 22 450 300 oscil 89 0;
#X obj 10 10 osc~ 0.0935778627654308;
#X obj 10 58 *~ 0.0017652426086509133;
#X obj 10 82 +~ 95.1446750705972;
#X obj 10 106 mtof~;
#X obj 10 130 osc~;
#X obj 10 154 *~ 0.0021999999999999997;
#X obj 10 178 throw~ dacout;
#X connect 0 0 1 0;
#X connect 1 0 2 0;
#X connect 2 0 3 0;
#X connect 3 0 4 0;
#X connect 4 0 5 0;
#X connect 5 0 6 0;
#X restore 10 2170 pd oscil 89;
#N canvas 0 22 450 300 oscil 90 0;
#X obj 10 10 osc~ 0.08922819508690591;
#X obj 10 58 *~ 0.0024404340420484316;
#X obj 10 82 +~ 106.09952162782952;
#X obj 10 106 mtof~;
#X obj 10 130 osc~;
#X obj 10 154 *~ 0.0019999999999999996;
#X obj 10 178 throw~ dacout;
#X connect 0 0 1 0;
#X connect 1 0 2 0;
#X connect 2 0 3 0;
#X connect 3 0 4 0;
#X connect 4 0 5 0;
#X connect 5 0 6 0;
#X restore 10 2194 pd oscil 90;
#N canvas 0 22 450 300 oscil 91 0;
#X obj 10 10 osc~ 0.04431194228104494;
#X obj 10 58 *~ 0.010137185264642674;
#X obj 10 82 +~ 87.09835186836874;
#X obj 10 106 mtof~;
#X obj 10 130 osc~;
#X obj 10 154 *~ 0.0017999999999999995;
#X obj 10 178 throw~ dacout;
#X connect 0 0 1 0;
#X connect 1 0 2 0;
#X connect 2 0 3 0;
#X connect 3 0 4 0;
#X connect 4 0 5 0;
#X connect 5 0 6 0;
#X restore 10 2218 pd oscil 91;
#N canvas 0 22 450 300 oscil 92 0;
#X obj 10 10 osc~ 0.003555391535285546;
#X obj 10 58 *~ 0.008480056871065214;
#X obj 10 82 +~ 191.77234536805423;
#X obj 10 106 mtof~;
#X obj 10 130 osc~;
#X obj 10 154 *~ 0.0015999999999999992;
#X obj 10 178 throw~ dacout;
#X connect 0 0 1 0;
#X connect 1 0 2 0;
#X connect 2 0 3 0;
#X connect 3 0 4 0;
#X connect 4 0 5 0;
#X connect 5 0 6 0;
#X restore 10 2242 pd oscil 92;
#N canvas 0 22 450 300 oscil 93 0;
#X obj 10 10 osc~ 0.013571889759434463;
#X obj 10 58 *~ 0.021131269919016104;
#X obj 10 82 +~ 169.70761896379943;
#X obj 10 106 mtof~;
#X obj 10 130 osc~;
#X obj 10 154 *~ 0.0013999999999999991;
#X obj 10 178 throw~ dacout;
#X connect 0 0 1 0;
#X connect 1 0 2 0;
#X connect 2 0 3 0;
#X connect 3 0 4 0;
#X connect 4 0 5 0;
#X connect 5 0 6 0;
#X restore 10 2266 pd oscil 93;
#N canvas 0 22 450 300 oscil 94 0;
#X obj 10 10 osc~ 0.03824897515297413;
#X obj 10 58 *~ 0.008238969057009231;
#X obj 10 82 +~ 65.30545065165654;
#X obj 10 106 mtof~;
#X obj 10 130 osc~;
#X obj 10 154 *~ 0.0012000000000000012;
#X obj 10 178 throw~ dacout;
#X connect 0 0 1 0;
#X connect 1 0 2 0;
#X connect 2 0 3 0;
#X connect 3 0 4 0;
#X connect 4 0 5 0;
#X connect 5 0 6 0;
#X restore 10 2290 pd oscil 94;
#N canvas 0 22 450 300 oscil 95 0;
#X obj 10 10 osc~ 0.01242567839615093;
#X obj 10 58 *~ 0.007263124958674312;
#X obj 10 82 +~ 207.53839062177897;
#X obj 10 106 mtof~;
#X obj 10 130 osc~;
#X obj 10 154 *~ 0.0010000000000000009;
#X obj 10 178 throw~ dacout;
#X connect 0 0 1 0;
#X connect 1 0 2 0;
#X connect 2 0 3 0;
#X connect 3 0 4 0;
#X connect 4 0 5 0;
#X connect 5 0 6 0;
#X restore 10 2314 pd oscil 95;
#N canvas 0 22 450 300 oscil 96 0;
#X obj 10 10 osc~ 0.028280028403705304;
#X obj 10 58 *~ 0.0006429552455269929;
#X obj 10 82 +~ 71.0264138060302;
#X obj 10 106 mtof~;
#X obj 10 130 osc~;
#X obj 10 154 *~ 0.0008000000000000007;
#X obj 10 178 throw~ dacout;
#X connect 0 0 1 0;
#X connect 1 0 2 0;
#X connect 2 0 3 0;
#X connect 3 0 4 0;
#X connect 4 0 5 0;
#X connect 5 0 6 0;
#X restore 10 2338 pd oscil 96;
#N canvas 0 22 450 300 oscil 97 0;
#X obj 10 10 osc~ 0.08547497280805455;
#X obj 10 58 *~ 0.003356654999581468;
#X obj 10 82 +~ 226.4315006423152;
#X obj 10 106 mtof~;
#X obj 10 130 osc~;
#X obj 10 154 *~ 0.0006000000000000006;
#X obj 10 178 throw~ dacout;
#X connect 0 0 1 0;
#X connect 1 0 2 0;
#X connect 2 0 3 0;
#X connect 3 0 4 0;
#X connect 4 0 5 0;
#X connect 5 0 6 0;
#X restore 10 2362 pd oscil 97;
#N canvas 0 22 450 300 oscil 98 0;
#X obj 10 10 osc~ 0.026180425954470666;
#X obj 10 58 *~ 0.016544840856424572;
#X obj 10 82 +~ 141.6608584690404;
#X obj 10 106 mtof~;
#X obj 10 130 osc~;
#X obj 10 154 *~ 0.00040000000000000034;
#X obj 10 178 throw~ dacout;
#X connect 0 0 1 0;
#X connect 1 0 2 0;
#X connect 2 0 3 0;
#X connect 3 0 4 0;
#X connect 4 0 5 0;
#X connect 5 0 6 0;
#X restore 10 2386 pd oscil 98;
#N canvas 0 22 450 300 oscil 99 0;
#X obj 10 10 osc~ 0.0976212986294514;
#X obj 10 58 *~ 0.0050843462786045075;
#X obj 10 82 +~ 207.61611306125195;
#X obj 10 106 mtof~;
#X obj 10 130 osc~;
#X obj 10 154 *~ 0.00020000000000000017;
#X obj 10 178 throw~ dacout;
#X connect 0 0 1 0;
#X connect 1 0 2 0;
#X connect 2 0 3 0;
#X connect 3 0 4 0;
#X connect 4 0 5 0;
#X connect 5 0 6 0;
#X restore 10 2410 pd oscil 99;
