#N canvas 0 22 450 300 12;
#N canvas 0 22 450 300 loadbang 0;
#X obj 10 10 loadbang;
#X msg 10 68 \; pd dsp 1;
#X connect 0 0 1 0;
#X restore 10 10 pd loadbang;
#N canvas 0 22 450 300 dacout 0;
#X obj 10 10 loadbang;
#X obj 10 68 del 10;
#X msg 10 92 0.8 100;
#X obj 10 116 line~;
#X obj 10 188 catch~ dacout;
#X obj 10 140 *~;
#X obj 10 164 clip~ -0.707 0.707;
#X obj 10 188 dac~ 1;
#X connect 4 0 5 0;
#X connect 5 0 6 0;
#X connect 6 0 7 0;
#X connect 0 0 1 0;
#X connect 1 0 2 0;
#X connect 2 0 3 0;
#X connect 3 0 5 1;
#X restore 10 44 pd dacout;
#N canvas 0 22 450 300 oscil 1 0;
#X obj 10 10 osc~ 0.08622040332418315;
#X obj 10 68 *~ 1.21269917804794;
#X obj 10 92 +~ 65.55306836887432;
#X obj 10 116 mtof~;
#X obj 10 140 osc~;
#X obj 10 164 *~ 0.0198;
#X obj 10 188 throw~ dacout;
#X connect 0 0 1 0;
#X connect 1 0 2 0;
#X connect 2 0 3 0;
#X connect 3 0 4 0;
#X connect 4 0 5 0;
#X connect 5 0 6 0;
#X restore 10 78 pd oscil 1;
#N canvas 0 22 450 300 oscil 2 0;
#X obj 10 10 osc~ 0.0315824002288446;
#X obj 10 68 *~ 0.838254122375503;
#X obj 10 92 +~ 65.33067788202753;
#X obj 10 116 mtof~;
#X obj 10 140 osc~;
#X obj 10 164 *~ 0.0196;
#X obj 10 188 throw~ dacout;
#X connect 0 0 1 0;
#X connect 1 0 2 0;
#X connect 2 0 3 0;
#X connect 3 0 4 0;
#X connect 4 0 5 0;
#X connect 5 0 6 0;
#X restore 10 112 pd oscil 2;
#N canvas 0 22 450 300 oscil 3 0;
#X obj 10 10 osc~ 0.03278820388420789;
#X obj 10 68 *~ 0.0964986384917097;
#X obj 10 92 +~ 67.27904751842964;
#X obj 10 116 mtof~;
#X obj 10 140 osc~;
#X obj 10 164 *~ 0.0194;
#X obj 10 188 throw~ dacout;
#X connect 0 0 1 0;
#X connect 1 0 2 0;
#X connect 2 0 3 0;
#X connect 3 0 4 0;
#X connect 4 0 5 0;
#X connect 5 0 6 0;
#X restore 10 146 pd oscil 3;
#N canvas 0 22 450 300 oscil 4 0;
#X obj 10 10 osc~ 0.06394934368932889;
#X obj 10 68 *~ 0.3905698771702809;
#X obj 10 92 +~ 69.6485490589343;
#X obj 10 116 mtof~;
#X obj 10 140 osc~;
#X obj 10 164 *~ 0.0192;
#X obj 10 188 throw~ dacout;
#X connect 0 0 1 0;
#X connect 1 0 2 0;
#X connect 2 0 3 0;
#X connect 3 0 4 0;
#X connect 4 0 5 0;
#X connect 5 0 6 0;
#X restore 10 180 pd oscil 4;
#N canvas 0 22 450 300 oscil 5 0;
#X obj 10 10 osc~ 0.005476861890657015;
#X obj 10 68 *~ 0.1237738360239526;
#X obj 10 92 +~ 65.15747347840616;
#X obj 10 116 mtof~;
#X obj 10 140 osc~;
#X obj 10 164 *~ 0.019;
#X obj 10 188 throw~ dacout;
#X connect 0 0 1 0;
#X connect 1 0 2 0;
#X connect 2 0 3 0;
#X connect 3 0 4 0;
#X connect 4 0 5 0;
#X connect 5 0 6 0;
#X restore 10 214 pd oscil 5;
#N canvas 0 22 450 300 oscil 6 0;
#X obj 10 10 osc~ 0.06598281782318881;
#X obj 10 68 *~ 0.11551187509429979;
#X obj 10 92 +~ 68.5767953190242;
#X obj 10 116 mtof~;
#X obj 10 140 osc~;
#X obj 10 164 *~ 0.0188;
#X obj 10 188 throw~ dacout;
#X connect 0 0 1 0;
#X connect 1 0 2 0;
#X connect 2 0 3 0;
#X connect 3 0 4 0;
#X connect 4 0 5 0;
#X connect 5 0 6 0;
#X restore 10 248 pd oscil 6;
#N canvas 0 22 450 300 oscil 7 0;
#X obj 10 10 osc~ 0.027922843093188078;
#X obj 10 68 *~ 0.16349563616445512;
#X obj 10 92 +~ 72.32416296424023;
#X obj 10 116 mtof~;
#X obj 10 140 osc~;
#X obj 10 164 *~ 0.0186;
#X obj 10 188 throw~ dacout;
#X connect 0 0 1 0;
#X connect 1 0 2 0;
#X connect 2 0 3 0;
#X connect 3 0 4 0;
#X connect 4 0 5 0;
#X connect 5 0 6 0;
#X restore 10 282 pd oscil 7;
#N canvas 0 22 450 300 oscil 8 0;
#X obj 10 10 osc~ 0.09839941023550886;
#X obj 10 68 *~ 0.17944175182987357;
#X obj 10 92 +~ 77.01820704137516;
#X obj 10 116 mtof~;
#X obj 10 140 osc~;
#X obj 10 164 *~ 0.0184;
#X obj 10 188 throw~ dacout;
#X connect 0 0 1 0;
#X connect 1 0 2 0;
#X connect 2 0 3 0;
#X connect 3 0 4 0;
#X connect 4 0 5 0;
#X connect 5 0 6 0;
#X restore 10 316 pd oscil 8;
#N canvas 0 22 450 300 oscil 9 0;
#X obj 10 10 osc~ 0.021774589202573802;
#X obj 10 68 *~ 0.11832935564243124;
#X obj 10 92 +~ 69.79411587674562;
#X obj 10 116 mtof~;
#X obj 10 140 osc~;
#X obj 10 164 *~ 0.0182;
#X obj 10 188 throw~ dacout;
#X connect 0 0 1 0;
#X connect 1 0 2 0;
#X connect 2 0 3 0;
#X connect 3 0 4 0;
#X connect 4 0 5 0;
#X connect 5 0 6 0;
#X restore 10 350 pd oscil 9;
#N canvas 0 22 450 300 oscil 10 0;
#X obj 10 10 osc~ 0.09373881136097095;
#X obj 10 68 *~ 0.13997843410064328;
#X obj 10 92 +~ 69.5220755780088;
#X obj 10 116 mtof~;
#X obj 10 140 osc~;
#X obj 10 164 *~ 0.018000000000000002;
#X obj 10 188 throw~ dacout;
#X connect 0 0 1 0;
#X connect 1 0 2 0;
#X connect 2 0 3 0;
#X connect 3 0 4 0;
#X connect 4 0 5 0;
#X connect 5 0 6 0;
#X restore 10 384 pd oscil 10;
#N canvas 0 22 450 300 oscil 11 0;
#X obj 10 10 osc~ 0.028651950915288306;
#X obj 10 68 *~ 0.005035606072798313;
#X obj 10 92 +~ 70.00227185556506;
#X obj 10 116 mtof~;
#X obj 10 140 osc~;
#X obj 10 164 *~ 0.0178;
#X obj 10 188 throw~ dacout;
#X connect 0 0 1 0;
#X connect 1 0 2 0;
#X connect 2 0 3 0;
#X connect 3 0 4 0;
#X connect 4 0 5 0;
#X connect 5 0 6 0;
#X restore 10 418 pd oscil 11;
#N canvas 0 22 450 300 oscil 12 0;
#X obj 10 10 osc~ 0.04467967792381468;
#X obj 10 68 *~ 0.0584165431641584;
#X obj 10 92 +~ 65.49559558847642;
#X obj 10 116 mtof~;
#X obj 10 140 osc~;
#X obj 10 164 *~ 0.0176;
#X obj 10 188 throw~ dacout;
#X connect 0 0 1 0;
#X connect 1 0 2 0;
#X connect 2 0 3 0;
#X connect 3 0 4 0;
#X connect 4 0 5 0;
#X connect 5 0 6 0;
#X restore 10 452 pd oscil 12;
#N canvas 0 22 450 300 oscil 13 0;
#X obj 10 10 osc~ 0.027047921382073348;
#X obj 10 68 *~ 0.03560192599810612;
#X obj 10 92 +~ 66.54325577442194;
#X obj 10 116 mtof~;
#X obj 10 140 osc~;
#X obj 10 164 *~ 0.0174;
#X obj 10 188 throw~ dacout;
#X connect 0 0 1 0;
#X connect 1 0 2 0;
#X connect 2 0 3 0;
#X connect 3 0 4 0;
#X connect 4 0 5 0;
#X connect 5 0 6 0;
#X restore 10 486 pd oscil 13;
#N canvas 0 22 450 300 oscil 14 0;
#X obj 10 10 osc~ 0.03754989994522293;
#X obj 10 68 *~ 0.0909448049668625;
#X obj 10 92 +~ 77.02477894393084;
#X obj 10 116 mtof~;
#X obj 10 140 osc~;
#X obj 10 164 *~ 0.0172;
#X obj 10 188 throw~ dacout;
#X connect 0 0 1 0;
#X connect 1 0 2 0;
#X connect 2 0 3 0;
#X connect 3 0 4 0;
#X connect 4 0 5 0;
#X connect 5 0 6 0;
#X restore 10 520 pd oscil 14;
#N canvas 0 22 450 300 oscil 15 0;
#X obj 10 10 osc~ 0.023111389702625718;
#X obj 10 68 *~ 0.0955089530463513;
#X obj 10 92 +~ 71.10819251011777;
#X obj 10 116 mtof~;
#X obj 10 140 osc~;
#X obj 10 164 *~ 0.017;
#X obj 10 188 throw~ dacout;
#X connect 0 0 1 0;
#X connect 1 0 2 0;
#X connect 2 0 3 0;
#X connect 3 0 4 0;
#X connect 4 0 5 0;
#X connect 5 0 6 0;
#X restore 10 554 pd oscil 15;
#N canvas 0 22 450 300 oscil 16 0;
#X obj 10 10 osc~ 0.016360901565385323;
#X obj 10 68 *~ 0.038924882552217016;
#X obj 10 92 +~ 85.11566485999802;
#X obj 10 116 mtof~;
#X obj 10 140 osc~;
#X obj 10 164 *~ 0.0168;
#X obj 10 188 throw~ dacout;
#X connect 0 0 1 0;
#X connect 1 0 2 0;
#X connect 2 0 3 0;
#X connect 3 0 4 0;
#X connect 4 0 5 0;
#X connect 5 0 6 0;
#X restore 10 588 pd oscil 16;
#N canvas 0 22 450 300 oscil 17 0;
#X obj 10 10 osc~ 0.09583868422823624;
#X obj 10 68 *~ 0.03287590613567081;
#X obj 10 92 +~ 81.45563448447653;
#X obj 10 116 mtof~;
#X obj 10 140 osc~;
#X obj 10 164 *~ 0.0166;
#X obj 10 188 throw~ dacout;
#X connect 0 0 1 0;
#X connect 1 0 2 0;
#X connect 2 0 3 0;
#X connect 3 0 4 0;
#X connect 4 0 5 0;
#X connect 5 0 6 0;
#X restore 10 622 pd oscil 17;
#N canvas 0 22 450 300 oscil 18 0;
#X obj 10 10 osc~ 0.06391690017021456;
#X obj 10 68 *~ 0.0519946675711093;
#X obj 10 92 +~ 84.55320734693098;
#X obj 10 116 mtof~;
#X obj 10 140 osc~;
#X obj 10 164 *~ 0.0164;
#X obj 10 188 throw~ dacout;
#X connect 0 0 1 0;
#X connect 1 0 2 0;
#X connect 2 0 3 0;
#X connect 3 0 4 0;
#X connect 4 0 5 0;
#X connect 5 0 6 0;
#X restore 10 656 pd oscil 18;
#N canvas 0 22 450 300 oscil 19 0;
#X obj 10 10 osc~ 0.09839653717404115;
#X obj 10 68 *~ 0.004249047879776921;
#X obj 10 92 +~ 93.46721559652256;
#X obj 10 116 mtof~;
#X obj 10 140 osc~;
#X obj 10 164 *~ 0.016200000000000003;
#X obj 10 188 throw~ dacout;
#X connect 0 0 1 0;
#X connect 1 0 2 0;
#X connect 2 0 3 0;
#X connect 3 0 4 0;
#X connect 4 0 5 0;
#X connect 5 0 6 0;
#X restore 10 690 pd oscil 19;
#N canvas 0 22 450 300 oscil 20 0;
#X obj 10 10 osc~ 0.0013968747155967854;
#X obj 10 68 *~ 0.08998937424445849;
#X obj 10 92 +~ 91.19797270602362;
#X obj 10 116 mtof~;
#X obj 10 140 osc~;
#X obj 10 164 *~ 0.016;
#X obj 10 188 throw~ dacout;
#X connect 0 0 1 0;
#X connect 1 0 2 0;
#X connect 2 0 3 0;
#X connect 3 0 4 0;
#X connect 4 0 5 0;
#X connect 5 0 6 0;
#X restore 10 724 pd oscil 20;
#N canvas 0 22 450 300 oscil 21 0;
#X obj 10 10 osc~ 0.05602302605789638;
#X obj 10 68 *~ 0.03747213532048134;
#X obj 10 92 +~ 83.62652989907639;
#X obj 10 116 mtof~;
#X obj 10 140 osc~;
#X obj 10 164 *~ 0.0158;
#X obj 10 188 throw~ dacout;
#X connect 0 0 1 0;
#X connect 1 0 2 0;
#X connect 2 0 3 0;
#X connect 3 0 4 0;
#X connect 4 0 5 0;
#X connect 5 0 6 0;
#X restore 10 758 pd oscil 21;
#N canvas 0 22 450 300 oscil 22 0;
#X obj 10 10 osc~ 0.06109783242423309;
#X obj 10 68 *~ 0.054522224757236365;
#X obj 10 92 +~ 96.93785169433338;
#X obj 10 116 mtof~;
#X obj 10 140 osc~;
#X obj 10 164 *~ 0.015600000000000001;
#X obj 10 188 throw~ dacout;
#X connect 0 0 1 0;
#X connect 1 0 2 0;
#X connect 2 0 3 0;
#X connect 3 0 4 0;
#X connect 4 0 5 0;
#X connect 5 0 6 0;
#X restore 10 792 pd oscil 22;
#N canvas 0 22 450 300 oscil 23 0;
#X obj 10 10 osc~ 0.00611989497462705;
#X obj 10 68 *~ 0.08572534041818035;
#X obj 10 92 +~ 95.20067038615188;
#X obj 10 116 mtof~;
#X obj 10 140 osc~;
#X obj 10 164 *~ 0.0154;
#X obj 10 188 throw~ dacout;
#X connect 0 0 1 0;
#X connect 1 0 2 0;
#X connect 2 0 3 0;
#X connect 3 0 4 0;
#X connect 4 0 5 0;
#X connect 5 0 6 0;
#X restore 10 826 pd oscil 23;
#N canvas 0 22 450 300 oscil 24 0;
#X obj 10 10 osc~ 0.09620736682454217;
#X obj 10 68 *~ 0.05784976257874578;
#X obj 10 92 +~ 71.07510867730647;
#X obj 10 116 mtof~;
#X obj 10 140 osc~;
#X obj 10 164 *~ 0.0152;
#X obj 10 188 throw~ dacout;
#X connect 0 0 1 0;
#X connect 1 0 2 0;
#X connect 2 0 3 0;
#X connect 3 0 4 0;
#X connect 4 0 5 0;
#X connect 5 0 6 0;
#X restore 10 860 pd oscil 24;
#N canvas 0 22 450 300 oscil 25 0;
#X obj 10 10 osc~ 0.06163991467850949;
#X obj 10 68 *~ 0.02353267070828715;
#X obj 10 92 +~ 82.91213440127933;
#X obj 10 116 mtof~;
#X obj 10 140 osc~;
#X obj 10 164 *~ 0.015;
#X obj 10 188 throw~ dacout;
#X connect 0 0 1 0;
#X connect 1 0 2 0;
#X connect 2 0 3 0;
#X connect 3 0 4 0;
#X connect 4 0 5 0;
#X connect 5 0 6 0;
#X restore 10 894 pd oscil 25;
#N canvas 0 22 450 300 oscil 26 0;
#X obj 10 10 osc~ 0.05028840276769451;
#X obj 10 68 *~ 0.04682639934308351;
#X obj 10 92 +~ 67.73225296585983;
#X obj 10 116 mtof~;
#X obj 10 140 osc~;
#X obj 10 164 *~ 0.0148;
#X obj 10 188 throw~ dacout;
#X connect 0 0 1 0;
#X connect 1 0 2 0;
#X connect 2 0 3 0;
#X connect 3 0 4 0;
#X connect 4 0 5 0;
#X connect 5 0 6 0;
#X restore 10 928 pd oscil 26;
#N canvas 0 22 450 300 oscil 27 0;
#X obj 10 10 osc~ 0.09746419509933224;
#X obj 10 68 *~ 0.06564570116703072;
#X obj 10 92 +~ 97.46875927443243;
#X obj 10 116 mtof~;
#X obj 10 140 osc~;
#X obj 10 164 *~ 0.0146;
#X obj 10 188 throw~ dacout;
#X connect 0 0 1 0;
#X connect 1 0 2 0;
#X connect 2 0 3 0;
#X connect 3 0 4 0;
#X connect 4 0 5 0;
#X connect 5 0 6 0;
#X restore 10 962 pd oscil 27;
#N canvas 0 22 450 300 oscil 28 0;
#X obj 10 10 osc~ 0.049291581706730626;
#X obj 10 68 *~ 0.028068608343793537;
#X obj 10 92 +~ 73.75913154322573;
#X obj 10 116 mtof~;
#X obj 10 140 osc~;
#X obj 10 164 *~ 0.0144;
#X obj 10 188 throw~ dacout;
#X connect 0 0 1 0;
#X connect 1 0 2 0;
#X connect 2 0 3 0;
#X connect 3 0 4 0;
#X connect 4 0 5 0;
#X connect 5 0 6 0;
#X restore 10 996 pd oscil 28;
#N canvas 0 22 450 300 oscil 29 0;
#X obj 10 10 osc~ 0.07624266303020817;
#X obj 10 68 *~ 0.02018261273090154;
#X obj 10 92 +~ 72.41912057999099;
#X obj 10 116 mtof~;
#X obj 10 140 osc~;
#X obj 10 164 *~ 0.014199999999999999;
#X obj 10 188 throw~ dacout;
#X connect 0 0 1 0;
#X connect 1 0 2 0;
#X connect 2 0 3 0;
#X connect 3 0 4 0;
#X connect 4 0 5 0;
#X connect 5 0 6 0;
#X restore 10 1030 pd oscil 29;
#N canvas 0 22 450 300 oscil 30 0;
#X obj 10 10 osc~ 0.02119736191923163;
#X obj 10 68 *~ 0.014468465459782264;
#X obj 10 92 +~ 115.26897828247644;
#X obj 10 116 mtof~;
#X obj 10 140 osc~;
#X obj 10 164 *~ 0.013999999999999999;
#X obj 10 188 throw~ dacout;
#X connect 0 0 1 0;
#X connect 1 0 2 0;
#X connect 2 0 3 0;
#X connect 3 0 4 0;
#X connect 4 0 5 0;
#X connect 5 0 6 0;
#X restore 10 1064 pd oscil 30;
#N canvas 0 22 450 300 oscil 31 0;
#X obj 10 10 osc~ 0.019180976506670458;
#X obj 10 68 *~ 0.0039050690469824728;
#X obj 10 92 +~ 92.46779054560429;
#X obj 10 116 mtof~;
#X obj 10 140 osc~;
#X obj 10 164 *~ 0.0138;
#X obj 10 188 throw~ dacout;
#X connect 0 0 1 0;
#X connect 1 0 2 0;
#X connect 2 0 3 0;
#X connect 3 0 4 0;
#X connect 4 0 5 0;
#X connect 5 0 6 0;
#X restore 10 1098 pd oscil 31;
#N canvas 0 22 450 300 oscil 32 0;
#X obj 10 10 osc~ 0.09273549334425632;
#X obj 10 68 *~ 0.05640755322055078;
#X obj 10 92 +~ 74.53017227239876;
#X obj 10 116 mtof~;
#X obj 10 140 osc~;
#X obj 10 164 *~ 0.0136;
#X obj 10 188 throw~ dacout;
#X connect 0 0 1 0;
#X connect 1 0 2 0;
#X connect 2 0 3 0;
#X connect 3 0 4 0;
#X connect 4 0 5 0;
#X connect 5 0 6 0;
#X restore 10 1132 pd oscil 32;
#N canvas 0 22 450 300 oscil 33 0;
#X obj 10 10 osc~ 0.03170558416594097;
#X obj 10 68 *~ 0.03269268140096336;
#X obj 10 92 +~ 120.61146728167105;
#X obj 10 116 mtof~;
#X obj 10 140 osc~;
#X obj 10 164 *~ 0.013399999999999999;
#X obj 10 188 throw~ dacout;
#X connect 0 0 1 0;
#X connect 1 0 2 0;
#X connect 2 0 3 0;
#X connect 3 0 4 0;
#X connect 4 0 5 0;
#X connect 5 0 6 0;
#X restore 10 1166 pd oscil 33;
#N canvas 0 22 450 300 oscil 34 0;
#X obj 10 10 osc~ 0.07027590420573082;
#X obj 10 68 *~ 0.04247162330854066;
#X obj 10 92 +~ 110.153938780013;
#X obj 10 116 mtof~;
#X obj 10 140 osc~;
#X obj 10 164 *~ 0.013199999999999998;
#X obj 10 188 throw~ dacout;
#X connect 0 0 1 0;
#X connect 1 0 2 0;
#X connect 2 0 3 0;
#X connect 3 0 4 0;
#X connect 4 0 5 0;
#X connect 5 0 6 0;
#X restore 10 1200 pd oscil 34;
#N canvas 0 22 450 300 oscil 35 0;
#X obj 10 10 osc~ 0.054592098065408705;
#X obj 10 68 *~ 0.05215124355577834;
#X obj 10 92 +~ 123.92174077935647;
#X obj 10 116 mtof~;
#X obj 10 140 osc~;
#X obj 10 164 *~ 0.013000000000000001;
#X obj 10 188 throw~ dacout;
#X connect 0 0 1 0;
#X connect 1 0 2 0;
#X connect 2 0 3 0;
#X connect 3 0 4 0;
#X connect 4 0 5 0;
#X connect 5 0 6 0;
#X restore 10 1234 pd oscil 35;
#N canvas 0 22 450 300 oscil 36 0;
#X obj 10 10 osc~ 0.012992849425701182;
#X obj 10 68 *~ 0.0398760661688969;
#X obj 10 92 +~ 72.89206575715903;
#X obj 10 116 mtof~;
#X obj 10 140 osc~;
#X obj 10 164 *~ 0.0128;
#X obj 10 188 throw~ dacout;
#X connect 0 0 1 0;
#X connect 1 0 2 0;
#X connect 2 0 3 0;
#X connect 3 0 4 0;
#X connect 4 0 5 0;
#X connect 5 0 6 0;
#X restore 10 1268 pd oscil 36;
#N canvas 0 22 450 300 oscil 37 0;
#X obj 10 10 osc~ 0.030191813103157196;
#X obj 10 68 *~ 0.014100396861203008;
#X obj 10 92 +~ 66.14618676248922;
#X obj 10 116 mtof~;
#X obj 10 140 osc~;
#X obj 10 164 *~ 0.0126;
#X obj 10 188 throw~ dacout;
#X connect 0 0 1 0;
#X connect 1 0 2 0;
#X connect 2 0 3 0;
#X connect 3 0 4 0;
#X connect 4 0 5 0;
#X connect 5 0 6 0;
#X restore 10 1302 pd oscil 37;
#N canvas 0 22 450 300 oscil 38 0;
#X obj 10 10 osc~ 0.04292011411722331;
#X obj 10 68 *~ 0.02564769250112148;
#X obj 10 92 +~ 85.00380283285601;
#X obj 10 116 mtof~;
#X obj 10 140 osc~;
#X obj 10 164 *~ 0.0124;
#X obj 10 188 throw~ dacout;
#X connect 0 0 1 0;
#X connect 1 0 2 0;
#X connect 2 0 3 0;
#X connect 3 0 4 0;
#X connect 4 0 5 0;
#X connect 5 0 6 0;
#X restore 10 1336 pd oscil 38;
#N canvas 0 22 450 300 oscil 39 0;
#X obj 10 10 osc~ 0.09130755661676614;
#X obj 10 68 *~ 0.028176888834337357;
#X obj 10 92 +~ 81.83166706814882;
#X obj 10 116 mtof~;
#X obj 10 140 osc~;
#X obj 10 164 *~ 0.0122;
#X obj 10 188 throw~ dacout;
#X connect 0 0 1 0;
#X connect 1 0 2 0;
#X connect 2 0 3 0;
#X connect 3 0 4 0;
#X connect 4 0 5 0;
#X connect 5 0 6 0;
#X restore 10 1370 pd oscil 39;
#N canvas 0 22 450 300 oscil 40 0;
#X obj 10 10 osc~ 0.025323290266201604;
#X obj 10 68 *~ 0.017594751414758573;
#X obj 10 92 +~ 70.32911425862122;
#X obj 10 116 mtof~;
#X obj 10 140 osc~;
#X obj 10 164 *~ 0.012;
#X obj 10 188 throw~ dacout;
#X connect 0 0 1 0;
#X connect 1 0 2 0;
#X connect 2 0 3 0;
#X connect 3 0 4 0;
#X connect 4 0 5 0;
#X connect 5 0 6 0;
#X restore 10 1404 pd oscil 40;
#N canvas 0 22 450 300 oscil 41 0;
#X obj 10 10 osc~ 0.03775898677662906;
#X obj 10 68 *~ 0.00974988342745543;
#X obj 10 92 +~ 66.6669635391489;
#X obj 10 116 mtof~;
#X obj 10 140 osc~;
#X obj 10 164 *~ 0.011800000000000001;
#X obj 10 188 throw~ dacout;
#X connect 0 0 1 0;
#X connect 1 0 2 0;
#X connect 2 0 3 0;
#X connect 3 0 4 0;
#X connect 4 0 5 0;
#X connect 5 0 6 0;
#X restore 10 1438 pd oscil 41;
#N canvas 0 22 450 300 oscil 42 0;
#X obj 10 10 osc~ 0.07319095173132437;
#X obj 10 68 *~ 0.033549358206985694;
#X obj 10 92 +~ 134.4696806119333;
#X obj 10 116 mtof~;
#X obj 10 140 osc~;
#X obj 10 164 *~ 0.011600000000000001;
#X obj 10 188 throw~ dacout;
#X connect 0 0 1 0;
#X connect 1 0 2 0;
#X connect 2 0 3 0;
#X connect 3 0 4 0;
#X connect 4 0 5 0;
#X connect 5 0 6 0;
#X restore 10 1472 pd oscil 42;
#N canvas 0 22 450 300 oscil 43 0;
#X obj 10 10 osc~ 0.08732799979856501;
#X obj 10 68 *~ 0.019627416820961006;
#X obj 10 92 +~ 138.35652343431087;
#X obj 10 116 mtof~;
#X obj 10 140 osc~;
#X obj 10 164 *~ 0.011400000000000002;
#X obj 10 188 throw~ dacout;
#X connect 0 0 1 0;
#X connect 1 0 2 0;
#X connect 2 0 3 0;
#X connect 3 0 4 0;
#X connect 4 0 5 0;
#X connect 5 0 6 0;
#X restore 10 1506 pd oscil 43;
#N canvas 0 22 450 300 oscil 44 0;
#X obj 10 10 osc~ 0.08235098814451955;
#X obj 10 68 *~ 0.0013647022914571973;
#X obj 10 92 +~ 103.51459789808217;
#X obj 10 116 mtof~;
#X obj 10 140 osc~;
#X obj 10 164 *~ 0.011200000000000002;
#X obj 10 188 throw~ dacout;
#X connect 0 0 1 0;
#X connect 1 0 2 0;
#X connect 2 0 3 0;
#X connect 3 0 4 0;
#X connect 4 0 5 0;
#X connect 5 0 6 0;
#X restore 10 1540 pd oscil 44;
#N canvas 0 22 450 300 oscil 45 0;
#X obj 10 10 osc~ 0.09033783529642658;
#X obj 10 68 *~ 0.012597733781839576;
#X obj 10 92 +~ 71.86530002984122;
#X obj 10 116 mtof~;
#X obj 10 140 osc~;
#X obj 10 164 *~ 0.011000000000000001;
#X obj 10 188 throw~ dacout;
#X connect 0 0 1 0;
#X connect 1 0 2 0;
#X connect 2 0 3 0;
#X connect 3 0 4 0;
#X connect 4 0 5 0;
#X connect 5 0 6 0;
#X restore 10 1574 pd oscil 45;
#N canvas 0 22 450 300 oscil 46 0;
#X obj 10 10 osc~ 0.011342463093093625;
#X obj 10 68 *~ 0.0024794932449998773;
#X obj 10 92 +~ 121.21199674792541;
#X obj 10 116 mtof~;
#X obj 10 140 osc~;
#X obj 10 164 *~ 0.0108;
#X obj 10 188 throw~ dacout;
#X connect 0 0 1 0;
#X connect 1 0 2 0;
#X connect 2 0 3 0;
#X connect 3 0 4 0;
#X connect 4 0 5 0;
#X connect 5 0 6 0;
#X restore 10 1608 pd oscil 46;
#N canvas 0 22 450 300 oscil 47 0;
#X obj 10 10 osc~ 0.06264480608087779;
#X obj 10 68 *~ 0.024215303769933066;
#X obj 10 92 +~ 95.18413223210604;
#X obj 10 116 mtof~;
#X obj 10 140 osc~;
#X obj 10 164 *~ 0.0106;
#X obj 10 188 throw~ dacout;
#X connect 0 0 1 0;
#X connect 1 0 2 0;
#X connect 2 0 3 0;
#X connect 3 0 4 0;
#X connect 4 0 5 0;
#X connect 5 0 6 0;
#X restore 10 1642 pd oscil 47;
#N canvas 0 22 450 300 oscil 48 0;
#X obj 10 10 osc~ 0.07143502584710425;
#X obj 10 68 *~ 0.021640622554999444;
#X obj 10 92 +~ 133.196666076225;
#X obj 10 116 mtof~;
#X obj 10 140 osc~;
#X obj 10 164 *~ 0.010400000000000001;
#X obj 10 188 throw~ dacout;
#X connect 0 0 1 0;
#X connect 1 0 2 0;
#X connect 2 0 3 0;
#X connect 3 0 4 0;
#X connect 4 0 5 0;
#X connect 5 0 6 0;
#X restore 10 1676 pd oscil 48;
#N canvas 0 22 450 300 oscil 49 0;
#X obj 10 10 osc~ 0.018913172175782124;
#X obj 10 68 *~ 0.03116282419185587;
#X obj 10 92 +~ 128.1731587187325;
#X obj 10 116 mtof~;
#X obj 10 140 osc~;
#X obj 10 164 *~ 0.0102;
#X obj 10 188 throw~ dacout;
#X connect 0 0 1 0;
#X connect 1 0 2 0;
#X connect 2 0 3 0;
#X connect 3 0 4 0;
#X connect 4 0 5 0;
#X connect 5 0 6 0;
#X restore 10 1710 pd oscil 49;
#N canvas 0 22 450 300 oscil 50 0;
#X obj 10 10 osc~ 0.07719956111029752;
#X obj 10 68 *~ 0.0010513613334867645;
#X obj 10 92 +~ 65.69987624204539;
#X obj 10 116 mtof~;
#X obj 10 140 osc~;
#X obj 10 164 *~ 0.01;
#X obj 10 188 throw~ dacout;
#X connect 0 0 1 0;
#X connect 1 0 2 0;
#X connect 2 0 3 0;
#X connect 3 0 4 0;
#X connect 4 0 5 0;
#X connect 5 0 6 0;
#X restore 10 1744 pd oscil 50;
#N canvas 0 22 450 300 oscil 51 0;
#X obj 10 10 osc~ 0.09742325878521774;
#X obj 10 68 *~ 0.03495579577831839;
#X obj 10 92 +~ 114.43302191872925;
#X obj 10 116 mtof~;
#X obj 10 140 osc~;
#X obj 10 164 *~ 0.0098;
#X obj 10 188 throw~ dacout;
#X connect 0 0 1 0;
#X connect 1 0 2 0;
#X connect 2 0 3 0;
#X connect 3 0 4 0;
#X connect 4 0 5 0;
#X connect 5 0 6 0;
#X restore 10 1778 pd oscil 51;
#N canvas 0 22 450 300 oscil 52 0;
#X obj 10 10 osc~ 0.0912681224321139;
#X obj 10 68 *~ 0.006881851147304996;
#X obj 10 92 +~ 121.96339591622832;
#X obj 10 116 mtof~;
#X obj 10 140 osc~;
#X obj 10 164 *~ 0.0096;
#X obj 10 188 throw~ dacout;
#X connect 0 0 1 0;
#X connect 1 0 2 0;
#X connect 2 0 3 0;
#X connect 3 0 4 0;
#X connect 4 0 5 0;
#X connect 5 0 6 0;
#X restore 10 1812 pd oscil 52;
#N canvas 0 22 450 300 oscil 53 0;
#X obj 10 10 osc~ 0.04214522447311181;
#X obj 10 68 *~ 0.03235941517754891;
#X obj 10 92 +~ 138.6300598378433;
#X obj 10 116 mtof~;
#X obj 10 140 osc~;
#X obj 10 164 *~ 0.0094;
#X obj 10 188 throw~ dacout;
#X connect 0 0 1 0;
#X connect 1 0 2 0;
#X connect 2 0 3 0;
#X connect 3 0 4 0;
#X connect 4 0 5 0;
#X connect 5 0 6 0;
#X restore 10 1846 pd oscil 53;
#N canvas 0 22 450 300 oscil 54 0;
#X obj 10 10 osc~ 0.03600424101255471;
#X obj 10 68 *~ 0.03409849881346464;
#X obj 10 92 +~ 139.7594443655758;
#X obj 10 116 mtof~;
#X obj 10 140 osc~;
#X obj 10 164 *~ 0.0092;
#X obj 10 188 throw~ dacout;
#X connect 0 0 1 0;
#X connect 1 0 2 0;
#X connect 2 0 3 0;
#X connect 3 0 4 0;
#X connect 4 0 5 0;
#X connect 5 0 6 0;
#X restore 10 1880 pd oscil 54;
#N canvas 0 22 450 300 oscil 55 0;
#X obj 10 10 osc~ 0.040949224630205144;
#X obj 10 68 *~ 0.021091377562116775;
#X obj 10 92 +~ 157.61483158113646;
#X obj 10 116 mtof~;
#X obj 10 140 osc~;
#X obj 10 164 *~ 0.009;
#X obj 10 188 throw~ dacout;
#X connect 0 0 1 0;
#X connect 1 0 2 0;
#X connect 2 0 3 0;
#X connect 3 0 4 0;
#X connect 4 0 5 0;
#X connect 5 0 6 0;
#X restore 10 1914 pd oscil 55;
#N canvas 0 22 450 300 oscil 56 0;
#X obj 10 10 osc~ 0.014302005315670652;
#X obj 10 68 *~ 0.02513117737238359;
#X obj 10 92 +~ 85.10088981171027;
#X obj 10 116 mtof~;
#X obj 10 140 osc~;
#X obj 10 164 *~ 0.008799999999999999;
#X obj 10 188 throw~ dacout;
#X connect 0 0 1 0;
#X connect 1 0 2 0;
#X connect 2 0 3 0;
#X connect 3 0 4 0;
#X connect 4 0 5 0;
#X connect 5 0 6 0;
#X restore 10 1948 pd oscil 56;
#N canvas 0 22 450 300 oscil 57 0;
#X obj 10 10 osc~ 0.07057851808886526;
#X obj 10 68 *~ 0.033647112326375656;
#X obj 10 92 +~ 103.57493676208809;
#X obj 10 116 mtof~;
#X obj 10 140 osc~;
#X obj 10 164 *~ 0.008600000000000002;
#X obj 10 188 throw~ dacout;
#X connect 0 0 1 0;
#X connect 1 0 2 0;
#X connect 2 0 3 0;
#X connect 3 0 4 0;
#X connect 4 0 5 0;
#X connect 5 0 6 0;
#X restore 10 1982 pd oscil 57;
#N canvas 0 22 450 300 oscil 58 0;
#X obj 10 10 osc~ 0.07340644059528244;
#X obj 10 68 *~ 0.027747330984745286;
#X obj 10 92 +~ 99.60197751695814;
#X obj 10 116 mtof~;
#X obj 10 140 osc~;
#X obj 10 164 *~ 0.008400000000000001;
#X obj 10 188 throw~ dacout;
#X connect 0 0 1 0;
#X connect 1 0 2 0;
#X connect 2 0 3 0;
#X connect 3 0 4 0;
#X connect 4 0 5 0;
#X connect 5 0 6 0;
#X restore 10 2016 pd oscil 58;
#N canvas 0 22 450 300 oscil 59 0;
#X obj 10 10 osc~ 0.0488217367839791;
#X obj 10 68 *~ 0.014145034936335036;
#X obj 10 92 +~ 115.95731228657891;
#X obj 10 116 mtof~;
#X obj 10 140 osc~;
#X obj 10 164 *~ 0.0082;
#X obj 10 188 throw~ dacout;
#X connect 0 0 1 0;
#X connect 1 0 2 0;
#X connect 2 0 3 0;
#X connect 3 0 4 0;
#X connect 4 0 5 0;
#X connect 5 0 6 0;
#X restore 10 2050 pd oscil 59;
#N canvas 0 22 450 300 oscil 60 0;
#X obj 10 10 osc~ 0.06887125904579947;
#X obj 10 68 *~ 0.003388748939541623;
#X obj 10 92 +~ 89.40409238252477;
#X obj 10 116 mtof~;
#X obj 10 140 osc~;
#X obj 10 164 *~ 0.008;
#X obj 10 188 throw~ dacout;
#X connect 0 0 1 0;
#X connect 1 0 2 0;
#X connect 2 0 3 0;
#X connect 3 0 4 0;
#X connect 4 0 5 0;
#X connect 5 0 6 0;
#X restore 10 2084 pd oscil 60;
#N canvas 0 22 450 300 oscil 61 0;
#X obj 10 10 osc~ 0.08123230928654813;
#X obj 10 68 *~ 0.03150569835689826;
#X obj 10 92 +~ 75.82715183647788;
#X obj 10 116 mtof~;
#X obj 10 140 osc~;
#X obj 10 164 *~ 0.0078000000000000005;
#X obj 10 188 throw~ dacout;
#X connect 0 0 1 0;
#X connect 1 0 2 0;
#X connect 2 0 3 0;
#X connect 3 0 4 0;
#X connect 4 0 5 0;
#X connect 5 0 6 0;
#X restore 10 2118 pd oscil 61;
#N canvas 0 22 450 300 oscil 62 0;
#X obj 10 10 osc~ 0.05225772144527955;
#X obj 10 68 *~ 0.019162450161286718;
#X obj 10 92 +~ 97.36888514864808;
#X obj 10 116 mtof~;
#X obj 10 140 osc~;
#X obj 10 164 *~ 0.0076;
#X obj 10 188 throw~ dacout;
#X connect 0 0 1 0;
#X connect 1 0 2 0;
#X connect 2 0 3 0;
#X connect 3 0 4 0;
#X connect 4 0 5 0;
#X connect 5 0 6 0;
#X restore 10 2152 pd oscil 62;
#N canvas 0 22 450 300 oscil 63 0;
#X obj 10 10 osc~ 0.0016254598009428634;
#X obj 10 68 *~ 0.0009924098568362457;
#X obj 10 92 +~ 128.62073010463814;
#X obj 10 116 mtof~;
#X obj 10 140 osc~;
#X obj 10 164 *~ 0.0074;
#X obj 10 188 throw~ dacout;
#X connect 0 0 1 0;
#X connect 1 0 2 0;
#X connect 2 0 3 0;
#X connect 3 0 4 0;
#X connect 4 0 5 0;
#X connect 5 0 6 0;
#X restore 10 2186 pd oscil 63;
#N canvas 0 22 450 300 oscil 64 0;
#X obj 10 10 osc~ 0.03778569576422613;
#X obj 10 68 *~ 0.025243930547825633;
#X obj 10 92 +~ 107.95001037097572;
#X obj 10 116 mtof~;
#X obj 10 140 osc~;
#X obj 10 164 *~ 0.0072;
#X obj 10 188 throw~ dacout;
#X connect 0 0 1 0;
#X connect 1 0 2 0;
#X connect 2 0 3 0;
#X connect 3 0 4 0;
#X connect 4 0 5 0;
#X connect 5 0 6 0;
#X restore 10 2220 pd oscil 64;
#N canvas 0 22 450 300 oscil 65 0;
#X obj 10 10 osc~ 0.05834471546793142;
#X obj 10 68 *~ 0.010508751934824001;
#X obj 10 92 +~ 147.13013067278263;
#X obj 10 116 mtof~;
#X obj 10 140 osc~;
#X obj 10 164 *~ 0.006999999999999999;
#X obj 10 188 throw~ dacout;
#X connect 0 0 1 0;
#X connect 1 0 2 0;
#X connect 2 0 3 0;
#X connect 3 0 4 0;
#X connect 4 0 5 0;
#X connect 5 0 6 0;
#X restore 10 2254 pd oscil 65;
#N canvas 0 22 450 300 oscil 66 0;
#X obj 10 10 osc~ 0.05241312785277499;
#X obj 10 68 *~ 0.021814082941361695;
#X obj 10 92 +~ 135.15990241498184;
#X obj 10 116 mtof~;
#X obj 10 140 osc~;
#X obj 10 164 *~ 0.0068;
#X obj 10 188 throw~ dacout;
#X connect 0 0 1 0;
#X connect 1 0 2 0;
#X connect 2 0 3 0;
#X connect 3 0 4 0;
#X connect 4 0 5 0;
#X connect 5 0 6 0;
#X restore 10 2288 pd oscil 66;
#N canvas 0 22 450 300 oscil 67 0;
#X obj 10 10 osc~ 0.009009840797698043;
#X obj 10 68 *~ 0.0028837859061447086;
#X obj 10 92 +~ 167.62708255402043;
#X obj 10 116 mtof~;
#X obj 10 140 osc~;
#X obj 10 164 *~ 0.006599999999999999;
#X obj 10 188 throw~ dacout;
#X connect 0 0 1 0;
#X connect 1 0 2 0;
#X connect 2 0 3 0;
#X connect 3 0 4 0;
#X connect 4 0 5 0;
#X connect 5 0 6 0;
#X restore 10 2322 pd oscil 67;
#N canvas 0 22 450 300 oscil 68 0;
#X obj 10 10 osc~ 0.07219742154978163;
#X obj 10 68 *~ 0.007085329772097428;
#X obj 10 92 +~ 140.51627059134762;
#X obj 10 116 mtof~;
#X obj 10 140 osc~;
#X obj 10 164 *~ 0.0063999999999999994;
#X obj 10 188 throw~ dacout;
#X connect 0 0 1 0;
#X connect 1 0 2 0;
#X connect 2 0 3 0;
#X connect 3 0 4 0;
#X connect 4 0 5 0;
#X connect 5 0 6 0;
#X restore 10 2356 pd oscil 68;
#N canvas 0 22 450 300 oscil 69 0;
#X obj 10 10 osc~ 0.09158703915186753;
#X obj 10 68 *~ 0.006258609156920523;
#X obj 10 92 +~ 140.46185175790762;
#X obj 10 116 mtof~;
#X obj 10 140 osc~;
#X obj 10 164 *~ 0.0062000000000000015;
#X obj 10 188 throw~ dacout;
#X connect 0 0 1 0;
#X connect 1 0 2 0;
#X connect 2 0 3 0;
#X connect 3 0 4 0;
#X connect 4 0 5 0;
#X connect 5 0 6 0;
#X restore 10 2390 pd oscil 69;
#N canvas 0 22 450 300 oscil 70 0;
#X obj 10 10 osc~ 0.06942126675637306;
#X obj 10 68 *~ 0.0013401062665990837;
#X obj 10 92 +~ 153.566562664068;
#X obj 10 116 mtof~;
#X obj 10 140 osc~;
#X obj 10 164 *~ 0.006000000000000001;
#X obj 10 188 throw~ dacout;
#X connect 0 0 1 0;
#X connect 1 0 2 0;
#X connect 2 0 3 0;
#X connect 3 0 4 0;
#X connect 4 0 5 0;
#X connect 5 0 6 0;
#X restore 10 2424 pd oscil 70;
#N canvas 0 22 450 300 oscil 71 0;
#X obj 10 10 osc~ 0.013215915459046402;
#X obj 10 68 *~ 0.011153764969670934;
#X obj 10 92 +~ 181.60263265936564;
#X obj 10 116 mtof~;
#X obj 10 140 osc~;
#X obj 10 164 *~ 0.0058000000000000005;
#X obj 10 188 throw~ dacout;
#X connect 0 0 1 0;
#X connect 1 0 2 0;
#X connect 2 0 3 0;
#X connect 3 0 4 0;
#X connect 4 0 5 0;
#X connect 5 0 6 0;
#X restore 10 2458 pd oscil 71;
#N canvas 0 22 450 300 oscil 72 0;
#X obj 10 10 osc~ 0.01985036926220858;
#X obj 10 68 *~ 0.001311887985671118;
#X obj 10 92 +~ 110.11172419482264;
#X obj 10 116 mtof~;
#X obj 10 140 osc~;
#X obj 10 164 *~ 0.005600000000000001;
#X obj 10 188 throw~ dacout;
#X connect 0 0 1 0;
#X connect 1 0 2 0;
#X connect 2 0 3 0;
#X connect 3 0 4 0;
#X connect 4 0 5 0;
#X connect 5 0 6 0;
#X restore 10 2492 pd oscil 72;
#N canvas 0 22 450 300 oscil 73 0;
#X obj 10 10 osc~ 0.011870284485366324;
#X obj 10 68 *~ 0.016180272785794838;
#X obj 10 92 +~ 179.3203387759013;
#X obj 10 116 mtof~;
#X obj 10 140 osc~;
#X obj 10 164 *~ 0.0054;
#X obj 10 188 throw~ dacout;
#X connect 0 0 1 0;
#X connect 1 0 2 0;
#X connect 2 0 3 0;
#X connect 3 0 4 0;
#X connect 4 0 5 0;
#X connect 5 0 6 0;
#X restore 10 2526 pd oscil 73;
#N canvas 0 22 450 300 oscil 74 0;
#X obj 10 10 osc~ 0.08498921499217954;
#X obj 10 68 *~ 0.02029473924237794;
#X obj 10 92 +~ 82.25020940312116;
#X obj 10 116 mtof~;
#X obj 10 140 osc~;
#X obj 10 164 *~ 0.005200000000000001;
#X obj 10 188 throw~ dacout;
#X connect 0 0 1 0;
#X connect 1 0 2 0;
#X connect 2 0 3 0;
#X connect 3 0 4 0;
#X connect 4 0 5 0;
#X connect 5 0 6 0;
#X restore 10 2560 pd oscil 74;
#N canvas 0 22 450 300 oscil 75 0;
#X obj 10 10 osc~ 0.008174137493299483;
#X obj 10 68 *~ 0.02538076577630442;
#X obj 10 92 +~ 154.8581783992748;
#X obj 10 116 mtof~;
#X obj 10 140 osc~;
#X obj 10 164 *~ 0.005;
#X obj 10 188 throw~ dacout;
#X connect 0 0 1 0;
#X connect 1 0 2 0;
#X connect 2 0 3 0;
#X connect 3 0 4 0;
#X connect 4 0 5 0;
#X connect 5 0 6 0;
#X restore 10 2594 pd oscil 75;
#N canvas 0 22 450 300 oscil 76 0;
#X obj 10 10 osc~ 0.04065775565461393;
#X obj 10 68 *~ 0.014916826262707824;
#X obj 10 92 +~ 83.50949210949784;
#X obj 10 116 mtof~;
#X obj 10 140 osc~;
#X obj 10 164 *~ 0.0048;
#X obj 10 188 throw~ dacout;
#X connect 0 0 1 0;
#X connect 1 0 2 0;
#X connect 2 0 3 0;
#X connect 3 0 4 0;
#X connect 4 0 5 0;
#X connect 5 0 6 0;
#X restore 10 2628 pd oscil 76;
#N canvas 0 22 450 300 oscil 77 0;
#X obj 10 10 osc~ 0.031723371457597994;
#X obj 10 68 *~ 0.005069335369974653;
#X obj 10 92 +~ 96.90378770997776;
#X obj 10 116 mtof~;
#X obj 10 140 osc~;
#X obj 10 164 *~ 0.0046;
#X obj 10 188 throw~ dacout;
#X connect 0 0 1 0;
#X connect 1 0 2 0;
#X connect 2 0 3 0;
#X connect 3 0 4 0;
#X connect 4 0 5 0;
#X connect 5 0 6 0;
#X restore 10 2662 pd oscil 77;
#N canvas 0 22 450 300 oscil 78 0;
#X obj 10 10 osc~ 0.09732724456964731;
#X obj 10 68 *~ 0.02362336121390171;
#X obj 10 92 +~ 96.0228239125615;
#X obj 10 116 mtof~;
#X obj 10 140 osc~;
#X obj 10 164 *~ 0.004399999999999999;
#X obj 10 188 throw~ dacout;
#X connect 0 0 1 0;
#X connect 1 0 2 0;
#X connect 2 0 3 0;
#X connect 3 0 4 0;
#X connect 4 0 5 0;
#X connect 5 0 6 0;
#X restore 10 2696 pd oscil 78;
#N canvas 0 22 450 300 oscil 79 0;
#X obj 10 10 osc~ 0.041857555061082276;
#X obj 10 68 *~ 0.020449477954841477;
#X obj 10 92 +~ 176.14164447393716;
#X obj 10 116 mtof~;
#X obj 10 140 osc~;
#X obj 10 164 *~ 0.0042;
#X obj 10 188 throw~ dacout;
#X connect 0 0 1 0;
#X connect 1 0 2 0;
#X connect 2 0 3 0;
#X connect 3 0 4 0;
#X connect 4 0 5 0;
#X connect 5 0 6 0;
#X restore 10 2730 pd oscil 79;
#N canvas 0 22 450 300 oscil 80 0;
#X obj 10 10 osc~ 0.05394056534796063;
#X obj 10 68 *~ 0.018424570426880917;
#X obj 10 92 +~ 196.33894641641473;
#X obj 10 116 mtof~;
#X obj 10 140 osc~;
#X obj 10 164 *~ 0.003999999999999999;
#X obj 10 188 throw~ dacout;
#X connect 0 0 1 0;
#X connect 1 0 2 0;
#X connect 2 0 3 0;
#X connect 3 0 4 0;
#X connect 4 0 5 0;
#X connect 5 0 6 0;
#X restore 10 2764 pd oscil 80;
#N canvas 0 22 450 300 oscil 81 0;
#X obj 10 10 osc~ 0.09102995419083332;
#X obj 10 68 *~ 0.021885755235987913;
#X obj 10 92 +~ 78.04470396994213;
#X obj 10 116 mtof~;
#X obj 10 140 osc~;
#X obj 10 164 *~ 0.003799999999999999;
#X obj 10 188 throw~ dacout;
#X connect 0 0 1 0;
#X connect 1 0 2 0;
#X connect 2 0 3 0;
#X connect 3 0 4 0;
#X connect 4 0 5 0;
#X connect 5 0 6 0;
#X restore 10 2798 pd oscil 81;
#N canvas 0 22 450 300 oscil 82 0;
#X obj 10 10 osc~ 0.07399850584546104;
#X obj 10 68 *~ 0.011691867679248506;
#X obj 10 92 +~ 135.97946748227764;
#X obj 10 116 mtof~;
#X obj 10 140 osc~;
#X obj 10 164 *~ 0.003600000000000001;
#X obj 10 188 throw~ dacout;
#X connect 0 0 1 0;
#X connect 1 0 2 0;
#X connect 2 0 3 0;
#X connect 3 0 4 0;
#X connect 4 0 5 0;
#X connect 5 0 6 0;
#X restore 10 2832 pd oscil 82;
#N canvas 0 22 450 300 oscil 83 0;
#X obj 10 10 osc~ 0.05193815745841616;
#X obj 10 68 *~ 0.01750621183961597;
#X obj 10 92 +~ 89.25338937869306;
#X obj 10 116 mtof~;
#X obj 10 140 osc~;
#X obj 10 164 *~ 0.0034000000000000007;
#X obj 10 188 throw~ dacout;
#X connect 0 0 1 0;
#X connect 1 0 2 0;
#X connect 2 0 3 0;
#X connect 3 0 4 0;
#X connect 4 0 5 0;
#X connect 5 0 6 0;
#X restore 10 2866 pd oscil 83;
#N canvas 0 22 450 300 oscil 84 0;
#X obj 10 10 osc~ 0.08050231282798521;
#X obj 10 68 *~ 0.015085600140875687;
#X obj 10 92 +~ 76.07224610982628;
#X obj 10 116 mtof~;
#X obj 10 140 osc~;
#X obj 10 164 *~ 0.0032000000000000006;
#X obj 10 188 throw~ dacout;
#X connect 0 0 1 0;
#X connect 1 0 2 0;
#X connect 2 0 3 0;
#X connect 3 0 4 0;
#X connect 4 0 5 0;
#X connect 5 0 6 0;
#X restore 10 2900 pd oscil 84;
#N canvas 0 22 450 300 oscil 85 0;
#X obj 10 10 osc~ 0.07861837205036898;
#X obj 10 68 *~ 0.001701826748871219;
#X obj 10 92 +~ 147.2433948434075;
#X obj 10 116 mtof~;
#X obj 10 140 osc~;
#X obj 10 164 *~ 0.0030000000000000005;
#X obj 10 188 throw~ dacout;
#X connect 0 0 1 0;
#X connect 1 0 2 0;
#X connect 2 0 3 0;
#X connect 3 0 4 0;
#X connect 4 0 5 0;
#X connect 5 0 6 0;
#X restore 10 2934 pd oscil 85;
#N canvas 0 22 450 300 oscil 86 0;
#X obj 10 10 osc~ 0.05522451936920793;
#X obj 10 68 *~ 0.008771624768346005;
#X obj 10 92 +~ 137.77433772293068;
#X obj 10 116 mtof~;
#X obj 10 140 osc~;
#X obj 10 164 *~ 0.0028000000000000004;
#X obj 10 188 throw~ dacout;
#X connect 0 0 1 0;
#X connect 1 0 2 0;
#X connect 2 0 3 0;
#X connect 3 0 4 0;
#X connect 4 0 5 0;
#X connect 5 0 6 0;
#X restore 10 2968 pd oscil 86;
#N canvas 0 22 450 300 oscil 87 0;
#X obj 10 10 osc~ 0.03310640164599471;
#X obj 10 68 *~ 0.01939583039434901;
#X obj 10 92 +~ 101.96546163636819;
#X obj 10 116 mtof~;
#X obj 10 140 osc~;
#X obj 10 164 *~ 0.0026000000000000003;
#X obj 10 188 throw~ dacout;
#X connect 0 0 1 0;
#X connect 1 0 2 0;
#X connect 2 0 3 0;
#X connect 3 0 4 0;
#X connect 4 0 5 0;
#X connect 5 0 6 0;
#X restore 10 3002 pd oscil 87;
#N canvas 0 22 450 300 oscil 88 0;
#X obj 10 10 osc~ 0.04582747219401387;
#X obj 10 68 *~ 0.015502197042573397;
#X obj 10 92 +~ 83.25275704256646;
#X obj 10 116 mtof~;
#X obj 10 140 osc~;
#X obj 10 164 *~ 0.0024;
#X obj 10 188 throw~ dacout;
#X connect 0 0 1 0;
#X connect 1 0 2 0;
#X connect 2 0 3 0;
#X connect 3 0 4 0;
#X connect 4 0 5 0;
#X connect 5 0 6 0;
#X restore 10 3036 pd oscil 88;
#N canvas 0 22 450 300 oscil 89 0;
#X obj 10 10 osc~ 0.00533263063700159;
#X obj 10 68 *~ 0.011238179582502351;
#X obj 10 92 +~ 192.93624787641056;
#X obj 10 116 mtof~;
#X obj 10 140 osc~;
#X obj 10 164 *~ 0.0021999999999999997;
#X obj 10 188 throw~ dacout;
#X connect 0 0 1 0;
#X connect 1 0 2 0;
#X connect 2 0 3 0;
#X connect 3 0 4 0;
#X connect 4 0 5 0;
#X connect 5 0 6 0;
#X restore 10 3070 pd oscil 89;
#N canvas 0 22 450 300 oscil 90 0;
#X obj 10 10 osc~ 0.08834238833998233;
#X obj 10 68 *~ 0.018666437368209207;
#X obj 10 92 +~ 111.337328684482;
#X obj 10 116 mtof~;
#X obj 10 140 osc~;
#X obj 10 164 *~ 0.0019999999999999996;
#X obj 10 188 throw~ dacout;
#X connect 0 0 1 0;
#X connect 1 0 2 0;
#X connect 2 0 3 0;
#X connect 3 0 4 0;
#X connect 4 0 5 0;
#X connect 5 0 6 0;
#X restore 10 3104 pd oscil 90;
#N canvas 0 22 450 300 oscil 91 0;
#X obj 10 10 osc~ 0.013218369119530383;
#X obj 10 68 *~ 0.01453805873288965;
#X obj 10 92 +~ 173.7581918841749;
#X obj 10 116 mtof~;
#X obj 10 140 osc~;
#X obj 10 164 *~ 0.0017999999999999995;
#X obj 10 188 throw~ dacout;
#X connect 0 0 1 0;
#X connect 1 0 2 0;
#X connect 2 0 3 0;
#X connect 3 0 4 0;
#X connect 4 0 5 0;
#X connect 5 0 6 0;
#X restore 10 3138 pd oscil 91;
#N canvas 0 22 450 300 oscil 92 0;
#X obj 10 10 osc~ 0.009829942960216298;
#X obj 10 68 *~ 0.005901888874908858;
#X obj 10 92 +~ 121.50581947801892;
#X obj 10 116 mtof~;
#X obj 10 140 osc~;
#X obj 10 164 *~ 0.0015999999999999992;
#X obj 10 188 throw~ dacout;
#X connect 0 0 1 0;
#X connect 1 0 2 0;
#X connect 2 0 3 0;
#X connect 3 0 4 0;
#X connect 4 0 5 0;
#X connect 5 0 6 0;
#X restore 10 3172 pd oscil 92;
#N canvas 0 22 450 300 oscil 93 0;
#X obj 10 10 osc~ 0.04285659590345619;
#X obj 10 68 *~ 0.0078011948116499035;
#X obj 10 92 +~ 143.64524875656898;
#X obj 10 116 mtof~;
#X obj 10 140 osc~;
#X obj 10 164 *~ 0.0013999999999999991;
#X obj 10 188 throw~ dacout;
#X connect 0 0 1 0;
#X connect 1 0 2 0;
#X connect 2 0 3 0;
#X connect 3 0 4 0;
#X connect 4 0 5 0;
#X connect 5 0 6 0;
#X restore 10 3206 pd oscil 93;
#N canvas 0 22 450 300 oscil 94 0;
#X obj 10 10 osc~ 0.05539294099849486;
#X obj 10 68 *~ 0.018463288567690563;
#X obj 10 92 +~ 127.07726271220625;
#X obj 10 116 mtof~;
#X obj 10 140 osc~;
#X obj 10 164 *~ 0.0012000000000000012;
#X obj 10 188 throw~ dacout;
#X connect 0 0 1 0;
#X connect 1 0 2 0;
#X connect 2 0 3 0;
#X connect 3 0 4 0;
#X connect 4 0 5 0;
#X connect 5 0 6 0;
#X restore 10 3240 pd oscil 94;
#N canvas 0 22 450 300 oscil 95 0;
#X obj 10 10 osc~ 0.08058543401401506;
#X obj 10 68 *~ 0.01390129986572897;
#X obj 10 92 +~ 209.38377335380312;
#X obj 10 116 mtof~;
#X obj 10 140 osc~;
#X obj 10 164 *~ 0.0010000000000000009;
#X obj 10 188 throw~ dacout;
#X connect 0 0 1 0;
#X connect 1 0 2 0;
#X connect 2 0 3 0;
#X connect 3 0 4 0;
#X connect 4 0 5 0;
#X connect 5 0 6 0;
#X restore 10 3274 pd oscil 95;
#N canvas 0 22 450 300 oscil 96 0;
#X obj 10 10 osc~ 0.08828775735193076;
#X obj 10 68 *~ 0.020073104304136037;
#X obj 10 92 +~ 180.27870014719085;
#X obj 10 116 mtof~;
#X obj 10 140 osc~;
#X obj 10 164 *~ 0.0008000000000000007;
#X obj 10 188 throw~ dacout;
#X connect 0 0 1 0;
#X connect 1 0 2 0;
#X connect 2 0 3 0;
#X connect 3 0 4 0;
#X connect 4 0 5 0;
#X connect 5 0 6 0;
#X restore 10 3308 pd oscil 96;
#N canvas 0 22 450 300 oscil 97 0;
#X obj 10 10 osc~ 0.08316941200684745;
#X obj 10 68 *~ 0.016720537096153214;
#X obj 10 92 +~ 105.55008576650332;
#X obj 10 116 mtof~;
#X obj 10 140 osc~;
#X obj 10 164 *~ 0.0006000000000000006;
#X obj 10 188 throw~ dacout;
#X connect 0 0 1 0;
#X connect 1 0 2 0;
#X connect 2 0 3 0;
#X connect 3 0 4 0;
#X connect 4 0 5 0;
#X connect 5 0 6 0;
#X restore 10 3342 pd oscil 97;
#N canvas 0 22 450 300 oscil 98 0;
#X obj 10 10 osc~ 0.09674248293093449;
#X obj 10 68 *~ 0.012561599719275434;
#X obj 10 92 +~ 161.29174992471292;
#X obj 10 116 mtof~;
#X obj 10 140 osc~;
#X obj 10 164 *~ 0.00040000000000000034;
#X obj 10 188 throw~ dacout;
#X connect 0 0 1 0;
#X connect 1 0 2 0;
#X connect 2 0 3 0;
#X connect 3 0 4 0;
#X connect 4 0 5 0;
#X connect 5 0 6 0;
#X restore 10 3376 pd oscil 98;
#N canvas 0 22 450 300 oscil 99 0;
#X obj 10 10 osc~ 0.08083078346904352;
#X obj 10 68 *~ 0.007874311306010908;
#X obj 10 92 +~ 178.67500388112398;
#X obj 10 116 mtof~;
#X obj 10 140 osc~;
#X obj 10 164 *~ 0.00020000000000000017;
#X obj 10 188 throw~ dacout;
#X connect 0 0 1 0;
#X connect 1 0 2 0;
#X connect 2 0 3 0;
#X connect 3 0 4 0;
#X connect 4 0 5 0;
#X connect 5 0 6 0;
#X restore 10 3410 pd oscil 99;
