#N canvas 0 22 450 300 12;
#N canvas 0 22 450 300 loadbang 0;
#X obj 10 10 loadbang;
#X msg 10 68 \; pd dsp 1;
#X connect 0 0 1 0;
#X restore 10 10 pd loadbang;
#N canvas 0 22 450 300 dacout 0;
#X obj 10 10 loadbang;
#X obj 10 68 del 10;
#X msg 10 92 0.8 100;
#X obj 10 116 line~;
#X obj 10 188 catch~ dacout;
#X obj 10 140 *~;
#X obj 10 164 clip~ -0.707 0.707;
#X obj 10 188 dac~ 1;
#X connect 4 0 5 0;
#X connect 5 0 6 0;
#X connect 6 0 7 0;
#X connect 0 0 1 0;
#X connect 1 0 2 0;
#X connect 2 0 3 0;
#X connect 3 0 5 1;
#X restore 10 44 pd dacout;
#N canvas 0 22 450 300 oscil 1 0;
#X obj 10 10 osc~ 0.05505193715544352;
#X obj 10 68 *~ 0.2928823941767209;
#X obj 10 92 +~ 65.15612836629587;
#X obj 10 116 mtof~;
#X obj 10 140 osc~;
#X obj 10 164 *~ 0.0198;
#X obj 10 188 throw~ dacout;
#X connect 0 0 1 0;
#X connect 1 0 2 0;
#X connect 2 0 3 0;
#X connect 3 0 4 0;
#X connect 4 0 5 0;
#X connect 5 0 6 0;
#X restore 10 78 pd oscil 1;
#N canvas 0 22 450 300 oscil 2 0;
#X obj 10 10 osc~ 0.039680713805237605;
#X obj 10 68 *~ 0.6226073621452973;
#X obj 10 92 +~ 68.2736292274377;
#X obj 10 116 mtof~;
#X obj 10 140 osc~;
#X obj 10 164 *~ 0.0196;
#X obj 10 188 throw~ dacout;
#X connect 0 0 1 0;
#X connect 1 0 2 0;
#X connect 2 0 3 0;
#X connect 3 0 4 0;
#X connect 4 0 5 0;
#X connect 5 0 6 0;
#X restore 10 112 pd oscil 2;
#N canvas 0 22 450 300 oscil 3 0;
#X obj 10 10 osc~ 0.09235446819963579;
#X obj 10 68 *~ 0.1704807383333733;
#X obj 10 92 +~ 69.16806438972114;
#X obj 10 116 mtof~;
#X obj 10 140 osc~;
#X obj 10 164 *~ 0.0194;
#X obj 10 188 throw~ dacout;
#X connect 0 0 1 0;
#X connect 1 0 2 0;
#X connect 2 0 3 0;
#X connect 3 0 4 0;
#X connect 4 0 5 0;
#X connect 5 0 6 0;
#X restore 10 146 pd oscil 3;
#N canvas 0 22 450 300 oscil 4 0;
#X obj 10 10 osc~ 0.026350691245403113;
#X obj 10 68 *~ 0.20445867053361694;
#X obj 10 92 +~ 67.84845897686579;
#X obj 10 116 mtof~;
#X obj 10 140 osc~;
#X obj 10 164 *~ 0.0192;
#X obj 10 188 throw~ dacout;
#X connect 0 0 1 0;
#X connect 1 0 2 0;
#X connect 2 0 3 0;
#X connect 3 0 4 0;
#X connect 4 0 5 0;
#X connect 5 0 6 0;
#X restore 10 180 pd oscil 4;
#N canvas 0 22 450 300 oscil 5 0;
#X obj 10 10 osc~ 0.03357069006799799;
#X obj 10 68 *~ 0.281689230552359;
#X obj 10 92 +~ 68.57738118193889;
#X obj 10 116 mtof~;
#X obj 10 140 osc~;
#X obj 10 164 *~ 0.019;
#X obj 10 188 throw~ dacout;
#X connect 0 0 1 0;
#X connect 1 0 2 0;
#X connect 2 0 3 0;
#X connect 3 0 4 0;
#X connect 4 0 5 0;
#X connect 5 0 6 0;
#X restore 10 214 pd oscil 5;
#N canvas 0 22 450 300 oscil 6 0;
#X obj 10 10 osc~ 0.047528687085316594;
#X obj 10 68 *~ 0.12057901444629782;
#X obj 10 92 +~ 74.76567992599058;
#X obj 10 116 mtof~;
#X obj 10 140 osc~;
#X obj 10 164 *~ 0.0188;
#X obj 10 188 throw~ dacout;
#X connect 0 0 1 0;
#X connect 1 0 2 0;
#X connect 2 0 3 0;
#X connect 3 0 4 0;
#X connect 4 0 5 0;
#X connect 5 0 6 0;
#X restore 10 248 pd oscil 6;
#N canvas 0 22 450 300 oscil 7 0;
#X obj 10 10 osc~ 0.07317246338941281;
#X obj 10 68 *~ 0.16996345145001698;
#X obj 10 92 +~ 75.39588214473629;
#X obj 10 116 mtof~;
#X obj 10 140 osc~;
#X obj 10 164 *~ 0.0186;
#X obj 10 188 throw~ dacout;
#X connect 0 0 1 0;
#X connect 1 0 2 0;
#X connect 2 0 3 0;
#X connect 3 0 4 0;
#X connect 4 0 5 0;
#X connect 5 0 6 0;
#X restore 10 282 pd oscil 7;
#N canvas 0 22 450 300 oscil 8 0;
#X obj 10 10 osc~ 0.06278675532788928;
#X obj 10 68 *~ 0.13596009148769395;
#X obj 10 92 +~ 68.71168582243395;
#X obj 10 116 mtof~;
#X obj 10 140 osc~;
#X obj 10 164 *~ 0.0184;
#X obj 10 188 throw~ dacout;
#X connect 0 0 1 0;
#X connect 1 0 2 0;
#X connect 2 0 3 0;
#X connect 3 0 4 0;
#X connect 4 0 5 0;
#X connect 5 0 6 0;
#X restore 10 316 pd oscil 8;
#N canvas 0 22 450 300 oscil 9 0;
#X obj 10 10 osc~ 0.05799314039331843;
#X obj 10 68 *~ 0.20698586729924706;
#X obj 10 92 +~ 77.29435866131439;
#X obj 10 116 mtof~;
#X obj 10 140 osc~;
#X obj 10 164 *~ 0.0182;
#X obj 10 188 throw~ dacout;
#X connect 0 0 1 0;
#X connect 1 0 2 0;
#X connect 2 0 3 0;
#X connect 3 0 4 0;
#X connect 4 0 5 0;
#X connect 5 0 6 0;
#X restore 10 350 pd oscil 9;
#N canvas 0 22 450 300 oscil 10 0;
#X obj 10 10 osc~ 0.07764519480134419;
#X obj 10 68 *~ 0.13326518796866757;
#X obj 10 92 +~ 76.22248325032525;
#X obj 10 116 mtof~;
#X obj 10 140 osc~;
#X obj 10 164 *~ 0.018000000000000002;
#X obj 10 188 throw~ dacout;
#X connect 0 0 1 0;
#X connect 1 0 2 0;
#X connect 2 0 3 0;
#X connect 3 0 4 0;
#X connect 4 0 5 0;
#X connect 5 0 6 0;
#X restore 10 384 pd oscil 10;
#N canvas 0 22 450 300 oscil 11 0;
#X obj 10 10 osc~ 0.03926473547704599;
#X obj 10 68 *~ 0.1364428079757266;
#X obj 10 92 +~ 74.68869969004618;
#X obj 10 116 mtof~;
#X obj 10 140 osc~;
#X obj 10 164 *~ 0.0178;
#X obj 10 188 throw~ dacout;
#X connect 0 0 1 0;
#X connect 1 0 2 0;
#X connect 2 0 3 0;
#X connect 3 0 4 0;
#X connect 4 0 5 0;
#X connect 5 0 6 0;
#X restore 10 418 pd oscil 11;
#N canvas 0 22 450 300 oscil 12 0;
#X obj 10 10 osc~ 0.020088885105656085;
#X obj 10 68 *~ 0.050983960317832554;
#X obj 10 92 +~ 79.77781309417699;
#X obj 10 116 mtof~;
#X obj 10 140 osc~;
#X obj 10 164 *~ 0.0176;
#X obj 10 188 throw~ dacout;
#X connect 0 0 1 0;
#X connect 1 0 2 0;
#X connect 2 0 3 0;
#X connect 3 0 4 0;
#X connect 4 0 5 0;
#X connect 5 0 6 0;
#X restore 10 452 pd oscil 12;
#N canvas 0 22 450 300 oscil 13 0;
#X obj 10 10 osc~ 0.08532679188934567;
#X obj 10 68 *~ 0.09412816340812157;
#X obj 10 92 +~ 73.32696376819004;
#X obj 10 116 mtof~;
#X obj 10 140 osc~;
#X obj 10 164 *~ 0.0174;
#X obj 10 188 throw~ dacout;
#X connect 0 0 1 0;
#X connect 1 0 2 0;
#X connect 2 0 3 0;
#X connect 3 0 4 0;
#X connect 4 0 5 0;
#X connect 5 0 6 0;
#X restore 10 486 pd oscil 13;
#N canvas 0 22 450 300 oscil 14 0;
#X obj 10 10 osc~ 0.07070325782981622;
#X obj 10 68 *~ 0.0814983318580887;
#X obj 10 92 +~ 82.86606269094386;
#X obj 10 116 mtof~;
#X obj 10 140 osc~;
#X obj 10 164 *~ 0.0172;
#X obj 10 188 throw~ dacout;
#X connect 0 0 1 0;
#X connect 1 0 2 0;
#X connect 2 0 3 0;
#X connect 3 0 4 0;
#X connect 4 0 5 0;
#X connect 5 0 6 0;
#X restore 10 520 pd oscil 14;
#N canvas 0 22 450 300 oscil 15 0;
#X obj 10 10 osc~ 0.0852304144626298;
#X obj 10 68 *~ 0.11860846206758914;
#X obj 10 92 +~ 82.77474404831901;
#X obj 10 116 mtof~;
#X obj 10 140 osc~;
#X obj 10 164 *~ 0.017;
#X obj 10 188 throw~ dacout;
#X connect 0 0 1 0;
#X connect 1 0 2 0;
#X connect 2 0 3 0;
#X connect 3 0 4 0;
#X connect 4 0 5 0;
#X connect 5 0 6 0;
#X restore 10 554 pd oscil 15;
#N canvas 0 22 450 300 oscil 16 0;
#X obj 10 10 osc~ 0.04319715808750956;
#X obj 10 68 *~ 0.01927058939036426;
#X obj 10 92 +~ 85.16234829765087;
#X obj 10 116 mtof~;
#X obj 10 140 osc~;
#X obj 10 164 *~ 0.0168;
#X obj 10 188 throw~ dacout;
#X connect 0 0 1 0;
#X connect 1 0 2 0;
#X connect 2 0 3 0;
#X connect 3 0 4 0;
#X connect 4 0 5 0;
#X connect 5 0 6 0;
#X restore 10 588 pd oscil 16;
#N canvas 0 22 450 300 oscil 17 0;
#X obj 10 10 osc~ 0.07504324387689243;
#X obj 10 68 *~ 0.11161582845420205;
#X obj 10 92 +~ 73.27766745251176;
#X obj 10 116 mtof~;
#X obj 10 140 osc~;
#X obj 10 164 *~ 0.0166;
#X obj 10 188 throw~ dacout;
#X connect 0 0 1 0;
#X connect 1 0 2 0;
#X connect 2 0 3 0;
#X connect 3 0 4 0;
#X connect 4 0 5 0;
#X connect 5 0 6 0;
#X restore 10 622 pd oscil 17;
#N canvas 0 22 450 300 oscil 18 0;
#X obj 10 10 osc~ 0.04078685961884087;
#X obj 10 68 *~ 0.10305491606487169;
#X obj 10 92 +~ 72.88461127069111;
#X obj 10 116 mtof~;
#X obj 10 140 osc~;
#X obj 10 164 *~ 0.0164;
#X obj 10 188 throw~ dacout;
#X connect 0 0 1 0;
#X connect 1 0 2 0;
#X connect 2 0 3 0;
#X connect 3 0 4 0;
#X connect 4 0 5 0;
#X connect 5 0 6 0;
#X restore 10 656 pd oscil 18;
#N canvas 0 22 450 300 oscil 19 0;
#X obj 10 10 osc~ 0.046217491923476364;
#X obj 10 68 *~ 0.014373096032307514;
#X obj 10 92 +~ 93.43003404289519;
#X obj 10 116 mtof~;
#X obj 10 140 osc~;
#X obj 10 164 *~ 0.016200000000000003;
#X obj 10 188 throw~ dacout;
#X connect 0 0 1 0;
#X connect 1 0 2 0;
#X connect 2 0 3 0;
#X connect 3 0 4 0;
#X connect 4 0 5 0;
#X connect 5 0 6 0;
#X restore 10 690 pd oscil 19;
#N canvas 0 22 450 300 oscil 20 0;
#X obj 10 10 osc~ 0.08610656259940755;
#X obj 10 68 *~ 0.09974437624634816;
#X obj 10 92 +~ 67.04167048247723;
#X obj 10 116 mtof~;
#X obj 10 140 osc~;
#X obj 10 164 *~ 0.016;
#X obj 10 188 throw~ dacout;
#X connect 0 0 1 0;
#X connect 1 0 2 0;
#X connect 2 0 3 0;
#X connect 3 0 4 0;
#X connect 4 0 5 0;
#X connect 5 0 6 0;
#X restore 10 724 pd oscil 20;
#N canvas 0 22 450 300 oscil 21 0;
#X obj 10 10 osc~ 0.09714975218473489;
#X obj 10 68 *~ 0.05464983014417442;
#X obj 10 92 +~ 96.23089388180354;
#X obj 10 116 mtof~;
#X obj 10 140 osc~;
#X obj 10 164 *~ 0.0158;
#X obj 10 188 throw~ dacout;
#X connect 0 0 1 0;
#X connect 1 0 2 0;
#X connect 2 0 3 0;
#X connect 3 0 4 0;
#X connect 4 0 5 0;
#X connect 5 0 6 0;
#X restore 10 758 pd oscil 21;
#N canvas 0 22 450 300 oscil 22 0;
#X obj 10 10 osc~ 0.09276768125646771;
#X obj 10 68 *~ 0.05468407545687812;
#X obj 10 92 +~ 89.4512203424355;
#X obj 10 116 mtof~;
#X obj 10 140 osc~;
#X obj 10 164 *~ 0.015600000000000001;
#X obj 10 188 throw~ dacout;
#X connect 0 0 1 0;
#X connect 1 0 2 0;
#X connect 2 0 3 0;
#X connect 3 0 4 0;
#X connect 4 0 5 0;
#X connect 5 0 6 0;
#X restore 10 792 pd oscil 22;
#N canvas 0 22 450 300 oscil 23 0;
#X obj 10 10 osc~ 0.08902072426142674;
#X obj 10 68 *~ 0.02749202776575929;
#X obj 10 92 +~ 99.38848521439172;
#X obj 10 116 mtof~;
#X obj 10 140 osc~;
#X obj 10 164 *~ 0.0154;
#X obj 10 188 throw~ dacout;
#X connect 0 0 1 0;
#X connect 1 0 2 0;
#X connect 2 0 3 0;
#X connect 3 0 4 0;
#X connect 4 0 5 0;
#X connect 5 0 6 0;
#X restore 10 826 pd oscil 23;
#N canvas 0 22 450 300 oscil 24 0;
#X obj 10 10 osc~ 0.016852727845755634;
#X obj 10 68 *~ 0.0570705965330183;
#X obj 10 92 +~ 95.38075124043277;
#X obj 10 116 mtof~;
#X obj 10 140 osc~;
#X obj 10 164 *~ 0.0152;
#X obj 10 188 throw~ dacout;
#X connect 0 0 1 0;
#X connect 1 0 2 0;
#X connect 2 0 3 0;
#X connect 3 0 4 0;
#X connect 4 0 5 0;
#X connect 5 0 6 0;
#X restore 10 860 pd oscil 24;
#N canvas 0 22 450 300 oscil 25 0;
#X obj 10 10 osc~ 0.08460274203395159;
#X obj 10 68 *~ 0.04127427730843526;
#X obj 10 92 +~ 97.92953494278828;
#X obj 10 116 mtof~;
#X obj 10 140 osc~;
#X obj 10 164 *~ 0.015;
#X obj 10 188 throw~ dacout;
#X connect 0 0 1 0;
#X connect 1 0 2 0;
#X connect 2 0 3 0;
#X connect 3 0 4 0;
#X connect 4 0 5 0;
#X connect 5 0 6 0;
#X restore 10 894 pd oscil 25;
#N canvas 0 22 450 300 oscil 26 0;
#X obj 10 10 osc~ 0.09373073940043908;
#X obj 10 68 *~ 0.0211728663023557;
#X obj 10 92 +~ 101.96353210954697;
#X obj 10 116 mtof~;
#X obj 10 140 osc~;
#X obj 10 164 *~ 0.0148;
#X obj 10 188 throw~ dacout;
#X connect 0 0 1 0;
#X connect 1 0 2 0;
#X connect 2 0 3 0;
#X connect 3 0 4 0;
#X connect 4 0 5 0;
#X connect 5 0 6 0;
#X restore 10 928 pd oscil 26;
#N canvas 0 22 450 300 oscil 27 0;
#X obj 10 10 osc~ 0.02457775183598906;
#X obj 10 68 *~ 0.008058579279142256;
#X obj 10 92 +~ 81.74265462734441;
#X obj 10 116 mtof~;
#X obj 10 140 osc~;
#X obj 10 164 *~ 0.0146;
#X obj 10 188 throw~ dacout;
#X connect 0 0 1 0;
#X connect 1 0 2 0;
#X connect 2 0 3 0;
#X connect 3 0 4 0;
#X connect 4 0 5 0;
#X connect 5 0 6 0;
#X restore 10 962 pd oscil 27;
#N canvas 0 22 450 300 oscil 28 0;
#X obj 10 10 osc~ 0.08460107607847506;
#X obj 10 68 *~ 0.06839198273191334;
#X obj 10 92 +~ 108.16813339330646;
#X obj 10 116 mtof~;
#X obj 10 140 osc~;
#X obj 10 164 *~ 0.0144;
#X obj 10 188 throw~ dacout;
#X connect 0 0 1 0;
#X connect 1 0 2 0;
#X connect 2 0 3 0;
#X connect 3 0 4 0;
#X connect 4 0 5 0;
#X connect 5 0 6 0;
#X restore 10 996 pd oscil 28;
#N canvas 0 22 450 300 oscil 29 0;
#X obj 10 10 osc~ 0.07117512784879614;
#X obj 10 68 *~ 0.01699629186011434;
#X obj 10 92 +~ 90.28712924212019;
#X obj 10 116 mtof~;
#X obj 10 140 osc~;
#X obj 10 164 *~ 0.014199999999999999;
#X obj 10 188 throw~ dacout;
#X connect 0 0 1 0;
#X connect 1 0 2 0;
#X connect 2 0 3 0;
#X connect 3 0 4 0;
#X connect 4 0 5 0;
#X connect 5 0 6 0;
#X restore 10 1030 pd oscil 29;
#N canvas 0 22 450 300 oscil 30 0;
#X obj 10 10 osc~ 0.05976979206744017;
#X obj 10 68 *~ 0.04934341964156257;
#X obj 10 92 +~ 67.16699749790145;
#X obj 10 116 mtof~;
#X obj 10 140 osc~;
#X obj 10 164 *~ 0.013999999999999999;
#X obj 10 188 throw~ dacout;
#X connect 0 0 1 0;
#X connect 1 0 2 0;
#X connect 2 0 3 0;
#X connect 3 0 4 0;
#X connect 4 0 5 0;
#X connect 5 0 6 0;
#X restore 10 1064 pd oscil 30;
#N canvas 0 22 450 300 oscil 31 0;
#X obj 10 10 osc~ 0.028422016021481124;
#X obj 10 68 *~ 0.0003183471503888127;
#X obj 10 92 +~ 91.04366462160837;
#X obj 10 116 mtof~;
#X obj 10 140 osc~;
#X obj 10 164 *~ 0.0138;
#X obj 10 188 throw~ dacout;
#X connect 0 0 1 0;
#X connect 1 0 2 0;
#X connect 2 0 3 0;
#X connect 3 0 4 0;
#X connect 4 0 5 0;
#X connect 5 0 6 0;
#X restore 10 1098 pd oscil 31;
#N canvas 0 22 450 300 oscil 32 0;
#X obj 10 10 osc~ 0.07686657372942686;
#X obj 10 68 *~ 0.0345397702989606;
#X obj 10 92 +~ 73.29024776310399;
#X obj 10 116 mtof~;
#X obj 10 140 osc~;
#X obj 10 164 *~ 0.0136;
#X obj 10 188 throw~ dacout;
#X connect 0 0 1 0;
#X connect 1 0 2 0;
#X connect 2 0 3 0;
#X connect 3 0 4 0;
#X connect 4 0 5 0;
#X connect 5 0 6 0;
#X restore 10 1132 pd oscil 32;
#N canvas 0 22 450 300 oscil 33 0;
#X obj 10 10 osc~ 0.02373253514893542;
#X obj 10 68 *~ 0.018118660540064557;
#X obj 10 92 +~ 68.68848591930895;
#X obj 10 116 mtof~;
#X obj 10 140 osc~;
#X obj 10 164 *~ 0.013399999999999999;
#X obj 10 188 throw~ dacout;
#X connect 0 0 1 0;
#X connect 1 0 2 0;
#X connect 2 0 3 0;
#X connect 3 0 4 0;
#X connect 4 0 5 0;
#X connect 5 0 6 0;
#X restore 10 1166 pd oscil 33;
#N canvas 0 22 450 300 oscil 34 0;
#X obj 10 10 osc~ 0.037216727257953386;
#X obj 10 68 *~ 0.05692520087101513;
#X obj 10 92 +~ 115.16211638278222;
#X obj 10 116 mtof~;
#X obj 10 140 osc~;
#X obj 10 164 *~ 0.013199999999999998;
#X obj 10 188 throw~ dacout;
#X connect 0 0 1 0;
#X connect 1 0 2 0;
#X connect 2 0 3 0;
#X connect 3 0 4 0;
#X connect 4 0 5 0;
#X connect 5 0 6 0;
#X restore 10 1200 pd oscil 34;
#N canvas 0 22 450 300 oscil 35 0;
#X obj 10 10 osc~ 0.05368553999417437;
#X obj 10 68 *~ 0.020608097931247325;
#X obj 10 92 +~ 116.43105294207277;
#X obj 10 116 mtof~;
#X obj 10 140 osc~;
#X obj 10 164 *~ 0.013000000000000001;
#X obj 10 188 throw~ dacout;
#X connect 0 0 1 0;
#X connect 1 0 2 0;
#X connect 2 0 3 0;
#X connect 3 0 4 0;
#X connect 4 0 5 0;
#X connect 5 0 6 0;
#X restore 10 1234 pd oscil 35;
#N canvas 0 22 450 300 oscil 36 0;
#X obj 10 10 osc~ 0.09399560148347309;
#X obj 10 68 *~ 0.02675566063126828;
#X obj 10 92 +~ 126.22306219132332;
#X obj 10 116 mtof~;
#X obj 10 140 osc~;
#X obj 10 164 *~ 0.0128;
#X obj 10 188 throw~ dacout;
#X connect 0 0 1 0;
#X connect 1 0 2 0;
#X connect 2 0 3 0;
#X connect 3 0 4 0;
#X connect 4 0 5 0;
#X connect 5 0 6 0;
#X restore 10 1268 pd oscil 36;
#N canvas 0 22 450 300 oscil 37 0;
#X obj 10 10 osc~ 0.05091270278276577;
#X obj 10 68 *~ 0.036094065288971675;
#X obj 10 92 +~ 106.5055877033142;
#X obj 10 116 mtof~;
#X obj 10 140 osc~;
#X obj 10 164 *~ 0.0126;
#X obj 10 188 throw~ dacout;
#X connect 0 0 1 0;
#X connect 1 0 2 0;
#X connect 2 0 3 0;
#X connect 3 0 4 0;
#X connect 4 0 5 0;
#X connect 5 0 6 0;
#X restore 10 1302 pd oscil 37;
#N canvas 0 22 450 300 oscil 38 0;
#X obj 10 10 osc~ 0.05587458092183385;
#X obj 10 68 *~ 0.026743197432237607;
#X obj 10 92 +~ 109.5720862971436;
#X obj 10 116 mtof~;
#X obj 10 140 osc~;
#X obj 10 164 *~ 0.0124;
#X obj 10 188 throw~ dacout;
#X connect 0 0 1 0;
#X connect 1 0 2 0;
#X connect 2 0 3 0;
#X connect 3 0 4 0;
#X connect 4 0 5 0;
#X connect 5 0 6 0;
#X restore 10 1336 pd oscil 38;
#N canvas 0 22 450 300 oscil 39 0;
#X obj 10 10 osc~ 0.082532742021523;
#X obj 10 68 *~ 0.03831062244894098;
#X obj 10 92 +~ 132.9095907686633;
#X obj 10 116 mtof~;
#X obj 10 140 osc~;
#X obj 10 164 *~ 0.0122;
#X obj 10 188 throw~ dacout;
#X connect 0 0 1 0;
#X connect 1 0 2 0;
#X connect 2 0 3 0;
#X connect 3 0 4 0;
#X connect 4 0 5 0;
#X connect 5 0 6 0;
#X restore 10 1370 pd oscil 39;
#N canvas 0 22 450 300 oscil 40 0;
#X obj 10 10 osc~ 0.09272831428321639;
#X obj 10 68 *~ 0.022439211434163296;
#X obj 10 92 +~ 106.43107180168684;
#X obj 10 116 mtof~;
#X obj 10 140 osc~;
#X obj 10 164 *~ 0.012;
#X obj 10 188 throw~ dacout;
#X connect 0 0 1 0;
#X connect 1 0 2 0;
#X connect 2 0 3 0;
#X connect 3 0 4 0;
#X connect 4 0 5 0;
#X connect 5 0 6 0;
#X restore 10 1404 pd oscil 40;
#N canvas 0 22 450 300 oscil 41 0;
#X obj 10 10 osc~ 0.04163068501116324;
#X obj 10 68 *~ 0.04425680137898522;
#X obj 10 92 +~ 88.27001826410762;
#X obj 10 116 mtof~;
#X obj 10 140 osc~;
#X obj 10 164 *~ 0.011800000000000001;
#X obj 10 188 throw~ dacout;
#X connect 0 0 1 0;
#X connect 1 0 2 0;
#X connect 2 0 3 0;
#X connect 3 0 4 0;
#X connect 4 0 5 0;
#X connect 5 0 6 0;
#X restore 10 1438 pd oscil 41;
#N canvas 0 22 450 300 oscil 42 0;
#X obj 10 10 osc~ 0.04520008686666746;
#X obj 10 68 *~ 0.024376787151217796;
#X obj 10 92 +~ 128.07833679422788;
#X obj 10 116 mtof~;
#X obj 10 140 osc~;
#X obj 10 164 *~ 0.011600000000000001;
#X obj 10 188 throw~ dacout;
#X connect 0 0 1 0;
#X connect 1 0 2 0;
#X connect 2 0 3 0;
#X connect 3 0 4 0;
#X connect 4 0 5 0;
#X connect 5 0 6 0;
#X restore 10 1472 pd oscil 42;
#N canvas 0 22 450 300 oscil 43 0;
#X obj 10 10 osc~ 0.0900169654554841;
#X obj 10 68 *~ 0.03804243058096513;
#X obj 10 92 +~ 106.67784054893741;
#X obj 10 116 mtof~;
#X obj 10 140 osc~;
#X obj 10 164 *~ 0.011400000000000002;
#X obj 10 188 throw~ dacout;
#X connect 0 0 1 0;
#X connect 1 0 2 0;
#X connect 2 0 3 0;
#X connect 3 0 4 0;
#X connect 4 0 5 0;
#X connect 5 0 6 0;
#X restore 10 1506 pd oscil 43;
#N canvas 0 22 450 300 oscil 44 0;
#X obj 10 10 osc~ 0.028644939018073225;
#X obj 10 68 *~ 0.0398577268535872;
#X obj 10 92 +~ 116.16803624940611;
#X obj 10 116 mtof~;
#X obj 10 140 osc~;
#X obj 10 164 *~ 0.011200000000000002;
#X obj 10 188 throw~ dacout;
#X connect 0 0 1 0;
#X connect 1 0 2 0;
#X connect 2 0 3 0;
#X connect 3 0 4 0;
#X connect 4 0 5 0;
#X connect 5 0 6 0;
#X restore 10 1540 pd oscil 44;
#N canvas 0 22 450 300 oscil 45 0;
#X obj 10 10 osc~ 0.09904937878618601;
#X obj 10 68 *~ 0.008748039186062892;
#X obj 10 92 +~ 122.0141944187663;
#X obj 10 116 mtof~;
#X obj 10 140 osc~;
#X obj 10 164 *~ 0.011000000000000001;
#X obj 10 188 throw~ dacout;
#X connect 0 0 1 0;
#X connect 1 0 2 0;
#X connect 2 0 3 0;
#X connect 3 0 4 0;
#X connect 4 0 5 0;
#X connect 5 0 6 0;
#X restore 10 1574 pd oscil 45;
#N canvas 0 22 450 300 oscil 46 0;
#X obj 10 10 osc~ 0.07012079064913679;
#X obj 10 68 *~ 0.002375064748541303;
#X obj 10 92 +~ 89.50831711169803;
#X obj 10 116 mtof~;
#X obj 10 140 osc~;
#X obj 10 164 *~ 0.0108;
#X obj 10 188 throw~ dacout;
#X connect 0 0 1 0;
#X connect 1 0 2 0;
#X connect 2 0 3 0;
#X connect 3 0 4 0;
#X connect 4 0 5 0;
#X connect 5 0 6 0;
#X restore 10 1608 pd oscil 46;
#N canvas 0 22 450 300 oscil 47 0;
#X obj 10 10 osc~ 0.01294961888377385;
#X obj 10 68 *~ 0.04229832061939543;
#X obj 10 92 +~ 68.66080451219743;
#X obj 10 116 mtof~;
#X obj 10 140 osc~;
#X obj 10 164 *~ 0.0106;
#X obj 10 188 throw~ dacout;
#X connect 0 0 1 0;
#X connect 1 0 2 0;
#X connect 2 0 3 0;
#X connect 3 0 4 0;
#X connect 4 0 5 0;
#X connect 5 0 6 0;
#X restore 10 1642 pd oscil 47;
#N canvas 0 22 450 300 oscil 48 0;
#X obj 10 10 osc~ 0.01417812455002997;
#X obj 10 68 *~ 0.027853900866302492;
#X obj 10 92 +~ 135.431240588837;
#X obj 10 116 mtof~;
#X obj 10 140 osc~;
#X obj 10 164 *~ 0.010400000000000001;
#X obj 10 188 throw~ dacout;
#X connect 0 0 1 0;
#X connect 1 0 2 0;
#X connect 2 0 3 0;
#X connect 3 0 4 0;
#X connect 4 0 5 0;
#X connect 5 0 6 0;
#X restore 10 1676 pd oscil 48;
#N canvas 0 22 450 300 oscil 49 0;
#X obj 10 10 osc~ 0.047657592473520596;
#X obj 10 68 *~ 0.02658468320545101;
#X obj 10 92 +~ 138.1180853899903;
#X obj 10 116 mtof~;
#X obj 10 140 osc~;
#X obj 10 164 *~ 0.0102;
#X obj 10 188 throw~ dacout;
#X connect 0 0 1 0;
#X connect 1 0 2 0;
#X connect 2 0 3 0;
#X connect 3 0 4 0;
#X connect 4 0 5 0;
#X connect 5 0 6 0;
#X restore 10 1710 pd oscil 49;
#N canvas 0 22 450 300 oscil 50 0;
#X obj 10 10 osc~ 0.0399565593000955;
#X obj 10 68 *~ 0.0010989958755339834;
#X obj 10 92 +~ 106.66503561480465;
#X obj 10 116 mtof~;
#X obj 10 140 osc~;
#X obj 10 164 *~ 0.01;
#X obj 10 188 throw~ dacout;
#X connect 0 0 1 0;
#X connect 1 0 2 0;
#X connect 2 0 3 0;
#X connect 3 0 4 0;
#X connect 4 0 5 0;
#X connect 5 0 6 0;
#X restore 10 1744 pd oscil 50;
#N canvas 0 22 450 300 oscil 51 0;
#X obj 10 10 osc~ 0.06972244910829313;
#X obj 10 68 *~ 0.01484472767627516;
#X obj 10 92 +~ 142.18265911683676;
#X obj 10 116 mtof~;
#X obj 10 140 osc~;
#X obj 10 164 *~ 0.0098;
#X obj 10 188 throw~ dacout;
#X connect 0 0 1 0;
#X connect 1 0 2 0;
#X connect 2 0 3 0;
#X connect 3 0 4 0;
#X connect 4 0 5 0;
#X connect 5 0 6 0;
#X restore 10 1778 pd oscil 51;
#N canvas 0 22 450 300 oscil 52 0;
#X obj 10 10 osc~ 0.07724780180676781;
#X obj 10 68 *~ 0.026356900728624018;
#X obj 10 92 +~ 92.35644014373518;
#X obj 10 116 mtof~;
#X obj 10 140 osc~;
#X obj 10 164 *~ 0.0096;
#X obj 10 188 throw~ dacout;
#X connect 0 0 1 0;
#X connect 1 0 2 0;
#X connect 2 0 3 0;
#X connect 3 0 4 0;
#X connect 4 0 5 0;
#X connect 5 0 6 0;
#X restore 10 1812 pd oscil 52;
#N canvas 0 22 450 300 oscil 53 0;
#X obj 10 10 osc~ 0.003255409308428914;
#X obj 10 68 *~ 0.03399984978618615;
#X obj 10 92 +~ 126.11763979636095;
#X obj 10 116 mtof~;
#X obj 10 140 osc~;
#X obj 10 164 *~ 0.0094;
#X obj 10 188 throw~ dacout;
#X connect 0 0 1 0;
#X connect 1 0 2 0;
#X connect 2 0 3 0;
#X connect 3 0 4 0;
#X connect 4 0 5 0;
#X connect 5 0 6 0;
#X restore 10 1846 pd oscil 53;
#N canvas 0 22 450 300 oscil 54 0;
#X obj 10 10 osc~ 0.06780750729629335;
#X obj 10 68 *~ 0.0005600234118902668;
#X obj 10 92 +~ 109.34833547663565;
#X obj 10 116 mtof~;
#X obj 10 140 osc~;
#X obj 10 164 *~ 0.0092;
#X obj 10 188 throw~ dacout;
#X connect 0 0 1 0;
#X connect 1 0 2 0;
#X connect 2 0 3 0;
#X connect 3 0 4 0;
#X connect 4 0 5 0;
#X connect 5 0 6 0;
#X restore 10 1880 pd oscil 54;
#N canvas 0 22 450 300 oscil 55 0;
#X obj 10 10 osc~ 0.000000e+00;
#X obj 10 68 *~ 0.031184126000681826;
#X obj 10 92 +~ 125.36978856735206;
#X obj 10 116 mtof~;
#X obj 10 140 osc~;
#X obj 10 164 *~ 0.009;
#X obj 10 188 throw~ dacout;
#X connect 0 0 1 0;
#X connect 1 0 2 0;
#X connect 2 0 3 0;
#X connect 3 0 4 0;
#X connect 4 0 5 0;
#X connect 5 0 6 0;
#X restore 10 1914 pd oscil 55;
#N canvas 0 22 450 300 oscil 56 0;
#X obj 10 10 osc~ 0.061209964848911495;
#X obj 10 68 *~ 0.03479736676908151;
#X obj 10 92 +~ 142.55801151937462;
#X obj 10 116 mtof~;
#X obj 10 140 osc~;
#X obj 10 164 *~ 0.008799999999999999;
#X obj 10 188 throw~ dacout;
#X connect 0 0 1 0;
#X connect 1 0 2 0;
#X connect 2 0 3 0;
#X connect 3 0 4 0;
#X connect 4 0 5 0;
#X connect 5 0 6 0;
#X restore 10 1948 pd oscil 56;
#N canvas 0 22 450 300 oscil 57 0;
#X obj 10 10 osc~ 0.053647257136700335;
#X obj 10 68 *~ 0.03481406673678993;
#X obj 10 92 +~ 85.23156284945438;
#X obj 10 116 mtof~;
#X obj 10 140 osc~;
#X obj 10 164 *~ 0.008600000000000002;
#X obj 10 188 throw~ dacout;
#X connect 0 0 1 0;
#X connect 1 0 2 0;
#X connect 2 0 3 0;
#X connect 3 0 4 0;
#X connect 4 0 5 0;
#X connect 5 0 6 0;
#X restore 10 1982 pd oscil 57;
#N canvas 0 22 450 300 oscil 58 0;
#X obj 10 10 osc~ 0.07326938853495478;
#X obj 10 68 *~ 0.006757087078874611;
#X obj 10 92 +~ 97.59474317478438;
#X obj 10 116 mtof~;
#X obj 10 140 osc~;
#X obj 10 164 *~ 0.008400000000000001;
#X obj 10 188 throw~ dacout;
#X connect 0 0 1 0;
#X connect 1 0 2 0;
#X connect 2 0 3 0;
#X connect 3 0 4 0;
#X connect 4 0 5 0;
#X connect 5 0 6 0;
#X restore 10 2016 pd oscil 58;
#N canvas 0 22 450 300 oscil 59 0;
#X obj 10 10 osc~ 0.08551362902333938;
#X obj 10 68 *~ 0.03156862339778392;
#X obj 10 92 +~ 145.8431863769655;
#X obj 10 116 mtof~;
#X obj 10 140 osc~;
#X obj 10 164 *~ 0.0082;
#X obj 10 188 throw~ dacout;
#X connect 0 0 1 0;
#X connect 1 0 2 0;
#X connect 2 0 3 0;
#X connect 3 0 4 0;
#X connect 4 0 5 0;
#X connect 5 0 6 0;
#X restore 10 2050 pd oscil 59;
#N canvas 0 22 450 300 oscil 60 0;
#X obj 10 10 osc~ 0.019941509746578868;
#X obj 10 68 *~ 0.03035881761875844;
#X obj 10 92 +~ 76.05331072196311;
#X obj 10 116 mtof~;
#X obj 10 140 osc~;
#X obj 10 164 *~ 0.008;
#X obj 10 188 throw~ dacout;
#X connect 0 0 1 0;
#X connect 1 0 2 0;
#X connect 2 0 3 0;
#X connect 3 0 4 0;
#X connect 4 0 5 0;
#X connect 5 0 6 0;
#X restore 10 2084 pd oscil 60;
#N canvas 0 22 450 300 oscil 61 0;
#X obj 10 10 osc~ 0.08032407901032007;
#X obj 10 68 *~ 0.030111460789110957;
#X obj 10 92 +~ 68.01767885147427;
#X obj 10 116 mtof~;
#X obj 10 140 osc~;
#X obj 10 164 *~ 0.0078000000000000005;
#X obj 10 188 throw~ dacout;
#X connect 0 0 1 0;
#X connect 1 0 2 0;
#X connect 2 0 3 0;
#X connect 3 0 4 0;
#X connect 4 0 5 0;
#X connect 5 0 6 0;
#X restore 10 2118 pd oscil 61;
#N canvas 0 22 450 300 oscil 62 0;
#X obj 10 10 osc~ 0.09804939910940685;
#X obj 10 68 *~ 0.004272362891942482;
#X obj 10 92 +~ 155.77614995155307;
#X obj 10 116 mtof~;
#X obj 10 140 osc~;
#X obj 10 164 *~ 0.0076;
#X obj 10 188 throw~ dacout;
#X connect 0 0 1 0;
#X connect 1 0 2 0;
#X connect 2 0 3 0;
#X connect 3 0 4 0;
#X connect 4 0 5 0;
#X connect 5 0 6 0;
#X restore 10 2152 pd oscil 62;
#N canvas 0 22 450 300 oscil 63 0;
#X obj 10 10 osc~ 0.07108816407219319;
#X obj 10 68 *~ 0.019997903877877296;
#X obj 10 92 +~ 111.32531660352811;
#X obj 10 116 mtof~;
#X obj 10 140 osc~;
#X obj 10 164 *~ 0.0074;
#X obj 10 188 throw~ dacout;
#X connect 0 0 1 0;
#X connect 1 0 2 0;
#X connect 2 0 3 0;
#X connect 3 0 4 0;
#X connect 4 0 5 0;
#X connect 5 0 6 0;
#X restore 10 2186 pd oscil 63;
#N canvas 0 22 450 300 oscil 64 0;
#X obj 10 10 osc~ 0.08741578717782147;
#X obj 10 68 *~ 0.030988092292489302;
#X obj 10 92 +~ 94.93935149400532;
#X obj 10 116 mtof~;
#X obj 10 140 osc~;
#X obj 10 164 *~ 0.0072;
#X obj 10 188 throw~ dacout;
#X connect 0 0 1 0;
#X connect 1 0 2 0;
#X connect 2 0 3 0;
#X connect 3 0 4 0;
#X connect 4 0 5 0;
#X connect 5 0 6 0;
#X restore 10 2220 pd oscil 64;
#N canvas 0 22 450 300 oscil 65 0;
#X obj 10 10 osc~ 0.021630898812479926;
#X obj 10 68 *~ 0.018144973973708952;
#X obj 10 92 +~ 140.4394507200157;
#X obj 10 116 mtof~;
#X obj 10 140 osc~;
#X obj 10 164 *~ 0.006999999999999999;
#X obj 10 188 throw~ dacout;
#X connect 0 0 1 0;
#X connect 1 0 2 0;
#X connect 2 0 3 0;
#X connect 3 0 4 0;
#X connect 4 0 5 0;
#X connect 5 0 6 0;
#X restore 10 2254 pd oscil 65;
#N canvas 0 22 450 300 oscil 66 0;
#X obj 10 10 osc~ 0.060292767509282946;
#X obj 10 68 *~ 0.02215853952170122;
#X obj 10 92 +~ 167.8566873363152;
#X obj 10 116 mtof~;
#X obj 10 140 osc~;
#X obj 10 164 *~ 0.0068;
#X obj 10 188 throw~ dacout;
#X connect 0 0 1 0;
#X connect 1 0 2 0;
#X connect 2 0 3 0;
#X connect 3 0 4 0;
#X connect 4 0 5 0;
#X connect 5 0 6 0;
#X restore 10 2288 pd oscil 66;
#N canvas 0 22 450 300 oscil 67 0;
#X obj 10 10 osc~ 0.04153392358390669;
#X obj 10 68 *~ 0.0023437769999357858;
#X obj 10 92 +~ 143.91286412672298;
#X obj 10 116 mtof~;
#X obj 10 140 osc~;
#X obj 10 164 *~ 0.006599999999999999;
#X obj 10 188 throw~ dacout;
#X connect 0 0 1 0;
#X connect 1 0 2 0;
#X connect 2 0 3 0;
#X connect 3 0 4 0;
#X connect 4 0 5 0;
#X connect 5 0 6 0;
#X restore 10 2322 pd oscil 67;
#N canvas 0 22 450 300 oscil 68 0;
#X obj 10 10 osc~ 0.0675664505589418;
#X obj 10 68 *~ 0.024877124129787122;
#X obj 10 92 +~ 150.4344578925373;
#X obj 10 116 mtof~;
#X obj 10 140 osc~;
#X obj 10 164 *~ 0.0063999999999999994;
#X obj 10 188 throw~ dacout;
#X connect 0 0 1 0;
#X connect 1 0 2 0;
#X connect 2 0 3 0;
#X connect 3 0 4 0;
#X connect 4 0 5 0;
#X connect 5 0 6 0;
#X restore 10 2356 pd oscil 68;
#N canvas 0 22 450 300 oscil 69 0;
#X obj 10 10 osc~ 0.02178940887907358;
#X obj 10 68 *~ 0.022976130912244864;
#X obj 10 92 +~ 131.37595373281206;
#X obj 10 116 mtof~;
#X obj 10 140 osc~;
#X obj 10 164 *~ 0.0062000000000000015;
#X obj 10 188 throw~ dacout;
#X connect 0 0 1 0;
#X connect 1 0 2 0;
#X connect 2 0 3 0;
#X connect 3 0 4 0;
#X connect 4 0 5 0;
#X connect 5 0 6 0;
#X restore 10 2390 pd oscil 69;
#N canvas 0 22 450 300 oscil 70 0;
#X obj 10 10 osc~ 0.08560125559936761;
#X obj 10 68 *~ 0.026701778269142766;
#X obj 10 92 +~ 66.47037376241394;
#X obj 10 116 mtof~;
#X obj 10 140 osc~;
#X obj 10 164 *~ 0.006000000000000001;
#X obj 10 188 throw~ dacout;
#X connect 0 0 1 0;
#X connect 1 0 2 0;
#X connect 2 0 3 0;
#X connect 3 0 4 0;
#X connect 4 0 5 0;
#X connect 5 0 6 0;
#X restore 10 2424 pd oscil 70;
#N canvas 0 22 450 300 oscil 71 0;
#X obj 10 10 osc~ 0.011783217684105497;
#X obj 10 68 *~ 0.015927905595260104;
#X obj 10 92 +~ 77.21387230699892;
#X obj 10 116 mtof~;
#X obj 10 140 osc~;
#X obj 10 164 *~ 0.0058000000000000005;
#X obj 10 188 throw~ dacout;
#X connect 0 0 1 0;
#X connect 1 0 2 0;
#X connect 2 0 3 0;
#X connect 3 0 4 0;
#X connect 4 0 5 0;
#X connect 5 0 6 0;
#X restore 10 2458 pd oscil 71;
#N canvas 0 22 450 300 oscil 72 0;
#X obj 10 10 osc~ 0.032157475829882536;
#X obj 10 68 *~ 0.0006946708269264431;
#X obj 10 92 +~ 190.60310720092082;
#X obj 10 116 mtof~;
#X obj 10 140 osc~;
#X obj 10 164 *~ 0.005600000000000001;
#X obj 10 188 throw~ dacout;
#X connect 0 0 1 0;
#X connect 1 0 2 0;
#X connect 2 0 3 0;
#X connect 3 0 4 0;
#X connect 4 0 5 0;
#X connect 5 0 6 0;
#X restore 10 2492 pd oscil 72;
#N canvas 0 22 450 300 oscil 73 0;
#X obj 10 10 osc~ 0.0010323333765391296;
#X obj 10 68 *~ 0.021057876398764986;
#X obj 10 92 +~ 123.5171447150882;
#X obj 10 116 mtof~;
#X obj 10 140 osc~;
#X obj 10 164 *~ 0.0054;
#X obj 10 188 throw~ dacout;
#X connect 0 0 1 0;
#X connect 1 0 2 0;
#X connect 2 0 3 0;
#X connect 3 0 4 0;
#X connect 4 0 5 0;
#X connect 5 0 6 0;
#X restore 10 2526 pd oscil 73;
#N canvas 0 22 450 300 oscil 74 0;
#X obj 10 10 osc~ 0.014802519597088682;
#X obj 10 68 *~ 0.017067738808748144;
#X obj 10 92 +~ 170.58409169470116;
#X obj 10 116 mtof~;
#X obj 10 140 osc~;
#X obj 10 164 *~ 0.005200000000000001;
#X obj 10 188 throw~ dacout;
#X connect 0 0 1 0;
#X connect 1 0 2 0;
#X connect 2 0 3 0;
#X connect 3 0 4 0;
#X connect 4 0 5 0;
#X connect 5 0 6 0;
#X restore 10 2560 pd oscil 74;
#N canvas 0 22 450 300 oscil 75 0;
#X obj 10 10 osc~ 0.018647285854888708;
#X obj 10 68 *~ 0.022986449572089722;
#X obj 10 92 +~ 91.15808009974242;
#X obj 10 116 mtof~;
#X obj 10 140 osc~;
#X obj 10 164 *~ 0.005;
#X obj 10 188 throw~ dacout;
#X connect 0 0 1 0;
#X connect 1 0 2 0;
#X connect 2 0 3 0;
#X connect 3 0 4 0;
#X connect 4 0 5 0;
#X connect 5 0 6 0;
#X restore 10 2594 pd oscil 75;
#N canvas 0 22 450 300 oscil 76 0;
#X obj 10 10 osc~ 0.059565153907993565;
#X obj 10 68 *~ 0.020475775736685447;
#X obj 10 92 +~ 137.246671070258;
#X obj 10 116 mtof~;
#X obj 10 140 osc~;
#X obj 10 164 *~ 0.0048;
#X obj 10 188 throw~ dacout;
#X connect 0 0 1 0;
#X connect 1 0 2 0;
#X connect 2 0 3 0;
#X connect 3 0 4 0;
#X connect 4 0 5 0;
#X connect 5 0 6 0;
#X restore 10 2628 pd oscil 76;
#N canvas 0 22 450 300 oscil 77 0;
#X obj 10 10 osc~ 0.02008033697709305;
#X obj 10 68 *~ 0.015985888710994083;
#X obj 10 92 +~ 66.79232184606366;
#X obj 10 116 mtof~;
#X obj 10 140 osc~;
#X obj 10 164 *~ 0.0046;
#X obj 10 188 throw~ dacout;
#X connect 0 0 1 0;
#X connect 1 0 2 0;
#X connect 2 0 3 0;
#X connect 3 0 4 0;
#X connect 4 0 5 0;
#X connect 5 0 6 0;
#X restore 10 2662 pd oscil 77;
#N canvas 0 22 450 300 oscil 78 0;
#X obj 10 10 osc~ 0.005212362959970862;
#X obj 10 68 *~ 0.0005787453356710467;
#X obj 10 92 +~ 136.90910355979972;
#X obj 10 116 mtof~;
#X obj 10 140 osc~;
#X obj 10 164 *~ 0.004399999999999999;
#X obj 10 188 throw~ dacout;
#X connect 0 0 1 0;
#X connect 1 0 2 0;
#X connect 2 0 3 0;
#X connect 3 0 4 0;
#X connect 4 0 5 0;
#X connect 5 0 6 0;
#X restore 10 2696 pd oscil 78;
#N canvas 0 22 450 300 oscil 79 0;
#X obj 10 10 osc~ 0.09713517729285631;
#X obj 10 68 *~ 0.020900863650982822;
#X obj 10 92 +~ 150.88188608309963;
#X obj 10 116 mtof~;
#X obj 10 140 osc~;
#X obj 10 164 *~ 0.0042;
#X obj 10 188 throw~ dacout;
#X connect 0 0 1 0;
#X connect 1 0 2 0;
#X connect 2 0 3 0;
#X connect 3 0 4 0;
#X connect 4 0 5 0;
#X connect 5 0 6 0;
#X restore 10 2730 pd oscil 79;
#N canvas 0 22 450 300 oscil 80 0;
#X obj 10 10 osc~ 0.07726216842278197;
#X obj 10 68 *~ 0.01905371334821939;
#X obj 10 92 +~ 146.05925327820873;
#X obj 10 116 mtof~;
#X obj 10 140 osc~;
#X obj 10 164 *~ 0.003999999999999999;
#X obj 10 188 throw~ dacout;
#X connect 0 0 1 0;
#X connect 1 0 2 0;
#X connect 2 0 3 0;
#X connect 3 0 4 0;
#X connect 4 0 5 0;
#X connect 5 0 6 0;
#X restore 10 2764 pd oscil 80;
#N canvas 0 22 450 300 oscil 81 0;
#X obj 10 10 osc~ 0.026396720483976857;
#X obj 10 68 *~ 0.0035273320849328778;
#X obj 10 92 +~ 160.7598204854285;
#X obj 10 116 mtof~;
#X obj 10 140 osc~;
#X obj 10 164 *~ 0.003799999999999999;
#X obj 10 188 throw~ dacout;
#X connect 0 0 1 0;
#X connect 1 0 2 0;
#X connect 2 0 3 0;
#X connect 3 0 4 0;
#X connect 4 0 5 0;
#X connect 5 0 6 0;
#X restore 10 2798 pd oscil 81;
#N canvas 0 22 450 300 oscil 82 0;
#X obj 10 10 osc~ 0.07675556896306988;
#X obj 10 68 *~ 0.005702745725675816;
#X obj 10 92 +~ 150.1969367330372;
#X obj 10 116 mtof~;
#X obj 10 140 osc~;
#X obj 10 164 *~ 0.003600000000000001;
#X obj 10 188 throw~ dacout;
#X connect 0 0 1 0;
#X connect 1 0 2 0;
#X connect 2 0 3 0;
#X connect 3 0 4 0;
#X connect 4 0 5 0;
#X connect 5 0 6 0;
#X restore 10 2832 pd oscil 82;
#N canvas 0 22 450 300 oscil 83 0;
#X obj 10 10 osc~ 0.020695619827900816;
#X obj 10 68 *~ 0.0010277356964661507;
#X obj 10 92 +~ 71.7374999072723;
#X obj 10 116 mtof~;
#X obj 10 140 osc~;
#X obj 10 164 *~ 0.0034000000000000007;
#X obj 10 188 throw~ dacout;
#X connect 0 0 1 0;
#X connect 1 0 2 0;
#X connect 2 0 3 0;
#X connect 3 0 4 0;
#X connect 4 0 5 0;
#X connect 5 0 6 0;
#X restore 10 2866 pd oscil 83;
#N canvas 0 22 450 300 oscil 84 0;
#X obj 10 10 osc~ 0.007803139388401059;
#X obj 10 68 *~ 0.01373668290639839;
#X obj 10 92 +~ 80.83848958560972;
#X obj 10 116 mtof~;
#X obj 10 140 osc~;
#X obj 10 164 *~ 0.0032000000000000006;
#X obj 10 188 throw~ dacout;
#X connect 0 0 1 0;
#X connect 1 0 2 0;
#X connect 2 0 3 0;
#X connect 3 0 4 0;
#X connect 4 0 5 0;
#X connect 5 0 6 0;
#X restore 10 2900 pd oscil 84;
#N canvas 0 22 450 300 oscil 85 0;
#X obj 10 10 osc~ 0.04513329976993685;
#X obj 10 68 *~ 0.009027305540904433;
#X obj 10 92 +~ 99.43002140014664;
#X obj 10 116 mtof~;
#X obj 10 140 osc~;
#X obj 10 164 *~ 0.0030000000000000005;
#X obj 10 188 throw~ dacout;
#X connect 0 0 1 0;
#X connect 1 0 2 0;
#X connect 2 0 3 0;
#X connect 3 0 4 0;
#X connect 4 0 5 0;
#X connect 5 0 6 0;
#X restore 10 2934 pd oscil 85;
#N canvas 0 22 450 300 oscil 86 0;
#X obj 10 10 osc~ 0.024333110607976716;
#X obj 10 68 *~ 0.0008414924360465044;
#X obj 10 92 +~ 190.52995271660734;
#X obj 10 116 mtof~;
#X obj 10 140 osc~;
#X obj 10 164 *~ 0.0028000000000000004;
#X obj 10 188 throw~ dacout;
#X connect 0 0 1 0;
#X connect 1 0 2 0;
#X connect 2 0 3 0;
#X connect 3 0 4 0;
#X connect 4 0 5 0;
#X connect 5 0 6 0;
#X restore 10 2968 pd oscil 86;
#N canvas 0 22 450 300 oscil 87 0;
#X obj 10 10 osc~ 0.09761425930942241;
#X obj 10 68 *~ 0.021305617296143355;
#X obj 10 92 +~ 128.6535634810467;
#X obj 10 116 mtof~;
#X obj 10 140 osc~;
#X obj 10 164 *~ 0.0026000000000000003;
#X obj 10 188 throw~ dacout;
#X connect 0 0 1 0;
#X connect 1 0 2 0;
#X connect 2 0 3 0;
#X connect 3 0 4 0;
#X connect 4 0 5 0;
#X connect 5 0 6 0;
#X restore 10 3002 pd oscil 87;
#N canvas 0 22 450 300 oscil 88 0;
#X obj 10 10 osc~ 0.04902155889061938;
#X obj 10 68 *~ 0.01718174137421339;
#X obj 10 92 +~ 119.7357572168602;
#X obj 10 116 mtof~;
#X obj 10 140 osc~;
#X obj 10 164 *~ 0.0024;
#X obj 10 188 throw~ dacout;
#X connect 0 0 1 0;
#X connect 1 0 2 0;
#X connect 2 0 3 0;
#X connect 3 0 4 0;
#X connect 4 0 5 0;
#X connect 5 0 6 0;
#X restore 10 3036 pd oscil 88;
#N canvas 0 22 450 300 oscil 89 0;
#X obj 10 10 osc~ 0.04604610699767351;
#X obj 10 68 *~ 0.022002634126854218;
#X obj 10 92 +~ 121.3155748901965;
#X obj 10 116 mtof~;
#X obj 10 140 osc~;
#X obj 10 164 *~ 0.0021999999999999997;
#X obj 10 188 throw~ dacout;
#X connect 0 0 1 0;
#X connect 1 0 2 0;
#X connect 2 0 3 0;
#X connect 3 0 4 0;
#X connect 4 0 5 0;
#X connect 5 0 6 0;
#X restore 10 3070 pd oscil 89;
#N canvas 0 22 450 300 oscil 90 0;
#X obj 10 10 osc~ 0.09385529287458518;
#X obj 10 68 *~ 0.004384404059322549;
#X obj 10 92 +~ 207.8517511165147;
#X obj 10 116 mtof~;
#X obj 10 140 osc~;
#X obj 10 164 *~ 0.0019999999999999996;
#X obj 10 188 throw~ dacout;
#X connect 0 0 1 0;
#X connect 1 0 2 0;
#X connect 2 0 3 0;
#X connect 3 0 4 0;
#X connect 4 0 5 0;
#X connect 5 0 6 0;
#X restore 10 3104 pd oscil 90;
#N canvas 0 22 450 300 oscil 91 0;
#X obj 10 10 osc~ 0.005142376184652498;
#X obj 10 68 *~ 0.01469434762846709;
#X obj 10 92 +~ 160.5725137445154;
#X obj 10 116 mtof~;
#X obj 10 140 osc~;
#X obj 10 164 *~ 0.0017999999999999995;
#X obj 10 188 throw~ dacout;
#X connect 0 0 1 0;
#X connect 1 0 2 0;
#X connect 2 0 3 0;
#X connect 3 0 4 0;
#X connect 4 0 5 0;
#X connect 5 0 6 0;
#X restore 10 3138 pd oscil 91;
#N canvas 0 22 450 300 oscil 92 0;
#X obj 10 10 osc~ 0.0029529651554771608;
#X obj 10 68 *~ 0.0008056819137312671;
#X obj 10 92 +~ 110.80544207940628;
#X obj 10 116 mtof~;
#X obj 10 140 osc~;
#X obj 10 164 *~ 0.0015999999999999992;
#X obj 10 188 throw~ dacout;
#X connect 0 0 1 0;
#X connect 1 0 2 0;
#X connect 2 0 3 0;
#X connect 3 0 4 0;
#X connect 4 0 5 0;
#X connect 5 0 6 0;
#X restore 10 3172 pd oscil 92;
#N canvas 0 22 450 300 oscil 93 0;
#X obj 10 10 osc~ 0.026874185847186517;
#X obj 10 68 *~ 0.009444062764479661;
#X obj 10 92 +~ 170.60570608202767;
#X obj 10 116 mtof~;
#X obj 10 140 osc~;
#X obj 10 164 *~ 0.0013999999999999991;
#X obj 10 188 throw~ dacout;
#X connect 0 0 1 0;
#X connect 1 0 2 0;
#X connect 2 0 3 0;
#X connect 3 0 4 0;
#X connect 4 0 5 0;
#X connect 5 0 6 0;
#X restore 10 3206 pd oscil 93;
#N canvas 0 22 450 300 oscil 94 0;
#X obj 10 10 osc~ 0.09881650319547791;
#X obj 10 68 *~ 0.012321585324338052;
#X obj 10 92 +~ 164.61383291382373;
#X obj 10 116 mtof~;
#X obj 10 140 osc~;
#X obj 10 164 *~ 0.0012000000000000012;
#X obj 10 188 throw~ dacout;
#X connect 0 0 1 0;
#X connect 1 0 2 0;
#X connect 2 0 3 0;
#X connect 3 0 4 0;
#X connect 4 0 5 0;
#X connect 5 0 6 0;
#X restore 10 3240 pd oscil 94;
#N canvas 0 22 450 300 oscil 95 0;
#X obj 10 10 osc~ 0.04924688916177899;
#X obj 10 68 *~ 0.00996504445287759;
#X obj 10 92 +~ 202.48816060131298;
#X obj 10 116 mtof~;
#X obj 10 140 osc~;
#X obj 10 164 *~ 0.0010000000000000009;
#X obj 10 188 throw~ dacout;
#X connect 0 0 1 0;
#X connect 1 0 2 0;
#X connect 2 0 3 0;
#X connect 3 0 4 0;
#X connect 4 0 5 0;
#X connect 5 0 6 0;
#X restore 10 3274 pd oscil 95;
#N canvas 0 22 450 300 oscil 96 0;
#X obj 10 10 osc~ 0.08574853621501048;
#X obj 10 68 *~ 0.010790324507368531;
#X obj 10 92 +~ 176.08214137670052;
#X obj 10 116 mtof~;
#X obj 10 140 osc~;
#X obj 10 164 *~ 0.0008000000000000007;
#X obj 10 188 throw~ dacout;
#X connect 0 0 1 0;
#X connect 1 0 2 0;
#X connect 2 0 3 0;
#X connect 3 0 4 0;
#X connect 4 0 5 0;
#X connect 5 0 6 0;
#X restore 10 3308 pd oscil 96;
#N canvas 0 22 450 300 oscil 97 0;
#X obj 10 10 osc~ 0.030047335187990354;
#X obj 10 68 *~ 0.006090925813310466;
#X obj 10 92 +~ 145.34325527644128;
#X obj 10 116 mtof~;
#X obj 10 140 osc~;
#X obj 10 164 *~ 0.0006000000000000006;
#X obj 10 188 throw~ dacout;
#X connect 0 0 1 0;
#X connect 1 0 2 0;
#X connect 2 0 3 0;
#X connect 3 0 4 0;
#X connect 4 0 5 0;
#X connect 5 0 6 0;
#X restore 10 3342 pd oscil 97;
#N canvas 0 22 450 300 oscil 98 0;
#X obj 10 10 osc~ 0.05634683739618257;
#X obj 10 68 *~ 0.007835764588496516;
#X obj 10 92 +~ 217.13743991060412;
#X obj 10 116 mtof~;
#X obj 10 140 osc~;
#X obj 10 164 *~ 0.00040000000000000034;
#X obj 10 188 throw~ dacout;
#X connect 0 0 1 0;
#X connect 1 0 2 0;
#X connect 2 0 3 0;
#X connect 3 0 4 0;
#X connect 4 0 5 0;
#X connect 5 0 6 0;
#X restore 10 3376 pd oscil 98;
#N canvas 0 22 450 300 oscil 99 0;
#X obj 10 10 osc~ 0.012751917557008231;
#X obj 10 68 *~ 0.006149685627432723;
#X obj 10 92 +~ 96.11064585690585;
#X obj 10 116 mtof~;
#X obj 10 140 osc~;
#X obj 10 164 *~ 0.00020000000000000017;
#X obj 10 188 throw~ dacout;
#X connect 0 0 1 0;
#X connect 1 0 2 0;
#X connect 2 0 3 0;
#X connect 3 0 4 0;
#X connect 4 0 5 0;
#X connect 5 0 6 0;
#X restore 10 3410 pd oscil 99;
