#N canvas 0 22 450 300 12;
#N canvas 0 22 450 300 loadbang 0;
#X obj 10 10 loadbang;
#X msg 10 68 \; pd dsp 1;
#X connect 0 0 1 0;
#X restore 10 10 pd loadbang;
#N canvas 0 22 450 300 dacout 0;
#X obj 10 10 loadbang;
#X obj 10 68 del 10;
#X msg 10 92 0.8 100;
#X obj 10 116 line~;
#X obj 10 188 catch~ dacout;
#X obj 10 140 *~;
#X obj 10 164 clip~ -0.707 0.707;
#X obj 10 188 dac~ 1;
#X connect 4 0 5 0;
#X connect 5 0 6 0;
#X connect 6 0 7 0;
#X connect 0 0 1 0;
#X connect 1 0 2 0;
#X connect 2 0 3 0;
#X connect 3 0 5 1;
#X restore 10 44 pd dacout;
#N canvas 0 22 450 300 oscil 1 0;
#X obj 10 10 osc~ 0.03857154883414557;
#X obj 10 68 *~ 0.4336905603295105;
#X obj 10 92 +~ 66.47560582736457;
#X obj 10 116 mtof~;
#X obj 10 140 osc~;
#X obj 10 164 *~ 0.0198;
#X obj 10 188 throw~ dacout;
#X connect 0 0 1 0;
#X connect 1 0 2 0;
#X connect 2 0 3 0;
#X connect 3 0 4 0;
#X connect 4 0 5 0;
#X connect 5 0 6 0;
#X restore 10 78 pd oscil 1;
#N canvas 0 22 450 300 oscil 2 0;
#X obj 10 10 osc~ 0.06270864932428401;
#X obj 10 68 *~ 0.3970887384680175;
#X obj 10 92 +~ 65.18020025328222;
#X obj 10 116 mtof~;
#X obj 10 140 osc~;
#X obj 10 164 *~ 0.0196;
#X obj 10 188 throw~ dacout;
#X connect 0 0 1 0;
#X connect 1 0 2 0;
#X connect 2 0 3 0;
#X connect 3 0 4 0;
#X connect 4 0 5 0;
#X connect 5 0 6 0;
#X restore 10 112 pd oscil 2;
#N canvas 0 22 450 300 oscil 3 0;
#X obj 10 10 osc~ 0.06094528819822706;
#X obj 10 68 *~ 0.48866160859060065;
#X obj 10 92 +~ 66.5314855735;
#X obj 10 116 mtof~;
#X obj 10 140 osc~;
#X obj 10 164 *~ 0.0194;
#X obj 10 188 throw~ dacout;
#X connect 0 0 1 0;
#X connect 1 0 2 0;
#X connect 2 0 3 0;
#X connect 3 0 4 0;
#X connect 4 0 5 0;
#X connect 5 0 6 0;
#X restore 10 146 pd oscil 3;
#N canvas 0 22 450 300 oscil 4 0;
#X obj 10 10 osc~ 0.041334531027635894;
#X obj 10 68 *~ 0.28222711240804477;
#X obj 10 92 +~ 67.39849713748116;
#X obj 10 116 mtof~;
#X obj 10 140 osc~;
#X obj 10 164 *~ 0.0192;
#X obj 10 188 throw~ dacout;
#X connect 0 0 1 0;
#X connect 1 0 2 0;
#X connect 2 0 3 0;
#X connect 3 0 4 0;
#X connect 4 0 5 0;
#X connect 5 0 6 0;
#X restore 10 180 pd oscil 4;
#N canvas 0 22 450 300 oscil 5 0;
#X obj 10 10 osc~ 0.04993247787562304;
#X obj 10 68 *~ 0.052717845714283174;
#X obj 10 92 +~ 69.33975273534676;
#X obj 10 116 mtof~;
#X obj 10 140 osc~;
#X obj 10 164 *~ 0.019;
#X obj 10 188 throw~ dacout;
#X connect 0 0 1 0;
#X connect 1 0 2 0;
#X connect 2 0 3 0;
#X connect 3 0 4 0;
#X connect 4 0 5 0;
#X connect 5 0 6 0;
#X restore 10 214 pd oscil 5;
#N canvas 0 22 450 300 oscil 6 0;
#X obj 10 10 osc~ 0.021156793989005464;
#X obj 10 68 *~ 0.12311451583427842;
#X obj 10 92 +~ 67.29643762834955;
#X obj 10 116 mtof~;
#X obj 10 140 osc~;
#X obj 10 164 *~ 0.0188;
#X obj 10 188 throw~ dacout;
#X connect 0 0 1 0;
#X connect 1 0 2 0;
#X connect 2 0 3 0;
#X connect 3 0 4 0;
#X connect 4 0 5 0;
#X connect 5 0 6 0;
#X restore 10 248 pd oscil 6;
#N canvas 0 22 450 300 oscil 7 0;
#X obj 10 10 osc~ 0.0798747271954659;
#X obj 10 68 *~ 0.06406936789761179;
#X obj 10 92 +~ 71.74619815617672;
#X obj 10 116 mtof~;
#X obj 10 140 osc~;
#X obj 10 164 *~ 0.0186;
#X obj 10 188 throw~ dacout;
#X connect 0 0 1 0;
#X connect 1 0 2 0;
#X connect 2 0 3 0;
#X connect 3 0 4 0;
#X connect 4 0 5 0;
#X connect 5 0 6 0;
#X restore 10 282 pd oscil 7;
#N canvas 0 22 450 300 oscil 8 0;
#X obj 10 10 osc~ 0.022570783645849204;
#X obj 10 68 *~ 0.029016558097706285;
#X obj 10 92 +~ 65.8962577021001;
#X obj 10 116 mtof~;
#X obj 10 140 osc~;
#X obj 10 164 *~ 0.0184;
#X obj 10 188 throw~ dacout;
#X connect 0 0 1 0;
#X connect 1 0 2 0;
#X connect 2 0 3 0;
#X connect 3 0 4 0;
#X connect 4 0 5 0;
#X connect 5 0 6 0;
#X restore 10 316 pd oscil 8;
#N canvas 0 22 450 300 oscil 9 0;
#X obj 10 10 osc~ 0.021886028188923948;
#X obj 10 68 *~ 0.1526932288422367;
#X obj 10 92 +~ 72.03149771430398;
#X obj 10 116 mtof~;
#X obj 10 140 osc~;
#X obj 10 164 *~ 0.0182;
#X obj 10 188 throw~ dacout;
#X connect 0 0 1 0;
#X connect 1 0 2 0;
#X connect 2 0 3 0;
#X connect 3 0 4 0;
#X connect 4 0 5 0;
#X connect 5 0 6 0;
#X restore 10 350 pd oscil 9;
#N canvas 0 22 450 300 oscil 10 0;
#X obj 10 10 osc~ 0.023169976894046318;
#X obj 10 68 *~ 0.14562836032653945;
#X obj 10 92 +~ 72.75049700675147;
#X obj 10 116 mtof~;
#X obj 10 140 osc~;
#X obj 10 164 *~ 0.018000000000000002;
#X obj 10 188 throw~ dacout;
#X connect 0 0 1 0;
#X connect 1 0 2 0;
#X connect 2 0 3 0;
#X connect 3 0 4 0;
#X connect 4 0 5 0;
#X connect 5 0 6 0;
#X restore 10 384 pd oscil 10;
#N canvas 0 22 450 300 oscil 11 0;
#X obj 10 10 osc~ 0.05183207107246597;
#X obj 10 68 *~ 0.05378748801701594;
#X obj 10 92 +~ 66.09003479926264;
#X obj 10 116 mtof~;
#X obj 10 140 osc~;
#X obj 10 164 *~ 0.0178;
#X obj 10 188 throw~ dacout;
#X connect 0 0 1 0;
#X connect 1 0 2 0;
#X connect 2 0 3 0;
#X connect 3 0 4 0;
#X connect 4 0 5 0;
#X connect 5 0 6 0;
#X restore 10 418 pd oscil 11;
#N canvas 0 22 450 300 oscil 12 0;
#X obj 10 10 osc~ 0.0035042430574657394;
#X obj 10 68 *~ 0.014918697255482375;
#X obj 10 92 +~ 78.46238628738243;
#X obj 10 116 mtof~;
#X obj 10 140 osc~;
#X obj 10 164 *~ 0.0176;
#X obj 10 188 throw~ dacout;
#X connect 0 0 1 0;
#X connect 1 0 2 0;
#X connect 2 0 3 0;
#X connect 3 0 4 0;
#X connect 4 0 5 0;
#X connect 5 0 6 0;
#X restore 10 452 pd oscil 12;
#N canvas 0 22 450 300 oscil 13 0;
#X obj 10 10 osc~ 0.09319941835086587;
#X obj 10 68 *~ 0.13973008654274943;
#X obj 10 92 +~ 79.43402074185312;
#X obj 10 116 mtof~;
#X obj 10 140 osc~;
#X obj 10 164 *~ 0.0174;
#X obj 10 188 throw~ dacout;
#X connect 0 0 1 0;
#X connect 1 0 2 0;
#X connect 2 0 3 0;
#X connect 3 0 4 0;
#X connect 4 0 5 0;
#X connect 5 0 6 0;
#X restore 10 486 pd oscil 13;
#N canvas 0 22 450 300 oscil 14 0;
#X obj 10 10 osc~ 0.08951531635774904;
#X obj 10 68 *~ 0.10556164905323603;
#X obj 10 92 +~ 81.86856421364601;
#X obj 10 116 mtof~;
#X obj 10 140 osc~;
#X obj 10 164 *~ 0.0172;
#X obj 10 188 throw~ dacout;
#X connect 0 0 1 0;
#X connect 1 0 2 0;
#X connect 2 0 3 0;
#X connect 3 0 4 0;
#X connect 4 0 5 0;
#X connect 5 0 6 0;
#X restore 10 520 pd oscil 14;
#N canvas 0 22 450 300 oscil 15 0;
#X obj 10 10 osc~ 0.07220978818227769;
#X obj 10 68 *~ 0.025976518233428718;
#X obj 10 92 +~ 84.94013599002857;
#X obj 10 116 mtof~;
#X obj 10 140 osc~;
#X obj 10 164 *~ 0.017;
#X obj 10 188 throw~ dacout;
#X connect 0 0 1 0;
#X connect 1 0 2 0;
#X connect 2 0 3 0;
#X connect 3 0 4 0;
#X connect 4 0 5 0;
#X connect 5 0 6 0;
#X restore 10 554 pd oscil 15;
#N canvas 0 22 450 300 oscil 16 0;
#X obj 10 10 osc~ 0.08049025290050066;
#X obj 10 68 *~ 0.10367687242340679;
#X obj 10 92 +~ 80.07393144431113;
#X obj 10 116 mtof~;
#X obj 10 140 osc~;
#X obj 10 164 *~ 0.0168;
#X obj 10 188 throw~ dacout;
#X connect 0 0 1 0;
#X connect 1 0 2 0;
#X connect 2 0 3 0;
#X connect 3 0 4 0;
#X connect 4 0 5 0;
#X connect 5 0 6 0;
#X restore 10 588 pd oscil 16;
#N canvas 0 22 450 300 oscil 17 0;
#X obj 10 10 osc~ 0.05235006802771395;
#X obj 10 68 *~ 0.09665005879509996;
#X obj 10 92 +~ 91.90303001407354;
#X obj 10 116 mtof~;
#X obj 10 140 osc~;
#X obj 10 164 *~ 0.0166;
#X obj 10 188 throw~ dacout;
#X connect 0 0 1 0;
#X connect 1 0 2 0;
#X connect 2 0 3 0;
#X connect 3 0 4 0;
#X connect 4 0 5 0;
#X connect 5 0 6 0;
#X restore 10 622 pd oscil 17;
#N canvas 0 22 450 300 oscil 18 0;
#X obj 10 10 osc~ 0.02449471984742163;
#X obj 10 68 *~ 0.007359614968913044;
#X obj 10 92 +~ 85.00116005316505;
#X obj 10 116 mtof~;
#X obj 10 140 osc~;
#X obj 10 164 *~ 0.0164;
#X obj 10 188 throw~ dacout;
#X connect 0 0 1 0;
#X connect 1 0 2 0;
#X connect 2 0 3 0;
#X connect 3 0 4 0;
#X connect 4 0 5 0;
#X connect 5 0 6 0;
#X restore 10 656 pd oscil 18;
#N canvas 0 22 450 300 oscil 19 0;
#X obj 10 10 osc~ 0.08553389769657285;
#X obj 10 68 *~ 0.08041535160966347;
#X obj 10 92 +~ 67.32748575075973;
#X obj 10 116 mtof~;
#X obj 10 140 osc~;
#X obj 10 164 *~ 0.016200000000000003;
#X obj 10 188 throw~ dacout;
#X connect 0 0 1 0;
#X connect 1 0 2 0;
#X connect 2 0 3 0;
#X connect 3 0 4 0;
#X connect 4 0 5 0;
#X connect 5 0 6 0;
#X restore 10 690 pd oscil 19;
#N canvas 0 22 450 300 oscil 20 0;
#X obj 10 10 osc~ 0.06875558794698454;
#X obj 10 68 *~ 0.05711823720490693;
#X obj 10 92 +~ 76.73906691413931;
#X obj 10 116 mtof~;
#X obj 10 140 osc~;
#X obj 10 164 *~ 0.016;
#X obj 10 188 throw~ dacout;
#X connect 0 0 1 0;
#X connect 1 0 2 0;
#X connect 2 0 3 0;
#X connect 3 0 4 0;
#X connect 4 0 5 0;
#X connect 5 0 6 0;
#X restore 10 724 pd oscil 20;
#N canvas 0 22 450 300 oscil 21 0;
#X obj 10 10 osc~ 0.08079617067800013;
#X obj 10 68 *~ 0.010227119204705912;
#X obj 10 92 +~ 79.51951731271913;
#X obj 10 116 mtof~;
#X obj 10 140 osc~;
#X obj 10 164 *~ 0.0158;
#X obj 10 188 throw~ dacout;
#X connect 0 0 1 0;
#X connect 1 0 2 0;
#X connect 2 0 3 0;
#X connect 3 0 4 0;
#X connect 4 0 5 0;
#X connect 5 0 6 0;
#X restore 10 758 pd oscil 21;
#N canvas 0 22 450 300 oscil 22 0;
#X obj 10 10 osc~ 0.049176778712837634;
#X obj 10 68 *~ 0.00914036195671822;
#X obj 10 92 +~ 71.0071521448571;
#X obj 10 116 mtof~;
#X obj 10 140 osc~;
#X obj 10 164 *~ 0.015600000000000001;
#X obj 10 188 throw~ dacout;
#X connect 0 0 1 0;
#X connect 1 0 2 0;
#X connect 2 0 3 0;
#X connect 3 0 4 0;
#X connect 4 0 5 0;
#X connect 5 0 6 0;
#X restore 10 792 pd oscil 22;
#N canvas 0 22 450 300 oscil 23 0;
#X obj 10 10 osc~ 0.012117942711941432;
#X obj 10 68 *~ 0.019721362890718377;
#X obj 10 92 +~ 95.84206302797455;
#X obj 10 116 mtof~;
#X obj 10 140 osc~;
#X obj 10 164 *~ 0.0154;
#X obj 10 188 throw~ dacout;
#X connect 0 0 1 0;
#X connect 1 0 2 0;
#X connect 2 0 3 0;
#X connect 3 0 4 0;
#X connect 4 0 5 0;
#X connect 5 0 6 0;
#X restore 10 826 pd oscil 23;
#N canvas 0 22 450 300 oscil 24 0;
#X obj 10 10 osc~ 0.039202770478954645;
#X obj 10 68 *~ 0.08228774203496429;
#X obj 10 92 +~ 73.83785555995689;
#X obj 10 116 mtof~;
#X obj 10 140 osc~;
#X obj 10 164 *~ 0.0152;
#X obj 10 188 throw~ dacout;
#X connect 0 0 1 0;
#X connect 1 0 2 0;
#X connect 2 0 3 0;
#X connect 3 0 4 0;
#X connect 4 0 5 0;
#X connect 5 0 6 0;
#X restore 10 860 pd oscil 24;
#N canvas 0 22 450 300 oscil 25 0;
#X obj 10 10 osc~ 0.064218052937129;
#X obj 10 68 *~ 0.008254678207370495;
#X obj 10 92 +~ 82.50312966904121;
#X obj 10 116 mtof~;
#X obj 10 140 osc~;
#X obj 10 164 *~ 0.015;
#X obj 10 188 throw~ dacout;
#X connect 0 0 1 0;
#X connect 1 0 2 0;
#X connect 2 0 3 0;
#X connect 3 0 4 0;
#X connect 4 0 5 0;
#X connect 5 0 6 0;
#X restore 10 894 pd oscil 25;
#N canvas 0 22 450 300 oscil 26 0;
#X obj 10 10 osc~ 0.03823309948687888;
#X obj 10 68 *~ 0.006780547627691391;
#X obj 10 92 +~ 97.99909256491036;
#X obj 10 116 mtof~;
#X obj 10 140 osc~;
#X obj 10 164 *~ 0.0148;
#X obj 10 188 throw~ dacout;
#X connect 0 0 1 0;
#X connect 1 0 2 0;
#X connect 2 0 3 0;
#X connect 3 0 4 0;
#X connect 4 0 5 0;
#X connect 5 0 6 0;
#X restore 10 928 pd oscil 26;
#N canvas 0 22 450 300 oscil 27 0;
#X obj 10 10 osc~ 0.01685359153129942;
#X obj 10 68 *~ 0.030518687067329034;
#X obj 10 92 +~ 95.7331735893247;
#X obj 10 116 mtof~;
#X obj 10 140 osc~;
#X obj 10 164 *~ 0.0146;
#X obj 10 188 throw~ dacout;
#X connect 0 0 1 0;
#X connect 1 0 2 0;
#X connect 2 0 3 0;
#X connect 3 0 4 0;
#X connect 4 0 5 0;
#X connect 5 0 6 0;
#X restore 10 962 pd oscil 27;
#N canvas 0 22 450 300 oscil 28 0;
#X obj 10 10 osc~ 0.058285469392814065;
#X obj 10 68 *~ 0.008467282528260471;
#X obj 10 92 +~ 111.29902733438067;
#X obj 10 116 mtof~;
#X obj 10 140 osc~;
#X obj 10 164 *~ 0.0144;
#X obj 10 188 throw~ dacout;
#X connect 0 0 1 0;
#X connect 1 0 2 0;
#X connect 2 0 3 0;
#X connect 3 0 4 0;
#X connect 4 0 5 0;
#X connect 5 0 6 0;
#X restore 10 996 pd oscil 28;
#N canvas 0 22 450 300 oscil 29 0;
#X obj 10 10 osc~ 0.0008956449314139304;
#X obj 10 68 *~ 0.0019493564621781367;
#X obj 10 92 +~ 102.93477536373292;
#X obj 10 116 mtof~;
#X obj 10 140 osc~;
#X obj 10 164 *~ 0.014199999999999999;
#X obj 10 188 throw~ dacout;
#X connect 0 0 1 0;
#X connect 1 0 2 0;
#X connect 2 0 3 0;
#X connect 3 0 4 0;
#X connect 4 0 5 0;
#X connect 5 0 6 0;
#X restore 10 1030 pd oscil 29;
#N canvas 0 22 450 300 oscil 30 0;
#X obj 10 10 osc~ 0.035120383451304575;
#X obj 10 68 *~ 0.03739709832199981;
#X obj 10 92 +~ 87.43509718393697;
#X obj 10 116 mtof~;
#X obj 10 140 osc~;
#X obj 10 164 *~ 0.013999999999999999;
#X obj 10 188 throw~ dacout;
#X connect 0 0 1 0;
#X connect 1 0 2 0;
#X connect 2 0 3 0;
#X connect 3 0 4 0;
#X connect 4 0 5 0;
#X connect 5 0 6 0;
#X restore 10 1064 pd oscil 30;
#N canvas 0 22 450 300 oscil 31 0;
#X obj 10 10 osc~ 0.07740491059880411;
#X obj 10 68 *~ 0.043003597814252524;
#X obj 10 92 +~ 87.941222771788;
#X obj 10 116 mtof~;
#X obj 10 140 osc~;
#X obj 10 164 *~ 0.0138;
#X obj 10 188 throw~ dacout;
#X connect 0 0 1 0;
#X connect 1 0 2 0;
#X connect 2 0 3 0;
#X connect 3 0 4 0;
#X connect 4 0 5 0;
#X connect 5 0 6 0;
#X restore 10 1098 pd oscil 31;
#N canvas 0 22 450 300 oscil 32 0;
#X obj 10 10 osc~ 0.03759693282839648;
#X obj 10 68 *~ 0.013620741917804963;
#X obj 10 92 +~ 109.36094209787743;
#X obj 10 116 mtof~;
#X obj 10 140 osc~;
#X obj 10 164 *~ 0.0136;
#X obj 10 188 throw~ dacout;
#X connect 0 0 1 0;
#X connect 1 0 2 0;
#X connect 2 0 3 0;
#X connect 3 0 4 0;
#X connect 4 0 5 0;
#X connect 5 0 6 0;
#X restore 10 1132 pd oscil 32;
#N canvas 0 22 450 300 oscil 33 0;
#X obj 10 10 osc~ 0.08400791405642359;
#X obj 10 68 *~ 0.03221048283644084;
#X obj 10 92 +~ 87.46854788035274;
#X obj 10 116 mtof~;
#X obj 10 140 osc~;
#X obj 10 164 *~ 0.013399999999999999;
#X obj 10 188 throw~ dacout;
#X connect 0 0 1 0;
#X connect 1 0 2 0;
#X connect 2 0 3 0;
#X connect 3 0 4 0;
#X connect 4 0 5 0;
#X connect 5 0 6 0;
#X restore 10 1166 pd oscil 33;
#N canvas 0 22 450 300 oscil 34 0;
#X obj 10 10 osc~ 0.005238376253865385;
#X obj 10 68 *~ 0.00744142963346285;
#X obj 10 92 +~ 80.02996008943892;
#X obj 10 116 mtof~;
#X obj 10 140 osc~;
#X obj 10 164 *~ 0.013199999999999998;
#X obj 10 188 throw~ dacout;
#X connect 0 0 1 0;
#X connect 1 0 2 0;
#X connect 2 0 3 0;
#X connect 3 0 4 0;
#X connect 4 0 5 0;
#X connect 5 0 6 0;
#X restore 10 1200 pd oscil 34;
#N canvas 0 22 450 300 oscil 35 0;
#X obj 10 10 osc~ 0.015564322410697684;
#X obj 10 68 *~ 0.04257028826338778;
#X obj 10 92 +~ 117.98090835326889;
#X obj 10 116 mtof~;
#X obj 10 140 osc~;
#X obj 10 164 *~ 0.013000000000000001;
#X obj 10 188 throw~ dacout;
#X connect 0 0 1 0;
#X connect 1 0 2 0;
#X connect 2 0 3 0;
#X connect 3 0 4 0;
#X connect 4 0 5 0;
#X connect 5 0 6 0;
#X restore 10 1234 pd oscil 35;
#N canvas 0 22 450 300 oscil 36 0;
#X obj 10 10 osc~ 0.05433444238275691;
#X obj 10 68 *~ 0.052290639132953634;
#X obj 10 92 +~ 123.00316038369428;
#X obj 10 116 mtof~;
#X obj 10 140 osc~;
#X obj 10 164 *~ 0.0128;
#X obj 10 188 throw~ dacout;
#X connect 0 0 1 0;
#X connect 1 0 2 0;
#X connect 2 0 3 0;
#X connect 3 0 4 0;
#X connect 4 0 5 0;
#X connect 5 0 6 0;
#X restore 10 1268 pd oscil 36;
#N canvas 0 22 450 300 oscil 37 0;
#X obj 10 10 osc~ 0.07311921125850404;
#X obj 10 68 *~ 0.025205499105169272;
#X obj 10 92 +~ 89.98239458992931;
#X obj 10 116 mtof~;
#X obj 10 140 osc~;
#X obj 10 164 *~ 0.0126;
#X obj 10 188 throw~ dacout;
#X connect 0 0 1 0;
#X connect 1 0 2 0;
#X connect 2 0 3 0;
#X connect 3 0 4 0;
#X connect 4 0 5 0;
#X connect 5 0 6 0;
#X restore 10 1302 pd oscil 37;
#N canvas 0 22 450 300 oscil 38 0;
#X obj 10 10 osc~ 0.029752970835977877;
#X obj 10 68 *~ 0.040202561779796364;
#X obj 10 92 +~ 105.0418002080428;
#X obj 10 116 mtof~;
#X obj 10 140 osc~;
#X obj 10 164 *~ 0.0124;
#X obj 10 188 throw~ dacout;
#X connect 0 0 1 0;
#X connect 1 0 2 0;
#X connect 2 0 3 0;
#X connect 3 0 4 0;
#X connect 4 0 5 0;
#X connect 5 0 6 0;
#X restore 10 1336 pd oscil 38;
#N canvas 0 22 450 300 oscil 39 0;
#X obj 10 10 osc~ 0.02006547213203639;
#X obj 10 68 *~ 0.0360806679592463;
#X obj 10 92 +~ 74.19592684084154;
#X obj 10 116 mtof~;
#X obj 10 140 osc~;
#X obj 10 164 *~ 0.0122;
#X obj 10 188 throw~ dacout;
#X connect 0 0 1 0;
#X connect 1 0 2 0;
#X connect 2 0 3 0;
#X connect 3 0 4 0;
#X connect 4 0 5 0;
#X connect 5 0 6 0;
#X restore 10 1370 pd oscil 39;
#N canvas 0 22 450 300 oscil 40 0;
#X obj 10 10 osc~ 0.0764723096205231;
#X obj 10 68 *~ 0.03543515044756234;
#X obj 10 92 +~ 121.39830020046341;
#X obj 10 116 mtof~;
#X obj 10 140 osc~;
#X obj 10 164 *~ 0.012;
#X obj 10 188 throw~ dacout;
#X connect 0 0 1 0;
#X connect 1 0 2 0;
#X connect 2 0 3 0;
#X connect 3 0 4 0;
#X connect 4 0 5 0;
#X connect 5 0 6 0;
#X restore 10 1404 pd oscil 40;
#N canvas 0 22 450 300 oscil 41 0;
#X obj 10 10 osc~ 0.024050119737128707;
#X obj 10 68 *~ 0.04442589860798391;
#X obj 10 92 +~ 88.28501852557142;
#X obj 10 116 mtof~;
#X obj 10 140 osc~;
#X obj 10 164 *~ 0.011800000000000001;
#X obj 10 188 throw~ dacout;
#X connect 0 0 1 0;
#X connect 1 0 2 0;
#X connect 2 0 3 0;
#X connect 3 0 4 0;
#X connect 4 0 5 0;
#X connect 5 0 6 0;
#X restore 10 1438 pd oscil 41;
#N canvas 0 22 450 300 oscil 42 0;
#X obj 10 10 osc~ 0.06170494570259991;
#X obj 10 68 *~ 0.03360239119523295;
#X obj 10 92 +~ 138.4932733430466;
#X obj 10 116 mtof~;
#X obj 10 140 osc~;
#X obj 10 164 *~ 0.011600000000000001;
#X obj 10 188 throw~ dacout;
#X connect 0 0 1 0;
#X connect 1 0 2 0;
#X connect 2 0 3 0;
#X connect 3 0 4 0;
#X connect 4 0 5 0;
#X connect 5 0 6 0;
#X restore 10 1472 pd oscil 42;
#N canvas 0 22 450 300 oscil 43 0;
#X obj 10 10 osc~ 0.05702737651941134;
#X obj 10 68 *~ 0.01141672541617426;
#X obj 10 92 +~ 117.1240697636697;
#X obj 10 116 mtof~;
#X obj 10 140 osc~;
#X obj 10 164 *~ 0.011400000000000002;
#X obj 10 188 throw~ dacout;
#X connect 0 0 1 0;
#X connect 1 0 2 0;
#X connect 2 0 3 0;
#X connect 3 0 4 0;
#X connect 4 0 5 0;
#X connect 5 0 6 0;
#X restore 10 1506 pd oscil 43;
#N canvas 0 22 450 300 oscil 44 0;
#X obj 10 10 osc~ 0.008098656434692975;
#X obj 10 68 *~ 0.006264117696942739;
#X obj 10 92 +~ 84.20580481378096;
#X obj 10 116 mtof~;
#X obj 10 140 osc~;
#X obj 10 164 *~ 0.011200000000000002;
#X obj 10 188 throw~ dacout;
#X connect 0 0 1 0;
#X connect 1 0 2 0;
#X connect 2 0 3 0;
#X connect 3 0 4 0;
#X connect 4 0 5 0;
#X connect 5 0 6 0;
#X restore 10 1540 pd oscil 44;
#N canvas 0 22 450 300 oscil 45 0;
#X obj 10 10 osc~ 0.02832507615559562;
#X obj 10 68 *~ 0.003877446239695311;
#X obj 10 92 +~ 94.28711478708986;
#X obj 10 116 mtof~;
#X obj 10 140 osc~;
#X obj 10 164 *~ 0.011000000000000001;
#X obj 10 188 throw~ dacout;
#X connect 0 0 1 0;
#X connect 1 0 2 0;
#X connect 2 0 3 0;
#X connect 3 0 4 0;
#X connect 4 0 5 0;
#X connect 5 0 6 0;
#X restore 10 1574 pd oscil 45;
#N canvas 0 22 450 300 oscil 46 0;
#X obj 10 10 osc~ 0.025853086293584505;
#X obj 10 68 *~ 0.04157131674711584;
#X obj 10 92 +~ 81.68425947398035;
#X obj 10 116 mtof~;
#X obj 10 140 osc~;
#X obj 10 164 *~ 0.0108;
#X obj 10 188 throw~ dacout;
#X connect 0 0 1 0;
#X connect 1 0 2 0;
#X connect 2 0 3 0;
#X connect 3 0 4 0;
#X connect 4 0 5 0;
#X connect 5 0 6 0;
#X restore 10 1608 pd oscil 46;
#N canvas 0 22 450 300 oscil 47 0;
#X obj 10 10 osc~ 0.0236304929195986;
#X obj 10 68 *~ 0.006214019076464095;
#X obj 10 92 +~ 83.93620925663335;
#X obj 10 116 mtof~;
#X obj 10 140 osc~;
#X obj 10 164 *~ 0.0106;
#X obj 10 188 throw~ dacout;
#X connect 0 0 1 0;
#X connect 1 0 2 0;
#X connect 2 0 3 0;
#X connect 3 0 4 0;
#X connect 4 0 5 0;
#X connect 5 0 6 0;
#X restore 10 1642 pd oscil 47;
#N canvas 0 22 450 300 oscil 48 0;
#X obj 10 10 osc~ 0.0674663245501909;
#X obj 10 68 *~ 0.0018304795570249822;
#X obj 10 92 +~ 91.16125250071764;
#X obj 10 116 mtof~;
#X obj 10 140 osc~;
#X obj 10 164 *~ 0.010400000000000001;
#X obj 10 188 throw~ dacout;
#X connect 0 0 1 0;
#X connect 1 0 2 0;
#X connect 2 0 3 0;
#X connect 3 0 4 0;
#X connect 4 0 5 0;
#X connect 5 0 6 0;
#X restore 10 1676 pd oscil 48;
#N canvas 0 22 450 300 oscil 49 0;
#X obj 10 10 osc~ 0.03106762492031241;
#X obj 10 68 *~ 0.01135557990662167;
#X obj 10 92 +~ 126.66812382300446;
#X obj 10 116 mtof~;
#X obj 10 140 osc~;
#X obj 10 164 *~ 0.0102;
#X obj 10 188 throw~ dacout;
#X connect 0 0 1 0;
#X connect 1 0 2 0;
#X connect 2 0 3 0;
#X connect 3 0 4 0;
#X connect 4 0 5 0;
#X connect 5 0 6 0;
#X restore 10 1710 pd oscil 49;
#N canvas 0 22 450 300 oscil 50 0;
#X obj 10 10 osc~ 0.030261624968139035;
#X obj 10 68 *~ 0.02306160847394646;
#X obj 10 92 +~ 84.07828780695522;
#X obj 10 116 mtof~;
#X obj 10 140 osc~;
#X obj 10 164 *~ 0.01;
#X obj 10 188 throw~ dacout;
#X connect 0 0 1 0;
#X connect 1 0 2 0;
#X connect 2 0 3 0;
#X connect 3 0 4 0;
#X connect 4 0 5 0;
#X connect 5 0 6 0;
#X restore 10 1744 pd oscil 50;
#N canvas 0 22 450 300 oscil 51 0;
#X obj 10 10 osc~ 0.08416436313993708;
#X obj 10 68 *~ 0.010398113060153591;
#X obj 10 92 +~ 108.52762578864619;
#X obj 10 116 mtof~;
#X obj 10 140 osc~;
#X obj 10 164 *~ 0.0098;
#X obj 10 188 throw~ dacout;
#X connect 0 0 1 0;
#X connect 1 0 2 0;
#X connect 2 0 3 0;
#X connect 3 0 4 0;
#X connect 4 0 5 0;
#X connect 5 0 6 0;
#X restore 10 1778 pd oscil 51;
#N canvas 0 22 450 300 oscil 52 0;
#X obj 10 10 osc~ 0.028769195723539465;
#X obj 10 68 *~ 0.016308173662222408;
#X obj 10 92 +~ 90.35465511723406;
#X obj 10 116 mtof~;
#X obj 10 140 osc~;
#X obj 10 164 *~ 0.0096;
#X obj 10 188 throw~ dacout;
#X connect 0 0 1 0;
#X connect 1 0 2 0;
#X connect 2 0 3 0;
#X connect 3 0 4 0;
#X connect 4 0 5 0;
#X connect 5 0 6 0;
#X restore 10 1812 pd oscil 52;
#N canvas 0 22 450 300 oscil 53 0;
#X obj 10 10 osc~ 0.08165581010526575;
#X obj 10 68 *~ 0.023454722830352884;
#X obj 10 92 +~ 76.26088169191206;
#X obj 10 116 mtof~;
#X obj 10 140 osc~;
#X obj 10 164 *~ 0.0094;
#X obj 10 188 throw~ dacout;
#X connect 0 0 1 0;
#X connect 1 0 2 0;
#X connect 2 0 3 0;
#X connect 3 0 4 0;
#X connect 4 0 5 0;
#X connect 5 0 6 0;
#X restore 10 1846 pd oscil 53;
#N canvas 0 22 450 300 oscil 54 0;
#X obj 10 10 osc~ 0.00758115943531289;
#X obj 10 68 *~ 0.03491563729212171;
#X obj 10 92 +~ 66.22864716360714;
#X obj 10 116 mtof~;
#X obj 10 140 osc~;
#X obj 10 164 *~ 0.0092;
#X obj 10 188 throw~ dacout;
#X connect 0 0 1 0;
#X connect 1 0 2 0;
#X connect 2 0 3 0;
#X connect 3 0 4 0;
#X connect 4 0 5 0;
#X connect 5 0 6 0;
#X restore 10 1880 pd oscil 54;
#N canvas 0 22 450 300 oscil 55 0;
#X obj 10 10 osc~ 0.0007899474666872575;
#X obj 10 68 *~ 0.02444548405526064;
#X obj 10 92 +~ 150.64832342863383;
#X obj 10 116 mtof~;
#X obj 10 140 osc~;
#X obj 10 164 *~ 0.009;
#X obj 10 188 throw~ dacout;
#X connect 0 0 1 0;
#X connect 1 0 2 0;
#X connect 2 0 3 0;
#X connect 3 0 4 0;
#X connect 4 0 5 0;
#X connect 5 0 6 0;
#X restore 10 1914 pd oscil 55;
#N canvas 0 22 450 300 oscil 56 0;
#X obj 10 10 osc~ 0.07600278969726477;
#X obj 10 68 *~ 0.026394343466840966;
#X obj 10 92 +~ 79.70046561229422;
#X obj 10 116 mtof~;
#X obj 10 140 osc~;
#X obj 10 164 *~ 0.008799999999999999;
#X obj 10 188 throw~ dacout;
#X connect 0 0 1 0;
#X connect 1 0 2 0;
#X connect 2 0 3 0;
#X connect 3 0 4 0;
#X connect 4 0 5 0;
#X connect 5 0 6 0;
#X restore 10 1948 pd oscil 56;
#N canvas 0 22 450 300 oscil 57 0;
#X obj 10 10 osc~ 0.06622827830294191;
#X obj 10 68 *~ 0.025681544292534074;
#X obj 10 92 +~ 121.78368029808358;
#X obj 10 116 mtof~;
#X obj 10 140 osc~;
#X obj 10 164 *~ 0.008600000000000002;
#X obj 10 188 throw~ dacout;
#X connect 0 0 1 0;
#X connect 1 0 2 0;
#X connect 2 0 3 0;
#X connect 3 0 4 0;
#X connect 4 0 5 0;
#X connect 5 0 6 0;
#X restore 10 1982 pd oscil 57;
#N canvas 0 22 450 300 oscil 58 0;
#X obj 10 10 osc~ 0.07429617590675482;
#X obj 10 68 *~ 0.028822597359067056;
#X obj 10 92 +~ 95.83345765929087;
#X obj 10 116 mtof~;
#X obj 10 140 osc~;
#X obj 10 164 *~ 0.008400000000000001;
#X obj 10 188 throw~ dacout;
#X connect 0 0 1 0;
#X connect 1 0 2 0;
#X connect 2 0 3 0;
#X connect 3 0 4 0;
#X connect 4 0 5 0;
#X connect 5 0 6 0;
#X restore 10 2016 pd oscil 58;
#N canvas 0 22 450 300 oscil 59 0;
#X obj 10 10 osc~ 0.013343783274450117;
#X obj 10 68 *~ 0.003254845034251575;
#X obj 10 92 +~ 80.13932730406847;
#X obj 10 116 mtof~;
#X obj 10 140 osc~;
#X obj 10 164 *~ 0.0082;
#X obj 10 188 throw~ dacout;
#X connect 0 0 1 0;
#X connect 1 0 2 0;
#X connect 2 0 3 0;
#X connect 3 0 4 0;
#X connect 4 0 5 0;
#X connect 5 0 6 0;
#X restore 10 2050 pd oscil 59;
#N canvas 0 22 450 300 oscil 60 0;
#X obj 10 10 osc~ 0.0475468231200513;
#X obj 10 68 *~ 0.0046544282588272335;
#X obj 10 92 +~ 127.37395012810421;
#X obj 10 116 mtof~;
#X obj 10 140 osc~;
#X obj 10 164 *~ 0.008;
#X obj 10 188 throw~ dacout;
#X connect 0 0 1 0;
#X connect 1 0 2 0;
#X connect 2 0 3 0;
#X connect 3 0 4 0;
#X connect 4 0 5 0;
#X connect 5 0 6 0;
#X restore 10 2084 pd oscil 60;
#N canvas 0 22 450 300 oscil 61 0;
#X obj 10 10 osc~ 0.06534518271912786;
#X obj 10 68 *~ 0.028650324224184884;
#X obj 10 92 +~ 164.80061709278345;
#X obj 10 116 mtof~;
#X obj 10 140 osc~;
#X obj 10 164 *~ 0.0078000000000000005;
#X obj 10 188 throw~ dacout;
#X connect 0 0 1 0;
#X connect 1 0 2 0;
#X connect 2 0 3 0;
#X connect 3 0 4 0;
#X connect 4 0 5 0;
#X connect 5 0 6 0;
#X restore 10 2118 pd oscil 61;
#N canvas 0 22 450 300 oscil 62 0;
#X obj 10 10 osc~ 0.0218114946395799;
#X obj 10 68 *~ 0.01707673978800039;
#X obj 10 92 +~ 75.525208181219;
#X obj 10 116 mtof~;
#X obj 10 140 osc~;
#X obj 10 164 *~ 0.0076;
#X obj 10 188 throw~ dacout;
#X connect 0 0 1 0;
#X connect 1 0 2 0;
#X connect 2 0 3 0;
#X connect 3 0 4 0;
#X connect 4 0 5 0;
#X connect 5 0 6 0;
#X restore 10 2152 pd oscil 62;
#N canvas 0 22 450 300 oscil 63 0;
#X obj 10 10 osc~ 0.07160860661034324;
#X obj 10 68 *~ 0.009258708810771255;
#X obj 10 92 +~ 143.20086881742165;
#X obj 10 116 mtof~;
#X obj 10 140 osc~;
#X obj 10 164 *~ 0.0074;
#X obj 10 188 throw~ dacout;
#X connect 0 0 1 0;
#X connect 1 0 2 0;
#X connect 2 0 3 0;
#X connect 3 0 4 0;
#X connect 4 0 5 0;
#X connect 5 0 6 0;
#X restore 10 2186 pd oscil 63;
#N canvas 0 22 450 300 oscil 64 0;
#X obj 10 10 osc~ 0.0470912266322987;
#X obj 10 68 *~ 0.022864139985562405;
#X obj 10 92 +~ 108.15448315844903;
#X obj 10 116 mtof~;
#X obj 10 140 osc~;
#X obj 10 164 *~ 0.0072;
#X obj 10 188 throw~ dacout;
#X connect 0 0 1 0;
#X connect 1 0 2 0;
#X connect 2 0 3 0;
#X connect 3 0 4 0;
#X connect 4 0 5 0;
#X connect 5 0 6 0;
#X restore 10 2220 pd oscil 64;
#N canvas 0 22 450 300 oscil 65 0;
#X obj 10 10 osc~ 0.03190425003973224;
#X obj 10 68 *~ 0.029195036371752213;
#X obj 10 92 +~ 120.19695891444835;
#X obj 10 116 mtof~;
#X obj 10 140 osc~;
#X obj 10 164 *~ 0.006999999999999999;
#X obj 10 188 throw~ dacout;
#X connect 0 0 1 0;
#X connect 1 0 2 0;
#X connect 2 0 3 0;
#X connect 3 0 4 0;
#X connect 4 0 5 0;
#X connect 5 0 6 0;
#X restore 10 2254 pd oscil 65;
#N canvas 0 22 450 300 oscil 66 0;
#X obj 10 10 osc~ 0.005741058096691654;
#X obj 10 68 *~ 0.012891425633464503;
#X obj 10 92 +~ 73.72646850270519;
#X obj 10 116 mtof~;
#X obj 10 140 osc~;
#X obj 10 164 *~ 0.0068;
#X obj 10 188 throw~ dacout;
#X connect 0 0 1 0;
#X connect 1 0 2 0;
#X connect 2 0 3 0;
#X connect 3 0 4 0;
#X connect 4 0 5 0;
#X connect 5 0 6 0;
#X restore 10 2288 pd oscil 66;
#N canvas 0 22 450 300 oscil 67 0;
#X obj 10 10 osc~ 0.08784877380860534;
#X obj 10 68 *~ 0.008002266099663025;
#X obj 10 92 +~ 140.43252124180165;
#X obj 10 116 mtof~;
#X obj 10 140 osc~;
#X obj 10 164 *~ 0.006599999999999999;
#X obj 10 188 throw~ dacout;
#X connect 0 0 1 0;
#X connect 1 0 2 0;
#X connect 2 0 3 0;
#X connect 3 0 4 0;
#X connect 4 0 5 0;
#X connect 5 0 6 0;
#X restore 10 2322 pd oscil 67;
#N canvas 0 22 450 300 oscil 68 0;
#X obj 10 10 osc~ 0.007979538247101159;
#X obj 10 68 *~ 0.019811297004714075;
#X obj 10 92 +~ 160.218136725012;
#X obj 10 116 mtof~;
#X obj 10 140 osc~;
#X obj 10 164 *~ 0.0063999999999999994;
#X obj 10 188 throw~ dacout;
#X connect 0 0 1 0;
#X connect 1 0 2 0;
#X connect 2 0 3 0;
#X connect 3 0 4 0;
#X connect 4 0 5 0;
#X connect 5 0 6 0;
#X restore 10 2356 pd oscil 68;
#N canvas 0 22 450 300 oscil 69 0;
#X obj 10 10 osc~ 0.08592740925884472;
#X obj 10 68 *~ 0.005176493036168332;
#X obj 10 92 +~ 115.69811032721823;
#X obj 10 116 mtof~;
#X obj 10 140 osc~;
#X obj 10 164 *~ 0.0062000000000000015;
#X obj 10 188 throw~ dacout;
#X connect 0 0 1 0;
#X connect 1 0 2 0;
#X connect 2 0 3 0;
#X connect 3 0 4 0;
#X connect 4 0 5 0;
#X connect 5 0 6 0;
#X restore 10 2390 pd oscil 69;
#N canvas 0 22 450 300 oscil 70 0;
#X obj 10 10 osc~ 0.0023661972817417554;
#X obj 10 68 *~ 0.02573213273249045;
#X obj 10 92 +~ 134.37904034618302;
#X obj 10 116 mtof~;
#X obj 10 140 osc~;
#X obj 10 164 *~ 0.006000000000000001;
#X obj 10 188 throw~ dacout;
#X connect 0 0 1 0;
#X connect 1 0 2 0;
#X connect 2 0 3 0;
#X connect 3 0 4 0;
#X connect 4 0 5 0;
#X connect 5 0 6 0;
#X restore 10 2424 pd oscil 70;
#N canvas 0 22 450 300 oscil 71 0;
#X obj 10 10 osc~ 0.004909607318617748;
#X obj 10 68 *~ 0.0034096458952652424;
#X obj 10 92 +~ 151.11704130572866;
#X obj 10 116 mtof~;
#X obj 10 140 osc~;
#X obj 10 164 *~ 0.0058000000000000005;
#X obj 10 188 throw~ dacout;
#X connect 0 0 1 0;
#X connect 1 0 2 0;
#X connect 2 0 3 0;
#X connect 3 0 4 0;
#X connect 4 0 5 0;
#X connect 5 0 6 0;
#X restore 10 2458 pd oscil 71;
#N canvas 0 22 450 300 oscil 72 0;
#X obj 10 10 osc~ 0.014494488813392714;
#X obj 10 68 *~ 0.006149028530391944;
#X obj 10 92 +~ 115.85371459994441;
#X obj 10 116 mtof~;
#X obj 10 140 osc~;
#X obj 10 164 *~ 0.005600000000000001;
#X obj 10 188 throw~ dacout;
#X connect 0 0 1 0;
#X connect 1 0 2 0;
#X connect 2 0 3 0;
#X connect 3 0 4 0;
#X connect 4 0 5 0;
#X connect 5 0 6 0;
#X restore 10 2492 pd oscil 72;
#N canvas 0 22 450 300 oscil 73 0;
#X obj 10 10 osc~ 0.04823863830289089;
#X obj 10 68 *~ 0.012732750936028986;
#X obj 10 92 +~ 135.33991842793102;
#X obj 10 116 mtof~;
#X obj 10 140 osc~;
#X obj 10 164 *~ 0.0054;
#X obj 10 188 throw~ dacout;
#X connect 0 0 1 0;
#X connect 1 0 2 0;
#X connect 2 0 3 0;
#X connect 3 0 4 0;
#X connect 4 0 5 0;
#X connect 5 0 6 0;
#X restore 10 2526 pd oscil 73;
#N canvas 0 22 450 300 oscil 74 0;
#X obj 10 10 osc~ 0.06530987167448353;
#X obj 10 68 *~ 0.02442655785482137;
#X obj 10 92 +~ 148.84254394814013;
#X obj 10 116 mtof~;
#X obj 10 140 osc~;
#X obj 10 164 *~ 0.005200000000000001;
#X obj 10 188 throw~ dacout;
#X connect 0 0 1 0;
#X connect 1 0 2 0;
#X connect 2 0 3 0;
#X connect 3 0 4 0;
#X connect 4 0 5 0;
#X connect 5 0 6 0;
#X restore 10 2560 pd oscil 74;
#N canvas 0 22 450 300 oscil 75 0;
#X obj 10 10 osc~ 0.06359398540331375;
#X obj 10 68 *~ 0.02591242171493052;
#X obj 10 92 +~ 118.19942253362426;
#X obj 10 116 mtof~;
#X obj 10 140 osc~;
#X obj 10 164 *~ 0.005;
#X obj 10 188 throw~ dacout;
#X connect 0 0 1 0;
#X connect 1 0 2 0;
#X connect 2 0 3 0;
#X connect 3 0 4 0;
#X connect 4 0 5 0;
#X connect 5 0 6 0;
#X restore 10 2594 pd oscil 75;
#N canvas 0 22 450 300 oscil 76 0;
#X obj 10 10 osc~ 0.027709824807625738;
#X obj 10 68 *~ 0.025898472941336993;
#X obj 10 92 +~ 93.0693125055169;
#X obj 10 116 mtof~;
#X obj 10 140 osc~;
#X obj 10 164 *~ 0.0048;
#X obj 10 188 throw~ dacout;
#X connect 0 0 1 0;
#X connect 1 0 2 0;
#X connect 2 0 3 0;
#X connect 3 0 4 0;
#X connect 4 0 5 0;
#X connect 5 0 6 0;
#X restore 10 2628 pd oscil 76;
#N canvas 0 22 450 300 oscil 77 0;
#X obj 10 10 osc~ 0.09049844671961753;
#X obj 10 68 *~ 0.001224686181085359;
#X obj 10 92 +~ 101.1295778719587;
#X obj 10 116 mtof~;
#X obj 10 140 osc~;
#X obj 10 164 *~ 0.0046;
#X obj 10 188 throw~ dacout;
#X connect 0 0 1 0;
#X connect 1 0 2 0;
#X connect 2 0 3 0;
#X connect 3 0 4 0;
#X connect 4 0 5 0;
#X connect 5 0 6 0;
#X restore 10 2662 pd oscil 77;
#N canvas 0 22 450 300 oscil 78 0;
#X obj 10 10 osc~ 0.06322054982727161;
#X obj 10 68 *~ 0.018059755777973245;
#X obj 10 92 +~ 160.11743456630046;
#X obj 10 116 mtof~;
#X obj 10 140 osc~;
#X obj 10 164 *~ 0.004399999999999999;
#X obj 10 188 throw~ dacout;
#X connect 0 0 1 0;
#X connect 1 0 2 0;
#X connect 2 0 3 0;
#X connect 3 0 4 0;
#X connect 4 0 5 0;
#X connect 5 0 6 0;
#X restore 10 2696 pd oscil 78;
#N canvas 0 22 450 300 oscil 79 0;
#X obj 10 10 osc~ 0.012528605132349858;
#X obj 10 68 *~ 0.019241038920204567;
#X obj 10 92 +~ 200.14816205691335;
#X obj 10 116 mtof~;
#X obj 10 140 osc~;
#X obj 10 164 *~ 0.0042;
#X obj 10 188 throw~ dacout;
#X connect 0 0 1 0;
#X connect 1 0 2 0;
#X connect 2 0 3 0;
#X connect 3 0 4 0;
#X connect 4 0 5 0;
#X connect 5 0 6 0;
#X restore 10 2730 pd oscil 79;
#N canvas 0 22 450 300 oscil 80 0;
#X obj 10 10 osc~ 0.005888758621713764;
#X obj 10 68 *~ 0.00659235678209894;
#X obj 10 92 +~ 104.0794643336755;
#X obj 10 116 mtof~;
#X obj 10 140 osc~;
#X obj 10 164 *~ 0.003999999999999999;
#X obj 10 188 throw~ dacout;
#X connect 0 0 1 0;
#X connect 1 0 2 0;
#X connect 2 0 3 0;
#X connect 3 0 4 0;
#X connect 4 0 5 0;
#X connect 5 0 6 0;
#X restore 10 2764 pd oscil 80;
#N canvas 0 22 450 300 oscil 81 0;
#X obj 10 10 osc~ 0.053888149553564614;
#X obj 10 68 *~ 0.018281001163203334;
#X obj 10 92 +~ 79.40067196029018;
#X obj 10 116 mtof~;
#X obj 10 140 osc~;
#X obj 10 164 *~ 0.003799999999999999;
#X obj 10 188 throw~ dacout;
#X connect 0 0 1 0;
#X connect 1 0 2 0;
#X connect 2 0 3 0;
#X connect 3 0 4 0;
#X connect 4 0 5 0;
#X connect 5 0 6 0;
#X restore 10 2798 pd oscil 81;
#N canvas 0 22 450 300 oscil 82 0;
#X obj 10 10 osc~ 0.06202578621892582;
#X obj 10 68 *~ 0.010294428289343556;
#X obj 10 92 +~ 101.20351550279018;
#X obj 10 116 mtof~;
#X obj 10 140 osc~;
#X obj 10 164 *~ 0.003600000000000001;
#X obj 10 188 throw~ dacout;
#X connect 0 0 1 0;
#X connect 1 0 2 0;
#X connect 2 0 3 0;
#X connect 3 0 4 0;
#X connect 4 0 5 0;
#X connect 5 0 6 0;
#X restore 10 2832 pd oscil 82;
#N canvas 0 22 450 300 oscil 83 0;
#X obj 10 10 osc~ 0.08322135092129872;
#X obj 10 68 *~ 0.0020698777882302575;
#X obj 10 92 +~ 140.55265246918992;
#X obj 10 116 mtof~;
#X obj 10 140 osc~;
#X obj 10 164 *~ 0.0034000000000000007;
#X obj 10 188 throw~ dacout;
#X connect 0 0 1 0;
#X connect 1 0 2 0;
#X connect 2 0 3 0;
#X connect 3 0 4 0;
#X connect 4 0 5 0;
#X connect 5 0 6 0;
#X restore 10 2866 pd oscil 83;
#N canvas 0 22 450 300 oscil 84 0;
#X obj 10 10 osc~ 0.08926089955608646;
#X obj 10 68 *~ 0.023208110295089568;
#X obj 10 92 +~ 122.67956575560004;
#X obj 10 116 mtof~;
#X obj 10 140 osc~;
#X obj 10 164 *~ 0.0032000000000000006;
#X obj 10 188 throw~ dacout;
#X connect 0 0 1 0;
#X connect 1 0 2 0;
#X connect 2 0 3 0;
#X connect 3 0 4 0;
#X connect 4 0 5 0;
#X connect 5 0 6 0;
#X restore 10 2900 pd oscil 84;
#N canvas 0 22 450 300 oscil 85 0;
#X obj 10 10 osc~ 0.011460497521212178;
#X obj 10 68 *~ 0.010860534973551494;
#X obj 10 92 +~ 166.72678145993126;
#X obj 10 116 mtof~;
#X obj 10 140 osc~;
#X obj 10 164 *~ 0.0030000000000000005;
#X obj 10 188 throw~ dacout;
#X connect 0 0 1 0;
#X connect 1 0 2 0;
#X connect 2 0 3 0;
#X connect 3 0 4 0;
#X connect 4 0 5 0;
#X connect 5 0 6 0;
#X restore 10 2934 pd oscil 85;
#N canvas 0 22 450 300 oscil 86 0;
#X obj 10 10 osc~ 0.07256452398033063;
#X obj 10 68 *~ 0.00839105947523266;
#X obj 10 92 +~ 82.27257359510544;
#X obj 10 116 mtof~;
#X obj 10 140 osc~;
#X obj 10 164 *~ 0.0028000000000000004;
#X obj 10 188 throw~ dacout;
#X connect 0 0 1 0;
#X connect 1 0 2 0;
#X connect 2 0 3 0;
#X connect 3 0 4 0;
#X connect 4 0 5 0;
#X connect 5 0 6 0;
#X restore 10 2968 pd oscil 86;
#N canvas 0 22 450 300 oscil 87 0;
#X obj 10 10 osc~ 0.07456037262871117;
#X obj 10 68 *~ 0.014785601367377882;
#X obj 10 92 +~ 173.59409056188338;
#X obj 10 116 mtof~;
#X obj 10 140 osc~;
#X obj 10 164 *~ 0.0026000000000000003;
#X obj 10 188 throw~ dacout;
#X connect 0 0 1 0;
#X connect 1 0 2 0;
#X connect 2 0 3 0;
#X connect 3 0 4 0;
#X connect 4 0 5 0;
#X connect 5 0 6 0;
#X restore 10 3002 pd oscil 87;
#N canvas 0 22 450 300 oscil 88 0;
#X obj 10 10 osc~ 0.031797891659634106;
#X obj 10 68 *~ 0.01146297001464161;
#X obj 10 92 +~ 208.52883463061661;
#X obj 10 116 mtof~;
#X obj 10 140 osc~;
#X obj 10 164 *~ 0.0024;
#X obj 10 188 throw~ dacout;
#X connect 0 0 1 0;
#X connect 1 0 2 0;
#X connect 2 0 3 0;
#X connect 3 0 4 0;
#X connect 4 0 5 0;
#X connect 5 0 6 0;
#X restore 10 3036 pd oscil 88;
#N canvas 0 22 450 300 oscil 89 0;
#X obj 10 10 osc~ 0.03974597164347422;
#X obj 10 68 *~ 0.007110893162988747;
#X obj 10 92 +~ 189.64984887633716;
#X obj 10 116 mtof~;
#X obj 10 140 osc~;
#X obj 10 164 *~ 0.0021999999999999997;
#X obj 10 188 throw~ dacout;
#X connect 0 0 1 0;
#X connect 1 0 2 0;
#X connect 2 0 3 0;
#X connect 3 0 4 0;
#X connect 4 0 5 0;
#X connect 5 0 6 0;
#X restore 10 3070 pd oscil 89;
#N canvas 0 22 450 300 oscil 90 0;
#X obj 10 10 osc~ 0.04821400017681398;
#X obj 10 68 *~ 0.003674793438179284;
#X obj 10 92 +~ 133.55137344751455;
#X obj 10 116 mtof~;
#X obj 10 140 osc~;
#X obj 10 164 *~ 0.0019999999999999996;
#X obj 10 188 throw~ dacout;
#X connect 0 0 1 0;
#X connect 1 0 2 0;
#X connect 2 0 3 0;
#X connect 3 0 4 0;
#X connect 4 0 5 0;
#X connect 5 0 6 0;
#X restore 10 3104 pd oscil 90;
#N canvas 0 22 450 300 oscil 91 0;
#X obj 10 10 osc~ 0.0010643425788446127;
#X obj 10 68 *~ 0.017112367181220445;
#X obj 10 92 +~ 201.01910435290833;
#X obj 10 116 mtof~;
#X obj 10 140 osc~;
#X obj 10 164 *~ 0.0017999999999999995;
#X obj 10 188 throw~ dacout;
#X connect 0 0 1 0;
#X connect 1 0 2 0;
#X connect 2 0 3 0;
#X connect 3 0 4 0;
#X connect 4 0 5 0;
#X connect 5 0 6 0;
#X restore 10 3138 pd oscil 91;
#N canvas 0 22 450 300 oscil 92 0;
#X obj 10 10 osc~ 0.03044184335121293;
#X obj 10 68 *~ 0.007333765173322841;
#X obj 10 92 +~ 103.22249970135917;
#X obj 10 116 mtof~;
#X obj 10 140 osc~;
#X obj 10 164 *~ 0.0015999999999999992;
#X obj 10 188 throw~ dacout;
#X connect 0 0 1 0;
#X connect 1 0 2 0;
#X connect 2 0 3 0;
#X connect 3 0 4 0;
#X connect 4 0 5 0;
#X connect 5 0 6 0;
#X restore 10 3172 pd oscil 92;
#N canvas 0 22 450 300 oscil 93 0;
#X obj 10 10 osc~ 0.020710075064797585;
#X obj 10 68 *~ 0.013992816440203766;
#X obj 10 92 +~ 193.8308112025362;
#X obj 10 116 mtof~;
#X obj 10 140 osc~;
#X obj 10 164 *~ 0.0013999999999999991;
#X obj 10 188 throw~ dacout;
#X connect 0 0 1 0;
#X connect 1 0 2 0;
#X connect 2 0 3 0;
#X connect 3 0 4 0;
#X connect 4 0 5 0;
#X connect 5 0 6 0;
#X restore 10 3206 pd oscil 93;
#N canvas 0 22 450 300 oscil 94 0;
#X obj 10 10 osc~ 0.09695989248308039;
#X obj 10 68 *~ 0.006739030057473469;
#X obj 10 92 +~ 149.049179123641;
#X obj 10 116 mtof~;
#X obj 10 140 osc~;
#X obj 10 164 *~ 0.0012000000000000012;
#X obj 10 188 throw~ dacout;
#X connect 0 0 1 0;
#X connect 1 0 2 0;
#X connect 2 0 3 0;
#X connect 3 0 4 0;
#X connect 4 0 5 0;
#X connect 5 0 6 0;
#X restore 10 3240 pd oscil 94;
#N canvas 0 22 450 300 oscil 95 0;
#X obj 10 10 osc~ 0.039456040024625216;
#X obj 10 68 *~ 0.015345039969915117;
#X obj 10 92 +~ 135.14870321875838;
#X obj 10 116 mtof~;
#X obj 10 140 osc~;
#X obj 10 164 *~ 0.0010000000000000009;
#X obj 10 188 throw~ dacout;
#X connect 0 0 1 0;
#X connect 1 0 2 0;
#X connect 2 0 3 0;
#X connect 3 0 4 0;
#X connect 4 0 5 0;
#X connect 5 0 6 0;
#X restore 10 3274 pd oscil 95;
#N canvas 0 22 450 300 oscil 96 0;
#X obj 10 10 osc~ 0.042247366931781494;
#X obj 10 68 *~ 0.002702745571627511;
#X obj 10 92 +~ 92.9746037281503;
#X obj 10 116 mtof~;
#X obj 10 140 osc~;
#X obj 10 164 *~ 0.0008000000000000007;
#X obj 10 188 throw~ dacout;
#X connect 0 0 1 0;
#X connect 1 0 2 0;
#X connect 2 0 3 0;
#X connect 3 0 4 0;
#X connect 4 0 5 0;
#X connect 5 0 6 0;
#X restore 10 3308 pd oscil 96;
#N canvas 0 22 450 300 oscil 97 0;
#X obj 10 10 osc~ 0.02885423831877413;
#X obj 10 68 *~ 0.0021483407247352027;
#X obj 10 92 +~ 187.8939979270852;
#X obj 10 116 mtof~;
#X obj 10 140 osc~;
#X obj 10 164 *~ 0.0006000000000000006;
#X obj 10 188 throw~ dacout;
#X connect 0 0 1 0;
#X connect 1 0 2 0;
#X connect 2 0 3 0;
#X connect 3 0 4 0;
#X connect 4 0 5 0;
#X connect 5 0 6 0;
#X restore 10 3342 pd oscil 97;
#N canvas 0 22 450 300 oscil 98 0;
#X obj 10 10 osc~ 0.09813182422325435;
#X obj 10 68 *~ 0.01794654500658113;
#X obj 10 92 +~ 213.09790574865355;
#X obj 10 116 mtof~;
#X obj 10 140 osc~;
#X obj 10 164 *~ 0.00040000000000000034;
#X obj 10 188 throw~ dacout;
#X connect 0 0 1 0;
#X connect 1 0 2 0;
#X connect 2 0 3 0;
#X connect 3 0 4 0;
#X connect 4 0 5 0;
#X connect 5 0 6 0;
#X restore 10 3376 pd oscil 98;
#N canvas 0 22 450 300 oscil 99 0;
#X obj 10 10 osc~ 0.012470840593758659;
#X obj 10 68 *~ 0.0184482824424591;
#X obj 10 92 +~ 69.00361527974741;
#X obj 10 116 mtof~;
#X obj 10 140 osc~;
#X obj 10 164 *~ 0.00020000000000000017;
#X obj 10 188 throw~ dacout;
#X connect 0 0 1 0;
#X connect 1 0 2 0;
#X connect 2 0 3 0;
#X connect 3 0 4 0;
#X connect 4 0 5 0;
#X connect 5 0 6 0;
#X restore 10 3410 pd oscil 99;
