#N canvas 0 22 450 300 12;
#N canvas 0 22 450 300 loadbang 0;
#X obj 10 10 loadbang;
#X msg 10 68 \; pd dsp 1;
#X connect 0 0 1 0;
#X restore 10 10 pd loadbang;
#N canvas 0 22 450 300 dacout 0;
#X obj 10 10 loadbang;
#X obj 10 68 del 10;
#X msg 10 92 0.8 100;
#X obj 10 116 line~;
#X obj 10 188 catch~ dacout;
#X obj 10 140 *~;
#X obj 10 164 clip~ -0.707 0.707;
#X obj 10 188 dac~ 1;
#X connect 4 0 5 0;
#X connect 5 0 6 0;
#X connect 6 0 7 0;
#X connect 0 0 1 0;
#X connect 1 0 2 0;
#X connect 2 0 3 0;
#X connect 3 0 5 1;
#X restore 10 44 pd dacout;
#N canvas 0 22 450 300 oscil 1 0;
#X obj 10 10 osc~ 0.05391965310468621;
#X obj 10 68 *~ 1.3895312771571342;
#X obj 10 92 +~ 65.29975440895656;
#X obj 10 116 mtof~;
#X obj 10 140 osc~;
#X obj 10 164 *~ 0.0198;
#X obj 10 188 throw~ dacout;
#X connect 0 0 1 0;
#X connect 1 0 2 0;
#X connect 2 0 3 0;
#X connect 3 0 4 0;
#X connect 4 0 5 0;
#X connect 5 0 6 0;
#X restore 10 78 pd oscil 1;
#N canvas 0 22 450 300 oscil 2 0;
#X obj 10 10 osc~ 0.04662541285582318;
#X obj 10 68 *~ 0.47654716800085717;
#X obj 10 92 +~ 65.34115581446324;
#X obj 10 116 mtof~;
#X obj 10 140 osc~;
#X obj 10 164 *~ 0.0196;
#X obj 10 188 throw~ dacout;
#X connect 0 0 1 0;
#X connect 1 0 2 0;
#X connect 2 0 3 0;
#X connect 3 0 4 0;
#X connect 4 0 5 0;
#X connect 5 0 6 0;
#X restore 10 112 pd oscil 2;
#N canvas 0 22 450 300 oscil 3 0;
#X obj 10 10 osc~ 0.09534551075289929;
#X obj 10 68 *~ 0.5245178796287028;
#X obj 10 92 +~ 66.84641069030289;
#X obj 10 116 mtof~;
#X obj 10 140 osc~;
#X obj 10 164 *~ 0.0194;
#X obj 10 188 throw~ dacout;
#X connect 0 0 1 0;
#X connect 1 0 2 0;
#X connect 2 0 3 0;
#X connect 3 0 4 0;
#X connect 4 0 5 0;
#X connect 5 0 6 0;
#X restore 10 146 pd oscil 3;
#N canvas 0 22 450 300 oscil 4 0;
#X obj 10 10 osc~ 0.013507331762390462;
#X obj 10 68 *~ 0.04050484026330625;
#X obj 10 92 +~ 69.86979484916799;
#X obj 10 116 mtof~;
#X obj 10 140 osc~;
#X obj 10 164 *~ 0.0192;
#X obj 10 188 throw~ dacout;
#X connect 0 0 1 0;
#X connect 1 0 2 0;
#X connect 2 0 3 0;
#X connect 3 0 4 0;
#X connect 4 0 5 0;
#X connect 5 0 6 0;
#X restore 10 180 pd oscil 4;
#N canvas 0 22 450 300 oscil 5 0;
#X obj 10 10 osc~ 0.02125609515899446;
#X obj 10 68 *~ 0.34421272764554706;
#X obj 10 92 +~ 71.32460797372606;
#X obj 10 116 mtof~;
#X obj 10 140 osc~;
#X obj 10 164 *~ 0.019;
#X obj 10 188 throw~ dacout;
#X connect 0 0 1 0;
#X connect 1 0 2 0;
#X connect 2 0 3 0;
#X connect 3 0 4 0;
#X connect 4 0 5 0;
#X connect 5 0 6 0;
#X restore 10 214 pd oscil 5;
#N canvas 0 22 450 300 oscil 6 0;
#X obj 10 10 osc~ 0.06988819652567295;
#X obj 10 68 *~ 0.3109680297812697;
#X obj 10 92 +~ 69.27481326461704;
#X obj 10 116 mtof~;
#X obj 10 140 osc~;
#X obj 10 164 *~ 0.0188;
#X obj 10 188 throw~ dacout;
#X connect 0 0 1 0;
#X connect 1 0 2 0;
#X connect 2 0 3 0;
#X connect 3 0 4 0;
#X connect 4 0 5 0;
#X connect 5 0 6 0;
#X restore 10 248 pd oscil 6;
#N canvas 0 22 450 300 oscil 7 0;
#X obj 10 10 osc~ 0.09566539746072382;
#X obj 10 68 *~ 0.036602855718162956;
#X obj 10 92 +~ 71.67373114272807;
#X obj 10 116 mtof~;
#X obj 10 140 osc~;
#X obj 10 164 *~ 0.0186;
#X obj 10 188 throw~ dacout;
#X connect 0 0 1 0;
#X connect 1 0 2 0;
#X connect 2 0 3 0;
#X connect 3 0 4 0;
#X connect 4 0 5 0;
#X connect 5 0 6 0;
#X restore 10 282 pd oscil 7;
#N canvas 0 22 450 300 oscil 8 0;
#X obj 10 10 osc~ 0.027656206254102356;
#X obj 10 68 *~ 0.06883773860670805;
#X obj 10 92 +~ 72.66210110072022;
#X obj 10 116 mtof~;
#X obj 10 140 osc~;
#X obj 10 164 *~ 0.0184;
#X obj 10 188 throw~ dacout;
#X connect 0 0 1 0;
#X connect 1 0 2 0;
#X connect 2 0 3 0;
#X connect 3 0 4 0;
#X connect 4 0 5 0;
#X connect 5 0 6 0;
#X restore 10 316 pd oscil 8;
#N canvas 0 22 450 300 oscil 9 0;
#X obj 10 10 osc~ 0.012250989103471133;
#X obj 10 68 *~ 0.20293160100759314;
#X obj 10 92 +~ 76.62803123784427;
#X obj 10 116 mtof~;
#X obj 10 140 osc~;
#X obj 10 164 *~ 0.0182;
#X obj 10 188 throw~ dacout;
#X connect 0 0 1 0;
#X connect 1 0 2 0;
#X connect 2 0 3 0;
#X connect 3 0 4 0;
#X connect 4 0 5 0;
#X connect 5 0 6 0;
#X restore 10 350 pd oscil 9;
#N canvas 0 22 450 300 oscil 10 0;
#X obj 10 10 osc~ 0.019073697792637734;
#X obj 10 68 *~ 0.13153624578619028;
#X obj 10 92 +~ 71.31553804816852;
#X obj 10 116 mtof~;
#X obj 10 140 osc~;
#X obj 10 164 *~ 0.018000000000000002;
#X obj 10 188 throw~ dacout;
#X connect 0 0 1 0;
#X connect 1 0 2 0;
#X connect 2 0 3 0;
#X connect 3 0 4 0;
#X connect 4 0 5 0;
#X connect 5 0 6 0;
#X restore 10 384 pd oscil 10;
#N canvas 0 22 450 300 oscil 11 0;
#X obj 10 10 osc~ 0.07001318074117753;
#X obj 10 68 *~ 0.11109181745648748;
#X obj 10 92 +~ 72.13562764645529;
#X obj 10 116 mtof~;
#X obj 10 140 osc~;
#X obj 10 164 *~ 0.0178;
#X obj 10 188 throw~ dacout;
#X connect 0 0 1 0;
#X connect 1 0 2 0;
#X connect 2 0 3 0;
#X connect 3 0 4 0;
#X connect 4 0 5 0;
#X connect 5 0 6 0;
#X restore 10 418 pd oscil 11;
#N canvas 0 22 450 300 oscil 12 0;
#X obj 10 10 osc~ 0.05844074666052693;
#X obj 10 68 *~ 0.1353486318604876;
#X obj 10 92 +~ 66.53527888923759;
#X obj 10 116 mtof~;
#X obj 10 140 osc~;
#X obj 10 164 *~ 0.0176;
#X obj 10 188 throw~ dacout;
#X connect 0 0 1 0;
#X connect 1 0 2 0;
#X connect 2 0 3 0;
#X connect 3 0 4 0;
#X connect 4 0 5 0;
#X connect 5 0 6 0;
#X restore 10 452 pd oscil 12;
#N canvas 0 22 450 300 oscil 13 0;
#X obj 10 10 osc~ 0.0945354616018292;
#X obj 10 68 *~ 0.01706043165219854;
#X obj 10 92 +~ 83.34752206958078;
#X obj 10 116 mtof~;
#X obj 10 140 osc~;
#X obj 10 164 *~ 0.0174;
#X obj 10 188 throw~ dacout;
#X connect 0 0 1 0;
#X connect 1 0 2 0;
#X connect 2 0 3 0;
#X connect 3 0 4 0;
#X connect 4 0 5 0;
#X connect 5 0 6 0;
#X restore 10 486 pd oscil 13;
#N canvas 0 22 450 300 oscil 14 0;
#X obj 10 10 osc~ 0.010905960737581178;
#X obj 10 68 *~ 0.12374997170100158;
#X obj 10 92 +~ 80.7643878254169;
#X obj 10 116 mtof~;
#X obj 10 140 osc~;
#X obj 10 164 *~ 0.0172;
#X obj 10 188 throw~ dacout;
#X connect 0 0 1 0;
#X connect 1 0 2 0;
#X connect 2 0 3 0;
#X connect 3 0 4 0;
#X connect 4 0 5 0;
#X connect 5 0 6 0;
#X restore 10 520 pd oscil 14;
#N canvas 0 22 450 300 oscil 15 0;
#X obj 10 10 osc~ 0.07669226969369433;
#X obj 10 68 *~ 0.06573547383212795;
#X obj 10 92 +~ 74.45322579957184;
#X obj 10 116 mtof~;
#X obj 10 140 osc~;
#X obj 10 164 *~ 0.017;
#X obj 10 188 throw~ dacout;
#X connect 0 0 1 0;
#X connect 1 0 2 0;
#X connect 2 0 3 0;
#X connect 3 0 4 0;
#X connect 4 0 5 0;
#X connect 5 0 6 0;
#X restore 10 554 pd oscil 15;
#N canvas 0 22 450 300 oscil 16 0;
#X obj 10 10 osc~ 0.006176378391483828;
#X obj 10 68 *~ 0.11177900387329213;
#X obj 10 92 +~ 87.61015722785802;
#X obj 10 116 mtof~;
#X obj 10 140 osc~;
#X obj 10 164 *~ 0.0168;
#X obj 10 188 throw~ dacout;
#X connect 0 0 1 0;
#X connect 1 0 2 0;
#X connect 2 0 3 0;
#X connect 3 0 4 0;
#X connect 4 0 5 0;
#X connect 5 0 6 0;
#X restore 10 588 pd oscil 16;
#N canvas 0 22 450 300 oscil 17 0;
#X obj 10 10 osc~ 0.06238384029516523;
#X obj 10 68 *~ 0.002244406852439168;
#X obj 10 92 +~ 85.15734152590356;
#X obj 10 116 mtof~;
#X obj 10 140 osc~;
#X obj 10 164 *~ 0.0166;
#X obj 10 188 throw~ dacout;
#X connect 0 0 1 0;
#X connect 1 0 2 0;
#X connect 2 0 3 0;
#X connect 3 0 4 0;
#X connect 4 0 5 0;
#X connect 5 0 6 0;
#X restore 10 622 pd oscil 17;
#N canvas 0 22 450 300 oscil 18 0;
#X obj 10 10 osc~ 0.010695795178411072;
#X obj 10 68 *~ 0.014499715626157336;
#X obj 10 92 +~ 68.09945639773831;
#X obj 10 116 mtof~;
#X obj 10 140 osc~;
#X obj 10 164 *~ 0.0164;
#X obj 10 188 throw~ dacout;
#X connect 0 0 1 0;
#X connect 1 0 2 0;
#X connect 2 0 3 0;
#X connect 3 0 4 0;
#X connect 4 0 5 0;
#X connect 5 0 6 0;
#X restore 10 656 pd oscil 18;
#N canvas 0 22 450 300 oscil 19 0;
#X obj 10 10 osc~ 0.09748773073331862;
#X obj 10 68 *~ 0.03938387108921344;
#X obj 10 92 +~ 92.42930265691811;
#X obj 10 116 mtof~;
#X obj 10 140 osc~;
#X obj 10 164 *~ 0.016200000000000003;
#X obj 10 188 throw~ dacout;
#X connect 0 0 1 0;
#X connect 1 0 2 0;
#X connect 2 0 3 0;
#X connect 3 0 4 0;
#X connect 4 0 5 0;
#X connect 5 0 6 0;
#X restore 10 690 pd oscil 19;
#N canvas 0 22 450 300 oscil 20 0;
#X obj 10 10 osc~ 0.01675068226566964;
#X obj 10 68 *~ 0.04279078805495049;
#X obj 10 92 +~ 66.74231990936602;
#X obj 10 116 mtof~;
#X obj 10 140 osc~;
#X obj 10 164 *~ 0.016;
#X obj 10 188 throw~ dacout;
#X connect 0 0 1 0;
#X connect 1 0 2 0;
#X connect 2 0 3 0;
#X connect 3 0 4 0;
#X connect 4 0 5 0;
#X connect 5 0 6 0;
#X restore 10 724 pd oscil 20;
#N canvas 0 22 450 300 oscil 21 0;
#X obj 10 10 osc~ 0.07692525045352891;
#X obj 10 68 *~ 0.09059115381393266;
#X obj 10 92 +~ 84.97639498262738;
#X obj 10 116 mtof~;
#X obj 10 140 osc~;
#X obj 10 164 *~ 0.0158;
#X obj 10 188 throw~ dacout;
#X connect 0 0 1 0;
#X connect 1 0 2 0;
#X connect 2 0 3 0;
#X connect 3 0 4 0;
#X connect 4 0 5 0;
#X connect 5 0 6 0;
#X restore 10 758 pd oscil 21;
#N canvas 0 22 450 300 oscil 22 0;
#X obj 10 10 osc~ 0.07387421869578407;
#X obj 10 68 *~ 0.08229770599648899;
#X obj 10 92 +~ 67.96939117391882;
#X obj 10 116 mtof~;
#X obj 10 140 osc~;
#X obj 10 164 *~ 0.015600000000000001;
#X obj 10 188 throw~ dacout;
#X connect 0 0 1 0;
#X connect 1 0 2 0;
#X connect 2 0 3 0;
#X connect 3 0 4 0;
#X connect 4 0 5 0;
#X connect 5 0 6 0;
#X restore 10 792 pd oscil 22;
#N canvas 0 22 450 300 oscil 23 0;
#X obj 10 10 osc~ 0.07053007940970177;
#X obj 10 68 *~ 0.06106977931233231;
#X obj 10 92 +~ 92.3056850041316;
#X obj 10 116 mtof~;
#X obj 10 140 osc~;
#X obj 10 164 *~ 0.0154;
#X obj 10 188 throw~ dacout;
#X connect 0 0 1 0;
#X connect 1 0 2 0;
#X connect 2 0 3 0;
#X connect 3 0 4 0;
#X connect 4 0 5 0;
#X connect 5 0 6 0;
#X restore 10 826 pd oscil 23;
#N canvas 0 22 450 300 oscil 24 0;
#X obj 10 10 osc~ 0.040500327530673855;
#X obj 10 68 *~ 0.014103697798732384;
#X obj 10 92 +~ 100.40530850410305;
#X obj 10 116 mtof~;
#X obj 10 140 osc~;
#X obj 10 164 *~ 0.0152;
#X obj 10 188 throw~ dacout;
#X connect 0 0 1 0;
#X connect 1 0 2 0;
#X connect 2 0 3 0;
#X connect 3 0 4 0;
#X connect 4 0 5 0;
#X connect 5 0 6 0;
#X restore 10 860 pd oscil 24;
#N canvas 0 22 450 300 oscil 25 0;
#X obj 10 10 osc~ 0.08764516769143804;
#X obj 10 68 *~ 0.048150335667801775;
#X obj 10 92 +~ 72.00490634365786;
#X obj 10 116 mtof~;
#X obj 10 140 osc~;
#X obj 10 164 *~ 0.015;
#X obj 10 188 throw~ dacout;
#X connect 0 0 1 0;
#X connect 1 0 2 0;
#X connect 2 0 3 0;
#X connect 3 0 4 0;
#X connect 4 0 5 0;
#X connect 5 0 6 0;
#X restore 10 894 pd oscil 25;
#N canvas 0 22 450 300 oscil 26 0;
#X obj 10 10 osc~ 0.07795945194058448;
#X obj 10 68 *~ 0.013217968388306313;
#X obj 10 92 +~ 76.14231809389307;
#X obj 10 116 mtof~;
#X obj 10 140 osc~;
#X obj 10 164 *~ 0.0148;
#X obj 10 188 throw~ dacout;
#X connect 0 0 1 0;
#X connect 1 0 2 0;
#X connect 2 0 3 0;
#X connect 3 0 4 0;
#X connect 4 0 5 0;
#X connect 5 0 6 0;
#X restore 10 928 pd oscil 26;
#N canvas 0 22 450 300 oscil 27 0;
#X obj 10 10 osc~ 0.07578500820236313;
#X obj 10 68 *~ 0.05052778504773387;
#X obj 10 92 +~ 81.17630680909004;
#X obj 10 116 mtof~;
#X obj 10 140 osc~;
#X obj 10 164 *~ 0.0146;
#X obj 10 188 throw~ dacout;
#X connect 0 0 1 0;
#X connect 1 0 2 0;
#X connect 2 0 3 0;
#X connect 3 0 4 0;
#X connect 4 0 5 0;
#X connect 5 0 6 0;
#X restore 10 962 pd oscil 27;
#N canvas 0 22 450 300 oscil 28 0;
#X obj 10 10 osc~ 0.0641243010631558;
#X obj 10 68 *~ 0.021631454037942945;
#X obj 10 92 +~ 78.43661315973824;
#X obj 10 116 mtof~;
#X obj 10 140 osc~;
#X obj 10 164 *~ 0.0144;
#X obj 10 188 throw~ dacout;
#X connect 0 0 1 0;
#X connect 1 0 2 0;
#X connect 2 0 3 0;
#X connect 3 0 4 0;
#X connect 4 0 5 0;
#X connect 5 0 6 0;
#X restore 10 996 pd oscil 28;
#N canvas 0 22 450 300 oscil 29 0;
#X obj 10 10 osc~ 0.05181539463996535;
#X obj 10 68 *~ 0.036633763763782995;
#X obj 10 92 +~ 83.33901087812433;
#X obj 10 116 mtof~;
#X obj 10 140 osc~;
#X obj 10 164 *~ 0.014199999999999999;
#X obj 10 188 throw~ dacout;
#X connect 0 0 1 0;
#X connect 1 0 2 0;
#X connect 2 0 3 0;
#X connect 3 0 4 0;
#X connect 4 0 5 0;
#X connect 5 0 6 0;
#X restore 10 1030 pd oscil 29;
#N canvas 0 22 450 300 oscil 30 0;
#X obj 10 10 osc~ 0.06539941128984351;
#X obj 10 68 *~ 0.06222576463431517;
#X obj 10 92 +~ 101.24924994019692;
#X obj 10 116 mtof~;
#X obj 10 140 osc~;
#X obj 10 164 *~ 0.013999999999999999;
#X obj 10 188 throw~ dacout;
#X connect 0 0 1 0;
#X connect 1 0 2 0;
#X connect 2 0 3 0;
#X connect 3 0 4 0;
#X connect 4 0 5 0;
#X connect 5 0 6 0;
#X restore 10 1064 pd oscil 30;
#N canvas 0 22 450 300 oscil 31 0;
#X obj 10 10 osc~ 0.0436321880525454;
#X obj 10 68 *~ 0.0036274996245655874;
#X obj 10 92 +~ 119.14681988133566;
#X obj 10 116 mtof~;
#X obj 10 140 osc~;
#X obj 10 164 *~ 0.0138;
#X obj 10 188 throw~ dacout;
#X connect 0 0 1 0;
#X connect 1 0 2 0;
#X connect 2 0 3 0;
#X connect 3 0 4 0;
#X connect 4 0 5 0;
#X connect 5 0 6 0;
#X restore 10 1098 pd oscil 31;
#N canvas 0 22 450 300 oscil 32 0;
#X obj 10 10 osc~ 0.021038208677892314;
#X obj 10 68 *~ 0.013505937277192272;
#X obj 10 92 +~ 70.02159713546276;
#X obj 10 116 mtof~;
#X obj 10 140 osc~;
#X obj 10 164 *~ 0.0136;
#X obj 10 188 throw~ dacout;
#X connect 0 0 1 0;
#X connect 1 0 2 0;
#X connect 2 0 3 0;
#X connect 3 0 4 0;
#X connect 4 0 5 0;
#X connect 5 0 6 0;
#X restore 10 1132 pd oscil 32;
#N canvas 0 22 450 300 oscil 33 0;
#X obj 10 10 osc~ 0.062338398957698216;
#X obj 10 68 *~ 0.05969094011039815;
#X obj 10 92 +~ 93.50486424297611;
#X obj 10 116 mtof~;
#X obj 10 140 osc~;
#X obj 10 164 *~ 0.013399999999999999;
#X obj 10 188 throw~ dacout;
#X connect 0 0 1 0;
#X connect 1 0 2 0;
#X connect 2 0 3 0;
#X connect 3 0 4 0;
#X connect 4 0 5 0;
#X connect 5 0 6 0;
#X restore 10 1166 pd oscil 33;
#N canvas 0 22 450 300 oscil 34 0;
#X obj 10 10 osc~ 0.041080555790507324;
#X obj 10 68 *~ 0.056449059889257205;
#X obj 10 92 +~ 68.96323202858373;
#X obj 10 116 mtof~;
#X obj 10 140 osc~;
#X obj 10 164 *~ 0.013199999999999998;
#X obj 10 188 throw~ dacout;
#X connect 0 0 1 0;
#X connect 1 0 2 0;
#X connect 2 0 3 0;
#X connect 3 0 4 0;
#X connect 4 0 5 0;
#X connect 5 0 6 0;
#X restore 10 1200 pd oscil 34;
#N canvas 0 22 450 300 oscil 35 0;
#X obj 10 10 osc~ 0.08800707900289734;
#X obj 10 68 *~ 0.013170779939114492;
#X obj 10 92 +~ 74.08875051183352;
#X obj 10 116 mtof~;
#X obj 10 140 osc~;
#X obj 10 164 *~ 0.013000000000000001;
#X obj 10 188 throw~ dacout;
#X connect 0 0 1 0;
#X connect 1 0 2 0;
#X connect 2 0 3 0;
#X connect 3 0 4 0;
#X connect 4 0 5 0;
#X connect 5 0 6 0;
#X restore 10 1234 pd oscil 35;
#N canvas 0 22 450 300 oscil 36 0;
#X obj 10 10 osc~ 0.016248660780276748;
#X obj 10 68 *~ 0.03224577069598302;
#X obj 10 92 +~ 94.4404971019013;
#X obj 10 116 mtof~;
#X obj 10 140 osc~;
#X obj 10 164 *~ 0.0128;
#X obj 10 188 throw~ dacout;
#X connect 0 0 1 0;
#X connect 1 0 2 0;
#X connect 2 0 3 0;
#X connect 3 0 4 0;
#X connect 4 0 5 0;
#X connect 5 0 6 0;
#X restore 10 1268 pd oscil 36;
#N canvas 0 22 450 300 oscil 37 0;
#X obj 10 10 osc~ 0.0929243195248106;
#X obj 10 68 *~ 0.04098924392811249;
#X obj 10 92 +~ 122.67962832469223;
#X obj 10 116 mtof~;
#X obj 10 140 osc~;
#X obj 10 164 *~ 0.0126;
#X obj 10 188 throw~ dacout;
#X connect 0 0 1 0;
#X connect 1 0 2 0;
#X connect 2 0 3 0;
#X connect 3 0 4 0;
#X connect 4 0 5 0;
#X connect 5 0 6 0;
#X restore 10 1302 pd oscil 37;
#N canvas 0 22 450 300 oscil 38 0;
#X obj 10 10 osc~ 0.09908319820585844;
#X obj 10 68 *~ 0.007153417479722505;
#X obj 10 92 +~ 108.64029792105421;
#X obj 10 116 mtof~;
#X obj 10 140 osc~;
#X obj 10 164 *~ 0.0124;
#X obj 10 188 throw~ dacout;
#X connect 0 0 1 0;
#X connect 1 0 2 0;
#X connect 2 0 3 0;
#X connect 3 0 4 0;
#X connect 4 0 5 0;
#X connect 5 0 6 0;
#X restore 10 1336 pd oscil 38;
#N canvas 0 22 450 300 oscil 39 0;
#X obj 10 10 osc~ 0.06149704802047257;
#X obj 10 68 *~ 0.03526256273599442;
#X obj 10 92 +~ 110.89837435926823;
#X obj 10 116 mtof~;
#X obj 10 140 osc~;
#X obj 10 164 *~ 0.0122;
#X obj 10 188 throw~ dacout;
#X connect 0 0 1 0;
#X connect 1 0 2 0;
#X connect 2 0 3 0;
#X connect 3 0 4 0;
#X connect 4 0 5 0;
#X connect 5 0 6 0;
#X restore 10 1370 pd oscil 39;
#N canvas 0 22 450 300 oscil 40 0;
#X obj 10 10 osc~ 0.03040182166774639;
#X obj 10 68 *~ 0.01569497832963917;
#X obj 10 92 +~ 129.3104043141244;
#X obj 10 116 mtof~;
#X obj 10 140 osc~;
#X obj 10 164 *~ 0.012;
#X obj 10 188 throw~ dacout;
#X connect 0 0 1 0;
#X connect 1 0 2 0;
#X connect 2 0 3 0;
#X connect 3 0 4 0;
#X connect 4 0 5 0;
#X connect 5 0 6 0;
#X restore 10 1404 pd oscil 40;
#N canvas 0 22 450 300 oscil 41 0;
#X obj 10 10 osc~ 0.0029249922725832047;
#X obj 10 68 *~ 0.04113227634280025;
#X obj 10 92 +~ 75.01972684526282;
#X obj 10 116 mtof~;
#X obj 10 140 osc~;
#X obj 10 164 *~ 0.011800000000000001;
#X obj 10 188 throw~ dacout;
#X connect 0 0 1 0;
#X connect 1 0 2 0;
#X connect 2 0 3 0;
#X connect 3 0 4 0;
#X connect 4 0 5 0;
#X connect 5 0 6 0;
#X restore 10 1438 pd oscil 41;
#N canvas 0 22 450 300 oscil 42 0;
#X obj 10 10 osc~ 0.08108622317333188;
#X obj 10 68 *~ 0.006643025478688568;
#X obj 10 92 +~ 135.0562818527991;
#X obj 10 116 mtof~;
#X obj 10 140 osc~;
#X obj 10 164 *~ 0.011600000000000001;
#X obj 10 188 throw~ dacout;
#X connect 0 0 1 0;
#X connect 1 0 2 0;
#X connect 2 0 3 0;
#X connect 3 0 4 0;
#X connect 4 0 5 0;
#X connect 5 0 6 0;
#X restore 10 1472 pd oscil 42;
#N canvas 0 22 450 300 oscil 43 0;
#X obj 10 10 osc~ 0.014126084466637502;
#X obj 10 68 *~ 0.03843394289128092;
#X obj 10 92 +~ 113.86410925971626;
#X obj 10 116 mtof~;
#X obj 10 140 osc~;
#X obj 10 164 *~ 0.011400000000000002;
#X obj 10 188 throw~ dacout;
#X connect 0 0 1 0;
#X connect 1 0 2 0;
#X connect 2 0 3 0;
#X connect 3 0 4 0;
#X connect 4 0 5 0;
#X connect 5 0 6 0;
#X restore 10 1506 pd oscil 43;
#N canvas 0 22 450 300 oscil 44 0;
#X obj 10 10 osc~ 0.08869907747271172;
#X obj 10 68 *~ 0.03451961903422627;
#X obj 10 92 +~ 122.8811587828973;
#X obj 10 116 mtof~;
#X obj 10 140 osc~;
#X obj 10 164 *~ 0.011200000000000002;
#X obj 10 188 throw~ dacout;
#X connect 0 0 1 0;
#X connect 1 0 2 0;
#X connect 2 0 3 0;
#X connect 3 0 4 0;
#X connect 4 0 5 0;
#X connect 5 0 6 0;
#X restore 10 1540 pd oscil 44;
#N canvas 0 22 450 300 oscil 45 0;
#X obj 10 10 osc~ 0.004078678721435147;
#X obj 10 68 *~ 0.021446280233144103;
#X obj 10 92 +~ 79.26018324091854;
#X obj 10 116 mtof~;
#X obj 10 140 osc~;
#X obj 10 164 *~ 0.011000000000000001;
#X obj 10 188 throw~ dacout;
#X connect 0 0 1 0;
#X connect 1 0 2 0;
#X connect 2 0 3 0;
#X connect 3 0 4 0;
#X connect 4 0 5 0;
#X connect 5 0 6 0;
#X restore 10 1574 pd oscil 45;
#N canvas 0 22 450 300 oscil 46 0;
#X obj 10 10 osc~ 0.09576302590226465;
#X obj 10 68 *~ 0.04123453098158637;
#X obj 10 92 +~ 130.00225574002545;
#X obj 10 116 mtof~;
#X obj 10 140 osc~;
#X obj 10 164 *~ 0.0108;
#X obj 10 188 throw~ dacout;
#X connect 0 0 1 0;
#X connect 1 0 2 0;
#X connect 2 0 3 0;
#X connect 3 0 4 0;
#X connect 4 0 5 0;
#X connect 5 0 6 0;
#X restore 10 1608 pd oscil 46;
#N canvas 0 22 450 300 oscil 47 0;
#X obj 10 10 osc~ 0.016112001346240214;
#X obj 10 68 *~ 0.011687145506690727;
#X obj 10 92 +~ 85.06372619838584;
#X obj 10 116 mtof~;
#X obj 10 140 osc~;
#X obj 10 164 *~ 0.0106;
#X obj 10 188 throw~ dacout;
#X connect 0 0 1 0;
#X connect 1 0 2 0;
#X connect 2 0 3 0;
#X connect 3 0 4 0;
#X connect 4 0 5 0;
#X connect 5 0 6 0;
#X restore 10 1642 pd oscil 47;
#N canvas 0 22 450 300 oscil 48 0;
#X obj 10 10 osc~ 0.027530488721702884;
#X obj 10 68 *~ 0.01111030910971054;
#X obj 10 92 +~ 92.99864477291483;
#X obj 10 116 mtof~;
#X obj 10 140 osc~;
#X obj 10 164 *~ 0.010400000000000001;
#X obj 10 188 throw~ dacout;
#X connect 0 0 1 0;
#X connect 1 0 2 0;
#X connect 2 0 3 0;
#X connect 3 0 4 0;
#X connect 4 0 5 0;
#X connect 5 0 6 0;
#X restore 10 1676 pd oscil 48;
#N canvas 0 22 450 300 oscil 49 0;
#X obj 10 10 osc~ 0.00322484270871114;
#X obj 10 68 *~ 0.016737309824720565;
#X obj 10 92 +~ 93.0058799890314;
#X obj 10 116 mtof~;
#X obj 10 140 osc~;
#X obj 10 164 *~ 0.0102;
#X obj 10 188 throw~ dacout;
#X connect 0 0 1 0;
#X connect 1 0 2 0;
#X connect 2 0 3 0;
#X connect 3 0 4 0;
#X connect 4 0 5 0;
#X connect 5 0 6 0;
#X restore 10 1710 pd oscil 49;
#N canvas 0 22 450 300 oscil 50 0;
#X obj 10 10 osc~ 0.005215731127181145;
#X obj 10 68 *~ 0.020225918111054633;
#X obj 10 92 +~ 77.58799329978744;
#X obj 10 116 mtof~;
#X obj 10 140 osc~;
#X obj 10 164 *~ 0.01;
#X obj 10 188 throw~ dacout;
#X connect 0 0 1 0;
#X connect 1 0 2 0;
#X connect 2 0 3 0;
#X connect 3 0 4 0;
#X connect 4 0 5 0;
#X connect 5 0 6 0;
#X restore 10 1744 pd oscil 50;
#N canvas 0 22 450 300 oscil 51 0;
#X obj 10 10 osc~ 0.06417290833060739;
#X obj 10 68 *~ 0.020658266971792683;
#X obj 10 92 +~ 90.55340493169125;
#X obj 10 116 mtof~;
#X obj 10 140 osc~;
#X obj 10 164 *~ 0.0098;
#X obj 10 188 throw~ dacout;
#X connect 0 0 1 0;
#X connect 1 0 2 0;
#X connect 2 0 3 0;
#X connect 3 0 4 0;
#X connect 4 0 5 0;
#X connect 5 0 6 0;
#X restore 10 1778 pd oscil 51;
#N canvas 0 22 450 300 oscil 52 0;
#X obj 10 10 osc~ 0.09270356282689314;
#X obj 10 68 *~ 0.013700700488584294;
#X obj 10 92 +~ 106.41173635616836;
#X obj 10 116 mtof~;
#X obj 10 140 osc~;
#X obj 10 164 *~ 0.0096;
#X obj 10 188 throw~ dacout;
#X connect 0 0 1 0;
#X connect 1 0 2 0;
#X connect 2 0 3 0;
#X connect 3 0 4 0;
#X connect 4 0 5 0;
#X connect 5 0 6 0;
#X restore 10 1812 pd oscil 52;
#N canvas 0 22 450 300 oscil 53 0;
#X obj 10 10 osc~ 0.018465236198169643;
#X obj 10 68 *~ 0.02808240596415653;
#X obj 10 92 +~ 141.05319993949786;
#X obj 10 116 mtof~;
#X obj 10 140 osc~;
#X obj 10 164 *~ 0.0094;
#X obj 10 188 throw~ dacout;
#X connect 0 0 1 0;
#X connect 1 0 2 0;
#X connect 2 0 3 0;
#X connect 3 0 4 0;
#X connect 4 0 5 0;
#X connect 5 0 6 0;
#X restore 10 1846 pd oscil 53;
#N canvas 0 22 450 300 oscil 54 0;
#X obj 10 10 osc~ 0.03945728056042941;
#X obj 10 68 *~ 0.030254421578470542;
#X obj 10 92 +~ 144.82344943650483;
#X obj 10 116 mtof~;
#X obj 10 140 osc~;
#X obj 10 164 *~ 0.0092;
#X obj 10 188 throw~ dacout;
#X connect 0 0 1 0;
#X connect 1 0 2 0;
#X connect 2 0 3 0;
#X connect 3 0 4 0;
#X connect 4 0 5 0;
#X connect 5 0 6 0;
#X restore 10 1880 pd oscil 54;
#N canvas 0 22 450 300 oscil 55 0;
#X obj 10 10 osc~ 0.08435922280477628;
#X obj 10 68 *~ 0.024834076296536937;
#X obj 10 92 +~ 139.0950102078711;
#X obj 10 116 mtof~;
#X obj 10 140 osc~;
#X obj 10 164 *~ 0.009;
#X obj 10 188 throw~ dacout;
#X connect 0 0 1 0;
#X connect 1 0 2 0;
#X connect 2 0 3 0;
#X connect 3 0 4 0;
#X connect 4 0 5 0;
#X connect 5 0 6 0;
#X restore 10 1914 pd oscil 55;
#N canvas 0 22 450 300 oscil 56 0;
#X obj 10 10 osc~ 0.007844201633610826;
#X obj 10 68 *~ 0.03499585101210264;
#X obj 10 92 +~ 111.17623906661541;
#X obj 10 116 mtof~;
#X obj 10 140 osc~;
#X obj 10 164 *~ 0.008799999999999999;
#X obj 10 188 throw~ dacout;
#X connect 0 0 1 0;
#X connect 1 0 2 0;
#X connect 2 0 3 0;
#X connect 3 0 4 0;
#X connect 4 0 5 0;
#X connect 5 0 6 0;
#X restore 10 1948 pd oscil 56;
#N canvas 0 22 450 300 oscil 57 0;
#X obj 10 10 osc~ 0.09116977708774512;
#X obj 10 68 *~ 0.03440079370219881;
#X obj 10 92 +~ 78.22570547333525;
#X obj 10 116 mtof~;
#X obj 10 140 osc~;
#X obj 10 164 *~ 0.008600000000000002;
#X obj 10 188 throw~ dacout;
#X connect 0 0 1 0;
#X connect 1 0 2 0;
#X connect 2 0 3 0;
#X connect 3 0 4 0;
#X connect 4 0 5 0;
#X connect 5 0 6 0;
#X restore 10 1982 pd oscil 57;
#N canvas 0 22 450 300 oscil 58 0;
#X obj 10 10 osc~ 0.017204068426975562;
#X obj 10 68 *~ 0.02595045923716064;
#X obj 10 92 +~ 113.03398578377042;
#X obj 10 116 mtof~;
#X obj 10 140 osc~;
#X obj 10 164 *~ 0.008400000000000001;
#X obj 10 188 throw~ dacout;
#X connect 0 0 1 0;
#X connect 1 0 2 0;
#X connect 2 0 3 0;
#X connect 3 0 4 0;
#X connect 4 0 5 0;
#X connect 5 0 6 0;
#X restore 10 2016 pd oscil 58;
#N canvas 0 22 450 300 oscil 59 0;
#X obj 10 10 osc~ 0.004841831388149931;
#X obj 10 68 *~ 0.031231930726575537;
#X obj 10 92 +~ 96.70862902261402;
#X obj 10 116 mtof~;
#X obj 10 140 osc~;
#X obj 10 164 *~ 0.0082;
#X obj 10 188 throw~ dacout;
#X connect 0 0 1 0;
#X connect 1 0 2 0;
#X connect 2 0 3 0;
#X connect 3 0 4 0;
#X connect 4 0 5 0;
#X connect 5 0 6 0;
#X restore 10 2050 pd oscil 59;
#N canvas 0 22 450 300 oscil 60 0;
#X obj 10 10 osc~ 0.06442612262705177;
#X obj 10 68 *~ 0.018980982395146975;
#X obj 10 92 +~ 75.74199200827015;
#X obj 10 116 mtof~;
#X obj 10 140 osc~;
#X obj 10 164 *~ 0.008;
#X obj 10 188 throw~ dacout;
#X connect 0 0 1 0;
#X connect 1 0 2 0;
#X connect 2 0 3 0;
#X connect 3 0 4 0;
#X connect 4 0 5 0;
#X connect 5 0 6 0;
#X restore 10 2084 pd oscil 60;
#N canvas 0 22 450 300 oscil 61 0;
#X obj 10 10 osc~ 0.039588941367551644;
#X obj 10 68 *~ 0.0021309945493350854;
#X obj 10 92 +~ 134.136002955911;
#X obj 10 116 mtof~;
#X obj 10 140 osc~;
#X obj 10 164 *~ 0.0078000000000000005;
#X obj 10 188 throw~ dacout;
#X connect 0 0 1 0;
#X connect 1 0 2 0;
#X connect 2 0 3 0;
#X connect 3 0 4 0;
#X connect 4 0 5 0;
#X connect 5 0 6 0;
#X restore 10 2118 pd oscil 61;
#N canvas 0 22 450 300 oscil 62 0;
#X obj 10 10 osc~ 0.09674614553446087;
#X obj 10 68 *~ 0.006568622358635649;
#X obj 10 92 +~ 100.85297871745945;
#X obj 10 116 mtof~;
#X obj 10 140 osc~;
#X obj 10 164 *~ 0.0076;
#X obj 10 188 throw~ dacout;
#X connect 0 0 1 0;
#X connect 1 0 2 0;
#X connect 2 0 3 0;
#X connect 3 0 4 0;
#X connect 4 0 5 0;
#X connect 5 0 6 0;
#X restore 10 2152 pd oscil 62;
#N canvas 0 22 450 300 oscil 63 0;
#X obj 10 10 osc~ 0.04445220572174402;
#X obj 10 68 *~ 0.017345536447922305;
#X obj 10 92 +~ 101.09728318821647;
#X obj 10 116 mtof~;
#X obj 10 140 osc~;
#X obj 10 164 *~ 0.0074;
#X obj 10 188 throw~ dacout;
#X connect 0 0 1 0;
#X connect 1 0 2 0;
#X connect 2 0 3 0;
#X connect 3 0 4 0;
#X connect 4 0 5 0;
#X connect 5 0 6 0;
#X restore 10 2186 pd oscil 63;
#N canvas 0 22 450 300 oscil 64 0;
#X obj 10 10 osc~ 0.056094239714735754;
#X obj 10 68 *~ 0.01577724703300766;
#X obj 10 92 +~ 106.64057375827348;
#X obj 10 116 mtof~;
#X obj 10 140 osc~;
#X obj 10 164 *~ 0.0072;
#X obj 10 188 throw~ dacout;
#X connect 0 0 1 0;
#X connect 1 0 2 0;
#X connect 2 0 3 0;
#X connect 3 0 4 0;
#X connect 4 0 5 0;
#X connect 5 0 6 0;
#X restore 10 2220 pd oscil 64;
#N canvas 0 22 450 300 oscil 65 0;
#X obj 10 10 osc~ 0.019699861873021165;
#X obj 10 68 *~ 0.02462985195723986;
#X obj 10 92 +~ 93.99768787764702;
#X obj 10 116 mtof~;
#X obj 10 140 osc~;
#X obj 10 164 *~ 0.006999999999999999;
#X obj 10 188 throw~ dacout;
#X connect 0 0 1 0;
#X connect 1 0 2 0;
#X connect 2 0 3 0;
#X connect 3 0 4 0;
#X connect 4 0 5 0;
#X connect 5 0 6 0;
#X restore 10 2254 pd oscil 65;
#N canvas 0 22 450 300 oscil 66 0;
#X obj 10 10 osc~ 0.03313863100094303;
#X obj 10 68 *~ 0.021888005947778854;
#X obj 10 92 +~ 67.43117456268705;
#X obj 10 116 mtof~;
#X obj 10 140 osc~;
#X obj 10 164 *~ 0.0068;
#X obj 10 188 throw~ dacout;
#X connect 0 0 1 0;
#X connect 1 0 2 0;
#X connect 2 0 3 0;
#X connect 3 0 4 0;
#X connect 4 0 5 0;
#X connect 5 0 6 0;
#X restore 10 2288 pd oscil 66;
#N canvas 0 22 450 300 oscil 67 0;
#X obj 10 10 osc~ 0.06930629005674062;
#X obj 10 68 *~ 0.008177498433586524;
#X obj 10 92 +~ 125.78732575538496;
#X obj 10 116 mtof~;
#X obj 10 140 osc~;
#X obj 10 164 *~ 0.006599999999999999;
#X obj 10 188 throw~ dacout;
#X connect 0 0 1 0;
#X connect 1 0 2 0;
#X connect 2 0 3 0;
#X connect 3 0 4 0;
#X connect 4 0 5 0;
#X connect 5 0 6 0;
#X restore 10 2322 pd oscil 67;
#N canvas 0 22 450 300 oscil 68 0;
#X obj 10 10 osc~ 0.07422358652069284;
#X obj 10 68 *~ 0.016262608037334106;
#X obj 10 92 +~ 107.65085577213819;
#X obj 10 116 mtof~;
#X obj 10 140 osc~;
#X obj 10 164 *~ 0.0063999999999999994;
#X obj 10 188 throw~ dacout;
#X connect 0 0 1 0;
#X connect 1 0 2 0;
#X connect 2 0 3 0;
#X connect 3 0 4 0;
#X connect 4 0 5 0;
#X connect 5 0 6 0;
#X restore 10 2356 pd oscil 68;
#N canvas 0 22 450 300 oscil 69 0;
#X obj 10 10 osc~ 0.09235820959050693;
#X obj 10 68 *~ 0.0009974034667256538;
#X obj 10 92 +~ 146.90266034514949;
#X obj 10 116 mtof~;
#X obj 10 140 osc~;
#X obj 10 164 *~ 0.0062000000000000015;
#X obj 10 188 throw~ dacout;
#X connect 0 0 1 0;
#X connect 1 0 2 0;
#X connect 2 0 3 0;
#X connect 3 0 4 0;
#X connect 4 0 5 0;
#X connect 5 0 6 0;
#X restore 10 2390 pd oscil 69;
#N canvas 0 22 450 300 oscil 70 0;
#X obj 10 10 osc~ 0.07206335466960455;
#X obj 10 68 *~ 0.01339185486374192;
#X obj 10 92 +~ 70.31741988790758;
#X obj 10 116 mtof~;
#X obj 10 140 osc~;
#X obj 10 164 *~ 0.006000000000000001;
#X obj 10 188 throw~ dacout;
#X connect 0 0 1 0;
#X connect 1 0 2 0;
#X connect 2 0 3 0;
#X connect 3 0 4 0;
#X connect 4 0 5 0;
#X connect 5 0 6 0;
#X restore 10 2424 pd oscil 70;
#N canvas 0 22 450 300 oscil 71 0;
#X obj 10 10 osc~ 0.09191017894963986;
#X obj 10 68 *~ 0.0037889866040498685;
#X obj 10 92 +~ 176.79914563196286;
#X obj 10 116 mtof~;
#X obj 10 140 osc~;
#X obj 10 164 *~ 0.0058000000000000005;
#X obj 10 188 throw~ dacout;
#X connect 0 0 1 0;
#X connect 1 0 2 0;
#X connect 2 0 3 0;
#X connect 3 0 4 0;
#X connect 4 0 5 0;
#X connect 5 0 6 0;
#X restore 10 2458 pd oscil 71;
#N canvas 0 22 450 300 oscil 72 0;
#X obj 10 10 osc~ 0.08362433847119613;
#X obj 10 68 *~ 0.022419526121148198;
#X obj 10 92 +~ 122.3498112288958;
#X obj 10 116 mtof~;
#X obj 10 140 osc~;
#X obj 10 164 *~ 0.005600000000000001;
#X obj 10 188 throw~ dacout;
#X connect 0 0 1 0;
#X connect 1 0 2 0;
#X connect 2 0 3 0;
#X connect 3 0 4 0;
#X connect 4 0 5 0;
#X connect 5 0 6 0;
#X restore 10 2492 pd oscil 72;
#N canvas 0 22 450 300 oscil 73 0;
#X obj 10 10 osc~ 0.09260706428146044;
#X obj 10 68 *~ 0.011693269988640512;
#X obj 10 92 +~ 79.84385883120648;
#X obj 10 116 mtof~;
#X obj 10 140 osc~;
#X obj 10 164 *~ 0.0054;
#X obj 10 188 throw~ dacout;
#X connect 0 0 1 0;
#X connect 1 0 2 0;
#X connect 2 0 3 0;
#X connect 3 0 4 0;
#X connect 4 0 5 0;
#X connect 5 0 6 0;
#X restore 10 2526 pd oscil 73;
#N canvas 0 22 450 300 oscil 74 0;
#X obj 10 10 osc~ 0.04484250002415063;
#X obj 10 68 *~ 0.016957904074693497;
#X obj 10 92 +~ 158.2261649924891;
#X obj 10 116 mtof~;
#X obj 10 140 osc~;
#X obj 10 164 *~ 0.005200000000000001;
#X obj 10 188 throw~ dacout;
#X connect 0 0 1 0;
#X connect 1 0 2 0;
#X connect 2 0 3 0;
#X connect 3 0 4 0;
#X connect 4 0 5 0;
#X connect 5 0 6 0;
#X restore 10 2560 pd oscil 74;
#N canvas 0 22 450 300 oscil 75 0;
#X obj 10 10 osc~ 0.014059085730834066;
#X obj 10 68 *~ 0.015909228434778287;
#X obj 10 92 +~ 145.16284686918289;
#X obj 10 116 mtof~;
#X obj 10 140 osc~;
#X obj 10 164 *~ 0.005;
#X obj 10 188 throw~ dacout;
#X connect 0 0 1 0;
#X connect 1 0 2 0;
#X connect 2 0 3 0;
#X connect 3 0 4 0;
#X connect 4 0 5 0;
#X connect 5 0 6 0;
#X restore 10 2594 pd oscil 75;
#N canvas 0 22 450 300 oscil 76 0;
#X obj 10 10 osc~ 0.0006016498237333746;
#X obj 10 68 *~ 0.00820636606514796;
#X obj 10 92 +~ 152.89542788900113;
#X obj 10 116 mtof~;
#X obj 10 140 osc~;
#X obj 10 164 *~ 0.0048;
#X obj 10 188 throw~ dacout;
#X connect 0 0 1 0;
#X connect 1 0 2 0;
#X connect 2 0 3 0;
#X connect 3 0 4 0;
#X connect 4 0 5 0;
#X connect 5 0 6 0;
#X restore 10 2628 pd oscil 76;
#N canvas 0 22 450 300 oscil 77 0;
#X obj 10 10 osc~ 0.08470398006113;
#X obj 10 68 *~ 0.0035248054508775608;
#X obj 10 92 +~ 179.4261850231063;
#X obj 10 116 mtof~;
#X obj 10 140 osc~;
#X obj 10 164 *~ 0.0046;
#X obj 10 188 throw~ dacout;
#X connect 0 0 1 0;
#X connect 1 0 2 0;
#X connect 2 0 3 0;
#X connect 3 0 4 0;
#X connect 4 0 5 0;
#X connect 5 0 6 0;
#X restore 10 2662 pd oscil 77;
#N canvas 0 22 450 300 oscil 78 0;
#X obj 10 10 osc~ 0.0139437093250407;
#X obj 10 68 *~ 0.008539702681267176;
#X obj 10 92 +~ 174.54646227166376;
#X obj 10 116 mtof~;
#X obj 10 140 osc~;
#X obj 10 164 *~ 0.004399999999999999;
#X obj 10 188 throw~ dacout;
#X connect 0 0 1 0;
#X connect 1 0 2 0;
#X connect 2 0 3 0;
#X connect 3 0 4 0;
#X connect 4 0 5 0;
#X connect 5 0 6 0;
#X restore 10 2696 pd oscil 78;
#N canvas 0 22 450 300 oscil 79 0;
#X obj 10 10 osc~ 0.02088833727254598;
#X obj 10 68 *~ 0.0014093067548841204;
#X obj 10 92 +~ 93.27628109686813;
#X obj 10 116 mtof~;
#X obj 10 140 osc~;
#X obj 10 164 *~ 0.0042;
#X obj 10 188 throw~ dacout;
#X connect 0 0 1 0;
#X connect 1 0 2 0;
#X connect 2 0 3 0;
#X connect 3 0 4 0;
#X connect 4 0 5 0;
#X connect 5 0 6 0;
#X restore 10 2730 pd oscil 79;
#N canvas 0 22 450 300 oscil 80 0;
#X obj 10 10 osc~ 0.006582800676405121;
#X obj 10 68 *~ 0.002572098048727703;
#X obj 10 92 +~ 99.02825260245619;
#X obj 10 116 mtof~;
#X obj 10 140 osc~;
#X obj 10 164 *~ 0.003999999999999999;
#X obj 10 188 throw~ dacout;
#X connect 0 0 1 0;
#X connect 1 0 2 0;
#X connect 2 0 3 0;
#X connect 3 0 4 0;
#X connect 4 0 5 0;
#X connect 5 0 6 0;
#X restore 10 2764 pd oscil 80;
#N canvas 0 22 450 300 oscil 81 0;
#X obj 10 10 osc~ 0.005914137249522888;
#X obj 10 68 *~ 0.004860303901733347;
#X obj 10 92 +~ 172.35723191239015;
#X obj 10 116 mtof~;
#X obj 10 140 osc~;
#X obj 10 164 *~ 0.003799999999999999;
#X obj 10 188 throw~ dacout;
#X connect 0 0 1 0;
#X connect 1 0 2 0;
#X connect 2 0 3 0;
#X connect 3 0 4 0;
#X connect 4 0 5 0;
#X connect 5 0 6 0;
#X restore 10 2798 pd oscil 81;
#N canvas 0 22 450 300 oscil 82 0;
#X obj 10 10 osc~ 0.06275830264488245;
#X obj 10 68 *~ 0.020013611329776946;
#X obj 10 92 +~ 202.851953362509;
#X obj 10 116 mtof~;
#X obj 10 140 osc~;
#X obj 10 164 *~ 0.003600000000000001;
#X obj 10 188 throw~ dacout;
#X connect 0 0 1 0;
#X connect 1 0 2 0;
#X connect 2 0 3 0;
#X connect 3 0 4 0;
#X connect 4 0 5 0;
#X connect 5 0 6 0;
#X restore 10 2832 pd oscil 82;
#N canvas 0 22 450 300 oscil 83 0;
#X obj 10 10 osc~ 0.05463744961462145;
#X obj 10 68 *~ 0.015148722209212921;
#X obj 10 92 +~ 101.2130098018227;
#X obj 10 116 mtof~;
#X obj 10 140 osc~;
#X obj 10 164 *~ 0.0034000000000000007;
#X obj 10 188 throw~ dacout;
#X connect 0 0 1 0;
#X connect 1 0 2 0;
#X connect 2 0 3 0;
#X connect 3 0 4 0;
#X connect 4 0 5 0;
#X connect 5 0 6 0;
#X restore 10 2866 pd oscil 83;
#N canvas 0 22 450 300 oscil 84 0;
#X obj 10 10 osc~ 0.08085103187156208;
#X obj 10 68 *~ 0.007272472620307896;
#X obj 10 92 +~ 89.45963178350719;
#X obj 10 116 mtof~;
#X obj 10 140 osc~;
#X obj 10 164 *~ 0.0032000000000000006;
#X obj 10 188 throw~ dacout;
#X connect 0 0 1 0;
#X connect 1 0 2 0;
#X connect 2 0 3 0;
#X connect 3 0 4 0;
#X connect 4 0 5 0;
#X connect 5 0 6 0;
#X restore 10 2900 pd oscil 84;
#N canvas 0 22 450 300 oscil 85 0;
#X obj 10 10 osc~ 0.015226996661058069;
#X obj 10 68 *~ 0.018112593841088594;
#X obj 10 92 +~ 131.3108614591241;
#X obj 10 116 mtof~;
#X obj 10 140 osc~;
#X obj 10 164 *~ 0.0030000000000000005;
#X obj 10 188 throw~ dacout;
#X connect 0 0 1 0;
#X connect 1 0 2 0;
#X connect 2 0 3 0;
#X connect 3 0 4 0;
#X connect 4 0 5 0;
#X connect 5 0 6 0;
#X restore 10 2934 pd oscil 85;
#N canvas 0 22 450 300 oscil 86 0;
#X obj 10 10 osc~ 0.05260656445915286;
#X obj 10 68 *~ 0.007473532107016827;
#X obj 10 92 +~ 206.9279112473581;
#X obj 10 116 mtof~;
#X obj 10 140 osc~;
#X obj 10 164 *~ 0.0028000000000000004;
#X obj 10 188 throw~ dacout;
#X connect 0 0 1 0;
#X connect 1 0 2 0;
#X connect 2 0 3 0;
#X connect 3 0 4 0;
#X connect 4 0 5 0;
#X connect 5 0 6 0;
#X restore 10 2968 pd oscil 86;
#N canvas 0 22 450 300 oscil 87 0;
#X obj 10 10 osc~ 0.05140510612649557;
#X obj 10 68 *~ 0.002493794522241464;
#X obj 10 92 +~ 74.18073259228606;
#X obj 10 116 mtof~;
#X obj 10 140 osc~;
#X obj 10 164 *~ 0.0026000000000000003;
#X obj 10 188 throw~ dacout;
#X connect 0 0 1 0;
#X connect 1 0 2 0;
#X connect 2 0 3 0;
#X connect 3 0 4 0;
#X connect 4 0 5 0;
#X connect 5 0 6 0;
#X restore 10 3002 pd oscil 87;
#N canvas 0 22 450 300 oscil 88 0;
#X obj 10 10 osc~ 0.03257509649949669;
#X obj 10 68 *~ 0.008187760251058425;
#X obj 10 92 +~ 148.38649931051273;
#X obj 10 116 mtof~;
#X obj 10 140 osc~;
#X obj 10 164 *~ 0.0024;
#X obj 10 188 throw~ dacout;
#X connect 0 0 1 0;
#X connect 1 0 2 0;
#X connect 2 0 3 0;
#X connect 3 0 4 0;
#X connect 4 0 5 0;
#X connect 5 0 6 0;
#X restore 10 3036 pd oscil 88;
#N canvas 0 22 450 300 oscil 89 0;
#X obj 10 10 osc~ 0.05183801923264412;
#X obj 10 68 *~ 0.012764235050461849;
#X obj 10 92 +~ 124.84567957565942;
#X obj 10 116 mtof~;
#X obj 10 140 osc~;
#X obj 10 164 *~ 0.0021999999999999997;
#X obj 10 188 throw~ dacout;
#X connect 0 0 1 0;
#X connect 1 0 2 0;
#X connect 2 0 3 0;
#X connect 3 0 4 0;
#X connect 4 0 5 0;
#X connect 5 0 6 0;
#X restore 10 3070 pd oscil 89;
#N canvas 0 22 450 300 oscil 90 0;
#X obj 10 10 osc~ 0.06382401383398206;
#X obj 10 68 *~ 0.007273862129779136;
#X obj 10 92 +~ 213.00244915376322;
#X obj 10 116 mtof~;
#X obj 10 140 osc~;
#X obj 10 164 *~ 0.0019999999999999996;
#X obj 10 188 throw~ dacout;
#X connect 0 0 1 0;
#X connect 1 0 2 0;
#X connect 2 0 3 0;
#X connect 3 0 4 0;
#X connect 4 0 5 0;
#X connect 5 0 6 0;
#X restore 10 3104 pd oscil 90;
#N canvas 0 22 450 300 oscil 91 0;
#X obj 10 10 osc~ 0.05721950377156929;
#X obj 10 68 *~ 0.0035399003715047136;
#X obj 10 92 +~ 169.62612206600954;
#X obj 10 116 mtof~;
#X obj 10 140 osc~;
#X obj 10 164 *~ 0.0017999999999999995;
#X obj 10 188 throw~ dacout;
#X connect 0 0 1 0;
#X connect 1 0 2 0;
#X connect 2 0 3 0;
#X connect 3 0 4 0;
#X connect 4 0 5 0;
#X connect 5 0 6 0;
#X restore 10 3138 pd oscil 91;
#N canvas 0 22 450 300 oscil 92 0;
#X obj 10 10 osc~ 0.06679219283844272;
#X obj 10 68 *~ 0.005310870938449783;
#X obj 10 92 +~ 132.04988584941134;
#X obj 10 116 mtof~;
#X obj 10 140 osc~;
#X obj 10 164 *~ 0.0015999999999999992;
#X obj 10 188 throw~ dacout;
#X connect 0 0 1 0;
#X connect 1 0 2 0;
#X connect 2 0 3 0;
#X connect 3 0 4 0;
#X connect 4 0 5 0;
#X connect 5 0 6 0;
#X restore 10 3172 pd oscil 92;
#N canvas 0 22 450 300 oscil 93 0;
#X obj 10 10 osc~ 0.021584985905150147;
#X obj 10 68 *~ 0.00702873713057888;
#X obj 10 92 +~ 156.01886052196267;
#X obj 10 116 mtof~;
#X obj 10 140 osc~;
#X obj 10 164 *~ 0.0013999999999999991;
#X obj 10 188 throw~ dacout;
#X connect 0 0 1 0;
#X connect 1 0 2 0;
#X connect 2 0 3 0;
#X connect 3 0 4 0;
#X connect 4 0 5 0;
#X connect 5 0 6 0;
#X restore 10 3206 pd oscil 93;
#N canvas 0 22 450 300 oscil 94 0;
#X obj 10 10 osc~ 0.04667292409034142;
#X obj 10 68 *~ 0.008381308234544076;
#X obj 10 92 +~ 188.41564233061092;
#X obj 10 116 mtof~;
#X obj 10 140 osc~;
#X obj 10 164 *~ 0.0012000000000000012;
#X obj 10 188 throw~ dacout;
#X connect 0 0 1 0;
#X connect 1 0 2 0;
#X connect 2 0 3 0;
#X connect 3 0 4 0;
#X connect 4 0 5 0;
#X connect 5 0 6 0;
#X restore 10 3240 pd oscil 94;
#N canvas 0 22 450 300 oscil 95 0;
#X obj 10 10 osc~ 0.0987760125392503;
#X obj 10 68 *~ 0.004059003352127144;
#X obj 10 92 +~ 211.15165801301126;
#X obj 10 116 mtof~;
#X obj 10 140 osc~;
#X obj 10 164 *~ 0.0010000000000000009;
#X obj 10 188 throw~ dacout;
#X connect 0 0 1 0;
#X connect 1 0 2 0;
#X connect 2 0 3 0;
#X connect 3 0 4 0;
#X connect 4 0 5 0;
#X connect 5 0 6 0;
#X restore 10 3274 pd oscil 95;
#N canvas 0 22 450 300 oscil 96 0;
#X obj 10 10 osc~ 0.048160610551135886;
#X obj 10 68 *~ 0.015980962647003143;
#X obj 10 92 +~ 157.37763188308455;
#X obj 10 116 mtof~;
#X obj 10 140 osc~;
#X obj 10 164 *~ 0.0008000000000000007;
#X obj 10 188 throw~ dacout;
#X connect 0 0 1 0;
#X connect 1 0 2 0;
#X connect 2 0 3 0;
#X connect 3 0 4 0;
#X connect 4 0 5 0;
#X connect 5 0 6 0;
#X restore 10 3308 pd oscil 96;
#N canvas 0 22 450 300 oscil 97 0;
#X obj 10 10 osc~ 0.031678362140578196;
#X obj 10 68 *~ 0.014026286520150616;
#X obj 10 92 +~ 82.0615574481925;
#X obj 10 116 mtof~;
#X obj 10 140 osc~;
#X obj 10 164 *~ 0.0006000000000000006;
#X obj 10 188 throw~ dacout;
#X connect 0 0 1 0;
#X connect 1 0 2 0;
#X connect 2 0 3 0;
#X connect 3 0 4 0;
#X connect 4 0 5 0;
#X connect 5 0 6 0;
#X restore 10 3342 pd oscil 97;
#N canvas 0 22 450 300 oscil 98 0;
#X obj 10 10 osc~ 0.03282878934627403;
#X obj 10 68 *~ 0.009814126751210725;
#X obj 10 92 +~ 89.71544451928983;
#X obj 10 116 mtof~;
#X obj 10 140 osc~;
#X obj 10 164 *~ 0.00040000000000000034;
#X obj 10 188 throw~ dacout;
#X connect 0 0 1 0;
#X connect 1 0 2 0;
#X connect 2 0 3 0;
#X connect 3 0 4 0;
#X connect 4 0 5 0;
#X connect 5 0 6 0;
#X restore 10 3376 pd oscil 98;
#N canvas 0 22 450 300 oscil 99 0;
#X obj 10 10 osc~ 0.05676486131291234;
#X obj 10 68 *~ 0.011066441847294774;
#X obj 10 92 +~ 155.1953863531947;
#X obj 10 116 mtof~;
#X obj 10 140 osc~;
#X obj 10 164 *~ 0.00020000000000000017;
#X obj 10 188 throw~ dacout;
#X connect 0 0 1 0;
#X connect 1 0 2 0;
#X connect 2 0 3 0;
#X connect 3 0 4 0;
#X connect 4 0 5 0;
#X connect 5 0 6 0;
#X restore 10 3410 pd oscil 99;
