#N canvas 0 22 450 300 12;
#N canvas 0 22 450 300 loadbang 0;
#X obj 10 10 loadbang;
#X msg 10 68 \; pd dsp 1;
#X connect 0 0 1 0;
#X restore 10 10 pd loadbang;
#N canvas 0 22 450 300 dacout 0;
#X obj 10 10 loadbang;
#X obj 10 68 del 10;
#X msg 10 92 0.8 100;
#X obj 10 116 line~;
#X obj 10 188 catch~ dacout;
#X obj 10 140 *~;
#X obj 10 164 clip~ -0.707 0.707;
#X obj 10 188 dac~ 1;
#X connect 4 0 5 0;
#X connect 5 0 6 0;
#X connect 6 0 7 0;
#X connect 0 0 1 0;
#X connect 1 0 2 0;
#X connect 2 0 3 0;
#X connect 3 0 5 1;
#X restore 10 44 pd dacout;
#N canvas 0 22 450 300 oscil 1 0;
#X obj 10 10 osc~ 0.023542097601097746;
#X obj 10 68 *~ 1.355955045309666;
#X obj 10 92 +~ 65.66613280857696;
#X obj 10 116 mtof~;
#X obj 10 140 osc~;
#X obj 10 164 *~ 0.0198;
#X obj 10 188 throw~ dacout;
#X connect 0 0 1 0;
#X connect 1 0 2 0;
#X connect 2 0 3 0;
#X connect 3 0 4 0;
#X connect 4 0 5 0;
#X connect 5 0 6 0;
#X restore 10 78 pd oscil 1;
#N canvas 0 22 450 300 oscil 2 0;
#X obj 10 10 osc~ 0.04184320012478048;
#X obj 10 68 *~ 0.9237103256472682;
#X obj 10 92 +~ 65.8912733316527;
#X obj 10 116 mtof~;
#X obj 10 140 osc~;
#X obj 10 164 *~ 0.0196;
#X obj 10 188 throw~ dacout;
#X connect 0 0 1 0;
#X connect 1 0 2 0;
#X connect 2 0 3 0;
#X connect 3 0 4 0;
#X connect 4 0 5 0;
#X connect 5 0 6 0;
#X restore 10 112 pd oscil 2;
#N canvas 0 22 450 300 oscil 3 0;
#X obj 10 10 osc~ 0.046641520220196644;
#X obj 10 68 *~ 0.07818093131541581;
#X obj 10 92 +~ 67.7736859574463;
#X obj 10 116 mtof~;
#X obj 10 140 osc~;
#X obj 10 164 *~ 0.0194;
#X obj 10 188 throw~ dacout;
#X connect 0 0 1 0;
#X connect 1 0 2 0;
#X connect 2 0 3 0;
#X connect 3 0 4 0;
#X connect 4 0 5 0;
#X connect 5 0 6 0;
#X restore 10 146 pd oscil 3;
#N canvas 0 22 450 300 oscil 4 0;
#X obj 10 10 osc~ 0.07019349556288051;
#X obj 10 68 *~ 0.1636467167623078;
#X obj 10 92 +~ 66.56854050317344;
#X obj 10 116 mtof~;
#X obj 10 140 osc~;
#X obj 10 164 *~ 0.0192;
#X obj 10 188 throw~ dacout;
#X connect 0 0 1 0;
#X connect 1 0 2 0;
#X connect 2 0 3 0;
#X connect 3 0 4 0;
#X connect 4 0 5 0;
#X connect 5 0 6 0;
#X restore 10 180 pd oscil 4;
#N canvas 0 22 450 300 oscil 5 0;
#X obj 10 10 osc~ 0.07261263394839455;
#X obj 10 68 *~ 0.31524950643854516;
#X obj 10 92 +~ 73.21897908870359;
#X obj 10 116 mtof~;
#X obj 10 140 osc~;
#X obj 10 164 *~ 0.019;
#X obj 10 188 throw~ dacout;
#X connect 0 0 1 0;
#X connect 1 0 2 0;
#X connect 2 0 3 0;
#X connect 3 0 4 0;
#X connect 4 0 5 0;
#X connect 5 0 6 0;
#X restore 10 214 pd oscil 5;
#N canvas 0 22 450 300 oscil 6 0;
#X obj 10 10 osc~ 0.06548261783824358;
#X obj 10 68 *~ 0.25801062706528594;
#X obj 10 92 +~ 72.07507652984371;
#X obj 10 116 mtof~;
#X obj 10 140 osc~;
#X obj 10 164 *~ 0.0188;
#X obj 10 188 throw~ dacout;
#X connect 0 0 1 0;
#X connect 1 0 2 0;
#X connect 2 0 3 0;
#X connect 3 0 4 0;
#X connect 4 0 5 0;
#X connect 5 0 6 0;
#X restore 10 248 pd oscil 6;
#N canvas 0 22 450 300 oscil 7 0;
#X obj 10 10 osc~ 0.022970342745726048;
#X obj 10 68 *~ 0.04562915359176941;
#X obj 10 92 +~ 73.18683823430189;
#X obj 10 116 mtof~;
#X obj 10 140 osc~;
#X obj 10 164 *~ 0.0186;
#X obj 10 188 throw~ dacout;
#X connect 0 0 1 0;
#X connect 1 0 2 0;
#X connect 2 0 3 0;
#X connect 3 0 4 0;
#X connect 4 0 5 0;
#X connect 5 0 6 0;
#X restore 10 282 pd oscil 7;
#N canvas 0 22 450 300 oscil 8 0;
#X obj 10 10 osc~ 0.014009882910979777;
#X obj 10 68 *~ 0.21201883267034602;
#X obj 10 92 +~ 75.88127256971754;
#X obj 10 116 mtof~;
#X obj 10 140 osc~;
#X obj 10 164 *~ 0.0184;
#X obj 10 188 throw~ dacout;
#X connect 0 0 1 0;
#X connect 1 0 2 0;
#X connect 2 0 3 0;
#X connect 3 0 4 0;
#X connect 4 0 5 0;
#X connect 5 0 6 0;
#X restore 10 316 pd oscil 8;
#N canvas 0 22 450 300 oscil 9 0;
#X obj 10 10 osc~ 0.07841159076957097;
#X obj 10 68 *~ 0.22014790529350323;
#X obj 10 92 +~ 70.11470922042793;
#X obj 10 116 mtof~;
#X obj 10 140 osc~;
#X obj 10 164 *~ 0.0182;
#X obj 10 188 throw~ dacout;
#X connect 0 0 1 0;
#X connect 1 0 2 0;
#X connect 2 0 3 0;
#X connect 3 0 4 0;
#X connect 4 0 5 0;
#X connect 5 0 6 0;
#X restore 10 350 pd oscil 9;
#N canvas 0 22 450 300 oscil 10 0;
#X obj 10 10 osc~ 0.09754770152495063;
#X obj 10 68 *~ 0.19060095284419826;
#X obj 10 92 +~ 65.21101872190532;
#X obj 10 116 mtof~;
#X obj 10 140 osc~;
#X obj 10 164 *~ 0.018000000000000002;
#X obj 10 188 throw~ dacout;
#X connect 0 0 1 0;
#X connect 1 0 2 0;
#X connect 2 0 3 0;
#X connect 3 0 4 0;
#X connect 4 0 5 0;
#X connect 5 0 6 0;
#X restore 10 384 pd oscil 10;
#N canvas 0 22 450 300 oscil 11 0;
#X obj 10 10 osc~ 0.07252586223907796;
#X obj 10 68 *~ 0.17718891417908542;
#X obj 10 92 +~ 69.73848758605602;
#X obj 10 116 mtof~;
#X obj 10 140 osc~;
#X obj 10 164 *~ 0.0178;
#X obj 10 188 throw~ dacout;
#X connect 0 0 1 0;
#X connect 1 0 2 0;
#X connect 2 0 3 0;
#X connect 3 0 4 0;
#X connect 4 0 5 0;
#X connect 5 0 6 0;
#X restore 10 418 pd oscil 11;
#N canvas 0 22 450 300 oscil 12 0;
#X obj 10 10 osc~ 0.08807350057554117;
#X obj 10 68 *~ 0.03300806869039119;
#X obj 10 92 +~ 83.14354355345806;
#X obj 10 116 mtof~;
#X obj 10 140 osc~;
#X obj 10 164 *~ 0.0176;
#X obj 10 188 throw~ dacout;
#X connect 0 0 1 0;
#X connect 1 0 2 0;
#X connect 2 0 3 0;
#X connect 3 0 4 0;
#X connect 4 0 5 0;
#X connect 5 0 6 0;
#X restore 10 452 pd oscil 12;
#N canvas 0 22 450 300 oscil 13 0;
#X obj 10 10 osc~ 0.04085040424703307;
#X obj 10 68 *~ 0.11376956366419043;
#X obj 10 92 +~ 78.49385017919052;
#X obj 10 116 mtof~;
#X obj 10 140 osc~;
#X obj 10 164 *~ 0.0174;
#X obj 10 188 throw~ dacout;
#X connect 0 0 1 0;
#X connect 1 0 2 0;
#X connect 2 0 3 0;
#X connect 3 0 4 0;
#X connect 4 0 5 0;
#X connect 5 0 6 0;
#X restore 10 486 pd oscil 13;
#N canvas 0 22 450 300 oscil 14 0;
#X obj 10 10 osc~ 0.0004618770416175866;
#X obj 10 68 *~ 0.07112445457631011;
#X obj 10 92 +~ 73.93949330523442;
#X obj 10 116 mtof~;
#X obj 10 140 osc~;
#X obj 10 164 *~ 0.0172;
#X obj 10 188 throw~ dacout;
#X connect 0 0 1 0;
#X connect 1 0 2 0;
#X connect 2 0 3 0;
#X connect 3 0 4 0;
#X connect 4 0 5 0;
#X connect 5 0 6 0;
#X restore 10 520 pd oscil 14;
#N canvas 0 22 450 300 oscil 15 0;
#X obj 10 10 osc~ 0.015105658611202456;
#X obj 10 68 *~ 0.000000e+00;
#X obj 10 92 +~ 65.2175555346927;
#X obj 10 116 mtof~;
#X obj 10 140 osc~;
#X obj 10 164 *~ 0.017;
#X obj 10 188 throw~ dacout;
#X connect 0 0 1 0;
#X connect 1 0 2 0;
#X connect 2 0 3 0;
#X connect 3 0 4 0;
#X connect 4 0 5 0;
#X connect 5 0 6 0;
#X restore 10 554 pd oscil 15;
#N canvas 0 22 450 300 oscil 16 0;
#X obj 10 10 osc~ 0.022312299480066567;
#X obj 10 68 *~ 0.025136405259294642;
#X obj 10 92 +~ 73.26962802022561;
#X obj 10 116 mtof~;
#X obj 10 140 osc~;
#X obj 10 164 *~ 0.0168;
#X obj 10 188 throw~ dacout;
#X connect 0 0 1 0;
#X connect 1 0 2 0;
#X connect 2 0 3 0;
#X connect 3 0 4 0;
#X connect 4 0 5 0;
#X connect 5 0 6 0;
#X restore 10 588 pd oscil 16;
#N canvas 0 22 450 300 oscil 17 0;
#X obj 10 10 osc~ 0.02653311840835858;
#X obj 10 68 *~ 0.07897212931641243;
#X obj 10 92 +~ 74.10066011303016;
#X obj 10 116 mtof~;
#X obj 10 140 osc~;
#X obj 10 164 *~ 0.0166;
#X obj 10 188 throw~ dacout;
#X connect 0 0 1 0;
#X connect 1 0 2 0;
#X connect 2 0 3 0;
#X connect 3 0 4 0;
#X connect 4 0 5 0;
#X connect 5 0 6 0;
#X restore 10 622 pd oscil 17;
#N canvas 0 22 450 300 oscil 18 0;
#X obj 10 10 osc~ 0.03323180110246206;
#X obj 10 68 *~ 0.04938364579978671;
#X obj 10 92 +~ 85.23108090662595;
#X obj 10 116 mtof~;
#X obj 10 140 osc~;
#X obj 10 164 *~ 0.0164;
#X obj 10 188 throw~ dacout;
#X connect 0 0 1 0;
#X connect 1 0 2 0;
#X connect 2 0 3 0;
#X connect 3 0 4 0;
#X connect 4 0 5 0;
#X connect 5 0 6 0;
#X restore 10 656 pd oscil 18;
#N canvas 0 22 450 300 oscil 19 0;
#X obj 10 10 osc~ 0.015078511364522719;
#X obj 10 68 *~ 0.031004651192375318;
#X obj 10 92 +~ 67.24494259773094;
#X obj 10 116 mtof~;
#X obj 10 140 osc~;
#X obj 10 164 *~ 0.016200000000000003;
#X obj 10 188 throw~ dacout;
#X connect 0 0 1 0;
#X connect 1 0 2 0;
#X connect 2 0 3 0;
#X connect 3 0 4 0;
#X connect 4 0 5 0;
#X connect 5 0 6 0;
#X restore 10 690 pd oscil 19;
#N canvas 0 22 450 300 oscil 20 0;
#X obj 10 10 osc~ 0.05578738156020592;
#X obj 10 68 *~ 0.06936605889066147;
#X obj 10 92 +~ 80.72934571560803;
#X obj 10 116 mtof~;
#X obj 10 140 osc~;
#X obj 10 164 *~ 0.016;
#X obj 10 188 throw~ dacout;
#X connect 0 0 1 0;
#X connect 1 0 2 0;
#X connect 2 0 3 0;
#X connect 3 0 4 0;
#X connect 4 0 5 0;
#X connect 5 0 6 0;
#X restore 10 724 pd oscil 20;
#N canvas 0 22 450 300 oscil 21 0;
#X obj 10 10 osc~ 0.04418967007198034;
#X obj 10 68 *~ 0.026119944438336956;
#X obj 10 92 +~ 65.83074233153778;
#X obj 10 116 mtof~;
#X obj 10 140 osc~;
#X obj 10 164 *~ 0.0158;
#X obj 10 188 throw~ dacout;
#X connect 0 0 1 0;
#X connect 1 0 2 0;
#X connect 2 0 3 0;
#X connect 3 0 4 0;
#X connect 4 0 5 0;
#X connect 5 0 6 0;
#X restore 10 758 pd oscil 21;
#N canvas 0 22 450 300 oscil 22 0;
#X obj 10 10 osc~ 0.08291856859937537;
#X obj 10 68 *~ 0.0816449218725122;
#X obj 10 92 +~ 92.22213487161919;
#X obj 10 116 mtof~;
#X obj 10 140 osc~;
#X obj 10 164 *~ 0.015600000000000001;
#X obj 10 188 throw~ dacout;
#X connect 0 0 1 0;
#X connect 1 0 2 0;
#X connect 2 0 3 0;
#X connect 3 0 4 0;
#X connect 4 0 5 0;
#X connect 5 0 6 0;
#X restore 10 792 pd oscil 22;
#N canvas 0 22 450 300 oscil 23 0;
#X obj 10 10 osc~ 0.046749396451889115;
#X obj 10 68 *~ 0.004323610237521654;
#X obj 10 92 +~ 76.80601403961782;
#X obj 10 116 mtof~;
#X obj 10 140 osc~;
#X obj 10 164 *~ 0.0154;
#X obj 10 188 throw~ dacout;
#X connect 0 0 1 0;
#X connect 1 0 2 0;
#X connect 2 0 3 0;
#X connect 3 0 4 0;
#X connect 4 0 5 0;
#X connect 5 0 6 0;
#X restore 10 826 pd oscil 23;
#N canvas 0 22 450 300 oscil 24 0;
#X obj 10 10 osc~ 0.04629537336538223;
#X obj 10 68 *~ 0.02757559945501878;
#X obj 10 92 +~ 83.6279288834166;
#X obj 10 116 mtof~;
#X obj 10 140 osc~;
#X obj 10 164 *~ 0.0152;
#X obj 10 188 throw~ dacout;
#X connect 0 0 1 0;
#X connect 1 0 2 0;
#X connect 2 0 3 0;
#X connect 3 0 4 0;
#X connect 4 0 5 0;
#X connect 5 0 6 0;
#X restore 10 860 pd oscil 24;
#N canvas 0 22 450 300 oscil 25 0;
#X obj 10 10 osc~ 0.07987252582494417;
#X obj 10 68 *~ 0.026851198226055858;
#X obj 10 92 +~ 91.21599746660647;
#X obj 10 116 mtof~;
#X obj 10 140 osc~;
#X obj 10 164 *~ 0.015;
#X obj 10 188 throw~ dacout;
#X connect 0 0 1 0;
#X connect 1 0 2 0;
#X connect 2 0 3 0;
#X connect 3 0 4 0;
#X connect 4 0 5 0;
#X connect 5 0 6 0;
#X restore 10 894 pd oscil 25;
#N canvas 0 22 450 300 oscil 26 0;
#X obj 10 10 osc~ 0.017166719978097846;
#X obj 10 68 *~ 0.0653490825489871;
#X obj 10 92 +~ 74.92398192474431;
#X obj 10 116 mtof~;
#X obj 10 140 osc~;
#X obj 10 164 *~ 0.0148;
#X obj 10 188 throw~ dacout;
#X connect 0 0 1 0;
#X connect 1 0 2 0;
#X connect 2 0 3 0;
#X connect 3 0 4 0;
#X connect 4 0 5 0;
#X connect 5 0 6 0;
#X restore 10 928 pd oscil 26;
#N canvas 0 22 450 300 oscil 27 0;
#X obj 10 10 osc~ 0.07595698108476584;
#X obj 10 68 *~ 0.0360649055276708;
#X obj 10 92 +~ 69.3824988598241;
#X obj 10 116 mtof~;
#X obj 10 140 osc~;
#X obj 10 164 *~ 0.0146;
#X obj 10 188 throw~ dacout;
#X connect 0 0 1 0;
#X connect 1 0 2 0;
#X connect 2 0 3 0;
#X connect 3 0 4 0;
#X connect 4 0 5 0;
#X connect 5 0 6 0;
#X restore 10 962 pd oscil 27;
#N canvas 0 22 450 300 oscil 28 0;
#X obj 10 10 osc~ 0.059404439360757205;
#X obj 10 68 *~ 0.017793974066502422;
#X obj 10 92 +~ 88.9899891598093;
#X obj 10 116 mtof~;
#X obj 10 140 osc~;
#X obj 10 164 *~ 0.0144;
#X obj 10 188 throw~ dacout;
#X connect 0 0 1 0;
#X connect 1 0 2 0;
#X connect 2 0 3 0;
#X connect 3 0 4 0;
#X connect 4 0 5 0;
#X connect 5 0 6 0;
#X restore 10 996 pd oscil 28;
#N canvas 0 22 450 300 oscil 29 0;
#X obj 10 10 osc~ 0.04477140302561794;
#X obj 10 68 *~ 0.021790319701972097;
#X obj 10 92 +~ 106.96898806741562;
#X obj 10 116 mtof~;
#X obj 10 140 osc~;
#X obj 10 164 *~ 0.014199999999999999;
#X obj 10 188 throw~ dacout;
#X connect 0 0 1 0;
#X connect 1 0 2 0;
#X connect 2 0 3 0;
#X connect 3 0 4 0;
#X connect 4 0 5 0;
#X connect 5 0 6 0;
#X restore 10 1030 pd oscil 29;
#N canvas 0 22 450 300 oscil 30 0;
#X obj 10 10 osc~ 0.07702859600355061;
#X obj 10 68 *~ 0.05388336353598915;
#X obj 10 92 +~ 99.14082793760957;
#X obj 10 116 mtof~;
#X obj 10 140 osc~;
#X obj 10 164 *~ 0.013999999999999999;
#X obj 10 188 throw~ dacout;
#X connect 0 0 1 0;
#X connect 1 0 2 0;
#X connect 2 0 3 0;
#X connect 3 0 4 0;
#X connect 4 0 5 0;
#X connect 5 0 6 0;
#X restore 10 1064 pd oscil 30;
#N canvas 0 22 450 300 oscil 31 0;
#X obj 10 10 osc~ 0.07389866277666043;
#X obj 10 68 *~ 0.06299413996291647;
#X obj 10 92 +~ 88.79562299997528;
#X obj 10 116 mtof~;
#X obj 10 140 osc~;
#X obj 10 164 *~ 0.0138;
#X obj 10 188 throw~ dacout;
#X connect 0 0 1 0;
#X connect 1 0 2 0;
#X connect 2 0 3 0;
#X connect 3 0 4 0;
#X connect 4 0 5 0;
#X connect 5 0 6 0;
#X restore 10 1098 pd oscil 31;
#N canvas 0 22 450 300 oscil 32 0;
#X obj 10 10 osc~ 0.003794620985082742;
#X obj 10 68 *~ 0.03372007256181125;
#X obj 10 92 +~ 90.73368604644482;
#X obj 10 116 mtof~;
#X obj 10 140 osc~;
#X obj 10 164 *~ 0.0136;
#X obj 10 188 throw~ dacout;
#X connect 0 0 1 0;
#X connect 1 0 2 0;
#X connect 2 0 3 0;
#X connect 3 0 4 0;
#X connect 4 0 5 0;
#X connect 5 0 6 0;
#X restore 10 1132 pd oscil 32;
#N canvas 0 22 450 300 oscil 33 0;
#X obj 10 10 osc~ 0.059005494516114476;
#X obj 10 68 *~ 0.022657731559479782;
#X obj 10 92 +~ 89.67359789390144;
#X obj 10 116 mtof~;
#X obj 10 140 osc~;
#X obj 10 164 *~ 0.013399999999999999;
#X obj 10 188 throw~ dacout;
#X connect 0 0 1 0;
#X connect 1 0 2 0;
#X connect 2 0 3 0;
#X connect 3 0 4 0;
#X connect 4 0 5 0;
#X connect 5 0 6 0;
#X restore 10 1166 pd oscil 33;
#N canvas 0 22 450 300 oscil 34 0;
#X obj 10 10 osc~ 0.0938898904939958;
#X obj 10 68 *~ 0.019152175717364245;
#X obj 10 92 +~ 117.44360814026388;
#X obj 10 116 mtof~;
#X obj 10 140 osc~;
#X obj 10 164 *~ 0.013199999999999998;
#X obj 10 188 throw~ dacout;
#X connect 0 0 1 0;
#X connect 1 0 2 0;
#X connect 2 0 3 0;
#X connect 3 0 4 0;
#X connect 4 0 5 0;
#X connect 5 0 6 0;
#X restore 10 1200 pd oscil 34;
#N canvas 0 22 450 300 oscil 35 0;
#X obj 10 10 osc~ 0.07085243754900149;
#X obj 10 68 *~ 0.03066760251427036;
#X obj 10 92 +~ 121.49302975532534;
#X obj 10 116 mtof~;
#X obj 10 140 osc~;
#X obj 10 164 *~ 0.013000000000000001;
#X obj 10 188 throw~ dacout;
#X connect 0 0 1 0;
#X connect 1 0 2 0;
#X connect 2 0 3 0;
#X connect 3 0 4 0;
#X connect 4 0 5 0;
#X connect 5 0 6 0;
#X restore 10 1234 pd oscil 35;
#N canvas 0 22 450 300 oscil 36 0;
#X obj 10 10 osc~ 0.017629370482997654;
#X obj 10 68 *~ 0.015740726388188766;
#X obj 10 92 +~ 73.36085072972428;
#X obj 10 116 mtof~;
#X obj 10 140 osc~;
#X obj 10 164 *~ 0.0128;
#X obj 10 188 throw~ dacout;
#X connect 0 0 1 0;
#X connect 1 0 2 0;
#X connect 2 0 3 0;
#X connect 3 0 4 0;
#X connect 4 0 5 0;
#X connect 5 0 6 0;
#X restore 10 1268 pd oscil 36;
#N canvas 0 22 450 300 oscil 37 0;
#X obj 10 10 osc~ 0.09961505141808281;
#X obj 10 68 *~ 0.02116323921593497;
#X obj 10 92 +~ 110.81970564641325;
#X obj 10 116 mtof~;
#X obj 10 140 osc~;
#X obj 10 164 *~ 0.0126;
#X obj 10 188 throw~ dacout;
#X connect 0 0 1 0;
#X connect 1 0 2 0;
#X connect 2 0 3 0;
#X connect 3 0 4 0;
#X connect 4 0 5 0;
#X connect 5 0 6 0;
#X restore 10 1302 pd oscil 37;
#N canvas 0 22 450 300 oscil 38 0;
#X obj 10 10 osc~ 0.09645113798388086;
#X obj 10 68 *~ 0.023860004204414798;
#X obj 10 92 +~ 98.12943134294012;
#X obj 10 116 mtof~;
#X obj 10 140 osc~;
#X obj 10 164 *~ 0.0124;
#X obj 10 188 throw~ dacout;
#X connect 0 0 1 0;
#X connect 1 0 2 0;
#X connect 2 0 3 0;
#X connect 3 0 4 0;
#X connect 4 0 5 0;
#X connect 5 0 6 0;
#X restore 10 1336 pd oscil 38;
#N canvas 0 22 450 300 oscil 39 0;
#X obj 10 10 osc~ 0.0010084639462973777;
#X obj 10 68 *~ 0.0426018959534837;
#X obj 10 92 +~ 123.46982942932794;
#X obj 10 116 mtof~;
#X obj 10 140 osc~;
#X obj 10 164 *~ 0.0122;
#X obj 10 188 throw~ dacout;
#X connect 0 0 1 0;
#X connect 1 0 2 0;
#X connect 2 0 3 0;
#X connect 3 0 4 0;
#X connect 4 0 5 0;
#X connect 5 0 6 0;
#X restore 10 1370 pd oscil 39;
#N canvas 0 22 450 300 oscil 40 0;
#X obj 10 10 osc~ 0.047743310789247775;
#X obj 10 68 *~ 0.0341327029288324;
#X obj 10 92 +~ 104.27011322551652;
#X obj 10 116 mtof~;
#X obj 10 140 osc~;
#X obj 10 164 *~ 0.012;
#X obj 10 188 throw~ dacout;
#X connect 0 0 1 0;
#X connect 1 0 2 0;
#X connect 2 0 3 0;
#X connect 3 0 4 0;
#X connect 4 0 5 0;
#X connect 5 0 6 0;
#X restore 10 1404 pd oscil 40;
#N canvas 0 22 450 300 oscil 41 0;
#X obj 10 10 osc~ 0.01771489943526824;
#X obj 10 68 *~ 0.03277169090761033;
#X obj 10 92 +~ 109.79671518786323;
#X obj 10 116 mtof~;
#X obj 10 140 osc~;
#X obj 10 164 *~ 0.011800000000000001;
#X obj 10 188 throw~ dacout;
#X connect 0 0 1 0;
#X connect 1 0 2 0;
#X connect 2 0 3 0;
#X connect 3 0 4 0;
#X connect 4 0 5 0;
#X connect 5 0 6 0;
#X restore 10 1438 pd oscil 41;
#N canvas 0 22 450 300 oscil 42 0;
#X obj 10 10 osc~ 0.04812935829056723;
#X obj 10 68 *~ 0.029149875819333176;
#X obj 10 92 +~ 78.85997596938596;
#X obj 10 116 mtof~;
#X obj 10 140 osc~;
#X obj 10 164 *~ 0.011600000000000001;
#X obj 10 188 throw~ dacout;
#X connect 0 0 1 0;
#X connect 1 0 2 0;
#X connect 2 0 3 0;
#X connect 3 0 4 0;
#X connect 4 0 5 0;
#X connect 5 0 6 0;
#X restore 10 1472 pd oscil 42;
#N canvas 0 22 450 300 oscil 43 0;
#X obj 10 10 osc~ 0.0706937538525758;
#X obj 10 68 *~ 0.0309605056345365;
#X obj 10 92 +~ 71.28979307295856;
#X obj 10 116 mtof~;
#X obj 10 140 osc~;
#X obj 10 164 *~ 0.011400000000000002;
#X obj 10 188 throw~ dacout;
#X connect 0 0 1 0;
#X connect 1 0 2 0;
#X connect 2 0 3 0;
#X connect 3 0 4 0;
#X connect 4 0 5 0;
#X connect 5 0 6 0;
#X restore 10 1506 pd oscil 43;
#N canvas 0 22 450 300 oscil 44 0;
#X obj 10 10 osc~ 0.04991675453734669;
#X obj 10 68 *~ 0.007509239749567404;
#X obj 10 92 +~ 103.6624647196083;
#X obj 10 116 mtof~;
#X obj 10 140 osc~;
#X obj 10 164 *~ 0.011200000000000002;
#X obj 10 188 throw~ dacout;
#X connect 0 0 1 0;
#X connect 1 0 2 0;
#X connect 2 0 3 0;
#X connect 3 0 4 0;
#X connect 4 0 5 0;
#X connect 5 0 6 0;
#X restore 10 1540 pd oscil 44;
#N canvas 0 22 450 300 oscil 45 0;
#X obj 10 10 osc~ 0.04275992240851413;
#X obj 10 68 *~ 0.0358594916265208;
#X obj 10 92 +~ 119.5571939129226;
#X obj 10 116 mtof~;
#X obj 10 140 osc~;
#X obj 10 164 *~ 0.011000000000000001;
#X obj 10 188 throw~ dacout;
#X connect 0 0 1 0;
#X connect 1 0 2 0;
#X connect 2 0 3 0;
#X connect 3 0 4 0;
#X connect 4 0 5 0;
#X connect 5 0 6 0;
#X restore 10 1574 pd oscil 45;
#N canvas 0 22 450 300 oscil 46 0;
#X obj 10 10 osc~ 0.07213043121772879;
#X obj 10 68 *~ 0.03509502677941667;
#X obj 10 92 +~ 115.13573495554752;
#X obj 10 116 mtof~;
#X obj 10 140 osc~;
#X obj 10 164 *~ 0.0108;
#X obj 10 188 throw~ dacout;
#X connect 0 0 1 0;
#X connect 1 0 2 0;
#X connect 2 0 3 0;
#X connect 3 0 4 0;
#X connect 4 0 5 0;
#X connect 5 0 6 0;
#X restore 10 1608 pd oscil 46;
#N canvas 0 22 450 300 oscil 47 0;
#X obj 10 10 osc~ 0.06477629235745708;
#X obj 10 68 *~ 0.0023197525772166655;
#X obj 10 92 +~ 89.62254403490083;
#X obj 10 116 mtof~;
#X obj 10 140 osc~;
#X obj 10 164 *~ 0.0106;
#X obj 10 188 throw~ dacout;
#X connect 0 0 1 0;
#X connect 1 0 2 0;
#X connect 2 0 3 0;
#X connect 3 0 4 0;
#X connect 4 0 5 0;
#X connect 5 0 6 0;
#X restore 10 1642 pd oscil 47;
#N canvas 0 22 450 300 oscil 48 0;
#X obj 10 10 osc~ 0.006732154038838734;
#X obj 10 68 *~ 0.030364842918777817;
#X obj 10 92 +~ 112.02107770787906;
#X obj 10 116 mtof~;
#X obj 10 140 osc~;
#X obj 10 164 *~ 0.010400000000000001;
#X obj 10 188 throw~ dacout;
#X connect 0 0 1 0;
#X connect 1 0 2 0;
#X connect 2 0 3 0;
#X connect 3 0 4 0;
#X connect 4 0 5 0;
#X connect 5 0 6 0;
#X restore 10 1676 pd oscil 48;
#N canvas 0 22 450 300 oscil 49 0;
#X obj 10 10 osc~ 0.06069606701495165;
#X obj 10 68 *~ 0.030540406817468127;
#X obj 10 92 +~ 109.734681976862;
#X obj 10 116 mtof~;
#X obj 10 140 osc~;
#X obj 10 164 *~ 0.0102;
#X obj 10 188 throw~ dacout;
#X connect 0 0 1 0;
#X connect 1 0 2 0;
#X connect 2 0 3 0;
#X connect 3 0 4 0;
#X connect 4 0 5 0;
#X connect 5 0 6 0;
#X restore 10 1710 pd oscil 49;
#N canvas 0 22 450 300 oscil 50 0;
#X obj 10 10 osc~ 0.07892987513179485;
#X obj 10 68 *~ 0.029571797289348747;
#X obj 10 92 +~ 112.30832427994143;
#X obj 10 116 mtof~;
#X obj 10 140 osc~;
#X obj 10 164 *~ 0.01;
#X obj 10 188 throw~ dacout;
#X connect 0 0 1 0;
#X connect 1 0 2 0;
#X connect 2 0 3 0;
#X connect 3 0 4 0;
#X connect 4 0 5 0;
#X connect 5 0 6 0;
#X restore 10 1744 pd oscil 50;
#N canvas 0 22 450 300 oscil 51 0;
#X obj 10 10 osc~ 0.0038456112198033687;
#X obj 10 68 *~ 0.03529185152843047;
#X obj 10 92 +~ 112.698327392024;
#X obj 10 116 mtof~;
#X obj 10 140 osc~;
#X obj 10 164 *~ 0.0098;
#X obj 10 188 throw~ dacout;
#X connect 0 0 1 0;
#X connect 1 0 2 0;
#X connect 2 0 3 0;
#X connect 3 0 4 0;
#X connect 4 0 5 0;
#X connect 5 0 6 0;
#X restore 10 1778 pd oscil 51;
#N canvas 0 22 450 300 oscil 52 0;
#X obj 10 10 osc~ 0.025144300200821257;
#X obj 10 68 *~ 0.002714101542275202;
#X obj 10 92 +~ 66.71328657621925;
#X obj 10 116 mtof~;
#X obj 10 140 osc~;
#X obj 10 164 *~ 0.0096;
#X obj 10 188 throw~ dacout;
#X connect 0 0 1 0;
#X connect 1 0 2 0;
#X connect 2 0 3 0;
#X connect 3 0 4 0;
#X connect 4 0 5 0;
#X connect 5 0 6 0;
#X restore 10 1812 pd oscil 52;
#N canvas 0 22 450 300 oscil 53 0;
#X obj 10 10 osc~ 0.004750772695740946;
#X obj 10 68 *~ 0.03511755848020929;
#X obj 10 92 +~ 76.80951682295476;
#X obj 10 116 mtof~;
#X obj 10 140 osc~;
#X obj 10 164 *~ 0.0094;
#X obj 10 188 throw~ dacout;
#X connect 0 0 1 0;
#X connect 1 0 2 0;
#X connect 2 0 3 0;
#X connect 3 0 4 0;
#X connect 4 0 5 0;
#X connect 5 0 6 0;
#X restore 10 1846 pd oscil 53;
#N canvas 0 22 450 300 oscil 54 0;
#X obj 10 10 osc~ 0.01164678509073358;
#X obj 10 68 *~ 0.011898828866147916;
#X obj 10 92 +~ 81.89668258906363;
#X obj 10 116 mtof~;
#X obj 10 140 osc~;
#X obj 10 164 *~ 0.0092;
#X obj 10 188 throw~ dacout;
#X connect 0 0 1 0;
#X connect 1 0 2 0;
#X connect 2 0 3 0;
#X connect 3 0 4 0;
#X connect 4 0 5 0;
#X connect 5 0 6 0;
#X restore 10 1880 pd oscil 54;
#N canvas 0 22 450 300 oscil 55 0;
#X obj 10 10 osc~ 0.04608220936274127;
#X obj 10 68 *~ 0.026998791131033602;
#X obj 10 92 +~ 150.91986415495649;
#X obj 10 116 mtof~;
#X obj 10 140 osc~;
#X obj 10 164 *~ 0.009;
#X obj 10 188 throw~ dacout;
#X connect 0 0 1 0;
#X connect 1 0 2 0;
#X connect 2 0 3 0;
#X connect 3 0 4 0;
#X connect 4 0 5 0;
#X connect 5 0 6 0;
#X restore 10 1914 pd oscil 55;
#N canvas 0 22 450 300 oscil 56 0;
#X obj 10 10 osc~ 0.006866159985274545;
#X obj 10 68 *~ 0.02994217306577209;
#X obj 10 92 +~ 157.54385762992086;
#X obj 10 116 mtof~;
#X obj 10 140 osc~;
#X obj 10 164 *~ 0.008799999999999999;
#X obj 10 188 throw~ dacout;
#X connect 0 0 1 0;
#X connect 1 0 2 0;
#X connect 2 0 3 0;
#X connect 3 0 4 0;
#X connect 4 0 5 0;
#X connect 5 0 6 0;
#X restore 10 1948 pd oscil 56;
#N canvas 0 22 450 300 oscil 57 0;
#X obj 10 10 osc~ 0.015421092826218686;
#X obj 10 68 *~ 0.01187770505035931;
#X obj 10 92 +~ 147.35590721257068;
#X obj 10 116 mtof~;
#X obj 10 140 osc~;
#X obj 10 164 *~ 0.008600000000000002;
#X obj 10 188 throw~ dacout;
#X connect 0 0 1 0;
#X connect 1 0 2 0;
#X connect 2 0 3 0;
#X connect 3 0 4 0;
#X connect 4 0 5 0;
#X connect 5 0 6 0;
#X restore 10 1982 pd oscil 57;
#N canvas 0 22 450 300 oscil 58 0;
#X obj 10 10 osc~ 0.03575907167759216;
#X obj 10 68 *~ 0.028992683231033656;
#X obj 10 92 +~ 73.5706344442689;
#X obj 10 116 mtof~;
#X obj 10 140 osc~;
#X obj 10 164 *~ 0.008400000000000001;
#X obj 10 188 throw~ dacout;
#X connect 0 0 1 0;
#X connect 1 0 2 0;
#X connect 2 0 3 0;
#X connect 3 0 4 0;
#X connect 4 0 5 0;
#X connect 5 0 6 0;
#X restore 10 2016 pd oscil 58;
#N canvas 0 22 450 300 oscil 59 0;
#X obj 10 10 osc~ 0.06958807199636532;
#X obj 10 68 *~ 0.020131772519906707;
#X obj 10 92 +~ 89.31594275238908;
#X obj 10 116 mtof~;
#X obj 10 140 osc~;
#X obj 10 164 *~ 0.0082;
#X obj 10 188 throw~ dacout;
#X connect 0 0 1 0;
#X connect 1 0 2 0;
#X connect 2 0 3 0;
#X connect 3 0 4 0;
#X connect 4 0 5 0;
#X connect 5 0 6 0;
#X restore 10 2050 pd oscil 59;
#N canvas 0 22 450 300 oscil 60 0;
#X obj 10 10 osc~ 0.02591683574705902;
#X obj 10 68 *~ 0.011593174285933565;
#X obj 10 92 +~ 95.71498810469062;
#X obj 10 116 mtof~;
#X obj 10 140 osc~;
#X obj 10 164 *~ 0.008;
#X obj 10 188 throw~ dacout;
#X connect 0 0 1 0;
#X connect 1 0 2 0;
#X connect 2 0 3 0;
#X connect 3 0 4 0;
#X connect 4 0 5 0;
#X connect 5 0 6 0;
#X restore 10 2084 pd oscil 60;
#N canvas 0 22 450 300 oscil 61 0;
#X obj 10 10 osc~ 0.06446192482336296;
#X obj 10 68 *~ 0.0009444365883105981;
#X obj 10 92 +~ 133.22064954188;
#X obj 10 116 mtof~;
#X obj 10 140 osc~;
#X obj 10 164 *~ 0.0078000000000000005;
#X obj 10 188 throw~ dacout;
#X connect 0 0 1 0;
#X connect 1 0 2 0;
#X connect 2 0 3 0;
#X connect 3 0 4 0;
#X connect 4 0 5 0;
#X connect 5 0 6 0;
#X restore 10 2118 pd oscil 61;
#N canvas 0 22 450 300 oscil 62 0;
#X obj 10 10 osc~ 0.09455119603473508;
#X obj 10 68 *~ 0.026820733803226828;
#X obj 10 92 +~ 75.57478257805316;
#X obj 10 116 mtof~;
#X obj 10 140 osc~;
#X obj 10 164 *~ 0.0076;
#X obj 10 188 throw~ dacout;
#X connect 0 0 1 0;
#X connect 1 0 2 0;
#X connect 2 0 3 0;
#X connect 3 0 4 0;
#X connect 4 0 5 0;
#X connect 5 0 6 0;
#X restore 10 2152 pd oscil 62;
#N canvas 0 22 450 300 oscil 63 0;
#X obj 10 10 osc~ 0.007924218079238666;
#X obj 10 68 *~ 0.002474906488911464;
#X obj 10 92 +~ 139.13697955778377;
#X obj 10 116 mtof~;
#X obj 10 140 osc~;
#X obj 10 164 *~ 0.0074;
#X obj 10 188 throw~ dacout;
#X connect 0 0 1 0;
#X connect 1 0 2 0;
#X connect 2 0 3 0;
#X connect 3 0 4 0;
#X connect 4 0 5 0;
#X connect 5 0 6 0;
#X restore 10 2186 pd oscil 63;
#N canvas 0 22 450 300 oscil 64 0;
#X obj 10 10 osc~ 0.07438353969036114;
#X obj 10 68 *~ 0.025777258859702896;
#X obj 10 92 +~ 149.49086953598845;
#X obj 10 116 mtof~;
#X obj 10 140 osc~;
#X obj 10 164 *~ 0.0072;
#X obj 10 188 throw~ dacout;
#X connect 0 0 1 0;
#X connect 1 0 2 0;
#X connect 2 0 3 0;
#X connect 3 0 4 0;
#X connect 4 0 5 0;
#X connect 5 0 6 0;
#X restore 10 2220 pd oscil 64;
#N canvas 0 22 450 300 oscil 65 0;
#X obj 10 10 osc~ 0.07964629408103198;
#X obj 10 68 *~ 0.006551870841954784;
#X obj 10 92 +~ 81.51411252503561;
#X obj 10 116 mtof~;
#X obj 10 140 osc~;
#X obj 10 164 *~ 0.006999999999999999;
#X obj 10 188 throw~ dacout;
#X connect 0 0 1 0;
#X connect 1 0 2 0;
#X connect 2 0 3 0;
#X connect 3 0 4 0;
#X connect 4 0 5 0;
#X connect 5 0 6 0;
#X restore 10 2254 pd oscil 65;
#N canvas 0 22 450 300 oscil 66 0;
#X obj 10 10 osc~ 0.08104105103074559;
#X obj 10 68 *~ 0.006704639205721864;
#X obj 10 92 +~ 84.63885840940645;
#X obj 10 116 mtof~;
#X obj 10 140 osc~;
#X obj 10 164 *~ 0.0068;
#X obj 10 188 throw~ dacout;
#X connect 0 0 1 0;
#X connect 1 0 2 0;
#X connect 2 0 3 0;
#X connect 3 0 4 0;
#X connect 4 0 5 0;
#X connect 5 0 6 0;
#X restore 10 2288 pd oscil 66;
#N canvas 0 22 450 300 oscil 67 0;
#X obj 10 10 osc~ 0.028508591541036844;
#X obj 10 68 *~ 0.013519526404295629;
#X obj 10 92 +~ 147.1833982884537;
#X obj 10 116 mtof~;
#X obj 10 140 osc~;
#X obj 10 164 *~ 0.006599999999999999;
#X obj 10 188 throw~ dacout;
#X connect 0 0 1 0;
#X connect 1 0 2 0;
#X connect 2 0 3 0;
#X connect 3 0 4 0;
#X connect 4 0 5 0;
#X connect 5 0 6 0;
#X restore 10 2322 pd oscil 67;
#N canvas 0 22 450 300 oscil 68 0;
#X obj 10 10 osc~ 0.08097560959348074;
#X obj 10 68 *~ 0.01436634657581702;
#X obj 10 92 +~ 107.03367551554923;
#X obj 10 116 mtof~;
#X obj 10 140 osc~;
#X obj 10 164 *~ 0.0063999999999999994;
#X obj 10 188 throw~ dacout;
#X connect 0 0 1 0;
#X connect 1 0 2 0;
#X connect 2 0 3 0;
#X connect 3 0 4 0;
#X connect 4 0 5 0;
#X connect 5 0 6 0;
#X restore 10 2356 pd oscil 68;
#N canvas 0 22 450 300 oscil 69 0;
#X obj 10 10 osc~ 0.049445493723884175;
#X obj 10 68 *~ 0.011125187539232959;
#X obj 10 92 +~ 94.40627740404462;
#X obj 10 116 mtof~;
#X obj 10 140 osc~;
#X obj 10 164 *~ 0.0062000000000000015;
#X obj 10 188 throw~ dacout;
#X connect 0 0 1 0;
#X connect 1 0 2 0;
#X connect 2 0 3 0;
#X connect 3 0 4 0;
#X connect 4 0 5 0;
#X connect 5 0 6 0;
#X restore 10 2390 pd oscil 69;
#N canvas 0 22 450 300 oscil 70 0;
#X obj 10 10 osc~ 0.06622764066802476;
#X obj 10 68 *~ 0.015501383857277755;
#X obj 10 92 +~ 147.3558752922283;
#X obj 10 116 mtof~;
#X obj 10 140 osc~;
#X obj 10 164 *~ 0.006000000000000001;
#X obj 10 188 throw~ dacout;
#X connect 0 0 1 0;
#X connect 1 0 2 0;
#X connect 2 0 3 0;
#X connect 3 0 4 0;
#X connect 4 0 5 0;
#X connect 5 0 6 0;
#X restore 10 2424 pd oscil 70;
#N canvas 0 22 450 300 oscil 71 0;
#X obj 10 10 osc~ 0.06357569650313577;
#X obj 10 68 *~ 0.003507536364797067;
#X obj 10 92 +~ 79.27539159305536;
#X obj 10 116 mtof~;
#X obj 10 140 osc~;
#X obj 10 164 *~ 0.0058000000000000005;
#X obj 10 188 throw~ dacout;
#X connect 0 0 1 0;
#X connect 1 0 2 0;
#X connect 2 0 3 0;
#X connect 3 0 4 0;
#X connect 4 0 5 0;
#X connect 5 0 6 0;
#X restore 10 2458 pd oscil 71;
#N canvas 0 22 450 300 oscil 72 0;
#X obj 10 10 osc~ 0.030373170013465935;
#X obj 10 68 *~ 0.027068343263120957;
#X obj 10 92 +~ 190.8212364913563;
#X obj 10 116 mtof~;
#X obj 10 140 osc~;
#X obj 10 164 *~ 0.005600000000000001;
#X obj 10 188 throw~ dacout;
#X connect 0 0 1 0;
#X connect 1 0 2 0;
#X connect 2 0 3 0;
#X connect 3 0 4 0;
#X connect 4 0 5 0;
#X connect 5 0 6 0;
#X restore 10 2492 pd oscil 72;
#N canvas 0 22 450 300 oscil 73 0;
#X obj 10 10 osc~ 0.08024719289657292;
#X obj 10 68 *~ 0.016141393282205523;
#X obj 10 92 +~ 102.39316210759313;
#X obj 10 116 mtof~;
#X obj 10 140 osc~;
#X obj 10 164 *~ 0.0054;
#X obj 10 188 throw~ dacout;
#X connect 0 0 1 0;
#X connect 1 0 2 0;
#X connect 2 0 3 0;
#X connect 3 0 4 0;
#X connect 4 0 5 0;
#X connect 5 0 6 0;
#X restore 10 2526 pd oscil 73;
#N canvas 0 22 450 300 oscil 74 0;
#X obj 10 10 osc~ 0.024439426516528407;
#X obj 10 68 *~ 0.022207871168567702;
#X obj 10 92 +~ 188.4247892990075;
#X obj 10 116 mtof~;
#X obj 10 140 osc~;
#X obj 10 164 *~ 0.005200000000000001;
#X obj 10 188 throw~ dacout;
#X connect 0 0 1 0;
#X connect 1 0 2 0;
#X connect 2 0 3 0;
#X connect 3 0 4 0;
#X connect 4 0 5 0;
#X connect 5 0 6 0;
#X restore 10 2560 pd oscil 74;
#N canvas 0 22 450 300 oscil 75 0;
#X obj 10 10 osc~ 0.05134644791569189;
#X obj 10 68 *~ 0.005691521446832383;
#X obj 10 92 +~ 192.9150134849377;
#X obj 10 116 mtof~;
#X obj 10 140 osc~;
#X obj 10 164 *~ 0.005;
#X obj 10 188 throw~ dacout;
#X connect 0 0 1 0;
#X connect 1 0 2 0;
#X connect 2 0 3 0;
#X connect 3 0 4 0;
#X connect 4 0 5 0;
#X connect 5 0 6 0;
#X restore 10 2594 pd oscil 75;
#N canvas 0 22 450 300 oscil 76 0;
#X obj 10 10 osc~ 0.04722653880632177;
#X obj 10 68 *~ 0.025994178970379117;
#X obj 10 92 +~ 65.34271210700989;
#X obj 10 116 mtof~;
#X obj 10 140 osc~;
#X obj 10 164 *~ 0.0048;
#X obj 10 188 throw~ dacout;
#X connect 0 0 1 0;
#X connect 1 0 2 0;
#X connect 2 0 3 0;
#X connect 3 0 4 0;
#X connect 4 0 5 0;
#X connect 5 0 6 0;
#X restore 10 2628 pd oscil 76;
#N canvas 0 22 450 300 oscil 77 0;
#X obj 10 10 osc~ 0.06303468084663245;
#X obj 10 68 *~ 0.02477130752820165;
#X obj 10 92 +~ 184.2927852345947;
#X obj 10 116 mtof~;
#X obj 10 140 osc~;
#X obj 10 164 *~ 0.0046;
#X obj 10 188 throw~ dacout;
#X connect 0 0 1 0;
#X connect 1 0 2 0;
#X connect 2 0 3 0;
#X connect 3 0 4 0;
#X connect 4 0 5 0;
#X connect 5 0 6 0;
#X restore 10 2662 pd oscil 77;
#N canvas 0 22 450 300 oscil 78 0;
#X obj 10 10 osc~ 0.09118373297744511;
#X obj 10 68 *~ 0.0016189028776095026;
#X obj 10 92 +~ 79.50665807895531;
#X obj 10 116 mtof~;
#X obj 10 140 osc~;
#X obj 10 164 *~ 0.004399999999999999;
#X obj 10 188 throw~ dacout;
#X connect 0 0 1 0;
#X connect 1 0 2 0;
#X connect 2 0 3 0;
#X connect 3 0 4 0;
#X connect 4 0 5 0;
#X connect 5 0 6 0;
#X restore 10 2696 pd oscil 78;
#N canvas 0 22 450 300 oscil 79 0;
#X obj 10 10 osc~ 0.028971284416108925;
#X obj 10 68 *~ 0.010575800863136312;
#X obj 10 92 +~ 162.23392732017373;
#X obj 10 116 mtof~;
#X obj 10 140 osc~;
#X obj 10 164 *~ 0.0042;
#X obj 10 188 throw~ dacout;
#X connect 0 0 1 0;
#X connect 1 0 2 0;
#X connect 2 0 3 0;
#X connect 3 0 4 0;
#X connect 4 0 5 0;
#X connect 5 0 6 0;
#X restore 10 2730 pd oscil 79;
#N canvas 0 22 450 300 oscil 80 0;
#X obj 10 10 osc~ 0.04147628114996025;
#X obj 10 68 *~ 0.015496604790281313;
#X obj 10 92 +~ 170.63746021609595;
#X obj 10 116 mtof~;
#X obj 10 140 osc~;
#X obj 10 164 *~ 0.003999999999999999;
#X obj 10 188 throw~ dacout;
#X connect 0 0 1 0;
#X connect 1 0 2 0;
#X connect 2 0 3 0;
#X connect 3 0 4 0;
#X connect 4 0 5 0;
#X connect 5 0 6 0;
#X restore 10 2764 pd oscil 80;
#N canvas 0 22 450 300 oscil 81 0;
#X obj 10 10 osc~ 0.03958501087477913;
#X obj 10 68 *~ 0.01920611385251557;
#X obj 10 92 +~ 75.90229518578667;
#X obj 10 116 mtof~;
#X obj 10 140 osc~;
#X obj 10 164 *~ 0.003799999999999999;
#X obj 10 188 throw~ dacout;
#X connect 0 0 1 0;
#X connect 1 0 2 0;
#X connect 2 0 3 0;
#X connect 3 0 4 0;
#X connect 4 0 5 0;
#X connect 5 0 6 0;
#X restore 10 2798 pd oscil 81;
#N canvas 0 22 450 300 oscil 82 0;
#X obj 10 10 osc~ 0.04853476841930791;
#X obj 10 68 *~ 0.005378447933719373;
#X obj 10 92 +~ 76.20034642551555;
#X obj 10 116 mtof~;
#X obj 10 140 osc~;
#X obj 10 164 *~ 0.003600000000000001;
#X obj 10 188 throw~ dacout;
#X connect 0 0 1 0;
#X connect 1 0 2 0;
#X connect 2 0 3 0;
#X connect 3 0 4 0;
#X connect 4 0 5 0;
#X connect 5 0 6 0;
#X restore 10 2832 pd oscil 82;
#N canvas 0 22 450 300 oscil 83 0;
#X obj 10 10 osc~ 0.07658741624771609;
#X obj 10 68 *~ 0.023561725212320566;
#X obj 10 92 +~ 201.97755356692156;
#X obj 10 116 mtof~;
#X obj 10 140 osc~;
#X obj 10 164 *~ 0.0034000000000000007;
#X obj 10 188 throw~ dacout;
#X connect 0 0 1 0;
#X connect 1 0 2 0;
#X connect 2 0 3 0;
#X connect 3 0 4 0;
#X connect 4 0 5 0;
#X connect 5 0 6 0;
#X restore 10 2866 pd oscil 83;
#N canvas 0 22 450 300 oscil 84 0;
#X obj 10 10 osc~ 0.01697971859701175;
#X obj 10 68 *~ 0.02319215663983592;
#X obj 10 92 +~ 93.51742859617465;
#X obj 10 116 mtof~;
#X obj 10 140 osc~;
#X obj 10 164 *~ 0.0032000000000000006;
#X obj 10 188 throw~ dacout;
#X connect 0 0 1 0;
#X connect 1 0 2 0;
#X connect 2 0 3 0;
#X connect 3 0 4 0;
#X connect 4 0 5 0;
#X connect 5 0 6 0;
#X restore 10 2900 pd oscil 84;
#N canvas 0 22 450 300 oscil 85 0;
#X obj 10 10 osc~ 0.052786413605786654;
#X obj 10 68 *~ 0.016445635245793185;
#X obj 10 92 +~ 144.89082695462753;
#X obj 10 116 mtof~;
#X obj 10 140 osc~;
#X obj 10 164 *~ 0.0030000000000000005;
#X obj 10 188 throw~ dacout;
#X connect 0 0 1 0;
#X connect 1 0 2 0;
#X connect 2 0 3 0;
#X connect 3 0 4 0;
#X connect 4 0 5 0;
#X connect 5 0 6 0;
#X restore 10 2934 pd oscil 85;
#N canvas 0 22 450 300 oscil 86 0;
#X obj 10 10 osc~ 0.08974667145180246;
#X obj 10 68 *~ 0.02155808648700278;
#X obj 10 92 +~ 168.93518382747288;
#X obj 10 116 mtof~;
#X obj 10 140 osc~;
#X obj 10 164 *~ 0.0028000000000000004;
#X obj 10 188 throw~ dacout;
#X connect 0 0 1 0;
#X connect 1 0 2 0;
#X connect 2 0 3 0;
#X connect 3 0 4 0;
#X connect 4 0 5 0;
#X connect 5 0 6 0;
#X restore 10 2968 pd oscil 86;
#N canvas 0 22 450 300 oscil 87 0;
#X obj 10 10 osc~ 0.014754995264085703;
#X obj 10 68 *~ 0.00794970141813395;
#X obj 10 92 +~ 192.46146974000328;
#X obj 10 116 mtof~;
#X obj 10 140 osc~;
#X obj 10 164 *~ 0.0026000000000000003;
#X obj 10 188 throw~ dacout;
#X connect 0 0 1 0;
#X connect 1 0 2 0;
#X connect 2 0 3 0;
#X connect 3 0 4 0;
#X connect 4 0 5 0;
#X connect 5 0 6 0;
#X restore 10 3002 pd oscil 87;
#N canvas 0 22 450 300 oscil 88 0;
#X obj 10 10 osc~ 0.04045206085132792;
#X obj 10 68 *~ 0.011812993522969151;
#X obj 10 92 +~ 106.31685594331407;
#X obj 10 116 mtof~;
#X obj 10 140 osc~;
#X obj 10 164 *~ 0.0024;
#X obj 10 188 throw~ dacout;
#X connect 0 0 1 0;
#X connect 1 0 2 0;
#X connect 2 0 3 0;
#X connect 3 0 4 0;
#X connect 4 0 5 0;
#X connect 5 0 6 0;
#X restore 10 3036 pd oscil 88;
#N canvas 0 22 450 300 oscil 89 0;
#X obj 10 10 osc~ 0.07582267134320941;
#X obj 10 68 *~ 0.01677198676670929;
#X obj 10 92 +~ 146.84976496087637;
#X obj 10 116 mtof~;
#X obj 10 140 osc~;
#X obj 10 164 *~ 0.0021999999999999997;
#X obj 10 188 throw~ dacout;
#X connect 0 0 1 0;
#X connect 1 0 2 0;
#X connect 2 0 3 0;
#X connect 3 0 4 0;
#X connect 4 0 5 0;
#X connect 5 0 6 0;
#X restore 10 3070 pd oscil 89;
#N canvas 0 22 450 300 oscil 90 0;
#X obj 10 10 osc~ 0.06939850053501152;
#X obj 10 68 *~ 0.003370208996784253;
#X obj 10 92 +~ 67.38663436223575;
#X obj 10 116 mtof~;
#X obj 10 140 osc~;
#X obj 10 164 *~ 0.0019999999999999996;
#X obj 10 188 throw~ dacout;
#X connect 0 0 1 0;
#X connect 1 0 2 0;
#X connect 2 0 3 0;
#X connect 3 0 4 0;
#X connect 4 0 5 0;
#X connect 5 0 6 0;
#X restore 10 3104 pd oscil 90;
#N canvas 0 22 450 300 oscil 91 0;
#X obj 10 10 osc~ 0.08530575056517037;
#X obj 10 68 *~ 0.012183764334111348;
#X obj 10 92 +~ 76.87318987995685;
#X obj 10 116 mtof~;
#X obj 10 140 osc~;
#X obj 10 164 *~ 0.0017999999999999995;
#X obj 10 188 throw~ dacout;
#X connect 0 0 1 0;
#X connect 1 0 2 0;
#X connect 2 0 3 0;
#X connect 3 0 4 0;
#X connect 4 0 5 0;
#X connect 5 0 6 0;
#X restore 10 3138 pd oscil 91;
#N canvas 0 22 450 300 oscil 92 0;
#X obj 10 10 osc~ 0.007122438163115242;
#X obj 10 68 *~ 0.0013903538275182193;
#X obj 10 92 +~ 193.1259603016401;
#X obj 10 116 mtof~;
#X obj 10 140 osc~;
#X obj 10 164 *~ 0.0015999999999999992;
#X obj 10 188 throw~ dacout;
#X connect 0 0 1 0;
#X connect 1 0 2 0;
#X connect 2 0 3 0;
#X connect 3 0 4 0;
#X connect 4 0 5 0;
#X connect 5 0 6 0;
#X restore 10 3172 pd oscil 92;
#N canvas 0 22 450 300 oscil 93 0;
#X obj 10 10 osc~ 0.0014111152645735038;
#X obj 10 68 *~ 0.017744369237989725;
#X obj 10 92 +~ 154.6447905240378;
#X obj 10 116 mtof~;
#X obj 10 140 osc~;
#X obj 10 164 *~ 0.0013999999999999991;
#X obj 10 188 throw~ dacout;
#X connect 0 0 1 0;
#X connect 1 0 2 0;
#X connect 2 0 3 0;
#X connect 3 0 4 0;
#X connect 4 0 5 0;
#X connect 5 0 6 0;
#X restore 10 3206 pd oscil 93;
#N canvas 0 22 450 300 oscil 94 0;
#X obj 10 10 osc~ 0.03885901485467698;
#X obj 10 68 *~ 0.00017295087258354356;
#X obj 10 92 +~ 178.94750971552583;
#X obj 10 116 mtof~;
#X obj 10 140 osc~;
#X obj 10 164 *~ 0.0012000000000000012;
#X obj 10 188 throw~ dacout;
#X connect 0 0 1 0;
#X connect 1 0 2 0;
#X connect 2 0 3 0;
#X connect 3 0 4 0;
#X connect 4 0 5 0;
#X connect 5 0 6 0;
#X restore 10 3240 pd oscil 94;
#N canvas 0 22 450 300 oscil 95 0;
#X obj 10 10 osc~ 0.007372685493032483;
#X obj 10 68 *~ 0.019814253144328175;
#X obj 10 92 +~ 190.94959655685972;
#X obj 10 116 mtof~;
#X obj 10 140 osc~;
#X obj 10 164 *~ 0.0010000000000000009;
#X obj 10 188 throw~ dacout;
#X connect 0 0 1 0;
#X connect 1 0 2 0;
#X connect 2 0 3 0;
#X connect 3 0 4 0;
#X connect 4 0 5 0;
#X connect 5 0 6 0;
#X restore 10 3274 pd oscil 95;
#N canvas 0 22 450 300 oscil 96 0;
#X obj 10 10 osc~ 0.06281929293808125;
#X obj 10 68 *~ 0.009636117980949953;
#X obj 10 92 +~ 174.5974843326554;
#X obj 10 116 mtof~;
#X obj 10 140 osc~;
#X obj 10 164 *~ 0.0008000000000000007;
#X obj 10 188 throw~ dacout;
#X connect 0 0 1 0;
#X connect 1 0 2 0;
#X connect 2 0 3 0;
#X connect 3 0 4 0;
#X connect 4 0 5 0;
#X connect 5 0 6 0;
#X restore 10 3308 pd oscil 96;
#N canvas 0 22 450 300 oscil 97 0;
#X obj 10 10 osc~ 0.005159006404716272;
#X obj 10 68 *~ 0.01481865868987533;
#X obj 10 92 +~ 166.3420459335838;
#X obj 10 116 mtof~;
#X obj 10 140 osc~;
#X obj 10 164 *~ 0.0006000000000000006;
#X obj 10 188 throw~ dacout;
#X connect 0 0 1 0;
#X connect 1 0 2 0;
#X connect 2 0 3 0;
#X connect 3 0 4 0;
#X connect 4 0 5 0;
#X connect 5 0 6 0;
#X restore 10 3342 pd oscil 97;
#N canvas 0 22 450 300 oscil 98 0;
#X obj 10 10 osc~ 0.09135383126477459;
#X obj 10 68 *~ 0.020126768521130448;
#X obj 10 92 +~ 217.2601060390049;
#X obj 10 116 mtof~;
#X obj 10 140 osc~;
#X obj 10 164 *~ 0.00040000000000000034;
#X obj 10 188 throw~ dacout;
#X connect 0 0 1 0;
#X connect 1 0 2 0;
#X connect 2 0 3 0;
#X connect 3 0 4 0;
#X connect 4 0 5 0;
#X connect 5 0 6 0;
#X restore 10 3376 pd oscil 98;
#N canvas 0 22 450 300 oscil 99 0;
#X obj 10 10 osc~ 0.04784197635721054;
#X obj 10 68 *~ 0.00673737874510223;
#X obj 10 92 +~ 209.69444653336822;
#X obj 10 116 mtof~;
#X obj 10 140 osc~;
#X obj 10 164 *~ 0.00020000000000000017;
#X obj 10 188 throw~ dacout;
#X connect 0 0 1 0;
#X connect 1 0 2 0;
#X connect 2 0 3 0;
#X connect 3 0 4 0;
#X connect 4 0 5 0;
#X connect 5 0 6 0;
#X restore 10 3410 pd oscil 99;
