#N canvas 0 22 450 300 12;
#X obj 10 10 loadbang;
#X obj 10.0 58 t b b;
#X obj 82.0 58 until;
#X obj 82.0 82 f;
#X obj 2170.0 82 + 1;
#X obj 82.0 106 sel 99;
#X obj 10.0 106 print;
#X msg 10.0 82 Done;
#X obj 154.0 10 loadbang;
#X obj 154.0 58 t b b;
#X obj 226.0 58 until;
#X obj 226.0 82 f;
#X obj 2098.0 82 + 1;
#X obj 226.0 106 sel 99;
#X obj 154.0 106 print;
#X msg 154.0 82 Done;
#X obj 298.0 10 loadbang;
#X obj 298.0 58 t b b;
#X obj 370.0 58 until;
#X obj 370.0 82 f;
#X obj 2026.0 82 + 1;
#X obj 370.0 106 sel 99;
#X obj 298.0 106 print;
#X msg 298.0 82 Done;
#X obj 442.0 10 loadbang;
#X obj 442.0 58 t b b;
#X obj 514.0 58 until;
#X obj 514.0 82 f;
#X obj 1954.0 82 + 1;
#X obj 514.0 106 sel 99;
#X obj 442.0 106 print;
#X msg 442.0 82 Done;
#X obj 586.0 10 loadbang;
#X obj 586.0 58 t b b;
#X obj 658.0 58 until;
#X obj 658.0 82 f;
#X obj 1882.0 82 + 1;
#X obj 658.0 106 sel 99;
#X obj 586.0 106 print;
#X msg 586.0 82 Done;
#X obj 730.0 10 loadbang;
#X obj 730.0 58 t b b;
#X obj 802.0 58 until;
#X obj 802.0 82 f;
#X obj 1810.0 82 + 1;
#X obj 802.0 106 sel 99;
#X obj 730.0 106 print;
#X msg 730.0 82 Done;
#X obj 874.0 10 loadbang;
#X obj 874.0 58 t b b;
#X obj 946.0 58 until;
#X obj 946.0 82 f;
#X obj 1738.0 82 + 1;
#X obj 946.0 106 sel 99;
#X obj 874.0 106 print;
#X msg 874.0 82 Done;
#X obj 1018.0 10 loadbang;
#X obj 1018.0 58 t b b;
#X obj 1090.0 58 until;
#X obj 1090.0 82 f;
#X obj 1666.0 82 + 1;
#X obj 1090.0 106 sel 99;
#X obj 1018.0 106 print;
#X msg 1018.0 82 Done;
#X obj 1162.0 10 loadbang;
#X obj 1162.0 58 t b b;
#X obj 1234.0 58 until;
#X obj 1234.0 82 f;
#X obj 1594.0 82 + 1;
#X obj 1234.0 106 sel 99;
#X obj 1162.0 106 print;
#X msg 1162.0 82 Done;
#X obj 1306.0 10 loadbang;
#X obj 1306.0 58 t b b;
#X obj 1378.0 58 until;
#X obj 1378.0 82 f;
#X obj 1522.0 82 + 1;
#X obj 1378.0 106 sel 99;
#X obj 1306.0 106 print;
#X msg 1306.0 82 Done;
#X connect 0 0 1 0;
#X connect 1 0 7 0;
#X connect 7 0 6 0;
#X connect 1 1 2 0;
#X connect 2 0 3 0;
#X connect 3 0 5 0;
#X connect 3 0 4 0;
#X connect 4 0 3 1;
#X connect 5 0 2 1;
#X connect 3 0 6 0;
#X connect 8 0 9 0;
#X connect 9 0 15 0;
#X connect 15 0 14 0;
#X connect 9 1 10 0;
#X connect 10 0 11 0;
#X connect 11 0 13 0;
#X connect 11 0 12 0;
#X connect 12 0 11 1;
#X connect 13 0 10 1;
#X connect 11 0 14 0;
#X connect 16 0 17 0;
#X connect 17 0 23 0;
#X connect 23 0 22 0;
#X connect 17 1 18 0;
#X connect 18 0 19 0;
#X connect 19 0 21 0;
#X connect 19 0 20 0;
#X connect 20 0 19 1;
#X connect 21 0 18 1;
#X connect 19 0 22 0;
#X connect 24 0 25 0;
#X connect 25 0 31 0;
#X connect 31 0 30 0;
#X connect 25 1 26 0;
#X connect 26 0 27 0;
#X connect 27 0 29 0;
#X connect 27 0 28 0;
#X connect 28 0 27 1;
#X connect 29 0 26 1;
#X connect 27 0 30 0;
#X connect 32 0 33 0;
#X connect 33 0 39 0;
#X connect 39 0 38 0;
#X connect 33 1 34 0;
#X connect 34 0 35 0;
#X connect 35 0 37 0;
#X connect 35 0 36 0;
#X connect 36 0 35 1;
#X connect 37 0 34 1;
#X connect 35 0 38 0;
#X connect 40 0 41 0;
#X connect 41 0 47 0;
#X connect 47 0 46 0;
#X connect 41 1 42 0;
#X connect 42 0 43 0;
#X connect 43 0 45 0;
#X connect 43 0 44 0;
#X connect 44 0 43 1;
#X connect 45 0 42 1;
#X connect 43 0 46 0;
#X connect 48 0 49 0;
#X connect 49 0 55 0;
#X connect 55 0 54 0;
#X connect 49 1 50 0;
#X connect 50 0 51 0;
#X connect 51 0 53 0;
#X connect 51 0 52 0;
#X connect 52 0 51 1;
#X connect 53 0 50 1;
#X connect 51 0 54 0;
#X connect 56 0 57 0;
#X connect 57 0 63 0;
#X connect 63 0 62 0;
#X connect 57 1 58 0;
#X connect 58 0 59 0;
#X connect 59 0 61 0;
#X connect 59 0 60 0;
#X connect 60 0 59 1;
#X connect 61 0 58 1;
#X connect 59 0 62 0;
#X connect 64 0 65 0;
#X connect 65 0 71 0;
#X connect 71 0 70 0;
#X connect 65 1 66 0;
#X connect 66 0 67 0;
#X connect 67 0 69 0;
#X connect 67 0 68 0;
#X connect 68 0 67 1;
#X connect 69 0 66 1;
#X connect 67 0 70 0;
#X connect 72 0 73 0;
#X connect 73 0 79 0;
#X connect 79 0 78 0;
#X connect 73 1 74 0;
#X connect 74 0 75 0;
#X connect 75 0 77 0;
#X connect 75 0 76 0;
#X connect 76 0 75 1;
#X connect 77 0 74 1;
#X connect 75 0 78 0;
