#N canvas 0 22 450 300 12;
#N canvas 0 22 450 300 subcanvas1 0;
#X obj 12 36 -> 'hello from subcanvas1';
#X obj 12 60 outlet;
#X text 12 12 this is a comment inside subcanvas1;
#X connect 0 0 1 0;
#X connect 0 0 1 0;
#X restore 12 84 pd subcanvas1;
#X obj 12 108 print ;
#N canvas 0 22 450 300 subcanvas2 0;
#N canvas 0 22 450 300 subsub1 0;
#X obj 12 36 -> 'hello from subsub1';
#N canvas 0 22 450 300 subsubsub1 0;
#X obj 12 36 -> 'hello from subsubsub1';
#X obj 12 60 outlet;
#X text 12 12 this is a comment inside subcanvas2-subsub1-subsubsub1;
#X connect 0 0 1 0;
#X connect 0 0 1 0;
#X restore 12 84 pd subsubsub1;
#X obj 12 60 outlet;
#X text 12 12 this is a comment inside subcanvas2 and subsub1;
#X connect 0 0 1 0;
#X connect 1 0 2 0;
#X restore 12 84 pd subsub1;
#X obj 12 36 -> 'hello from subcanvas2';
#X obj 12 84 outlet;
#X text 12 12 this is another comment inside subcanvas2;
#X text 12 60 canvases pipe the last output to their outlet;
#X connect 1 0 2 0;
#X connect 1 0 2 0;
#X restore 12 108 pd subcanvas2;
#X obj 12 132 print ;
#X text 12 12 **********************************************************;
#X text 12 36 * Main *;
#X text 12 60 **********************************************************;
#X text 12 84 this is a comment on the root canvas;
#X connect 1 0 2 0;
