#N canvas 0 22 450 300 12;
#X obj 12 84 loadbang;
#X msg 12 108 2048;
#X msg 12 132 1;
#X msg 12 156 sinesum;
#X obj 12 180 array define -k mytab;
#X msg 12 204 2051;
#N canvas 0 22 450 300 (subpatch) 0;
#N canvas 0 22 450 300 (subpatch) 0;
#X obj 12 60 phasor~;
#X obj 12 84 *~;
#X obj 12 108 +~;
#X obj 12 156 tabread4~ \mytab;
#X obj 12 180 *~ 0.03;
#X obj 12 204 dac~;
#X text 12 12 # nesting stuff:;
#X text 12 36 # the output of this (canvas) is fed into the +~ symbol;
#X text 12 132 canvases pipe the last output forward;
#X connect 0 0 1 0;
#X connect 1 0 2 0;
#X connect 2 0 2 0;
#X connect 4 0 5 0;
#X text 12 12 **********************************************************;
#X text 12 36 * Reading from a table *;
#X text 12 60 **********************************************************;
#X connect 1 0 2 0;
#X connect 3 0 4 0;
