#N canvas 0 22 450 300 12;
#X obj 12 84 -> sinesum 2048 1 > \mytab 2051;
#N canvas 0 22 450 300 (subpatch) 0;
#N canvas 0 22 450 300 (subpatch) 0;
#X obj 12 60 phasor~ 333;
#X obj 12 84 *~ 2051;
#X obj 12 108 outlet;
#X text 12 12 nesting stuff:;
#X text 12 36 the output of this (canvas) is fed into the +~ symbol;
#X connect 0 0 1 0;
#X connect 1 0 2 0;
#X connect 1 0 2 0;
#X restore 12 132 pd (subpatch);
#X obj 12 12 +~ 1;
#X obj 12 60 outlet;
#X text 12 36 canvases pipe the last output forward;
#X connect 1 0 2 0;
#X connect 1 0 2 0;
#X restore 12 84 pd (subpatch);
#X obj 12 108 tabread4~ ;
#X obj 12 132 array define -k mytab;
#X obj 12 156 *~ ;
#X obj 12 180 dac~;
#X text 12 12 **********************************************************;
#X text 12 36 * Reading from a table *;
#X text 12 60 **********************************************************;
#X connect 0 0 1 0;
#X connect 4 0 5 0;
