#N canvas 0 22 450 300 12;
#X obj 12 108 array define -k my_Tab;
#X obj 12 156 array define -k my_Tab.size;
#X obj 12 228 array define -k my_Tab.get;
#X text 12 12 **********************************************************;
#X text 12 36 * Loading Abstractions *;
#X text 12 60 **********************************************************;
#X text 12 84 fill a table;
#X text 12 132 the .size() method gets the table size;
#X text 12 180 import the count.pdpy abstraction;
#X text 12 204 the .get() method gets values starting the given index (defualt is 1);
#X connect 0 0 1 0;
#X connect 1 0 2 0;
