#N canvas 0 22 450 9830400 12;
#X obj 10 10 harmonics ;
#X obj 10 43 = ;
#X obj 10 109 [];
#X obj 10 241 for ;
#X obj 20 505 x ;
#X obj 40 1033 in ;
#X obj 80 2089 range(0;
#X obj 160 4201 myosc ;
#X obj 320 8425 = ;
#X obj 640 300 osc~ <;
#X obj 1280 600 mtof ;
#X msg 2560 1200 60;
#X obj 5120 2400 + ;
#X obj 10240 4800 x;
#X obj 20480 9600 myosc.phase ;
#X obj 40960 19200 = ;
#X obj 81920 38400 random 100;
#X obj 163840 76800 / ;
#X msg 327680 153600 100;
#X obj 655360 307200 harmonics.append(myosc ;
#X obj 1310720 614400 * ;
#X obj 2621440 1228800 0.25);
#X obj 5242880 2457600 harmonics.sum();
#X text 10485760 4915200 ~ osc~ 440 /~ 2 > dac~;
#X connect 0 0 1 0;
#X connect 1 0 2 0;
#X connect 2 0 3 0;
#X connect 3 0 4 0;
#X connect 4 0 5 0;
#X connect 5 0 6 0;
#X connect 13 0 14 0;
#X connect 14 0 15 0;
#X connect 15 0 16 0;
#X connect 16 0 17 0;
#X connect 18 0 19 0;
#X connect 19 0 20 0;
#X connect 20 0 21 0;
#X connect 21 0 22 0;
