#N canvas 0 22 450 300 12;
#X text 12 12 **********************************************************;
#X text 12 36 * Pythonic stuff *;
#X text 12 60 **********************************************************;
#X text 12 84 ~ osc~ 440 /~ 2 > dac~;
