#N canvas 0 22 450 300 12;
#X obj 12 84 osc~ 440;
#X obj 12 108 *~ 0.1;
#X text 12 12 **********************************************************;
#X text 12 36 * Connected expressions *;
#X text 12 60 **********************************************************;
#X connect 0 0 1 0;
