#N canvas 556 52 450 300 12;
#X text 43 25 first;
#X text 59 59 second;
#X text 87 91 third;
#X text 119 127 fourth;
#X floatatom 183 160 5 0 0 0 - - - 0;
#X obj 183 183 print;
#X symbolatom 259 229 10 1 2 0 label_symbol receive_symbol send_symbol
16;
#X connect 4 0 5 0;
