#N canvas 528 54 450 300 12;
#X text 76 19 Subpatch tests;
#N canvas 0 22 450 300 sub-1 0;
#X text 30 29 sub1;
#X obj 99 209 outlet;
#X obj 326 226 outlet;
#X coords -2 -1 1 2 85 60 2 100 100;
#X restore 78 55 pd sub-1;
#N canvas 0 22 450 300 sub-2 0;
#X text 103 121 inside subpatch 2;
#X obj 116 181 outlet;
#X coords 0 300 1 299 139 64 0;
#X restore 78 121 pd sub-2;
#N canvas 803 91 302 440 sub-3 0;
#X text 27 28 Tall non-gop;
#X floatatom 95 93 5 0 0 0 - - -;
#X obj 95 116 print;
#X obj 94 66 inlet;
#X connect 1 0 2 0;
#X restore 78 146 pd sub-3;
#N canvas 0 22 450 300 sub-4 0;
#X text 38 42 fourth;
#X obj 195 102 inlet;
#X obj 344 99 inlet;
#X coords 0 -1 1 1 121 107 2 23 25;
#X restore 78 171 pd sub-4;
#X connect 1 1 4 1;
#X connect 2 0 3 0;
#X coords 0 300 1 299 85 60 0;
