#N canvas 0 22 450 300 12;
#X msg 76 35 hello world;
#X obj 76 59 print;
#N canvas 0 22 450 300 nested 0;
#X msg 86 78 hello world;
#N canvas 0 22 450 300 another 0;
#X msg 98 52 1 2 3 4;
#X obj 98 158 pack f f f f;
#X obj 98 182 print;
#X text 232 103 we have some comments \, too;
#X obj 97 104 unpack f f f f;
#X text 107 236 this prints 2 3 4 0 first \, then 2 3 4 1;
#X connect 0 0 4 0;
#X connect 1 0 2 0;
#X connect 4 0 1 3;
#X connect 4 1 1 0;
#X connect 4 2 1 1;
#X connect 4 3 1 2;
#X restore 225 121 pd another nested patch;
#X obj 86 202 outlet;
#X obj 86 27 inlet;
#X text 232 15 we have a comment;
#X obj 263 169 sig~ 449;
#X obj 263 193 outlet~;
#X connect 0 0 2 0;
#X connect 3 0 0 0;
#X connect 5 0 6 0;
#X restore 257 146 pd nested patch;
#X obj 257 207 osc~ 440;
#X connect 0 0 1 0;
#X connect 2 1 3 0;
