#N canvas 632 70 832 389 12;
#X obj 149 352 dac~;
#X obj 388 239 hsl 128 15 -100 12 0 0 empty empty empty -2 -8 0 10
#fcfcfc #000000 #000000 0 1;
#X obj 154 300 *~;
#X obj 149 328 clip~ -1 1;
#X obj 385 269 fd_gain~ 23;
#X obj 228 327 clip~ -1 1;
#X obj 221 301 *~;
#X obj 650 131 array define line 2051;
#X obj 556 122 fd_iterate;
#X obj 556 146 t f f;
#X obj 556 170 / 2051;
#X obj 553 263 array set line;
#X obj 56 114 phasor~;
#X obj 56 138 *~ 2048;
#X obj 56 162 +~ 1;
#X obj 59 191 tabread4~ line;
#X floatatom 85 87 5 0 0 0 - - -;
#X msg 389 192 0;
#X obj 548 13 r line-size;
#X msg 655 102 resize \$1;
#X obj 553 62 t f f f;
#X obj 127 123 r line-size;
#X obj 663 179 loadbang;
#X msg 679 260 \; line-size 8192;
#X obj 550 38 + 3;
#X msg 676 215 \; line-size 2048;
#X obj 40 35 phasor~ 0.5;
#X obj 41 84 +~ 8;
#X msg 677 299 \; line-size 16384;
#X obj 554 206 - 0.5;
#X obj 553 235 * 2;
#X obj 40 59 *~ 16384;
#X floatatom 44 10 5 0 0 0 - - -;
#X obj 40 267 *~;
#X obj 106 249 *~;
#X obj 70 236 tgl 15 0 empty empty empty 17 7 0 10 #fcfcfc #000000
#000000 0 1;
#X obj 135 227 tgl 15 0 empty empty empty 17 7 0 10 #fcfcfc #000000
#000000 0 1;
#X obj 246 135 *~ 2048;
#X obj 246 159 +~ 1;
#X obj 249 188 tabread4~ line;
#X floatatom 248 84 5 0 0 0 - - -;
#X obj 304 134 r line-size;
#X obj 246 111 ophasor~;
#X obj 202 247 *~;
#X obj 231 225 tgl 15 0 empty empty empty 17 7 0 10 #fcfcfc #000000
#000000 0 1;
#X obj 22 233 cos~;
#X obj 248 60 line;
#X msg 230 39 0;
#X msg 295 35 22050 10000;
#X floatatom 408 123 5 0 0 0 - - -;
#X obj 406 150 ophasor~;
#X obj 408 99 line;
#X msg 390 78 0;
#X msg 455 74 22050 10000;
#X obj 287 252 *~;
#X obj 316 229 tgl 15 0 empty empty empty 17 7 0 10 #fcfcfc #000000
#000000 0 1;
#X connect 1 0 4 0;
#X connect 2 0 3 0;
#X connect 3 0 0 0;
#X connect 4 0 2 1;
#X connect 4 0 6 1;
#X connect 5 0 0 1;
#X connect 6 0 5 0;
#X connect 8 0 9 0;
#X connect 9 0 10 0;
#X connect 9 1 11 1;
#X connect 10 0 29 0;
#X connect 12 0 13 0;
#X connect 13 0 14 0;
#X connect 14 0 15 0;
#X connect 15 0 34 0;
#X connect 15 0 45 0;
#X connect 16 0 12 0;
#X connect 17 0 1 0;
#X connect 18 0 24 0;
#X connect 19 0 7 0;
#X connect 20 0 8 0;
#X connect 20 1 10 1;
#X connect 20 2 19 0;
#X connect 21 0 13 1;
#X connect 22 0 25 0;
#X connect 24 0 20 0;
#X connect 26 0 31 0;
#X connect 27 0 12 0;
#X connect 29 0 30 0;
#X connect 30 0 11 0;
#X connect 31 0 27 0;
#X connect 32 0 26 0;
#X connect 33 0 2 0;
#X connect 33 0 6 0;
#X connect 34 0 2 0;
#X connect 34 0 6 0;
#X connect 35 0 33 1;
#X connect 36 0 34 1;
#X connect 37 0 38 0;
#X connect 38 0 39 0;
#X connect 39 0 43 0;
#X connect 40 0 42 0;
#X connect 41 0 37 1;
#X connect 42 0 37 0;
#X connect 43 0 2 0;
#X connect 43 0 6 0;
#X connect 44 0 43 1;
#X connect 45 0 33 0;
#X connect 46 0 40 0;
#X connect 47 0 46 0;
#X connect 48 0 46 0;
#X connect 49 0 50 0;
#X connect 50 0 54 0;
#X connect 51 0 49 0;
#X connect 52 0 51 0;
#X connect 53 0 51 0;
#X connect 54 0 6 0;
#X connect 54 0 2 0;
#X connect 55 0 54 1;
